<?xml version="1.0" encoding="UTF-8"?>
<svg id="Layer_1" xmlns="http://www.w3.org/2000/svg" version="1.1" viewBox="0 0 4000 300">
  <!-- Generator: Adobe Illustrator 29.5.0, SVG Export Plug-In . SVG Version: 2.1.0 Build 137)  -->
  <defs>
    <style>
      .st0 {
        fill: #f5f6f9;
      }

      .st1 {
        fill: #345798;
      }

      .st2 {
        fill: #fcfcfc;
      }

      .st3 {
        fill: #3b965b;
      }

      .st4 {
        fill: #020202;
      }

      .st5 {
        fill: #365487;
      }

      .st6 {
        fill: #f9fafc;
      }

      .st7 {
        fill: #050505;
      }

      .st8 {
        fill: #060606;
      }

      .st9 {
        fill: #355898;
      }

      .st10 {
        fill: #319053;
      }

      .st11 {
        fill: #335797;
      }

      .st12 {
        fill: #329153;
      }

      .st13 {
        fill: #030303;
      }

      .st14 {
        fill: #375999;
      }

      .st15 {
        fill: #fcfcfd;
      }

      .st16 {
        fill: #385a99;
      }

      .st17 {
        fill: #56a472;
      }

      .st18 {
        fill: #325084;
      }

      .st19 {
        fill: #479c65;
      }

      .st20 {
        fill: #305495;
      }

      .st21 {
        fill: #fbfbfc;
      }

      .st22 {
        fill: #040404;
      }

      .st23 {
        fill: #2b4a81;
      }

      .st24 {
        fill: #fcfdfd;
      }

      .st25 {
        fill: #fdfdfd;
      }
    </style>
  </defs>
  <path class="st25" d="M4000,0v300H0V0h4000ZM470.15,17.2c3.64.39,7.21.41,11.21,1,45.78,6.69,80.97,24.88,87.56,45.56l14.15-2.35c-7.88-25.14-56.67-46.49-114.05-51.55-53.58-4.73-109.23,4.21-142.74,22.58-59.06,32.4-35.63,79.38,48.09,98.6l.55-2.01c.27.07.86-.07,1.18,0,.51.12.98,1.08,2.35,1.01-.43-3.58,1.65-6.71,1.02-10.3-.43-2.47-2.86-5.22-3.37-7.67-4.94-25.62,31.59-41.93,76.97-55.39,2.16-.35,2.23.74,1.69,1.23-.43.42-13.33,5.14-15.83,6.33-9.33,4.46-20.42,10.64-26.1,16.1-1.02.96-3.37,2.62-2.12,3.65,24.65-11.64,60.24-15.59,95.36-17.64,3.25-.19,18.58-.27,19.2-1.37.31-.57-6.94-9.7-8.15-11.1-11.37-13.18-29.47-24.95-47.03-36.67l.08-.02ZM876.86,74.88h36.45c.55-1.49-.78-.83-2.74-1.08-8.82-1.13-13.29-.95-10.86-6.03.27-.61,5.37-5.83,5.92-6.05,1.14-.51,2.08-.44,3.49-.52,6.94-.35,26.1-.35,33.04,0,2.16.1,2.51.05,3.92.84,1.25.69,8.43,8.28,8.43,9.07,0,2.74-6.98,2.47-11.25,2.79-1.96.15-2-.3-1.76,1h54.09c.31-1.54-5.21-1.23-8.15-2.31-1.65-.61-3.02-1.89-4.23-2.74-17.44-12.35-27.47-29.93-44.01-42.77-.74-.56-.86-1.37-2.98-1.25l-43.9,41.82c-4.86,3.9-5.84,3.89-13.99,6.11-1.18.32-2.08-.05-1.53,1.13l.08-.02ZM1153.09,25.79c-5.92-.52-4.31,3.31-10.03,3.55-4.15.17-20.03-3.04-27.32-3.41-47.07-2.33-84.54,17.58-63.96,36.64,14.93,13.82,64.86,17.72,91.79,8.46,5.92-2.03,8.43-3.28,7.13-6.79-13.91,6.35-31.2,11-52.01,7.47-25-4.22-26.49-24.43-17.13-33.46,12.03-11.6,47.78-12.82,62.32-1.67,2.74,2.09,3.61,6.13,9.21,5.9v-16.69.02ZM1216.3,25.95c-68.67,3.53-64.35,53.16,19.64,49.93,56.05-2.15,71.21-35.59,23.71-47.13-12.7-3.09-29.04-3.55-43.35-2.8ZM1302.37,57.67v18.21c4.9.51,3.45-1.39,6.43-2.53,6.62-2.57,18.77,2.03,27.16,2.5,27.04,1.55,54.56-8.26,42.48-20.32-9.56-9.59-49.34-11.55-56.59-18.14-5.33-4.85,3.88-8.89,15.13-9.09,17.24-.3,31.04,6.49,33.39,13.4l3.64.3-1.18-16.18c-4.82-.07-2.04,3.33-7.68,3.55-3.1.12-15.99-3.16-22.42-3.5-37.31-1.94-56.48,15.57-23.63,25.86,12.15,3.8,56.79,9.46,39.11,18.61-17.68,9.16-53.15-2.87-52.36-12.67h-3.53.04ZM1613.87,42.5v-16.69h-3.49c-1.61,6.35-14.89,2.13-23.28,1.15-86.54-10.03-111.86,45.66-26.69,48.92,15.72.61,38.49-1.22,49.38-6.55,2.86-1.39,1.57-2.85,1.72-4.56l-16.85,5.64c-43.78,8.99-60.91-7.69-57.06-24.05,4.94-21.05,58.98-24.19,72.62-4.16,0,0,3.64.3,3.64.3ZM1756.1,74.88h37.62c.55-1.45-.71-.84-2.7-1.08-5.53-.66-11.44-.08-12.35-3.36-.74-2.8,4.94-6.5,7.02-9.14h39.62c1.49,3.26,10.35,7.92,8.43,11.22-.24.39-4.47,1.13-5.6,1.23-2.94.29-8.31-.56-7.37,1.13h54.09c.86-1.66-4.55-1.08-6.47-2.03-21.05-13.77-31.2-30.61-48.91-45.22-.86-.73-1.61-1.86-3.96-1.84l-46.21,43.87c-2.55,2.31-7.37,2.91-11.64,4.07-1.18.32-2.08-.05-1.53,1.13l-.04.02ZM2032.33,42.5v-16.69h-3.49c-1.61,6.35-14.89,2.13-23.28,1.15-86.54-10.03-111.86,45.66-26.69,48.92,15.72.61,38.49-1.22,49.38-6.55,2.86-1.39,1.57-2.85,1.72-4.56l-16.85,5.64c-43.78,8.99-60.91-7.69-57.06-24.05,4.94-21.05,58.98-24.19,72.62-4.16,0,0,3.64.3,3.64.3ZM2095.55,25.95c-67.22,3.46-64.79,52.97,19.64,49.93,47.66-1.72,69.02-27.18,38.17-42.21-14.78-7.2-36.33-8.82-57.81-7.72ZM3193.65,25.79c-5.92-.52-4.31,3.31-10.03,3.55-4.15.17-20.03-3.04-27.32-3.41-47.07-2.33-84.54,17.58-63.96,36.64,14.93,13.82,64.86,17.72,91.79,8.46,5.92-2.03,8.43-3.28,7.13-6.79-13.91,6.35-31.2,11-52.01,7.47-25-4.22-26.49-24.43-17.13-33.46,12.03-11.6,47.78-12.82,62.32-1.67,2.74,2.09,3.61,6.13,9.21,5.9v-16.69.02ZM3692.02,25.79c-5.92-.52-4.31,3.31-10.03,3.55-4.15.17-20.03-3.04-27.32-3.41-47.07-2.33-84.54,17.58-63.96,36.64,14.93,13.82,64.86,17.72,91.79,8.46,5.92-2.03,8.43-3.28,7.13-6.79-13.91,6.35-31.2,11-52.01,7.47-25-4.22-26.49-24.43-17.13-33.46,12.03-11.6,47.78-12.82,62.32-1.67,2.74,2.09,3.61,6.13,9.21,5.9v-16.69.02ZM825.16,26.81h-59.96c-.86,1.64,5.8.9,9.21,1.35,7.29.96,6.9,4.73,7.29,7.48,1.29,8.82,1.45,22.13,0,30.91-.39,2.38-.63,5.98-6.23,6.93-4,.68-10.86-.39-10.27,1.4h99.9l3.53-17.2h-3.49c-3.53,6.89-10.7,13.38-28.85,14.16-6.15.27-24.97.83-27.08-1.99l-.43-38.7c.82-2.25,4.19-2.91,8.86-3.28,2.82-.22,8.5.68,7.52-1.06ZM1484.58,26.81h-94.02c-.98,1.69,4.47.84,7.37,1.13,5.02.51,7.8,1.52,8.82,3.8-.98,11.66,2.27,24.29.31,35.83-.47,2.85-.78,5.27-8.19,6.08-3.14.34-9.25-.42-8.31,1.23h97.55l4.7-15.17-3.61.3c-4.39,7.25-15.99,11.66-33.43,12.35-4.23.17-21.71.42-21.71-2.26v-18.46c16.5-.51,21.91,5.69,23.52,11.64h3.49v-25.79h-3.49c-1.76,6.18-6.27,12.23-23.52,11.64v-19.22h22.93c.51,0,6.19.73,7.29.91,10.74,1.71,15.91,6,16.81,10.73h3.53v-14.68l-.04-.05ZM1685.56,26.81h-58.79c-.94,1.72,4.43.79,7.37,1.13,3.61.41,7.49,1.42,7.84,3.21-1.84,12.36,2.7,26.25.12,38.45-.55,2.6-1.92,3.53-7.96,4.16-2.9.3-8.31-.57-7.37,1.13h58.79c.98-1.69-4.47-.84-7.37-1.13-4.55-.46-9.09-2.01-9.09-4.19v-17.96h39.98v17.96c0,2.16-4.55,3.72-9.09,4.19-2.9.29-8.31-.56-7.37,1.13h58.79c.94-1.72-4.43-.79-7.37-1.13-3.61-.41-7.49-1.42-7.84-3.21,1.88-12.36-2.74-26.27-.12-38.45.51-2.45,2.12-3.51,7.96-4.16,2.94-.32,8.31.59,7.37-1.13h-58.79c-.98,1.69,4.47.84,7.37,1.13,3.72.37,9.09,1.91,9.09,3.68v16.94h-39.98v-16.44c0-2.16,4.55-3.72,9.09-4.19,2.9-.29,8.31.56,7.37-1.13ZM2222.14,26.81h-45.27c-.94,1.74,4.47.79,7.41,1.11,6.98.78,7.52,2.47,7.96,5.19,1.76,11.66-1.33,24.16-.16,35.9l-3.33,3.11-11.84,2.75h37.62c.59-1.55-.98-.79-2.86-1.01-3.06-.37-12.38-1.52-12.38-3.28v-38.19l42.21,42.2,3.06.3,42.92-43.01v37.69c0,1.59-4.12,3.82-7.88,4.19-3.1.3-9.52-.64-8.58,1.11h58.79c.94-1.72-4.43-.79-7.37-1.13-3.61-.41-7.49-1.42-7.84-3.21,1.84-12.36-2.7-26.25-.12-38.45.55-2.6,1.92-3.53,7.96-4.16,2.9-.3,8.31.57,7.37-1.13h-45.86l-29.98,31.37-31.75-31.37-.08.02ZM2382.6,26.81h-47.03c-.94,1.66,5.17.9,8.31,1.23,7.41.81,7.72,3.23,8.19,6.08,1.84,11.1-1.41,23.18-.16,34.38-1.57,4.16-5.37,4.41-13.48,5.35-1.92.22-3.45-.54-2.86,1.01h38.8c.59-1.55-.98-.79-2.86-1.01-3.21-.37-6.86-.44-9.52-1.49-1.1-.44-4.08-2.89-4.08-3.31v-36.67l44.09,42.5,44.05-42.5v38.7c0,2.5-9.95,2.57-13.52,2.79-2.08.14-1.96-.25-1.76,1h58.79c.98-1.69-4.47-.84-7.37-1.13-5.41-.56-7.45-1.27-8-3.65-2.78-12.25,2.16-26.49.16-38.95,1.45-3.46,7.45-2.96,13.44-3.33,2.08-.14,1.96.25,1.76-1h-45.27l-31.71,30.86-29.98-30.86h0ZM2554.22,26.81h-57.61c-.24,1.3-.2.84,1.76,1,5.25.39,10.31.03,12.07,2.91,3.64,10.12-6.27,29.93,5.92,38.43,14.11,9.85,63.3,8.94,75.29-1.67,3.84-3.4,4.43-9.71,4.82-13.6.82-7.53-.78-15.12.27-22.65,1.25-1.71,4-2.72,7.88-3.18,2.9-.34,8.07.39,7.13-1.23h-38.8c-.59,1.55.98.79,2.86,1.01,5.13.61,10.46.71,12.15,3.4-1.18,9.66,2.43,20.74.24,30.24-1.45,6.3-10.97,11.28-26.42,11.42-17.4.15-22.89-4.19-24.1-10.91-1.33-7.31-1.88-22.65.27-29.71.71-2.38,1.84-3.8,7.6-4.31,3.1-.27,9.48.59,8.54-1.13h.12ZM2711.74,55.64l-54.67-28.83h-40.56c-.59,1.52.94.79,2.74,1.06,6.23.91,13.25,2.65,13.76,5.73-2.67,11.15,3.37,25.12-.16,35.91-1.18,3.61-6.9,3.6-13.52,4.32-1.96.22-3.41-.51-2.86,1.03h39.98c.59-1.55-.98-.79-2.86-1.01-4.66-.54-13.56-1.49-13.56-4.29v-33.14l74.58,38.97,4.15.49V31.6c0-.12,2.39-2.01,2.67-2.15,3.02-1.3,11.6-.69,11.44-2.67h-37.62c-.59,1.55.98.79,2.86,1.01,3.21.37,6.86.44,9.52,1.49,1.1.44,4.08,2.89,4.08,3.31v23.02l.04.02ZM2798.71,26.81h-58.79c-.94,1.66,5.17.88,8.31,1.23,5.84.64,7.33,2.23,8,4.65,2.35,8.34,1.65,26.22.2,34.86-.43,2.52-1.1,5.52-7.96,6.2-3.1.3-9.52-.64-8.58,1.11h58.79c.94-1.72-4.43-.79-7.37-1.13-3.61-.41-7.49-1.42-7.84-3.21,1.84-12.36-2.7-26.25-.12-38.45.55-2.6,1.92-3.53,7.96-4.16,2.9-.3,8.31.57,7.37-1.13l.04.02ZM2910.37,26.81h-101.08v13.16h3.53c.39-8.11,15.68-11.18,32.92-10.12v40.73c0,1.64-5.49,2.94-8.9,3.26-2.82.27-8.5-.74-7.56,1.05h58.79c.94-1.72-4.43-.79-7.37-1.13-3.14-.35-7.92-1.64-7.92-3.18V29.85c18.38-1.13,30.26,1.91,33.98,9.81l3.64.3v-13.16h-.04ZM2971.51,26.81h-54.09c-.59,1.45.86.83,2.59,1.13,8,1.47,8.62,2.43,13.17,5.47,10.93,7.3,19.2,16.11,29.79,23.6,1.02,2.13.86,12.23-.82,14.09-2.82,3.09-8.98,2.43-14.78,2.75-2.16.12-1.92-.19-1.76,1.01h62.32c.16-1.17.43-.91-1.72-1.01-5.09-.25-12.15.41-14.85-2.23-1.65-1.62-1.8-14.54-.78-16.64.9-1.88,26.69-19.97,31-22.58,1.45-.88,3.96-2.5,5.72-3.09,3.17-1.08,9.09-.86,8.86-2.52h-34.1c-.59,1.52.9.79,2.74,1.06,6,.86,10.46.56,8.74,4.12l-26.22,19.59c-1.92.12-2.35-.64-3.17-1.17-6.04-3.94-15.72-11.67-20.38-16.01-2.31-2.15-7.56-5.74.31-6.49,2.9-.27,8.35.56,7.37-1.13l.08.03ZM3264.2,26.81h-58.79c-.16,1.18-.39.9,1.76,1.01,7.25.37,12.27-.07,14.66,3.82-1.8,12.04,2.63,25.57.12,37.43-.51,2.47-2.04,4.12-7.96,4.66-3.1.29-9.48-.59-8.54,1.13h58.79c.94-1.71-4.43-.83-7.37-1.13-2.27-.24-7.92-1.62-7.92-2.67v-19.48h38.8v19.48c0,2.5-9.95,2.57-13.52,2.79-2.08.14-1.96-.25-1.76,1h58.79c.2-1.25.31-.88-1.76-1-5.29-.32-11.44.1-13.48-2.8l.59-41.22c1.72-1.11,4.35-1.6,7.29-1.91s8.31.57,7.37-1.13h-58.79c-.2,1.25-.31.88,1.76,1,2.67.17,13.52.46,13.52,2.28v18.46h-38.8v-17.96c0-1.05,5.6-2.43,7.92-2.67,2.94-.3,8.31.57,7.37-1.13l-.04.03ZM3395.85,26.81h-57.61c-.24,1.3-.2.84,1.76,1,5.25.39,10.31.03,12.07,2.91,3.64,10.12-6.27,29.93,5.92,38.43,14.11,9.85,63.3,8.94,75.29-1.67,3.84-3.4,4.43-9.71,4.82-13.6.82-7.53-.78-15.12.27-22.65,1.25-1.71,4-2.72,7.88-3.18,2.9-.34,8.07.39,7.13-1.23h-38.8c-.59,1.55.98.79,2.86,1.01,5.13.61,10.46.71,12.15,3.4-1.18,9.66,2.43,20.74.24,30.24-1.45,6.3-10.97,11.28-26.42,11.42-17.4.15-22.89-4.19-24.1-10.91-1.33-7.31-1.88-22.65.27-29.71.71-2.38,1.84-3.8,7.6-4.31,3.1-.27,9.48.59,8.54-1.13h.12ZM3528.08,26.81c-21.87-.86-46.6.64-68.74,0-.2,1.25-.31.88,1.76,1,6,.37,11.99-.14,13.44,3.33-1.84,12.38,2.7,26.25.12,38.45-.55,2.6-1.92,3.53-7.96,4.16-2.9.3-8.31-.57-7.37,1.13h57.61c.24-1.3.2-.84-1.76-1-3.8-.29-13.52-.83-13.52-3.31v-17.45l6.23.1,36.1,21.66h36.45v-1.5c-5.09-.08-8.47-1.32-11.72-2.8-10.54-4.85-19.17-12.5-29.39-17.7-.43-1.13.47-.57,1.72-.74,11.56-1.6,20.73-4.76,21.83-10.35,1.88-9.59-14.5-14.14-34.72-14.95h-.08ZM3762.57,26.81h-58.79c-.16,1.18-.39.9,1.76,1.01,7.25.37,12.27-.07,14.66,3.82-1.8,12.04,2.63,25.57.12,37.43-.51,2.47-2.04,4.12-7.96,4.66-3.1.29-9.48-.59-8.54,1.13h58.79c.94-1.71-4.43-.83-7.37-1.13-2.27-.24-7.92-1.62-7.92-2.67v-19.48h38.8v19.48c0,2.5-9.95,2.57-13.52,2.79-2.08.14-1.96-.25-1.76,1h58.79c.2-1.25.31-.88-1.76-1-5.29-.32-11.44.1-13.48-2.8l.59-41.22c1.72-1.11,4.35-1.6,7.29-1.91s8.31.57,7.37-1.13h-58.79c-.2,1.25-.31.88,1.76,1,2.67.17,13.52.46,13.52,2.28v18.46h-38.8v-17.96c0-1.05,5.6-2.43,7.92-2.67,2.94-.3,8.31.57,7.37-1.13l-.04.03ZM618.26,55.15c-1.92-.2-2.7.17-4.15.49-13.09,3.02-23.52,6.99-38.53,9.71-31.35,5.68-58.32,5.52-90.38,8.16-55.5,4.54-95.32,23.97-87.91,48.92l17.6-9.86c29.67-12.06,59.34-10.22,93.16-15.54,9.45-1.49,22.65-5.88,29.94-6.84,1.8-.24,3.72-.14,5.6-.12,1.1.03.71.86.43,1.18s-9.05,4.59-10.39,5.15c-25,10.35-64.71,12.25-93.24,20.57-11.6,3.38-30.88,11-37.86,16.08-11.44,8.34-18.54,18.7-20.54,28.34l13.48-6.08c1.69-5.32,4.66-11,10.35-15.78,1.69-1.44,4.31-4.46,8.7-3.56,4.86.98,11.88,4.14,17.91,5.47,39.31,8.58,86.97-1.06,118.17-11.93,44.21-15.41,67.25-38.63,68.86-62.94l-1.25-11.4.04-.03ZM1219.83,117.25c-3.37,1.42-15.48-1.66-21.48-1.89-41.35-1.59-62.04,20.95-34.14,32.89,16.7,7.13,52.05,5.9,62.28-3.58.71-.66,1.84-1.67-1.1-1.49-9.29,6.13-22.85,8.77-39.66,6.44-31.39-4.39-26.65-36.96,18.85-31.89,11.72,1.3,12.93,4.83,17.79,8.53.9.69.98,1.47,3.57,1.23l-2.35-12.15c-3.61-.42-2.19,1.22-3.8,1.89l.04.02ZM1557.44,152.28h25.87c.59-1.45-.86-.83-2.59-1.13-2.51-.46-6.58-.54-6.74-2.13l7.56-8.38c.9-.51,2.19-.46,3.49-.52,5.57-.29,20.42-.29,25.98,0,2.16.1,2.51.05,3.92.84,1.21.68,7.21,7.35,7.13,8.07-.08.63-.71.86-1.65,1.27-3.02,1.25-7.96.27-7.68,1.99h34.1c.43-1.3-.24-.79-1.65-1.06-3.57-.68-7.33-.57-9.17-2.64l-33.27-33.24-2.94.35-32.69,32.89c-.82.63-1.76,1.25-3.14,1.69-2.59.81-7.21.47-6.51,2.01l-.04-.02ZM1656.2,140.64v12.15h3.45c0-4.09,13.56-.37,19.56-.03,18.77,1.01,36.53-3.77,31.71-12.64-4.08-7.52-44.29-10.39-45.31-16.94-.31-1.96,3.53-4.02,7.37-4.88,14.19-3.14,31.16,2.69,30.22,9.21h3.53v-12.15h-3.45c-.27,4.12-12.03.37-18.42.05-22.26-1.11-39.19,8.56-22.77,15.88,9.05,4.04,52.17,9.66,34.72,17.48-12.11,5.44-39.15-.32-37.08-8.12h-3.53,0ZM2023.83,117.25c-3.37,1.42-15.48-1.66-21.48-1.89-41.35-1.59-62.04,20.95-34.14,32.89,16.7,7.13,52.05,5.9,62.28-3.58.71-.66,1.84-1.67-1.1-1.49-9.29,6.13-22.85,8.77-39.66,6.44-31.39-4.39-26.65-36.96,18.85-31.89,11.72,1.3,12.93,4.83,17.79,8.53.9.69.98,1.47,3.57,1.23l-2.35-12.15c-3.61-.42-2.19,1.22-3.8,1.89l.04.02ZM2270.66,117.25c-3.37,1.42-15.48-1.66-21.48-1.89-41.35-1.59-62.04,20.95-34.14,32.89,16.7,7.13,52.05,5.9,62.28-3.58.71-.66,1.84-1.67-1.1-1.49-9.29,6.13-22.85,8.77-39.66,6.44-31.39-4.39-26.65-36.96,18.85-31.89,11.72,1.3,12.93,4.83,17.79,8.53.9.69.98,1.47,3.57,1.23l-2.35-12.15c-3.61-.42-2.19,1.22-3.8,1.89l.04.02ZM2764.33,115.47c-51.77,3.06-45.15,40.05,11.33,37.25,52.09-2.58,46.17-40.64-11.33-37.25ZM2958.3,115.47c-51.77,3.06-45.15,40.05,11.33,37.25,52.09-2.58,46.17-40.64-11.33-37.25ZM3243.9,115.47c-51.77,3.06-45.15,40.05,11.33,37.25,52.09-2.58,46.17-40.64-11.33-37.25ZM3388.79,152.28h25.87c.59-1.45-.86-.83-2.59-1.13-2.51-.46-6.58-.54-6.74-2.13l7.56-8.38c.9-.51,2.19-.46,3.49-.52,5.57-.29,20.42-.29,25.98,0,2.16.1,2.51.05,3.92.84,1.21.68,7.21,7.35,7.13,8.07-.08.63-.71.86-1.65,1.27-3.02,1.25-7.96.27-7.68,1.99h34.1c.43-1.3-.24-.79-1.65-1.06-3.57-.68-7.33-.57-9.17-2.64l-33.27-33.24-2.94.35-32.69,32.89c-.82.63-1.76,1.25-3.14,1.69-2.59.81-7.21.47-6.51,2.01l-.04-.02ZM1298.84,115.84h-64.67c-.63,1.74,4.94.68,8.66,1.57,1.57.39,2.82.9,3.06,1.72-1.57,9.24,2.16,19.78.08,28.85-.43,1.82-1.14,2.65-5.6,3.16-2.7.3-7.13-.56-6.23,1.11h65.84l5.88-9.1c-3.06-.3-2.04.39-3.02.96-4.27,2.5-6.47,5.17-14.54,5.9-4.51.41-20.97.57-25.32.22-1.29-.1-4.15-.88-4.15-1.25v-14.93h22.93c5.49,0,8.5,3.5,7.64,5.57h3.53v-12.65h-3.53c1.29,1.98-2.86,5.05-7.64,5.05h-22.93v-14.17h28.81c6.78,0,7.96,3.7,9.72,5.44.71.71.16.79,2.63.64l-1.18-8.09h.04ZM1350.58,115.84h-38.8c-.63,1.74,4.94.68,8.66,1.57,1.57.39,2.82.9,3.06,1.72-1.57,9.24,2.16,19.78.08,28.85-.43,1.82-1.14,2.65-5.6,3.16-2.7.3-7.13-.56-6.23,1.11h65.84l5.88-10.12c-4.08,1.4-5.02,3.99-8.78,5.59-7.72,3.31-26.06,2.62-36.21,2.01l-1.25-.61-.78-29.48c1.8-2.7,7.37-2.45,12.31-2.8,1.96-.15,2,.3,1.76-1l.08-.02ZM1424.61,115.84h-37.62c-.47,1.84,5.49.51,9.41,1.77,1.92.63,2.86,1.66,3.25,2.65,3.45,8.34-7.33,24.8,10.93,30.2,13.91,4.12,43.66,3.21,51.5-4.07s.35-19.26,3.68-26.74c.31-.74,2.63-1.98,4.04-2.31,3.68-.88,8.43.25,7.68-1.49h-30.57c-.47,1.84,5.49.51,9.41,1.77,1.92.63,2.86,1.66,3.25,2.65,1.69,4.09,1.06,18.99-1.18,23.02-4.82,8.56-38.45,10.37-44.76,1.3-2.78-4-3.45-20.12-1.69-24.32.39-.98,1.33-2.01,3.25-2.65,3.92-1.27,9.84.07,9.41-1.77v-.02ZM1519.85,115.84h-38.8c-.63,1.74,4.94.68,8.66,1.57,1.57.39,2.82.9,3.06,1.72-1.57,9.24,2.16,19.78.08,28.85-.43,1.82-1.14,2.65-5.6,3.16-2.7.3-7.13-.56-6.23,1.11h65.84l5.88-10.12c-4.08,1.4-5.02,3.99-8.78,5.59-7.72,3.31-26.06,2.62-36.21,2.01l-1.25-.61-.78-29.48c1.8-2.7,7.37-2.45,12.31-2.8,1.96-.15,2,.3,1.76-1l.08-.02ZM1752.58,152.28h47.62c5.21,0,17.99-2.57,22.3-4.05,27.67-9.63,14.81-32.36-23.48-32.36h-46.44c-.9,1.69,3.53.79,6.23,1.11,3.33.41,4.94,1.22,5.45,2.7-1.33,8.95,2,19,.12,27.82-.39,1.89-.86,3.09-5.6,3.67-2.7.32-7.13-.57-6.23,1.11h.04ZM1908.92,115.84h-64.67c-.63,1.74,4.94.68,8.66,1.57,1.57.39,2.82.9,3.06,1.72-1.57,9.24,2.16,19.78.08,28.85-.43,1.82-1.14,2.65-5.6,3.16-2.7.3-7.13-.56-6.23,1.11h65.84l5.88-9.1c-3.06-.3-2.04.39-3.02.96-4.27,2.5-6.47,5.17-14.54,5.9-4.51.41-20.97.57-25.32.22-1.29-.1-4.15-.88-4.15-1.25v-14.93h22.93c5.49,0,8.5,3.5,7.64,5.57h3.53v-12.65h-3.53c1.29,1.98-2.86,5.05-7.64,5.05h-22.93v-14.17h28.81c6.78,0,7.96,3.7,9.72,5.44.71.71.16.79,2.63.64l-1.18-8.09h.04ZM2121.65,151.27c-18.22-.61-26.69-10.84-37.43-16.01l-.2-1.18c21.87-.68,27.47-13.18,7.05-16.96-1.49-.27-9.01-1.27-9.99-1.27h-42.92c-.9,1.69,3.53.79,6.23,1.11,3.33.41,4.94,1.22,5.45,2.7-1.33,8.95,2,19,.12,27.82-.39,1.89-.86,3.09-5.6,3.67-2.7.32-7.13-.57-6.23,1.11h36.45c.47-1.86-5.53-.49-9.41-1.77-1.14-.39-3.53-2.06-3.53-2.53v-12.91l9.99.51,26.69,16.59c7.72.24,15.52.07,23.28.1,22.07.1,44.21-.1,66.27.03l6.58-9.14c-3.06-.3-2.04.39-3.02.96-4.27,2.5-6.47,5.17-14.54,5.9-4.51.41-20.97.57-25.32.22-1.29-.1-4.15-.88-4.15-1.25v-14.93h22.93c5.49,0,8.5,3.5,7.64,5.57h3.53v-12.65h-3.53c1.29,1.98-2.86,5.05-7.64,5.05h-22.93v-14.17h28.81c6.78,0,7.96,3.7,9.72,5.44.71.71.16.79,2.63.64l-1.18-8.09h-64.67c-.63,1.74,4.94.68,8.66,1.57,1.57.39,2.82.9,3.06,1.72l-.55,30.59c-2.9,1.67-7.96,1.66-12.35,1.52l.08.03ZM2321.5,115.84h-35.27c-.63,1.59,1.1.78,2.9,1,2.51.32,5.17.42,7.37,1.15.67.68,1.14,1.45,1.33,2.2,1.72,6.15,1.53,20.51.2,26.79-.35,1.55-1.69,3.61-5.6,4.17-2.7.39-7.13-.63-6.23,1.11h35.27c.63-1.59-1.1-.78-2.9-1-2.51-.32-5.17-.42-7.37-1.15-.67-.68-1.14-1.45-1.33-2.2-1.72-6.15-1.53-20.51-.2-26.79.35-1.55,1.69-3.61,5.6-4.17,2.7-.39,7.13.63,6.23-1.11ZM2350.26,115.84h-22.93c-.59,1.5.9.81,2.74,1.06,5.76.83,7.88.66,8.9,3.78,1.8,5.57,1.41,20.47.16,26.28-.27,1.27-.31,2.01-2.39,3.02l-9.45,2.26h29.39v-1.01c-2.59.49-11.76-.68-11.76-1.77v-26.55l30.34,28.18,3.17,1.17,32.33-29.34v26.55c0,1.1-9.17,2.26-11.76,1.77v1.01h36.45c.9-1.69-3.53-.79-6.23-1.11-3.33-.41-4.94-1.22-5.45-2.7,1.33-8.95-2-19-.12-27.82.39-1.89.86-3.09,5.6-3.67,2.7-.32,7.13.57,6.23-1.11h-24.69l-29.94,27.82-30.57-27.82h-.04ZM2476.62,115.84h-35.27c-.63,1.59,1.1.78,2.9,1,2.51.32,5.17.42,7.37,1.15.67.68,1.14,1.45,1.33,2.2,1.72,6.15,1.53,20.51.2,26.79-.35,1.55-1.69,3.61-5.6,4.17-2.7.39-7.13-.63-6.23,1.11h35.27c.63-1.59-1.1-.78-2.9-1-2.51-.32-5.17-.42-7.37-1.15-.67-.68-1.14-1.45-1.33-2.2-1.72-6.15-1.53-20.51-.2-26.79.35-1.55,1.69-3.61,5.6-4.17,2.7-.39,7.13.63,6.23-1.11ZM2547.17,115.84h-64.67c-.63,1.74,4.94.68,8.66,1.57,1.57.39,2.82.9,3.06,1.72-1.57,9.24,2.16,19.78.08,28.85-.43,1.82-1.14,2.65-5.6,3.16-2.7.3-7.13-.56-6.23,1.11h65.84l5.88-9.1c-3.06-.3-2.04.39-3.02.96-4.27,2.5-6.47,5.17-14.54,5.9-4.51.41-20.97.57-25.32.22-1.29-.1-4.15-.88-4.15-1.25v-14.93h22.93c5.49,0,8.5,3.5,7.64,5.57h3.53v-12.65h-3.53c1.29,1.98-2.86,5.05-7.64,5.05h-22.93v-14.17h28.81c6.78,0,7.96,3.7,9.72,5.44.71.71.16.79,2.63.64l-1.18-8.09h.04ZM2630.61,142.67c-8.58-2.2-48.25-26.81-52.32-26.81h-22.93c-.59,1.55.98.79,2.86,1.01,5.96.69,13.84,1.67,14.81,4.78,1.61,5.12,1.1,19.44-.2,24.75-.47,1.91-.94,3.95-5.68,4.65-3.02.44-8.03-.44-7.09,1.23h30.57c.9-1.69-3.49-.81-6.23-1.11-3.57-.41-6.7-2.18-6.7-3.68v-23.53l57.61,28.83v-31.62c0-.47,1.84-2.87,2.86-3.33,3.64-1.66,10.35-.03,10.07-1.99h-30.57c-.9,1.69,3.49.81,6.23,1.11,3.57.41,6.7,2.18,6.7,3.68v22.03ZM2723.5,115.84h-69.33l-1.18,8.6c4.08.12,3.17-2.62,5.33-4.02,4.59-3.02,16.74-2.55,24.06-2.55v30.61c0,2.28-7.25,3.21-11.76,2.79v1.01h35.27c.59-1.96-5.96-.35-9.37-1.77-1.49-.63-1.84-1.72-2.27-2.57v-29.22c1.33-1.71,15.91-.68,19.52.07,5.09,1.06,5.68,2.48,7.25,4.49.63.79-1.02,1.44,2.47,1.18v-8.61ZM2890.97,115.84c-12.46-.68-27.79.49-40.56,0-.59,1.96,5.96.35,9.37,1.77,1.37.57,2,1.76,2.27,2.57,1.88,5.69,1.45,21.33.16,27.3-.39,1.89-.86,3.09-5.6,3.67-2.7.32-7.13-.57-6.23,1.11h36.45c.67-1.93-5.13-.42-8.9-1.49-1.18-.34-4.04-2.36-4.04-2.82v-12.4c20.5,1.88,43.07-.49,39.98-11.4-1.21-4.29-13.6-7.84-22.93-8.33l.04.02ZM3055.54,115.84c-13.29-.68-29.32.51-42.92,0-.9,1.69,3.53.79,6.23,1.11,3.33.41,4.94,1.22,5.45,2.7-1.33,8.95,2,19,.12,27.82-.39,1.89-.86,3.09-5.6,3.67-2.7.32-7.13-.57-6.23,1.11h36.45c.47-1.86-5.53-.49-9.41-1.77-1.14-.39-3.53-2.06-3.53-2.53v-12.91l9.99.51,26.46,16.69h23.52c.59-1.44-.78-.83-2.59-1.15-7.96-1.35-9.01-1.28-15.09-4.16-7.33-3.48-12.74-8.11-19.75-11.74l-.2-1.18c28.3-1.98,25.36-16.77-2.94-18.21l.04.03ZM3199.53,115.84h-62.32l-1.18,9.1c3.25.24,2-.29,2.67-1.11,1.02-1.25,1.45-3.31,3.61-4.31.98-.44,7.37-1.67,8.47-1.67h31.16l-54.09,34.41h69.33l3.53-9.61c-3.02-.25-2.04.27-2.94.98-2,1.6-3.29,3.97-7.02,5.1-1.37.42-9.33,1.5-10.62,1.5h-34.69l54.09-34.41v.02ZM3368.8,142.67c-8.58-2.2-48.25-26.81-52.32-26.81h-22.93c-.59,1.55.98.79,2.86,1.01,5.96.69,13.84,1.67,14.81,4.78,1.61,5.12,1.1,19.44-.2,24.75-.47,1.91-.94,3.95-5.68,4.65-3.02.44-8.03-.44-7.09,1.23h30.57c.9-1.69-3.49-.81-6.23-1.11-3.57-.41-6.7-2.18-6.7-3.68v-23.53l57.61,28.83v-31.62c0-.47,1.84-2.87,2.86-3.33,3.64-1.66,10.35-.03,10.07-1.99h-30.57c-.9,1.69,3.49.81,6.23,1.11,3.57.41,6.7,2.18,6.7,3.68v22.03ZM403.17,128.51l-22.34-3.04c.31,2.5.43,4.34-2.35,6.57l17.6,2.53,7.09-6.06ZM319.73,180.1l-21.12-20.74-22.34,20.74c8.5.66,9.41-1.37,11.64-4.24l20.58-.34c3.17,2.72,2.31,5.49,11.29,4.58h-.04ZM630.02,180.1l-21.12-20.74-21.16,20.74c8,.64,8.9-2.11,11.29-4.58l20.58.34,3.57,4.17,6.86.08v-.02ZM375.97,160.95c-40.29-6.91-47.85,21.72-6.43,19.1,6.62-.42,7.21-1.11,6.58-3.99-14.97,2.8-28.81.29-27.08-7.36,1.25-5.64,17.13-7.26,27.08-4.27l-.16-3.48ZM401.72,160c-16.81.98-25.95,9.8-16.19,15.81,9.6,5.91,30.41,5.95,39.78-.08,11.6-7.48-3.17-16.91-23.59-15.71v-.02ZM447.54,159.97c-9.76.69-14.42,6.08-6.19,9,4.15,1.49,11.99,1.67,14.78,3.77,5.17,3.89-6.62,6.39-12.46,3.85-1.69-.73-1.76-2.23-3.57-2.52-8.82-1.33-5.45,5.32,6.11,5.98s20.62-2.52,17.87-7.69c-2.19-4.14-21.79-4.68-19.56-8.09s11.99.22,14.23.08c8.62-.52,1.96-3.21-3.17-4-2.98-.46-4.78-.61-8-.37l-.04-.02ZM538.19,160.95c-26.53-5.76-49.15,10.9-24.93,17.55,7.41,2.04,28.1,3.4,25.08-2.45-2.7-.27-4.27.83-6.51.98-28.06,1.98-27.71-14.24-4.62-14.19,4.82,0,6.9,1.25,11.13,1.55l-.16-3.48v.03ZM258.59,160.37l-7.05.76v18.21l1.76.76h19.4v-3.04h-14.11s0-16.69,0-16.69ZM498.37,160.37h-24.1l-1.76.76v18.21l1.76.76h24.1v-3.04h-17.64v-6.57h17.64v-2.53h-17.64v-4.56h17.64v-3.04.02ZM554.81,160.37h-7.05v19.73h7.05v-9.1h19.99v9.1h7.05v-19.73h-7.05v7.58h-19.99v-7.58ZM243.31,190.22c.71-4.36-14.42-3.94-20.58-2.03-17.28,5.35,1.45,16.72,20.42,11.57l.16-1.94c-3.72.1-5.96,1.52-9.95,1.54-17.01.07-16.97-11.82,2.23-10.63,3.45.22,4.55,1.42,7.72,1.5v-.02ZM263.02,186.81c-21.56.51-20.03,15.64,4.35,14,19.6-1.3,17.01-14.51-4.35-14ZM517.19,190.22c1.25-3.67-10.86-3.83-16.74-2.91-15.36,2.43-13.01,12.85,4.39,13.53,5.17.2,14.15-.15,12.35-3.04-6.51.86-9.25,2.45-16.34.71-11.25-2.75-6.27-10.73,8.62-9.8,3.45.22,4.55,1.42,7.72,1.5ZM632.37,190.22c1.33-3.51-9.8-3.8-15.56-2.91-18.03,2.84-12.38,15.15,9.99,13.4,3.96-.3,6.74-1.06,5.57-2.91-5.92,1.03-9.88,2.38-16.34.71-14.85-3.83,1.25-13.9,16.34-8.31v.02ZM317.34,200.84c1.1-.47-4.23-12.06-5.25-13.16s-1.21-.54-2.04.14c-.9.74-8.47,9.56-10.31,8.97-2.59-2.53-4.51-6.2-7.96-8.45-.74-.47.16-.91-2.63-.66l-5.33,12.65c1.69.91,2.98.57,3.88-.35,1.57-1.6,2.27-5.37,2.59-7.23,2.67-.2,1.88.05,2.63.64,2.04,1.62,3.61,4.49,5.88,6.06.9.63,1.1,1.06,3.25.88l8.23-8.09,3.53,8.26,3.53.34h0ZM337.33,196.79l-11.13-9.61-6.47,13.65,3.61-.29,3.45-8.29,9.99,8.6,8.23-7.58c2.63-.22,1.49.47,1.92,1.18.86,1.5,1.25,8.19,6.86,5.63-3.45-3.65-2.74-8.63-5.72-12.18-.59-.73.31-.84-2.47-.69l-8.27,9.61v-.02ZM362.02,187.18h-4.7v9.86c0,.3,3.61,2.67,4.74,3.02,6.15,1.94,19.95.41,19.95-3.02v-9.86h-4.7v10.37c0,1.84-15.29,2.4-15.29-.51v-9.86ZM411.41,196.79l-22.34-9.61v13.67l3.53-.76v-8.85l22.34,9.61v-13.67h-3.53v9.61ZM425.51,187.18h-3.53v13.16h3.53v-13.16ZM451.38,187.18h-21.16v1.52h8.23v11.64h3.53v-11.64h9.41v-1.52ZM474.86,187.18c-3.25-1.3-10.35,4.44-10.58,5.56l-7.21-4.97-4.51-.08c4.82,4.8,12.23,7.3,9.41,13.14,6-.3,2.67-4.31,4.08-6.59.71-1.18,10.35-6.47,8.86-7.06h-.04ZM523.06,187.18v13.16h3.53v-6.57h16.46v6.59h3.53v-13.16h-3.53v5.07h-15.79l-.67-5.07h-3.53v-.02ZM573.62,187.18v9.86c0,2.11-13.99,3.83-15.32-.47-.82-2.62.9-5.84-.12-8.55l-.94-.61-3.61-.22v9.86c0,3.55,15.48,5.29,21.2,2.55.78-.37,3.49-2.77,3.49-3.06v-9.36h-4.7v-.02ZM584.21,187.18v12.91c7.13,2.48,3.61-3.48,5.29-5.3,4.19,1.74,7.88,6.33,14.7,5.81l-10.58-6.06c6.9-.19,11.37-3.07,7.52-5.78s-10.97-1.28-16.93-1.57ZM638.25,187.18v12.91c7.68,2.94,3.53-5.32,4.7-5.83h14.62c2.04.12-1.18,6.23,2.47,6.57l2.94-.76v-12.91h-4.7v5.07h-14.62l-.67-5.07h-4.7l-.04.02ZM3997.65,299.49v-65l-1.76-.76H2.94l-1.76.76v65h3996.47Z"/>
  <path class="st10" d="M618.26,55.15l1.25,11.4c-1.61,24.32-24.65,47.55-68.86,62.94-31.16,10.86-78.86,20.51-118.17,11.93-6.07-1.33-13.09-4.49-17.91-5.47-4.43-.9-7.02,2.15-8.7,3.56-5.68,4.8-8.66,10.47-10.35,15.78l-13.48,6.08c2-9.65,9.09-20,20.54-28.34,6.98-5.08,26.26-12.7,37.86-16.08,28.57-8.33,68.23-10.22,93.24-20.57,1.33-.56,10.07-4.83,10.39-5.15s.71-1.15-.43-1.18c-1.84,0-3.76-.12-5.6.12-7.29.96-20.5,5.35-29.94,6.84-33.86,5.32-63.53,3.48-93.16,15.54l-17.6,9.86c-7.41-24.95,32.41-44.37,87.91-48.92,32.06-2.62,59.02-2.47,90.38-8.16,15.01-2.72,25.44-6.69,38.53-9.71,1.41-.32,2.23-.69,4.15-.49l-.04.03Z"/>
  <path d="M3997.65,299.49H1.18v-65l1.76-.76h3992.95l1.76.76v65ZM3992.95,235.74H5.88v63.24h3987.07v-63.24Z"/>
  <path class="st12" d="M470.15,17.2c17.56,11.72,35.67,23.5,47.03,36.67,1.21,1.42,8.47,10.54,8.15,11.1-.59,1.1-15.91,1.18-19.2,1.37-35.16,2.04-70.7,6-95.36,17.64-1.29-1.03,1.1-2.67,2.12-3.65,5.68-5.46,16.77-11.64,26.1-16.1,2.51-1.2,15.4-5.91,15.83-6.33.51-.51.47-1.59-1.69-1.23-45.42,13.46-81.95,29.76-76.97,55.39.47,2.45,2.94,5.19,3.37,7.67.63,3.6-1.45,6.72-1.02,10.3-1.37.08-1.8-.9-2.35-1.01l-14.31-10.3c-.55-.46-2.04-.73-2.16-.83-38.92-35.49,31.12-58.97,76.39-83.23,10.11-5.42,21.87-11.66,25.91-18.45,3.84.29,5.41.71,8.23,1.01l-.08-.02Z"/>
  <path class="st23" d="M374.96,129l-.55,2.01c-83.72-19.21-107.15-66.2-48.09-98.6,33.51-18.38,89.16-27.31,142.74-22.58,57.34,5.07,106.17,26.42,114.05,51.55l-14.15,2.35c-6.58-20.68-41.78-38.85-87.56-45.56-4-.59-7.56-.61-11.21-1-2.82-.3-4.39-.73-8.23-1.01-122.59-9.04-200.67,54.73-121.65,94.61,4.86,2.45,14.34,5.34,18.22,7.58,5.88,3.4,6.9,7.89,16.46,10.63l-.04.02Z"/>
  <path class="st13" d="M2382.6,26.81l29.98,30.86,31.71-30.86h45.27c.2,1.25.31.88-1.76,1-6,.37-11.99-.14-13.44,3.33,2.04,12.47-2.9,26.71-.16,38.95.55,2.38,2.59,3.09,8,3.65,2.9.29,8.31-.57,7.37,1.13h-58.79c-.2-1.25-.31-.88,1.76-1,3.57-.22,13.52-.29,13.52-2.79v-38.7l-44.05,42.5-44.09-42.5v36.67c0,.42,2.98,2.87,4.08,3.31,2.63,1.05,6.27,1.11,9.52,1.49,1.92.22,3.45-.54,2.86,1.01h-38.8c-.59-1.55.98-.79,2.86-1.01,8.11-.95,11.91-1.2,13.48-5.35-1.25-11.2,2-23.28.16-34.37-.47-2.85-.78-5.27-8.19-6.08-3.14-.34-9.25.42-8.31-1.23h47.03Z"/>
  <path class="st22" d="M2222.14,26.81l31.75,31.37,29.98-31.37h45.86c.94,1.71-4.47.83-7.37,1.13-6.07.63-7.45,1.55-7.96,4.16-2.55,12.2,1.96,26.06.12,38.45.31,1.79,4.23,2.8,7.84,3.21,2.94.32,8.31-.59,7.37,1.13h-58.79c-.94-1.76,5.49-.81,8.58-1.11,3.8-.37,7.88-2.62,7.88-4.19V31.89l-42.92,43.01-3.06-.3-42.21-42.2v38.19c0,1.76,9.33,2.92,12.38,3.28,1.88.22,3.45-.54,2.86,1.01h-37.62l11.84-2.75,3.33-3.11c-1.18-11.74,1.92-24.24.16-35.9-.39-2.72-.98-4.41-7.96-5.19-2.9-.32-8.35.63-7.41-1.11h45.27l.08-.02Z"/>
  <path class="st4" d="M3264.2,26.81c.94,1.71-4.43.83-7.37,1.13-2.27.24-7.92,1.62-7.92,2.67v17.96h38.8v-18.46c0-1.84-10.86-2.13-13.52-2.28-2.08-.14-1.96.25-1.76-1h58.79c.98,1.69-4.47.83-7.37,1.13s-5.57.79-7.29,1.91l-.59,41.22c2.04,2.91,8.19,2.48,13.48,2.8,2.08.14,1.96-.25,1.76,1h-58.79c-.2-1.25-.31-.88,1.76-1,3.57-.22,13.52-.29,13.52-2.79v-19.48h-38.8v19.48c0,1.05,5.6,2.43,7.92,2.67,2.94.3,8.31-.57,7.37,1.13h-58.79c-.94-1.72,5.45-.84,8.54-1.13,5.96-.54,7.45-2.2,7.96-4.66,2.51-11.86-1.96-25.39-.12-37.43-2.35-3.89-7.41-3.45-14.66-3.82-2.16-.12-1.92.17-1.76-1.01h58.79l.04-.03Z"/>
  <path class="st4" d="M3762.57,26.81c.94,1.71-4.43.83-7.37,1.13-2.27.24-7.92,1.62-7.92,2.67v17.96h38.8v-18.46c0-1.84-10.86-2.13-13.52-2.28-2.08-.14-1.96.25-1.76-1h58.79c.98,1.69-4.47.83-7.37,1.13s-5.57.79-7.29,1.91l-.59,41.22c2.04,2.91,8.19,2.48,13.48,2.8,2.08.14,1.96-.25,1.76,1h-58.79c-.2-1.25-.31-.88,1.76-1,3.57-.22,13.52-.29,13.52-2.79v-19.48h-38.8v19.48c0,1.05,5.6,2.43,7.92,2.67,2.94.3,8.31-.57,7.37,1.13h-58.79c-.94-1.72,5.45-.84,8.54-1.13,5.96-.54,7.45-2.2,7.96-4.66,2.51-11.86-1.96-25.39-.12-37.43-2.35-3.89-7.41-3.45-14.66-3.82-2.16-.12-1.92.17-1.76-1.01h58.79l.04-.03Z"/>
  <path class="st13" d="M1685.56,26.81c.98,1.69-4.47.84-7.37,1.13-4.55.46-9.09,2.01-9.09,4.19v16.44h39.98v-16.94c0-1.77-5.37-3.29-9.09-3.68-2.9-.29-8.31.56-7.37-1.13h58.79c.94,1.72-4.43.79-7.37,1.13-5.84.66-7.45,1.71-7.96,4.16-2.59,12.18,2,26.08.12,38.45.31,1.79,4.23,2.8,7.84,3.21,2.94.32,8.31-.59,7.37,1.13h-58.79c-.98-1.69,4.47-.84,7.37-1.13,4.55-.46,9.09-2.01,9.09-4.19v-17.96h-39.98v17.96c0,2.16,4.55,3.72,9.09,4.19,2.9.29,8.31-.56,7.37,1.13h-58.79c-.94-1.71,4.47-.83,7.37-1.13,6.07-.62,7.45-1.55,7.96-4.16,2.55-12.2-1.96-26.06-.12-38.45-.31-1.79-4.23-2.8-7.84-3.21-2.94-.32-8.31.59-7.37-1.13,0,0,58.79,0,58.79,0Z"/>
  <path class="st13" d="M3528.08,26.81c20.22.81,36.61,5.35,34.72,14.95-1.1,5.59-10.27,8.75-21.83,10.35-1.25.17-2.12-.37-1.72.74,10.23,5.2,18.89,12.85,29.39,17.7,3.25,1.5,6.62,2.72,11.72,2.8v1.5h-36.41l-36.1-21.66-6.23-.1v17.45c0,2.48,9.72,3.02,13.52,3.31,1.96.15,2-.3,1.76,1h-57.61c-.94-1.71,4.47-.83,7.37-1.13,6.07-.62,7.45-1.55,7.96-4.16,2.55-12.2-1.96-26.06-.12-38.45-1.45-3.46-7.45-2.96-13.44-3.33-2.08-.14-1.96.25-1.76-1,22.14.64,46.91-.86,68.74,0h.04ZM3501.63,50.59c20.5.63,35.23-1.37,34.14-11.4-1.02-9.21-15.68-10.37-34.14-9.85v21.25Z"/>
  <path class="st22" d="M1216.3,25.95c14.31-.74,30.65-.27,43.35,2.8,47.5,11.54,32.33,44.98-23.71,47.13-83.99,3.23-88.3-46.4-19.64-49.93ZM1245.54,31.03c-11.44-4.58-29.59-3.26-38.17,2.18-12.42,7.85-13.83,34.36,8.94,39,46.87,9.54,51.34-32.36,29.28-41.18h-.04Z"/>
  <path class="st22" d="M2095.55,25.95c21.48-1.1,43.07.51,57.81,7.72,30.84,15.05,9.48,40.51-38.17,42.21-84.42,3.04-86.85-46.47-19.64-49.93ZM2103.74,28.46c-29.67,1.76-28.45,25.54-22.34,34.65,9.52,14.26,44.8,13.75,53.38-.56,6.07-10.15,6.51-36.32-31.04-34.09Z"/>
  <path class="st22" d="M1484.58,26.81v14.68h-3.53c-.9-4.73-6.07-9.04-16.81-10.73-1.1-.17-6.78-.91-7.29-.91h-22.93v19.22c17.28.59,21.75-5.46,23.52-11.64h3.49v25.79h-3.49c-1.61-5.93-7.02-12.15-23.52-11.64v18.46c0,2.69,17.48,2.43,21.71,2.26,17.44-.68,29-5.08,33.43-12.35l3.61-.3-4.7,15.17h-97.55c-.94-1.66,5.17-.9,8.31-1.23,7.41-.81,7.72-3.23,8.19-6.08,1.92-11.54-1.33-24.17-.31-35.83-1.02-2.26-3.8-3.29-8.82-3.8-2.9-.29-8.31.56-7.37-1.13h94.02l.04.05Z"/>
  <path class="st7" d="M2711.74,55.64v-23.02c0-.42-2.98-2.87-4.08-3.31-2.63-1.05-6.27-1.11-9.52-1.49-1.92-.22-3.45.54-2.86-1.01h37.62c.16,1.98-8.43,1.37-11.44,2.67-.27.12-2.67,2.01-2.67,2.15v44.27l-4.15-.49-74.58-38.97v33.14c0,2.8,8.9,3.75,13.56,4.29,1.92.22,3.45-.54,2.86,1.01h-39.98c-.55-1.54.9-.81,2.86-1.03,6.62-.73,12.35-.71,13.52-4.32,3.53-10.79-2.51-24.76.16-35.91-.51-3.09-7.56-4.81-13.76-5.73-1.84-.27-3.33.44-2.74-1.06h40.56l54.67,28.83-.04-.02Z"/>
  <path class="st22" d="M2554.22,26.81c.94,1.72-5.45.86-8.54,1.13-5.76.52-6.9,1.94-7.6,4.31-2.16,7.06-1.61,22.4-.27,29.71,1.21,6.72,6.7,11.08,24.1,10.91,15.44-.14,24.97-5.12,26.42-11.42,2.19-9.51-1.41-20.57-.24-30.24-1.69-2.69-7.02-2.79-12.15-3.4-1.92-.22-3.45.54-2.86-1.01h38.8c.94,1.62-4.23.88-7.13,1.23-3.92.46-6.62,1.47-7.88,3.18-1.06,7.53.55,15.14-.27,22.65-.43,3.89-.98,10.2-4.82,13.6-12.03,10.61-61.18,11.54-75.29,1.67-12.19-8.5-2.23-28.33-5.92-38.43-1.8-2.87-6.86-2.52-12.07-2.91-1.96-.15-2,.3-1.76-1h57.61-.12Z"/>
  <path class="st22" d="M3395.85,26.81c.94,1.72-5.45.86-8.54,1.13-5.76.52-6.9,1.94-7.6,4.31-2.16,7.06-1.61,22.4-.27,29.71,1.21,6.72,6.7,11.08,24.1,10.91,15.44-.14,24.97-5.12,26.42-11.42,2.19-9.51-1.41-20.57-.24-30.24-1.69-2.69-7.02-2.79-12.15-3.4-1.92-.22-3.45.54-2.86-1.01h38.8c.94,1.62-4.23.88-7.13,1.23-3.92.46-6.62,1.47-7.88,3.18-1.06,7.53.55,15.14-.27,22.65-.43,3.89-.98,10.2-4.82,13.6-12.03,10.61-61.18,11.54-75.29,1.67-12.19-8.5-2.23-28.33-5.92-38.43-1.8-2.87-6.86-2.52-12.07-2.91-1.96-.15-2,.3-1.76-1h57.61-.12Z"/>
  <path class="st22" d="M1302.37,57.67h3.53c-.82,9.8,35,21.66,52.36,12.67,17.36-8.99-26.96-14.81-39.11-18.61-32.8-10.29-13.64-27.8,23.63-25.86,6.43.34,19.32,3.63,22.42,3.5,5.64-.24,2.86-3.61,7.68-3.55l1.18,16.18-3.64-.3c-2.39-6.91-16.19-13.72-33.39-13.4-11.25.2-20.46,4.24-15.13,9.09,7.21,6.6,46.99,8.55,56.59,18.14,12.03,12.06-15.44,21.86-42.48,20.32-8.39-.47-20.54-5.07-27.16-2.5-3.02,1.17-1.57,3.04-6.43,2.53v-18.21h-.04Z"/>
  <path class="st8" d="M3692.02,25.79v16.69c-5.57.24-6.47-3.8-9.21-5.9-14.54-11.15-50.32-9.93-62.32,1.67-9.33,9.02-7.84,29.24,17.13,33.46,20.81,3.51,38.13-1.13,52.01-7.47,1.29,3.51-1.21,4.76-7.13,6.79-26.96,9.26-76.86,5.35-91.79-8.46-20.58-19.04,16.89-38.95,63.96-36.64,7.29.35,23.2,3.58,27.32,3.41,5.72-.24,4.08-4.07,10.03-3.55v-.02Z"/>
  <path class="st8" d="M3193.65,25.79v16.69c-5.57.24-6.47-3.8-9.21-5.9-14.54-11.15-50.32-9.93-62.32,1.67-9.33,9.02-7.84,29.24,17.13,33.46,20.81,3.51,38.13-1.13,52.01-7.47,1.29,3.51-1.21,4.76-7.13,6.79-26.96,9.26-76.86,5.35-91.79-8.46-20.58-19.04,16.89-38.95,63.96-36.64,7.29.35,23.2,3.58,27.32,3.41,5.72-.24,4.08-4.07,10.03-3.55v-.02Z"/>
  <path class="st8" d="M1153.09,25.79v16.69c-5.57.24-6.47-3.8-9.21-5.9-14.54-11.15-50.32-9.93-62.32,1.67-9.33,9.02-7.84,29.24,17.13,33.46,20.81,3.51,38.13-1.13,52.01-7.47,1.29,3.51-1.21,4.76-7.13,6.79-26.96,9.26-76.86,5.35-91.79-8.46-20.58-19.04,16.89-38.95,63.96-36.64,7.29.35,23.2,3.58,27.32,3.41,5.72-.24,4.08-4.07,10.03-3.55v-.02Z"/>
  <path class="st13" d="M2910.37,26.81v13.16l-3.64-.3c-3.72-7.91-15.6-10.95-33.98-9.81v40.73c0,1.52,4.78,2.82,7.92,3.18,2.94.32,8.31-.59,7.37,1.13h-58.79c-.94-1.79,4.74-.78,7.56-1.05,3.37-.32,8.9-1.62,8.9-3.26V29.85c-17.24-1.06-32.53,2.01-32.92,10.12h-3.53v-13.16h101.12Z"/>
  <path class="st22" d="M1613.87,42.5l-3.64-.3c-13.64-20.03-67.72-16.89-72.62,4.16-3.84,16.37,13.29,33.04,57.06,24.05l16.85-5.64c-.16,1.72,1.14,3.18-1.72,4.56-10.9,5.34-33.67,7.16-49.38,6.55-85.17-3.26-59.85-58.95,26.69-48.92,8.39.96,21.63,5.2,23.28-1.15h3.49s0,16.69,0,16.69Z"/>
  <path class="st22" d="M2032.33,42.5l-3.64-.3c-13.64-20.03-67.72-16.89-72.62,4.16-3.84,16.37,13.29,33.04,57.06,24.05l16.85-5.64c-.16,1.72,1.14,3.18-1.72,4.56-10.9,5.34-33.67,7.16-49.38,6.55-85.17-3.26-59.85-58.95,26.69-48.92,8.39.96,21.63,5.2,23.28-1.15h3.49s0,16.69,0,16.69Z"/>
  <path class="st22" d="M2971.51,26.81c.98,1.69-4.47.84-7.37,1.13-7.88.74-2.63,4.34-.31,6.49,4.7,4.34,14.34,12.08,20.38,16.01.82.52,1.21,1.3,3.17,1.17l26.22-19.59c1.72-3.58-2.74-3.26-8.74-4.12-1.84-.27-3.33.44-2.74-1.06h34.1c.24,1.66-5.68,1.44-8.86,2.52-1.76.61-4.31,2.23-5.72,3.09-4.31,2.62-30.1,20.71-31,22.58-.98,2.08-.86,15.02.78,16.64,2.67,2.64,9.76,1.98,14.85,2.23,2.16.1,1.88-.15,1.72,1.01h-62.32c-.16-1.2-.39-.9,1.76-1.01,5.8-.3,11.99.34,14.78-2.75,1.69-1.86,1.84-11.94.82-14.09-10.58-7.48-18.85-16.3-29.79-23.6-4.55-3.04-5.17-4-13.17-5.47-1.72-.32-3.21.32-2.59-1.13h54.09l-.08-.03Z"/>
  <path class="st22" d="M1756.1,74.88c-.55-1.18.31-.81,1.53-1.13,4.27-1.17,9.09-1.76,11.64-4.07l46.21-43.87c2.35-.02,3.1,1.11,3.96,1.84,17.72,14.61,27.87,31.45,48.91,45.22,1.92.93,7.37.35,6.47,2.03h-54.09c-.94-1.69,4.43-.84,7.37-1.13,1.14-.12,5.37-.84,5.6-1.23,1.92-3.29-6.94-7.96-8.43-11.23h-39.62c-2.08,2.65-7.76,6.35-7.02,9.16.9,3.26,6.78,2.69,12.35,3.36,2,.24,3.25-.37,2.7,1.08h-37.62l.04-.02ZM1789.03,58.18h32.92c-5.17-4.8-9.01-10.02-14.7-14.7-.71-.59,0-1.22-2.35-1l-15.87,15.69Z"/>
  <path class="st22" d="M876.86,74.88c-.55-1.18.31-.81,1.53-1.13,8.15-2.23,9.13-2.21,13.99-6.11l43.9-41.82c2.12-.12,2.23.69,2.98,1.25,16.54,12.84,26.57,30.42,44.01,42.77,1.18.84,2.55,2.13,4.23,2.74,2.94,1.08,8.47.78,8.15,2.31h-54.09c-.24-1.3-.2-.84,1.76-1,4.27-.32,11.25-.05,11.25-2.79,0-.79-7.21-8.38-8.43-9.07-1.41-.78-1.76-.73-3.92-.84-6.98-.35-26.1-.35-33.04,0-1.45.07-2.35,0-3.49.52-.55.24-5.6,5.44-5.92,6.05-2.43,5.08,2.04,4.9,10.86,6.03,1.96.25,3.29-.41,2.74,1.08h-36.45l-.08.02ZM909.78,58.18h31.75l-14.7-15.69c-1.96-.27-3.61,2.04-4.31,2.7-4.59,4.24-9.01,8.6-12.74,12.99Z"/>
  <path class="st4" d="M825.16,26.81c.98,1.72-4.7.84-7.52,1.06-4.66.37-8.03,1.03-8.86,3.28l.43,38.7c2.12,2.82,20.93,2.25,27.08,1.99,18.11-.79,25.32-7.28,28.85-14.16h3.49l-3.53,17.2h-99.9c-.59-1.79,6.27-.71,10.27-1.4,5.6-.96,5.84-4.54,6.23-6.93,1.45-8.78,1.29-22.09,0-30.91-.39-2.75,0-6.52-7.29-7.48-3.41-.46-10.07.29-9.21-1.35,0,0,59.96,0,59.96,0Z"/>
  <path class="st13" d="M2798.71,26.81c.94,1.71-4.47.83-7.37,1.13-6.07.63-7.45,1.55-7.96,4.16-2.55,12.2,1.96,26.06.12,38.45.31,1.79,4.23,2.8,7.84,3.21,2.94.32,8.31-.59,7.37,1.13h-58.79c-.94-1.76,5.49-.81,8.58-1.11,6.86-.68,7.52-3.68,7.96-6.2,1.45-8.65,2.16-26.52-.2-34.86-.67-2.42-2.16-4-8-4.65-3.14-.34-9.25.42-8.31-1.23h58.79l-.04-.02Z"/>
  <path class="st14" d="M2350.26,115.84l30.57,27.82,29.94-27.82h24.69c.9,1.69-3.53.79-6.23,1.11-4.74.57-5.17,1.77-5.6,3.67-1.88,8.8,1.45,18.87.12,27.82.55,1.49,2.12,2.3,5.45,2.7,2.7.32,7.13-.57,6.23,1.11h-36.45v-1.01c2.59.49,11.76-.68,11.76-1.77v-26.55l-32.33,29.34-3.17-1.17-30.34-28.18v26.55c0,1.1,9.17,2.26,11.76,1.77v1.01h-29.39l9.45-2.26c2.08-1.01,2.12-1.76,2.39-3.02,1.21-5.81,1.65-20.71-.16-26.28-1.02-3.12-3.14-2.96-8.9-3.78-1.84-.27-3.33.44-2.74-1.06h22.97Z"/>
  <path class="st9" d="M1752.58,152.28c-.9-1.69,3.53-.79,6.23-1.11,4.74-.57,5.17-1.77,5.6-3.67,1.88-8.8-1.45-18.87-.12-27.82-.55-1.49-2.12-2.3-5.45-2.7-2.7-.32-7.13.57-6.23-1.11h46.44c38.29,0,51.15,22.74,23.48,32.36-4.31,1.5-17.09,4.05-22.3,4.05h-47.66ZM1776.09,149.75c21.2,2.09,40.33-.93,45.5-10.52,7.05-13.07-13.48-25.34-45.5-20.08v30.61Z"/>
  <path class="st9" d="M3055.54,115.84c28.3,1.44,31.24,16.23,2.94,18.21l.2,1.18c7.05,3.63,12.42,8.26,19.75,11.74,6.04,2.87,7.13,2.8,15.09,4.16,1.8.3,3.17-.29,2.59,1.15h-23.52l-26.46-16.69-9.99-.51v12.91c0,.46,2.39,2.15,3.53,2.53,3.88,1.28,9.88-.08,9.41,1.77h-36.45c-.9-1.69,3.53-.79,6.23-1.11,4.74-.57,5.17-1.77,5.6-3.67,1.88-8.8-1.45-18.87-.12-27.82-.55-1.49-2.12-2.3-5.45-2.7-2.7-.32-7.13.57-6.23-1.11,13.6.51,29.63-.68,42.92,0l-.04-.03ZM3036.14,133.56c36.88,2.2,37.98-19.19,0-15.17v15.17Z"/>
  <path class="st9" d="M2121.65,152.28c-7.72-.03-15.56.12-23.28-.1l-26.69-16.59-9.99-.51v12.91c0,.46,2.39,2.15,3.53,2.53,3.88,1.28,9.88-.08,9.41,1.77h-36.45c-.9-1.69,3.53-.79,6.23-1.11,4.74-.57,5.17-1.77,5.6-3.67,1.88-8.8-1.45-18.87-.12-27.82-.55-1.49-2.12-2.3-5.45-2.7-2.7-.32-7.13.57-6.23-1.11h42.92c.98,0,8.5,1,9.99,1.27,20.42,3.78,14.81,16.27-7.05,16.96l.2,1.18c10.7,5.19,19.2,15.41,37.43,16.01v1.01l-.04-.03ZM2061.73,133.56c36.88,2.2,37.98-19.19,0-15.17v15.17Z"/>
  <path class="st14" d="M2764.33,115.47c57.5-3.4,63.37,34.68,11.33,37.25-56.48,2.8-63.1-34.21-11.33-37.25ZM2765.47,117.5c-30.41,1.98-28.14,30.86-2.35,33.16,30.96,2.75,37.23-11.94,33.08-21.82-2.98-7.15-12.15-12.53-30.73-11.32v-.02Z"/>
  <path class="st14" d="M2958.3,115.47c57.5-3.4,63.37,34.68,11.33,37.25-56.48,2.8-63.1-34.21-11.33-37.25ZM2959.44,117.5c-30.41,1.98-28.14,30.86-2.35,33.16,30.96,2.75,37.23-11.94,33.08-21.82-2.98-7.15-12.15-12.53-30.73-11.32v-.02Z"/>
  <path class="st14" d="M3243.9,115.47c57.5-3.4,63.37,34.68,11.33,37.25-56.48,2.8-63.1-34.21-11.33-37.25ZM3245.07,117.5c-30.41,1.98-28.14,30.86-2.35,33.16,30.96,2.75,37.23-11.94,33.08-21.82-2.98-7.15-12.15-12.53-30.73-11.32v-.02Z"/>
  <path class="st11" d="M3368.8,142.67v-22.01c0-1.5-3.14-3.28-6.7-3.68-2.7-.3-7.13.56-6.23-1.11h30.57c.31,1.96-6.39.34-10.07,1.99-1.02.46-2.86,2.85-2.86,3.33v31.62l-57.61-28.83v23.53c0,1.5,3.14,3.28,6.7,3.68,2.7.3,7.13-.56,6.23,1.11h-30.57c-.9-1.67,4.12-.81,7.09-1.23,4.7-.68,5.21-2.74,5.68-4.65,1.29-5.3,1.8-19.63.2-24.75-.98-3.11-8.86-4.07-14.81-4.78-1.92-.22-3.45.54-2.86-1.01h22.93c4.08,0,43.7,24.61,52.32,26.81v-.02Z"/>
  <path class="st11" d="M2630.61,142.67v-22.01c0-1.5-3.14-3.28-6.7-3.68-2.7-.3-7.13.56-6.23-1.11h30.57c.31,1.96-6.39.34-10.07,1.99-1.02.46-2.86,2.85-2.86,3.33v31.62l-57.61-28.83v23.53c0,1.5,3.14,3.28,6.7,3.68,2.7.3,7.13-.56,6.23,1.11h-30.57c-.9-1.67,4.12-.81,7.09-1.23,4.7-.68,5.21-2.74,5.68-4.65,1.29-5.3,1.8-19.63.2-24.75-.98-3.11-8.86-4.07-14.81-4.78-1.92-.22-3.45.54-2.86-1.01h22.93c4.08,0,43.7,24.61,52.32,26.81v-.02Z"/>
  <path class="st11" d="M2121.65,151.27c4.39.15,9.45.15,12.35-1.52l.55-30.59c-.2-.83-1.49-1.33-3.06-1.72-3.76-.91-9.33.15-8.66-1.57h64.67l1.18,8.09c-2.47.15-1.92.07-2.63-.64-1.76-1.72-2.9-5.44-9.72-5.44h-28.81v14.17h22.93c4.78,0,8.94-3.07,7.64-5.07h3.53v12.65h-3.53c.86-2.06-2.16-5.56-7.64-5.56h-22.93v14.93c0,.37,2.86,1.15,4.15,1.25,4.35.35,20.81.2,25.32-.22,8.07-.73,10.27-3.4,14.54-5.9.98-.57,0-1.25,3.02-.96l-6.58,9.14c-22.1-.14-44.21.07-66.27-.03v-1.01h-.04Z"/>
  <path class="st11" d="M1908.92,115.84l1.18,8.09c-2.47.15-1.92.07-2.63-.64-1.76-1.72-2.9-5.44-9.72-5.44h-28.81v14.17h22.93c4.78,0,8.94-3.07,7.64-5.07h3.53v12.65h-3.53c.86-2.06-2.16-5.56-7.64-5.56h-22.93v14.93c0,.37,2.86,1.15,4.15,1.25,4.35.35,20.81.2,25.32-.22,8.07-.73,10.27-3.4,14.54-5.9.98-.57,0-1.25,3.02-.96l-5.88,9.1h-65.84c-.9-1.67,3.49-.81,6.23-1.11,4.47-.51,5.17-1.33,5.6-3.16,2.08-9.07-1.65-19.61-.08-28.85-.2-.83-1.49-1.33-3.06-1.72-3.76-.91-9.33.15-8.66-1.57h64.67-.04Z"/>
  <path class="st11" d="M1298.84,115.84l1.18,8.09c-2.47.15-1.92.07-2.63-.64-1.76-1.72-2.9-5.44-9.72-5.44h-28.81v14.17h22.93c4.78,0,8.94-3.07,7.64-5.07h3.53v12.65h-3.53c.86-2.06-2.16-5.56-7.64-5.56h-22.93v14.93c0,.37,2.86,1.15,4.15,1.25,4.35.35,20.81.2,25.32-.22,8.07-.73,10.27-3.4,14.54-5.9.98-.57,0-1.25,3.02-.96l-5.88,9.1h-65.84c-.9-1.67,3.49-.81,6.23-1.11,4.47-.51,5.17-1.33,5.6-3.16,2.08-9.07-1.65-19.61-.08-28.85-.2-.83-1.49-1.33-3.06-1.72-3.76-.91-9.33.15-8.66-1.57h64.67-.04Z"/>
  <path class="st11" d="M2547.17,115.84l1.18,8.09c-2.47.15-1.92.07-2.63-.64-1.76-1.72-2.9-5.44-9.72-5.44h-28.81v14.17h22.93c4.78,0,8.94-3.07,7.64-5.07h3.53v12.65h-3.53c.86-2.06-2.16-5.56-7.64-5.56h-22.93v14.93c0,.37,2.86,1.15,4.15,1.25,4.35.35,20.81.2,25.32-.22,8.07-.73,10.27-3.4,14.54-5.9.98-.57,0-1.25,3.02-.96l-5.88,9.1h-65.84c-.9-1.67,3.49-.81,6.23-1.11,4.47-.51,5.17-1.33,5.6-3.16,2.08-9.07-1.65-19.61-.08-28.85-.2-.83-1.49-1.33-3.06-1.72-3.76-.91-9.33.15-8.66-1.57h64.67-.04Z"/>
  <path class="st1" d="M2890.97,115.84c9.33.51,21.71,4.04,22.93,8.33,3.1,10.91-19.48,13.28-39.98,11.4v12.4c0,.46,2.82,2.48,4.04,2.82,3.76,1.05,9.56-.44,8.9,1.49h-36.45c-.9-1.69,3.53-.79,6.23-1.11,4.74-.57,5.17-1.77,5.6-3.67,1.25-5.96,1.72-21.6-.16-27.3-.27-.81-.9-2.01-2.27-2.57-3.41-1.42-9.99.19-9.37-1.77,12.78.49,28.1-.68,40.56,0l-.04-.02ZM2873.92,134.07c12.11.93,24.65-.03,25.91-6.3,1.49-7.52-9.17-11.15-25.91-9.39v15.69Z"/>
  <path class="st9" d="M3199.53,115.84l-54.09,34.41h34.69c1.25,0,9.25-1.08,10.62-1.5,3.72-1.13,5.02-3.5,7.02-5.1.9-.71-.08-1.25,2.94-.98l-3.53,9.61h-69.33l54.09-34.41h-31.16c-1.06,0-7.49,1.23-8.47,1.67-2.12.98-2.55,3.04-3.61,4.31-.67.81.63,1.35-2.67,1.11l1.18-9.1h62.32v-.02Z"/>
  <path class="st9" d="M1656.2,140.64h3.53c-2.08,7.79,24.97,13.55,37.08,8.12,17.44-7.82-25.67-13.45-34.72-17.48-16.38-7.31.55-16.99,22.77-15.88,6.39.32,18.15,4.07,18.42-.03h3.45v12.11h-3.53c.94-6.52-16.03-12.35-30.22-9.21-3.84.86-7.68,2.91-7.37,4.88,1.02,6.55,41.23,9.43,45.31,16.94,4.78,8.89-12.97,13.65-31.71,12.64-6-.32-19.6-4.05-19.56.02h-3.45v-12.11h0Z"/>
  <path class="st9" d="M1424.61,115.84c.47,1.84-5.49.51-9.41,1.77-1.92.63-2.86,1.66-3.25,2.65-1.76,4.21-1.1,20.32,1.69,24.32,6.31,9.07,39.94,7.26,44.76-1.3,2.27-4.04,2.9-18.94,1.18-23.02-.39-.98-1.33-2.01-3.25-2.65-3.92-1.27-9.84.07-9.41-1.77h30.57c.71,1.74-4.04.61-7.68,1.49-1.41.34-3.68,1.55-4.04,2.31-3.33,7.5,4.35,19.32-3.68,26.74s-37.62,8.19-51.5,4.07c-18.26-5.41-7.49-21.86-10.93-30.2-.39-.98-1.33-2.01-3.25-2.65-3.92-1.27-9.84.07-9.41-1.77h37.62v.02Z"/>
  <path class="st14" d="M1557.44,152.28c-.71-1.54,3.92-1.2,6.51-2.01,1.37-.44,2.31-1.05,3.14-1.69l32.69-32.89,2.94-.35,33.27,33.24c1.84,2.06,5.57,1.96,9.17,2.64,1.41.27,2.12-.24,1.65,1.06h-34.1c-.24-1.74,4.66-.74,7.68-1.99.94-.39,1.57-.64,1.65-1.27.08-.71-5.88-7.38-7.13-8.07-1.41-.78-1.76-.73-3.92-.84-5.57-.27-20.46-.29-25.98,0-1.29.07-2.59,0-3.49.52l-7.56,8.38c.16,1.59,4.27,1.67,6.74,2.13,1.72.32,3.17-.32,2.59,1.13h-25.87l.04.02ZM1611.52,138.11c-2.98-4-6.9-9.31-11.52-13.01-.43-.34-1.84-1.42-2.59-1.17l-12.93,14.17h27.04Z"/>
  <path class="st14" d="M3388.79,152.28c-.71-1.54,3.92-1.2,6.51-2.01,1.37-.44,2.31-1.05,3.14-1.69l32.69-32.89,2.94-.35,33.27,33.24c1.84,2.06,5.57,1.96,9.17,2.64,1.41.27,2.12-.24,1.65,1.06h-34.1c-.24-1.74,4.66-.74,7.68-1.99.94-.39,1.57-.64,1.65-1.27.08-.71-5.88-7.38-7.13-8.07-1.41-.78-1.76-.73-3.92-.84-5.57-.27-20.46-.29-25.98,0-1.29.07-2.59,0-3.49.52l-7.56,8.38c.16,1.59,4.27,1.67,6.74,2.13,1.72.32,3.17-.32,2.59,1.13h-25.87l.04.02ZM3442.84,138.11c-2.98-4-6.9-9.31-11.52-13.01-.43-.34-1.84-1.42-2.59-1.17l-12.93,14.17h27.04,0Z"/>
  <path class="st16" d="M1219.83,117.25c1.61-.68.2-2.31,3.8-1.89l2.35,12.15c-2.59.24-2.67-.56-3.57-1.23-4.86-3.7-6.07-7.23-17.79-8.53-45.46-5.07-50.24,27.5-18.85,31.89,16.77,2.35,30.37-.3,39.66-6.44,2.98-.17,1.84.83,1.1,1.49-10.23,9.48-45.62,10.71-62.28,3.58-27.94-11.94-7.25-34.48,34.14-32.89,6,.24,18.11,3.31,21.48,1.89l-.04-.02Z"/>
  <path class="st16" d="M2023.83,117.25c1.61-.68.2-2.31,3.8-1.89l2.35,12.15c-2.59.24-2.67-.56-3.57-1.23-4.86-3.7-6.07-7.23-17.79-8.53-45.46-5.07-50.24,27.5-18.85,31.89,16.77,2.35,30.37-.3,39.66-6.44,2.98-.17,1.84.83,1.1,1.49-10.23,9.48-45.62,10.71-62.28,3.58-27.94-11.94-7.25-34.48,34.14-32.89,6,.24,18.11,3.31,21.48,1.89l-.04-.02Z"/>
  <path class="st16" d="M2270.66,117.25c1.61-.68.2-2.31,3.8-1.89l2.35,12.15c-2.59.24-2.67-.56-3.57-1.23-4.86-3.7-6.07-7.23-17.79-8.53-45.46-5.07-50.24,27.5-18.85,31.89,16.77,2.35,30.37-.3,39.66-6.44,2.98-.17,1.84.83,1.1,1.49-10.23,9.48-45.62,10.71-62.28,3.58-27.94-11.94-7.25-34.48,34.14-32.89,6,.24,18.11,3.31,21.48,1.89l-.04-.02Z"/>
  <path class="st11" d="M1350.58,115.84c.24,1.3.2.84-1.76,1-4.94.37-10.5.12-12.31,2.8l.78,29.48,1.25.61c10.11.63,28.49,1.3,36.21-2.01,3.72-1.6,4.7-4.19,8.78-5.59l-5.88,10.12h-65.84c-.9-1.67,3.49-.81,6.23-1.11,4.47-.51,5.17-1.33,5.6-3.16,2.08-9.07-1.65-19.61-.08-28.85-.2-.83-1.49-1.33-3.06-1.72-3.76-.91-9.33.15-8.66-1.57h38.8l-.08.02Z"/>
  <path class="st11" d="M1519.85,115.84c.24,1.3.2.84-1.76,1-4.94.37-10.5.12-12.31,2.8l.78,29.48,1.25.61c10.11.63,28.49,1.3,36.21-2.01,3.72-1.6,4.7-4.19,8.78-5.59l-5.88,10.12h-65.84c-.9-1.67,3.49-.81,6.23-1.11,4.47-.51,5.17-1.33,5.6-3.16,2.08-9.07-1.65-19.61-.08-28.85-.2-.83-1.49-1.33-3.06-1.72-3.76-.91-9.33.15-8.66-1.57h38.8l-.08.02Z"/>
  <path class="st1" d="M2723.5,115.84v8.6c-3.53.25-1.84-.41-2.47-1.18-1.61-2.01-2.16-3.43-7.25-4.49-3.64-.76-18.19-1.77-19.48-.07v29.22c.35.84.71,1.96,2.19,2.57,3.41,1.42,9.99-.19,9.37,1.77h-35.27v-1.01c4.51.42,11.76-.51,11.76-2.79v-30.61c-7.33,0-19.48-.47-24.06,2.55-2.16,1.42-1.25,4.14-5.33,4.02l1.18-8.6h69.33l.04.02Z"/>
  <path class="st1" d="M2321.5,115.84c.9,1.74-3.49.73-6.23,1.11-3.88.56-5.25,2.62-5.6,4.17-1.33,6.27-1.53,20.62.2,26.79.2.74.67,1.52,1.33,2.2,2.19.73,4.86.83,7.37,1.15,1.8.24,3.53-.59,2.9,1h-35.27c-.9-1.74,3.49-.73,6.23-1.11,3.88-.56,5.25-2.62,5.6-4.17,1.33-6.27,1.53-20.62-.2-26.79-.2-.74-.67-1.52-1.33-2.2-2.19-.73-4.86-.83-7.37-1.15-1.8-.24-3.53.59-2.9-1h35.27Z"/>
  <path class="st1" d="M2476.62,115.84c.9,1.74-3.49.73-6.23,1.11-3.88.56-5.25,2.62-5.6,4.17-1.33,6.27-1.53,20.62.2,26.79.2.74.67,1.52,1.33,2.2,2.19.73,4.86.83,7.37,1.15,1.8.24,3.53-.59,2.9,1h-35.27c-.9-1.74,3.49-.73,6.23-1.11,3.88-.56,5.25-2.62,5.6-4.17,1.33-6.27,1.53-20.62-.2-26.79-.2-.74-.67-1.52-1.33-2.2-2.19-.73-4.86-.83-7.37-1.15-1.8-.24-3.53.59-2.9-1h35.27Z"/>
  <path class="st18" d="M401.72,160c20.42-1.18,35.19,8.24,23.59,15.71-9.37,6.05-30.18,6-39.78.08-9.76-6-.63-14.83,16.19-15.81v.02ZM418.07,165.1c-18.93-8.09-42.92,6.23-21.2,11.4,18.19,4.32,33.59-6.1,21.2-11.4Z"/>
  <polygon class="st5" points="554.81 160.37 554.81 167.96 574.8 167.96 574.8 160.37 581.85 160.37 581.85 180.1 574.8 180.1 574.8 171 554.81 171 554.81 180.1 547.76 180.1 547.76 160.37 554.81 160.37"/>
  <polygon class="st18" points="498.37 160.37 498.37 163.41 480.74 163.41 480.74 167.96 498.37 167.96 498.37 170.49 480.74 170.49 480.74 177.06 498.37 177.06 498.37 180.1 474.27 180.1 472.51 179.34 472.51 161.13 474.27 160.37 498.37 160.37"/>
  <path class="st18" d="M319.73,180.1c-9.01.91-8.11-1.88-11.29-4.58l-20.58.34c-2.23,2.87-3.14,4.9-11.64,4.24l22.34-20.74,21.12,20.74h.04ZM305.62,172.5l-6.47-6.05c-.98,0-7.64,5.56-6.47,6.06h12.93v-.02Z"/>
  <path class="st18" d="M630.02,180.1l-6.86-.08-3.57-4.17-20.58-.34c-2.39,2.47-3.29,5.22-11.29,4.58l21.16-20.74,21.12,20.74v.02ZM615.91,172.52l-6.47-6.06c-.98,0-7.64,5.56-6.47,6.06h12.93,0Z"/>
  <path class="st18" d="M447.54,159.97c3.21-.22,5.02-.08,8,.37,5.13.78,11.8,3.48,3.17,4-2.27.14-11.99-3.55-14.23-.08s17.36,3.97,19.56,8.09c2.74,5.19-6.31,8.34-17.87,7.69-11.56-.66-14.89-7.31-6.11-5.98,1.84.29,1.92,1.79,3.57,2.52,5.84,2.53,17.64.03,12.46-3.85-2.78-2.08-10.62-2.28-14.78-3.77-8.23-2.92-3.57-8.31,6.19-9l.04.02Z"/>
  <path class="st18" d="M538.19,160.95l.16,3.48c-4.27-.3-6.31-1.55-11.13-1.55-23.05-.05-23.44,16.17,4.62,14.19,2.23-.15,3.84-1.27,6.51-.98,3.02,5.84-17.68,4.49-25.08,2.45-24.22-6.66-1.61-23.31,24.93-17.55v-.03Z"/>
  <path class="st18" d="M375.97,160.95l.16,3.48c-9.99-3.01-25.83-1.37-27.08,4.27-1.72,7.65,12.11,10.17,27.08,7.36.67,2.87,0,3.58-6.58,3.99-41.43,2.62-33.86-26.01,6.43-19.1Z"/>
  <polygon class="st18" points="258.59 160.37 258.59 177.06 272.7 177.06 272.7 180.1 253.3 180.1 251.54 179.34 251.54 161.13 258.59 160.37"/>
  <path class="st19" d="M337.33,196.79l8.27-9.61c2.82-.15,1.88-.02,2.47.69,2.94,3.55,2.27,8.53,5.72,12.18-5.6,2.57-6-4.12-6.86-5.63-.39-.69.74-1.4-1.92-1.18l-8.23,7.58-9.99-8.6-3.45,8.29-3.61.29,6.47-13.65,11.13,9.61v.02Z"/>
  <path class="st19" d="M317.34,200.84l-3.53-.34-3.53-8.26-8.23,8.09c-2.16.19-2.31-.24-3.25-.88-2.27-1.57-3.8-4.44-5.88-6.06-.74-.59.04-.86-2.63-.64-.31,1.86-1.02,5.63-2.59,7.23-.94.93-2.19,1.27-3.88.35l5.33-12.65c2.78-.25,1.88.17,2.63.66,3.45,2.26,5.37,5.91,7.96,8.45,1.8.57,9.41-8.24,10.31-8.97.82-.68,1.02-1.23,2.04-.14s6.39,12.7,5.25,13.16h0Z"/>
  <path class="st19" d="M263.02,186.81c21.36-.49,23.91,12.7,4.35,14-24.38,1.62-25.87-13.51-4.35-14ZM260.59,188.82c-14.19,1.4-10.39,11.4,5.33,10.42s13.44-12.28-5.33-10.42Z"/>
  <path class="st17" d="M638.25,187.18h4.7l.67,5.07h14.62v-5.07h4.7v12.91l-2.94.76c-3.64-.34-.43-6.45-2.47-6.59h-14.62c-1.14.51,2.98,8.77-4.7,5.83v-12.91h.04Z"/>
  <path class="st19" d="M584.21,187.18c5.96.29,13.25-1.05,16.93,1.57s-.63,5.59-7.52,5.78l10.58,6.06c-6.82.52-10.5-4.07-14.7-5.81-1.69,1.82,1.84,7.79-5.29,5.3,0,0,0-12.91,0-12.91ZM596.94,192.67c3.64-3.18-.74-4.39-8.07-3.97v4.05l8.07-.07v-.02Z"/>
  <path class="st19" d="M362.02,187.18v9.86c0,2.91,15.29,2.35,15.29.51v-10.37h4.7v9.86c0,3.43-13.8,4.97-19.95,3.02-1.1-.35-4.74-2.72-4.74-3.02v-9.86h4.7Z"/>
  <polygon class="st19" points="411.41 196.79 411.41 187.18 414.93 187.18 414.93 200.84 392.59 191.23 392.59 200.08 389.07 200.84 389.07 187.18 411.41 196.79"/>
  <path class="st19" d="M573.62,187.18h4.7v9.36c0,.27-2.7,2.69-3.49,3.06-5.72,2.75-21.2,1-21.2-2.55v-9.86l3.61.22.94.61c1.02,2.7-.71,5.93.12,8.55,1.33,4.32,15.32,2.58,15.32.47v-9.86.02Z"/>
  <path class="st18" d="M403.17,128.51l-7.09,6.06-17.6-2.53c2.78-2.23,2.67-4.07,2.35-6.57l22.34,3.04Z"/>
  <path class="st19" d="M243.31,190.22c-3.17-.08-4.27-1.28-7.72-1.5-19.2-1.2-19.24,10.69-2.23,10.63,4,0,6.23-1.44,9.95-1.54l-.16,1.94c-18.97,5.15-37.7-6.22-20.42-11.57,6.15-1.91,21.28-2.33,20.58,2.03v.02Z"/>
  <path class="st19" d="M517.19,190.22c-3.17-.08-4.27-1.28-7.72-1.5-14.93-.93-19.87,7.06-8.62,9.8,7.09,1.74,9.84.15,16.34-.71,1.8,2.87-7.17,3.23-12.35,3.04-17.44-.68-19.75-11.1-4.39-13.53,5.88-.93,17.99-.78,16.74,2.91Z"/>
  <polygon class="st3" points="523.06 187.18 526.59 187.18 527.26 192.25 543.05 192.25 543.05 187.18 546.58 187.18 546.58 200.34 543.05 200.34 543.05 193.77 526.59 193.77 526.59 200.34 523.06 200.34 523.06 187.18"/>
  <path class="st19" d="M632.37,190.22c-15.13-5.61-31.2,4.48-16.34,8.31,6.47,1.67,10.43.32,16.34-.71,1.18,1.84-1.61,2.6-5.57,2.91-22.38,1.76-28.02-10.56-9.99-13.4,5.76-.91,16.89-.61,15.56,2.91v-.02Z"/>
  <path class="st19" d="M474.86,187.18c1.53.61-8.15,5.88-8.86,7.06-1.41,2.28,1.92,6.28-4.08,6.59,2.82-5.84-4.59-8.34-9.41-13.14l4.51.08,7.21,4.97c.24-1.13,7.33-6.86,10.58-5.56h.04Z"/>
  <polygon class="st3" points="451.38 187.18 451.38 188.7 441.98 188.7 441.98 200.34 438.45 200.34 438.45 188.7 430.22 188.7 430.22 187.18 451.38 187.18"/>
  <rect class="st3" x="421.99" y="187.18" width="3.53" height="13.16"/>
  <path class="st0" d="M376.13,129c-.31-.07-.9.07-1.18,0-9.56-2.74-10.58-7.23-16.46-10.63l1.18-.51c.12.1,1.61.37,2.16.83,0,0,14.31,10.3,14.31,10.3Z"/>
  <path class="st20" d="M3992.95,235.74v63.24H5.88v-63.24h3987.07ZM1905.39,277.74h27.63l2.94-6.06c-3.76-.1-2.19,1.49-6.7,1.91-3.76.35-8.19,0-12.07.1,6.39-3.33,20.5-8.12,16.74-13.01-4.78-6.23-27.24-4.31-27.36,2.13,2.55,1.1,2.39-.61,3.45-1.01,3.72-1.42,10.62-1.64,12.5.74,4.43,5.66-11.52,10.81-17.13,15.2ZM1970.88,257.11c-17.28,1.52-17.99,22.26,6.7,20.59,17.95-1.22,18.66-22.82-6.7-20.59ZM2011.17,277.74h27.63l2.94-6.06c-3.76-.1-2.19,1.49-6.7,1.91-3.76.35-8.19,0-12.07.1,6.39-3.33,20.5-8.12,16.74-13.01-4.78-6.23-27.24-4.31-27.36,2.13,2.55,1.1,2.39-.61,3.45-1.01,3.72-1.42,10.62-1.64,12.5.74,4.43,5.66-11.52,10.81-17.13,15.2ZM2095.79,257.5h-23.52l-7.05,9.61c9.68-.95,30.77,3.92,21.71,8.58-5.84,3.01-20.89-5.51-21.79-.73-.78,4.07,26.38,4.29,30.1-1.76,4.04-6.59-7.88-10.08-21.79-10.14v-1.52h19.99l2.35-4.05h0Z"/>
  <path class="st24" d="M461.96,16.18c-4.04,6.81-15.76,13.02-25.91,18.45-45.23,24.27-115.3,47.74-76.39,83.23l-1.18.51c-3.88-2.25-13.36-5.14-18.22-7.58-79.01-39.86-.94-103.65,121.65-94.61l.04.02Z"/>
  <path class="st2" d="M3501.63,50.59v-21.25c18.46-.52,33.12.64,34.14,9.85,1.1,10.03-13.64,12.03-34.14,11.4Z"/>
  <path class="st2" d="M1245.54,31.03c22.07,8.8,17.6,50.73-29.28,41.18-22.73-4.63-21.32-31.15-8.94-39,8.62-5.44,26.73-6.76,38.17-2.18h.04Z"/>
  <path class="st2" d="M2103.74,28.46c37.51-2.23,37.12,23.94,31.04,34.09-8.58,14.32-43.86,14.81-53.38.56-6.07-9.1-7.33-32.89,22.34-34.65Z"/>
  <path class="st6" d="M1789.03,58.18l15.87-15.69c2.35-.22,1.65.41,2.35,1,5.68,4.68,9.52,9.9,14.7,14.7h-32.92Z"/>
  <path class="st6" d="M909.78,58.18c3.72-4.39,8.15-8.75,12.74-12.99.71-.66,2.35-2.97,4.31-2.7l14.7,15.69h-31.75Z"/>
  <path class="st21" d="M1776.09,149.75v-30.61c31.98-5.25,52.56,7.01,45.5,20.08-5.17,9.59-24.3,12.62-45.5,10.52Z"/>
  <path class="st6" d="M3036.14,133.56v-15.17c37.98-4.02,36.88,17.38,0,15.17Z"/>
  <path class="st6" d="M2061.73,133.56v-15.17c37.98-4.02,36.88,17.38,0,15.17Z"/>
  <path class="st15" d="M2765.47,117.5c18.58-1.2,27.75,4.17,30.73,11.32,4.12,9.88-2.12,24.58-33.08,21.82-25.79-2.3-28.02-31.18,2.35-33.16v.02Z"/>
  <path class="st15" d="M2959.44,117.5c18.58-1.2,27.75,4.17,30.73,11.32,4.12,9.88-2.12,24.58-33.08,21.82-25.79-2.3-28.02-31.18,2.35-33.16v.02Z"/>
  <path class="st15" d="M3245.07,117.5c18.58-1.2,27.75,4.17,30.73,11.32,4.12,9.88-2.12,24.58-33.08,21.82-25.79-2.3-28.02-31.18,2.35-33.16v.02Z"/>
  <path class="st6" d="M2873.92,134.07v-15.68c16.74-1.77,27.4,1.88,25.91,9.39-1.25,6.27-13.8,7.23-25.91,6.3v-.02Z"/>
  <path class="st6" d="M1611.52,138.11h-27.04l12.93-14.17c.74-.25,2.16.83,2.59,1.17,4.62,3.7,8.54,8.99,11.52,13.01Z"/>
  <path class="st6" d="M3442.84,138.11h-27.04l12.93-14.17c.74-.25,2.16.83,2.59,1.17,4.62,3.7,8.54,8.99,11.52,13.01h0Z"/>
  <path class="st6" d="M418.07,165.1c12.38,5.3-3.02,15.73-21.2,11.4-21.71-5.17,2.27-19.49,21.2-11.4Z"/>
  <path class="st0" d="M305.62,172.5h-12.93c-1.18-.49,5.45-6.05,6.47-6.05l6.47,6.05Z"/>
  <path class="st0" d="M615.91,172.52h-12.93c-1.18-.49,5.45-6.05,6.47-6.06l6.47,6.06h0Z"/>
  <path class="st6" d="M260.59,188.82c18.77-1.86,20.89,9.44,5.33,10.42s-19.52-9.02-5.33-10.42Z"/>
  <path class="st6" d="M596.94,192.67l-8.07.07v-4.05c7.33-.42,11.72.79,8.07,3.97v.02Z"/>
  <path class="st0" d="M1970.88,257.11c25.36-2.23,24.65,19.38,6.7,20.59-24.69,1.67-23.99-19.07-6.7-20.59ZM1978.25,275.46v-16.18c0-.88-4.66-2.18-7.02.52-2.04,2.35-2.19,14.26,1.06,16.2,2,1.2,5.33.39,5.96-.54h0Z"/>
  <path class="st0" d="M2095.79,257.5l-2.35,4.05h-19.99v1.52c13.91.05,25.79,3.55,21.79,10.14-3.68,6.05-30.88,5.83-30.1,1.76.9-4.76,15.95,3.73,21.79.73,9.05-4.66-12.03-9.53-21.71-8.58l7.05-9.61h23.52,0Z"/>
  <path class="st0" d="M2011.17,277.74c5.6-4.39,21.56-9.54,17.13-15.2-1.88-2.38-8.78-2.16-12.5-.74-1.06.41-.9,2.13-3.45,1.01.12-6.44,22.54-8.36,27.36-2.13,3.72,4.86-10.35,9.68-16.74,13.01,3.88-.12,8.31.25,12.07-.1,4.51-.42,2.98-2.01,6.7-1.91l-2.94,6.06h-27.63Z"/>
  <path class="st0" d="M1905.39,277.74c5.6-4.39,21.56-9.54,17.13-15.2-1.88-2.38-8.78-2.16-12.5-.74-1.06.41-.9,2.13-3.45,1.01.12-6.44,22.54-8.36,27.36-2.13,3.72,4.86-10.35,9.68-16.74,13.01,3.88-.12,8.31.25,12.07-.1,4.51-.42,2.98-2.01,6.7-1.91l-2.94,6.06h-27.63Z"/>
  <path class="st16" d="M1978.25,275.46c-.59.93-3.96,1.72-5.96.54-3.25-1.94-3.1-13.85-1.06-16.2,2.35-2.7,7.02-1.4,7.02-.52v16.18h0Z"/>
</svg>