<?xml version="1.0" encoding="UTF-8"?><svg id="Layer_1" xmlns="http://www.w3.org/2000/svg" viewBox="0 0 4800 800"><path d="M4800,0v800H0V0h4800ZM564.19,45.86c4.37,1.04,8.65,1.08,13.45,2.66,54.93,17.84,97.17,66.35,105.07,121.49l16.98-6.26c-9.45-67.03-68.01-123.96-136.86-137.48-64.29-12.61-131.08,11.22-171.29,60.23-70.88,86.4-42.75,211.67,57.71,262.93l.66-5.36c.33.18,1.03-.18,1.41,0,.61.32,1.18,2.88,2.82,2.7-.52-9.55,1.98-17.88,1.22-27.48-.52-6.58-3.43-13.92-4.04-20.45-5.93-68.33,37.91-111.8,92.37-147.7,2.59-.95,2.68,1.98,2.02,3.29-.52,1.13-15.99,13.69-19,16.89-11.19,11.89-24.5,28.38-31.32,42.93-1.22,2.57-4.04,6.98-2.54,9.73,29.58-31.04,72.29-41.58,114.43-47.03,3.9-.5,22.29-.72,23.05-3.65.38-1.53-8.32-25.86-9.78-29.59-13.64-35.14-35.37-66.53-56.44-97.79l.09-.04ZM1052.23,199.68h43.74c.66-3.96-.94-2.21-3.29-2.88-10.58-3.02-15.94-2.52-13.03-16.08.33-1.62,6.44-15.54,7.1-16.13,1.36-1.35,2.49-1.17,4.19-1.4,8.32-.95,31.32-.95,39.65,0,2.59.27,3.01.14,4.7,2.25,1.51,1.85,10.11,22.07,10.11,24.19,0,7.3-8.37,6.58-13.5,7.43-2.35.41-2.4-.81-2.12,2.66h64.9c.38-4.1-6.26-3.29-9.78-6.17-1.98-1.62-3.62-5.05-5.08-7.3-20.93-32.93-32.97-79.82-52.82-114.05-.89-1.49-1.03-3.65-3.57-3.33l-52.67,111.53c-5.83,10.41-7.01,10.36-16.79,16.31-1.41.86-2.49-.14-1.83,3.02l.09-.05ZM1383.7,68.78c-7.1-1.4-5.17,8.83-12.04,9.46-4.99.45-24.03-8.11-32.78-9.1-56.48-6.22-101.45,46.89-76.75,97.7,17.92,36.85,77.84,47.25,110.15,22.57,7.1-5.41,10.11-8.74,8.56-18.11-16.7,16.94-37.44,29.32-62.41,19.91-30.01-11.26-31.79-65.14-20.55-89.23,14.44-30.95,57.33-34.19,74.78-4.46,3.29,5.59,4.33,16.35,11.05,15.72v-44.5.05ZM1459.56,69.19c-82.4,9.41-77.23,141.76,23.56,133.15,67.25-5.72,85.46-94.91,28.45-125.68-15.24-8.24-34.85-9.46-52.02-7.48ZM1562.85,153.78v48.56c5.88,1.35,4.14-3.69,7.71-6.76,7.95-6.85,22.53,5.41,32.59,6.67,32.45,4.14,65.47-22.03,50.98-54.19-11.48-25.59-59.21-30.81-67.91-48.38-6.4-12.93,4.66-23.69,18.15-24.23,20.69-.81,37.25,17.3,40.07,35.72l4.37.81-1.41-43.15c-5.78-.18-2.45,8.87-9.22,9.46-3.72.32-19.19-8.42-26.9-9.32-44.77-5.18-67.77,41.53-28.36,68.96,14.58,10.14,68.15,25.23,46.94,49.64-21.21,24.41-63.77-7.66-62.83-33.78h-4.23.05ZM1936.65,113.33v-44.5h-4.19c-1.93,16.94-17.87,5.68-27.94,3.06-103.84-26.76-134.23,121.76-32.03,130.45,18.86,1.62,46.18-3.24,59.26-17.48,3.43-3.69,1.88-7.61,2.07-12.16l-20.22,15.05c-52.53,23.96-73.09-20.5-68.48-64.14,5.93-56.13,70.78-64.5,87.15-11.08,0,0,4.37.81,4.37.81ZM2107.33,199.68h45.15c.66-3.87-.85-2.25-3.25-2.88-6.63-1.76-13.73-.23-14.81-8.96-.89-7.48,5.93-17.34,8.42-24.37h47.55c1.79,8.69,12.42,21.13,10.11,29.91-.28,1.04-5.36,3.02-6.73,3.29-3.53.77-9.97-1.49-8.84,3.02h64.9c1.03-4.41-5.46-2.88-7.76-5.41-25.26-36.71-37.44-81.62-58.69-120.59-1.03-1.94-1.93-4.95-4.75-4.91l-55.45,116.98c-3.06,6.17-8.84,7.75-13.97,10.86-1.41.86-2.49-.14-1.83,3.02l-.05.05ZM2438.8,113.33v-44.5h-4.19c-1.93,16.94-17.87,5.68-27.94,3.06-103.84-26.76-134.23,121.76-32.03,130.45,18.86,1.62,46.18-3.24,59.26-17.48,3.43-3.69,1.88-7.61,2.07-12.16l-20.22,15.05c-52.53,23.96-73.09-20.5-68.48-64.14,5.93-56.13,70.78-64.5,87.15-11.08,0,0,4.37.81,4.37.81ZM2514.66,69.19c-80.66,9.23-77.74,141.26,23.56,133.15,57.19-4.59,82.82-72.48,45.81-112.57-17.73-19.19-43.6-23.51-69.37-20.59ZM3832.38,68.78c-7.1-1.4-5.17,8.83-12.04,9.46-4.99.45-24.03-8.11-32.78-9.1-56.48-6.22-101.45,46.89-76.75,97.7,17.92,36.85,77.84,47.25,110.15,22.57,7.1-5.41,10.11-8.74,8.56-18.11-16.7,16.94-37.44,29.32-62.41,19.91-30.01-11.26-31.79-65.14-20.55-89.23,14.44-30.95,57.33-34.19,74.78-4.46,3.29,5.59,4.33,16.35,11.05,15.72v-44.5.05ZM4430.43,68.78c-7.1-1.4-5.17,8.83-12.04,9.46-4.99.45-24.03-8.11-32.78-9.1-56.48-6.22-101.45,46.89-76.75,97.7,17.92,36.85,77.84,47.25,110.15,22.57,7.1-5.41,10.11-8.74,8.56-18.11-16.7,16.94-37.44,29.32-62.41,19.91-30.01-11.26-31.79-65.14-20.55-89.23,14.44-30.95,57.33-34.19,74.78-4.46,3.29,5.59,4.33,16.35,11.05,15.72v-44.5.05ZM990.19,71.49h-71.96c-1.03,4.37,6.96,2.39,11.05,3.6,8.75,2.57,8.28,12.61,8.75,19.95,1.55,23.51,1.74,59.01,0,82.43-.47,6.35-.75,15.95-7.48,18.47-4.8,1.8-13.03-1.04-12.32,3.74h119.88l4.23-45.86h-4.19c-4.23,18.38-12.84,35.68-34.61,37.75-7.38.72-29.96,2.21-32.5-5.32l-.52-103.2c.99-5.99,5.03-7.75,10.63-8.74,3.39-.59,10.21,1.8,9.03-2.84ZM1781.49,71.49h-112.83c-1.18,4.5,5.36,2.25,8.84,3.02,6.02,1.35,9.36,4.05,10.58,10.14-1.18,31.08,2.73,64.77.38,95.54-.56,7.61-.94,14.05-9.83,16.22-3.76.9-11.1-1.13-9.97,3.29h117.06l5.64-40.45-4.33.81c-5.27,19.32-19.19,31.08-40.12,32.93-5.08.45-26.06,1.13-26.06-6.04v-49.23c19.8-1.35,26.29,15.18,28.22,31.04h4.19v-68.78h-4.19c-2.12,16.49-7.53,32.61-28.22,31.04v-51.26h27.51c.61,0,7.43,1.94,8.75,2.43,12.89,4.55,19.09,15.99,20.18,28.6h4.23v-39.14l-.05-.14ZM2022.67,71.49h-70.55c-1.13,4.59,5.31,2.12,8.84,3.02,4.33,1.08,8.98,3.78,9.41,8.56-2.21,32.97,3.25,70,.14,102.52-.66,6.94-2.3,9.41-9.55,11.08-3.48.81-9.97-1.53-8.84,3.02h70.55c1.18-4.5-5.36-2.25-8.84-3.02-5.46-1.22-10.91-5.36-10.91-11.17v-47.88h47.97v47.88c0,5.77-5.46,9.91-10.91,11.17-3.48.77-9.97-1.49-8.84,3.02h70.55c1.13-4.59-5.31-2.12-8.84-3.02-4.33-1.08-8.98-3.78-9.41-8.56,2.26-32.97-3.29-70.05-.14-102.52.61-6.53,2.54-9.37,9.55-11.08,3.53-.86,9.97,1.58,8.84-3.02h-70.55c-1.18,4.5,5.36,2.25,8.84,3.02,4.47.99,10.91,5.09,10.91,9.82v45.18h-47.97v-43.83c0-5.77,5.46-9.91,10.91-11.17,3.48-.77,9.97,1.49,8.84-3.02ZM2666.57,71.49h-54.32c-1.13,4.64,5.36,2.12,8.89,2.97,8.37,2.07,9.03,6.58,9.55,13.83,2.12,31.08-1.6,64.41-.19,95.72l-4,8.29-14.2,7.34h45.15c.71-4.14-1.18-2.12-3.43-2.7-3.67-.99-14.86-4.05-14.86-8.74v-101.85l50.65,112.52,3.67.81,51.5-114.68v100.5c0,4.23-4.94,10.18-9.45,11.17-3.72.81-11.43-1.71-10.3,2.97h70.55c1.13-4.59-5.31-2.12-8.84-3.02-4.33-1.08-8.98-3.78-9.41-8.56,2.21-32.97-3.25-70-.14-102.52.66-6.94,2.3-9.41,9.55-11.08,3.48-.81,9.97,1.53,8.84-3.02h-55.03l-35.98,83.65-38.1-83.65-.09.05ZM2859.12,71.49h-56.44c-1.13,4.41,6.21,2.39,9.97,3.29,8.89,2.16,9.27,8.6,9.83,16.22,2.21,29.59-1.69,61.8-.19,91.67-1.88,11.08-6.44,11.76-16.18,14.28-2.3.59-4.14-1.44-3.43,2.7h46.56c.71-4.14-1.18-2.12-3.43-2.7-3.86-.99-8.23-1.17-11.43-3.96-1.32-1.17-4.89-7.7-4.89-8.83v-97.79l52.91,113.33,52.86-113.33v103.2c0,6.67-11.95,6.85-16.23,7.43-2.49.36-2.35-.68-2.12,2.66h70.55c1.18-4.5-5.36-2.25-8.84-3.02-6.49-1.49-8.94-3.38-9.59-9.73-3.34-32.66,2.59-70.63.19-103.87,1.74-9.23,8.94-7.88,16.13-8.87,2.49-.36,2.35.68,2.12-2.66h-54.32l-38.05,82.3-35.98-82.3h0ZM3065.07,71.49h-69.14c-.28,3.47-.24,2.25,2.12,2.66,6.3,1.04,12.37.09,14.49,7.75,4.37,26.98-7.52,79.82,7.1,102.48,16.93,26.26,75.96,23.83,90.35-4.46,4.61-9.05,5.31-25.9,5.78-36.26.99-20.09-.94-40.32.33-60.41,1.51-4.55,4.8-7.25,9.45-8.47,3.48-.9,9.69,1.04,8.56-3.29h-46.56c-.71,4.14,1.18,2.12,3.43,2.7,6.16,1.62,12.56,1.89,14.58,9.05-1.41,25.77,2.92,55.32.28,80.63-1.74,16.8-13.17,30.09-31.7,30.45-20.88.41-27.47-11.17-28.92-29.1-1.6-19.5-2.26-60.41.33-79.23.85-6.35,2.21-10.14,9.12-11.49,3.72-.72,11.38,1.58,10.25-3.02h.14ZM3254.09,148.38l-65.61-76.89h-48.68c-.71,4.05,1.13,2.12,3.29,2.84,7.48,2.43,15.9,7.07,16.51,15.27-3.2,29.73,4.04,66.98-.19,95.77-1.41,9.64-8.28,9.59-16.23,11.53-2.35.59-4.09-1.35-3.43,2.75h47.97c.71-4.14-1.18-2.12-3.43-2.7-5.6-1.44-16.27-3.96-16.27-11.44v-88.38l89.5,103.92,4.99,1.31v-118.06c0-.32,2.87-5.36,3.2-5.72,3.62-3.47,13.92-1.85,13.73-7.12h-45.15c-.71,4.14,1.18,2.12,3.43,2.7,3.86.99,8.23,1.17,11.43,3.96,1.32,1.17,4.89,7.7,4.89,8.83v61.4l.05.05ZM3358.45,71.49h-70.55c-1.13,4.41,6.21,2.34,9.97,3.29,7.01,1.71,8.79,5.95,9.59,12.39,2.82,22.25,1.98,69.91.24,92.97-.52,6.71-1.32,14.73-9.55,16.53-3.72.81-11.43-1.71-10.3,2.97h70.55c1.13-4.59-5.31-2.12-8.84-3.02-4.33-1.08-8.98-3.78-9.41-8.56,2.21-32.97-3.25-70-.14-102.52.66-6.94,2.3-9.41,9.55-11.08,3.48-.81,9.97,1.53,8.84-3.02l.05.05ZM3492.44,71.49h-121.29v35.09h4.23c.47-21.62,18.81-29.82,39.51-26.98v108.6c0,4.37-6.58,7.84-10.68,8.69-3.39.72-10.21-1.98-9.08,2.79h70.55c1.13-4.59-5.31-2.12-8.84-3.02-3.76-.95-9.5-4.37-9.5-8.47v-108.6c22.06-3.02,36.31,5.09,40.78,26.17l4.37.81v-35.09h-.05ZM3565.81,71.49h-64.9c-.71,3.87,1.03,2.21,3.1,3.02,9.59,3.92,10.35,6.49,15.8,14.59,13.12,19.46,23.05,42.97,35.74,62.93,1.22,5.68,1.03,32.61-.99,37.57-3.39,8.24-10.77,6.49-17.73,7.34-2.59.32-2.3-.5-2.12,2.7h74.78c.19-3.11.52-2.43-2.07-2.7-6.11-.68-14.58,1.08-17.82-5.95-1.98-4.32-2.16-38.78-.94-44.37,1.08-5,32.03-53.24,37.2-60.23,1.74-2.34,4.75-6.67,6.87-8.24,3.81-2.88,10.91-2.3,10.63-6.71h-40.92c-.71,4.05,1.08,2.12,3.29,2.84,7.2,2.3,12.56,1.49,10.49,10.99l-31.46,52.25c-2.3.32-2.82-1.71-3.81-3.11-7.24-10.5-18.86-31.13-24.46-42.7-2.77-5.72-9.08-15.32.38-17.3,3.48-.72,10.02,1.49,8.84-3.02l.09.09ZM3917.04,71.49h-70.55c-.19,3.15-.47,2.39,2.12,2.7,8.7.99,14.72-.18,17.59,10.18-2.16,32.12,3.15,68.2.14,99.82-.61,6.58-2.45,10.99-9.55,12.43-3.72.77-11.38-1.58-10.25,3.02h70.55c1.13-4.55-5.31-2.21-8.84-3.02-2.73-.63-9.5-4.32-9.5-7.12v-51.94h46.56v51.94c0,6.67-11.95,6.85-16.23,7.43-2.49.36-2.35-.68-2.12,2.66h70.55c.24-3.33.38-2.34-2.12-2.66-6.35-.86-13.73.27-16.18-7.48l.71-109.91c2.07-2.97,5.22-4.28,8.75-5.09s9.97,1.53,8.84-3.02h-70.55c-.24,3.33-.38,2.34,2.12,2.66,3.2.45,16.23,1.22,16.23,6.08v49.23h-46.56v-47.88c0-2.79,6.73-6.49,9.5-7.12,3.53-.81,9.97,1.53,8.84-3.02l-.05.09ZM4075.01,71.49h-69.14c-.28,3.47-.24,2.25,2.12,2.66,6.3,1.04,12.37.09,14.49,7.75,4.37,26.98-7.52,79.82,7.1,102.48,16.93,26.26,75.96,23.83,90.35-4.46,4.61-9.05,5.31-25.9,5.78-36.26.99-20.09-.94-40.32.33-60.41,1.51-4.55,4.8-7.25,9.45-8.47,3.48-.9,9.69,1.04,8.56-3.29h-46.56c-.71,4.14,1.18,2.12,3.43,2.7,6.16,1.62,12.56,1.89,14.58,9.05-1.41,25.77,2.92,55.32.28,80.63-1.74,16.8-13.17,30.09-31.7,30.45-20.88.41-27.47-11.17-28.92-29.1-1.6-19.5-2.26-60.41.33-79.23.85-6.35,2.21-10.14,9.12-11.49,3.72-.72,11.38,1.58,10.25-3.02h.14ZM4233.7,71.49c-26.24-2.3-55.92,1.71-82.49,0-.24,3.33-.38,2.34,2.12,2.66,7.2.99,14.39-.36,16.13,8.87-2.21,33.02,3.25,70,.14,102.52-.66,6.94-2.3,9.41-9.55,11.08-3.48.81-9.97-1.53-8.84,3.02h69.14c.28-3.47.24-2.25-2.12-2.66-4.56-.77-16.23-2.21-16.23-8.83v-46.53l7.48.27,43.32,57.75h43.74v-4.01c-6.11-.23-10.16-3.51-14.06-7.48-12.65-12.93-23-33.33-35.27-47.21-.52-3.02.56-1.53,2.07-1.98,13.87-4.28,24.88-12.7,26.2-27.61,2.26-25.59-17.4-37.7-41.67-39.86h-.09ZM4515.09,71.49h-70.55c-.19,3.15-.47,2.39,2.12,2.7,8.7.99,14.72-.18,17.59,10.18-2.16,32.12,3.15,68.2.14,99.82-.61,6.58-2.45,10.99-9.55,12.43-3.72.77-11.38-1.58-10.25,3.02h70.55c1.13-4.55-5.31-2.21-8.84-3.02-2.73-.63-9.5-4.32-9.5-7.12v-51.94h46.56v51.94c0,6.67-11.95,6.85-16.23,7.43-2.49.36-2.35-.68-2.12,2.66h70.55c.24-3.33.38-2.34-2.12-2.66-6.35-.86-13.73.27-16.18-7.48l.71-109.91c2.07-2.97,5.22-4.28,8.75-5.09s9.97,1.53,8.84-3.02h-70.55c-.24,3.33-.38,2.34,2.12,2.66,3.2.45,16.23,1.22,16.23,6.08v49.23h-46.56v-47.88c0-2.79,6.73-6.49,9.5-7.12,3.53-.81,9.97,1.53,8.84-3.02l-.05.09ZM741.92,147.07c-2.3-.54-3.25.45-4.99,1.31-15.71,8.06-28.22,18.65-46.23,25.9-37.62,15.14-69.98,14.73-108.45,21.76-66.6,12.12-114.38,63.92-105.49,130.45l21.12-26.31c35.6-32.16,71.21-27.25,111.79-41.44,11.33-3.96,27.18-15.68,35.93-18.24,2.16-.63,4.47-.36,6.73-.32,1.32.09.85,2.3.52,3.15s-10.86,12.25-12.46,13.74c-30.01,27.61-77.65,32.66-111.89,54.86-13.92,9.01-37.06,29.32-45.43,42.88-13.73,22.25-22.25,49.86-24.64,75.59l16.18-16.22c2.02-14.19,5.6-29.32,12.42-42.07,2.02-3.83,5.17-11.89,10.44-9.5,5.83,2.61,14.25,11.04,21.49,14.59,47.17,22.88,104.36-2.84,141.8-31.8,53.05-41.08,80.71-103.02,82.63-167.84l-1.51-30.41.05-.09ZM1463.8,312.66c-4.04,3.78-18.58-4.41-25.77-5.05-49.62-4.23-74.45,55.86-40.96,87.7,20.04,19.01,62.46,15.72,74.73-9.55.85-1.76,2.21-4.46-1.32-3.96-11.15,16.35-27.42,23.38-47.6,17.16-37.67-11.71-31.98-98.56,22.62-85.05,14.06,3.47,15.52,12.88,21.35,22.75,1.08,1.85,1.18,3.92,4.28,3.29l-2.82-32.39c-4.33-1.13-2.63,3.24-4.56,5.05l.05.05ZM1868.92,406.08h31.04c.71-3.87-1.03-2.21-3.1-3.02-3.01-1.22-7.9-1.44-8.09-5.68l9.08-22.34c1.08-1.35,2.63-1.22,4.19-1.4,6.68-.77,24.5-.77,31.18,0,2.59.27,3.01.14,4.7,2.25,1.46,1.8,8.65,19.59,8.56,21.53-.09,1.67-.85,2.3-1.98,3.38-3.62,3.33-9.55.72-9.22,5.32h40.92c.52-3.47-.28-2.12-1.98-2.84-4.28-1.8-8.79-1.53-11.01-7.03l-39.93-88.65-3.53.95-39.22,87.7c-.99,1.67-2.12,3.33-3.76,4.5-3.1,2.16-8.65,1.26-7.81,5.36l-.05-.05ZM1987.44,375.05v32.39h4.14c0-10.9,16.27-.99,23.47-.09,22.53,2.7,43.83-10.05,38.05-33.69-4.89-20.05-53.15-27.7-54.37-45.18-.38-5.23,4.23-10.72,8.84-13.02,17.03-8.38,37.39,7.16,36.26,24.55h4.23v-32.39h-4.14c-.33,10.99-14.44.99-22.1.14-26.71-2.97-47.03,22.84-27.33,42.34,10.86,10.77,62.6,25.77,41.67,46.62-14.53,14.5-46.98-.86-44.49-21.67h-4.23,0ZM2428.6,312.66c-4.04,3.78-18.58-4.41-25.77-5.05-49.62-4.23-74.45,55.86-40.96,87.7,20.04,19.01,62.46,15.72,74.73-9.55.85-1.76,2.21-4.46-1.32-3.96-11.15,16.35-27.42,23.38-47.6,17.16-37.67-11.71-31.98-98.56,22.62-85.05,14.06,3.47,15.52,12.88,21.35,22.75,1.08,1.85,1.18,3.92,4.28,3.29l-2.82-32.39c-4.33-1.13-2.63,3.24-4.56,5.05l.05.05ZM2724.8,312.66c-4.04,3.78-18.58-4.41-25.77-5.05-49.62-4.23-74.45,55.86-40.96,87.7,20.04,19.01,62.46,15.72,74.73-9.55.85-1.76,2.21-4.46-1.32-3.96-11.15,16.35-27.42,23.38-47.6,17.16-37.67-11.71-31.98-98.56,22.62-85.05,14.06,3.47,15.52,12.88,21.35,22.75,1.08,1.85,1.18,3.92,4.28,3.29l-2.82-32.39c-4.33-1.13-2.63,3.24-4.56,5.05l.05.05ZM3317.2,307.93c-62.13,8.15-54.18,106.8,13.59,99.32,62.5-6.89,55.4-108.38-13.59-99.32ZM3549.96,307.93c-62.13,8.15-54.18,106.8,13.59,99.32,62.5-6.89,55.4-108.38-13.59-99.32ZM3892.67,307.93c-62.13,8.15-54.18,106.8,13.59,99.32,62.5-6.89,55.4-108.38-13.59-99.32ZM4066.55,406.08h31.04c.71-3.87-1.03-2.21-3.1-3.02-3.01-1.22-7.9-1.44-8.09-5.68l9.08-22.34c1.08-1.35,2.63-1.22,4.19-1.4,6.68-.77,24.5-.77,31.18,0,2.59.27,3.01.14,4.7,2.25,1.46,1.8,8.65,19.59,8.56,21.53-.09,1.67-.85,2.3-1.98,3.38-3.62,3.33-9.55.72-9.22,5.32h40.92c.52-3.47-.28-2.12-1.98-2.84-4.28-1.8-8.79-1.53-11.01-7.03l-39.93-88.65-3.53.95-39.22,87.7c-.99,1.67-2.12,3.33-3.76,4.5-3.1,2.16-8.65,1.26-7.81,5.36l-.05-.05ZM1558.61,308.92h-77.6c-.75,4.64,5.93,1.8,10.39,4.19,1.88,1.04,3.39,2.39,3.67,4.59-1.88,24.64,2.59,52.75.09,76.94-.52,4.86-1.36,7.07-6.73,8.42-3.25.81-8.56-1.49-7.48,2.97h79.01l7.05-24.28c-3.67-.81-2.45,1.04-3.62,2.57-5.13,6.67-7.76,13.78-17.45,15.72-5.41,1.08-25.16,1.53-30.38.59-1.55-.27-4.99-2.34-4.99-3.33v-39.82h27.51c6.58,0,10.21,9.32,9.17,14.86h4.23v-33.74h-4.23c1.55,5.27-3.43,13.47-9.17,13.47h-27.51v-37.79h34.57c8.14,0,9.55,9.86,11.66,14.5.85,1.89.19,2.12,3.15,1.71l-1.41-21.58h.05ZM1620.69,308.92h-46.56c-.75,4.64,5.93,1.8,10.39,4.19,1.88,1.04,3.39,2.39,3.67,4.59-1.88,24.64,2.59,52.75.09,76.94-.52,4.86-1.36,7.07-6.73,8.42-3.25.81-8.56-1.49-7.48,2.97h79.01l7.05-26.98c-4.89,3.74-6.02,10.63-10.53,14.91-9.27,8.83-31.28,6.98-43.46,5.36l-1.51-1.62-.94-78.6c2.16-7.21,8.84-6.53,14.77-7.48,2.35-.41,2.4.81,2.12-2.66l.09-.05ZM1709.54,308.92h-45.15c-.56,4.91,6.58,1.35,11.29,4.73,2.3,1.67,3.43,4.41,3.9,7.07,4.14,22.25-8.79,66.13,13.12,80.54,16.7,10.99,52.39,8.56,61.8-10.86,9.41-19.41.42-51.35,4.42-71.31.38-1.98,3.15-5.27,4.84-6.17,4.42-2.34,10.11.68,9.22-3.96h-36.68c-.56,4.91,6.58,1.35,11.29,4.73,2.3,1.67,3.43,4.41,3.9,7.07,2.02,10.9,1.27,50.63-1.41,61.4-5.78,22.84-46.14,27.66-53.71,3.47-3.34-10.68-4.14-53.65-2.02-64.86.47-2.61,1.6-5.36,3.9-7.07,4.7-3.38,11.8.18,11.29-4.73v-.04ZM1823.82,308.92h-46.56c-.75,4.64,5.93,1.8,10.39,4.19,1.88,1.04,3.39,2.39,3.67,4.59-1.88,24.64,2.59,52.75.09,76.94-.52,4.86-1.36,7.07-6.73,8.42-3.25.81-8.56-1.49-7.48,2.97h79.01l7.05-26.98c-4.89,3.74-6.02,10.63-10.53,14.91-9.27,8.83-31.28,6.98-43.46,5.36l-1.51-1.62-.94-78.6c2.16-7.21,8.84-6.53,14.77-7.48,2.35-.41,2.4.81,2.12-2.66l.09-.05ZM2103.09,406.08h57.14c6.26,0,21.59-6.85,26.76-10.81,33.2-25.68,17.78-86.31-28.17-86.31h-55.73c-1.08,4.5,4.23,2.12,7.48,2.97,4,1.08,5.93,3.24,6.54,7.21-1.6,23.87,2.4,50.68.14,74.19-.47,5.05-1.03,8.24-6.73,9.77-3.25.86-8.56-1.53-7.48,2.97h.05ZM2290.7,308.92h-77.6c-.75,4.64,5.93,1.8,10.39,4.19,1.88,1.04,3.39,2.39,3.67,4.59-1.88,24.64,2.59,52.75.09,76.94-.52,4.86-1.36,7.07-6.73,8.42-3.25.81-8.56-1.49-7.48,2.97h79.01l7.05-24.28c-3.67-.81-2.45,1.04-3.62,2.57-5.13,6.67-7.76,13.78-17.45,15.72-5.41,1.08-25.16,1.53-30.38.59-1.55-.27-4.99-2.34-4.99-3.33v-39.82h27.51c6.58,0,10.21,9.32,9.17,14.86h4.23v-33.74h-4.23c1.55,5.27-3.43,13.47-9.17,13.47h-27.51v-37.79h34.57c8.14,0,9.55,9.86,11.66,14.5.85,1.89.19,2.12,3.15,1.71l-1.41-21.58h.05ZM2545.98,403.38c-21.87-1.62-32.03-28.92-44.91-42.7l-.24-3.15c26.24-1.8,32.97-35.14,8.47-45.23-1.79-.72-10.82-3.38-11.99-3.38h-51.5c-1.08,4.5,4.23,2.12,7.48,2.97,4,1.08,5.93,3.24,6.54,7.21-1.6,23.87,2.4,50.68.14,74.19-.47,5.05-1.03,8.24-6.73,9.77-3.25.86-8.56-1.53-7.48,2.97h43.74c.56-4.95-6.63-1.31-11.29-4.73-1.36-1.04-4.23-5.5-4.23-6.76v-34.41l11.99,1.35,32.03,44.23c9.27.63,18.62.18,27.94.27,26.48.27,53.05-.27,79.53.09l7.9-24.37c-3.67-.81-2.45,1.04-3.62,2.57-5.13,6.67-7.76,13.78-17.45,15.72-5.41,1.08-25.16,1.53-30.38.59-1.55-.27-4.99-2.34-4.99-3.33v-39.82h27.51c6.58,0,10.21,9.32,9.17,14.86h4.23v-33.74h-4.23c1.55,5.27-3.43,13.47-9.17,13.47h-27.51v-37.79h34.57c8.14,0,9.55,9.86,11.66,14.5.85,1.89.19,2.12,3.15,1.71l-1.41-21.58h-77.6c-.75,4.64,5.93,1.8,10.39,4.19,1.88,1.04,3.39,2.39,3.67,4.59l-.66,81.58c-3.48,4.46-9.55,4.41-14.81,4.05l.09.09ZM2785.8,308.92h-42.33c-.75,4.23,1.32,2.07,3.48,2.66,3.01.86,6.21,1.13,8.84,3.06.8,1.8,1.36,3.87,1.6,5.86,2.07,16.4,1.83,54.68.24,71.44-.42,4.14-2.02,9.64-6.73,11.13-3.25,1.04-8.56-1.67-7.48,2.97h42.33c.75-4.23-1.32-2.07-3.48-2.66-3.01-.86-6.21-1.13-8.84-3.06-.8-1.8-1.36-3.87-1.6-5.86-2.07-16.4-1.83-54.68-.24-71.44.42-4.14,2.02-9.64,6.73-11.13,3.25-1.04,8.56,1.67,7.48-2.97ZM2820.32,308.92h-27.51c-.71,4.01,1.08,2.16,3.29,2.84,6.91,2.21,9.45,1.76,10.68,10.09,2.16,14.86,1.69,54.59.19,70.09-.33,3.38-.38,5.36-2.87,8.06l-11.33,6.04h35.27v-2.7c-3.1,1.31-14.11-1.8-14.11-4.73v-70.81l36.4,75.14,3.81,3.11,38.8-78.24v70.81c0,2.93-11.01,6.04-14.11,4.73v2.7h43.74c1.08-4.5-4.23-2.12-7.48-2.97-4-1.08-5.93-3.24-6.54-7.21,1.6-23.87-2.4-50.68-.14-74.19.47-5.05,1.03-8.24,6.73-9.77,3.25-.86,8.56,1.53,7.48-2.97h-29.63l-35.93,74.19-36.68-74.19h-.05ZM2971.95,308.92h-42.33c-.75,4.23,1.32,2.07,3.48,2.66,3.01.86,6.21,1.13,8.84,3.06.8,1.8,1.36,3.87,1.6,5.86,2.07,16.4,1.83,54.68.24,71.44-.42,4.14-2.02,9.64-6.73,11.13-3.25,1.04-8.56-1.67-7.48,2.97h42.33c.75-4.23-1.32-2.07-3.48-2.66-3.01-.86-6.21-1.13-8.84-3.06-.8-1.8-1.36-3.87-1.6-5.86-2.07-16.4-1.83-54.68-.24-71.44.42-4.14,2.02-9.64,6.73-11.13,3.25-1.04,8.56,1.67,7.48-2.97ZM3056.6,308.92h-77.6c-.75,4.64,5.93,1.8,10.39,4.19,1.88,1.04,3.39,2.39,3.67,4.59-1.88,24.64,2.59,52.75.09,76.94-.52,4.86-1.36,7.07-6.73,8.42-3.25.81-8.56-1.49-7.48,2.97h79.01l7.05-24.28c-3.67-.81-2.45,1.04-3.62,2.57-5.13,6.67-7.76,13.78-17.45,15.72-5.41,1.08-25.16,1.53-30.38.59-1.55-.27-4.99-2.34-4.99-3.33v-39.82h27.51c6.58,0,10.21,9.32,9.17,14.86h4.23v-33.74h-4.23c1.55,5.27-3.43,13.47-9.17,13.47h-27.51v-37.79h34.57c8.14,0,9.55,9.86,11.66,14.5.85,1.89.19,2.12,3.15,1.71l-1.41-21.58h.05ZM3156.73,380.45c-10.3-5.86-57.9-71.49-62.79-71.49h-27.51c-.71,4.14,1.18,2.12,3.43,2.7,7.15,1.85,16.6,4.46,17.78,12.75,1.93,13.65,1.32,51.85-.24,65.99-.56,5.09-1.13,10.54-6.82,12.39-3.62,1.17-9.64-1.17-8.51,3.29h36.68c1.08-4.5-4.19-2.16-7.48-2.97-4.28-1.08-8.04-5.81-8.04-9.82v-62.75l69.14,76.89v-84.32c0-1.26,2.21-7.66,3.43-8.87,4.37-4.41,12.42-.09,12.09-5.32h-36.68c-1.08,4.5,4.19,2.16,7.48,2.97,4.28,1.08,8.04,5.81,8.04,9.82v58.74ZM3268.2,308.92h-83.2l-1.41,22.93c4.89.32,3.81-6.98,6.4-10.72,5.5-8.06,20.08-6.8,28.88-6.8v81.62c0,6.08-8.7,8.56-14.11,7.43v2.7h42.33c.71-5.23-7.15-.95-11.24-4.73-1.79-1.67-2.21-4.59-2.73-6.85v-77.93c1.6-4.55,19.09-1.8,23.42.18,6.11,2.84,6.82,6.62,8.7,11.98.75,2.12-1.22,3.83,2.96,3.15v-22.97ZM3469.16,308.92c-14.96-1.8-33.35,1.31-48.68,0-.71,5.23,7.15.95,11.24,4.73,1.65,1.53,2.4,4.68,2.73,6.85,2.26,15.18,1.74,56.89.19,72.79-.47,5.05-1.03,8.24-6.73,9.77-3.25.86-8.56-1.53-7.48,2.97h43.74c.8-5.14-6.16-1.13-10.68-3.96-1.41-.9-4.84-6.31-4.84-7.52v-33.06c24.6,5,51.69-1.31,47.97-30.41-1.46-11.44-16.32-20.9-27.51-22.21l.05.05ZM3666.64,308.92c-15.94-1.8-35.18,1.35-51.5,0-1.08,4.5,4.23,2.12,7.48,2.97,4,1.08,5.93,3.24,6.54,7.21-1.6,23.87,2.4,50.68.14,74.19-.47,5.05-1.03,8.24-6.73,9.77-3.25.86-8.56-1.53-7.48,2.97h43.74c.56-4.95-6.63-1.31-11.29-4.73-1.36-1.04-4.23-5.5-4.23-6.76v-34.41l11.99,1.35,31.75,44.5h28.22c.71-3.83-.94-2.21-3.1-3.06-9.55-3.6-10.82-3.42-18.11-11.08-8.79-9.28-15.29-21.62-23.7-31.31l-.24-3.15c33.96-5.27,30.43-44.73-3.53-48.56l.05.09ZM3839.44,308.92h-74.78l-1.41,24.28c3.9.63,2.4-.77,3.2-2.97,1.22-3.33,1.74-8.83,4.33-11.49,1.18-1.17,8.84-4.46,10.16-4.46h37.39l-64.9,91.76h83.2l4.23-25.63c-3.62-.68-2.45.72-3.53,2.61-2.4,4.28-3.95,10.59-8.42,13.6-1.65,1.13-11.19,4.01-12.75,4.01h-41.62l64.9-91.76v.05ZM4042.56,380.45c-10.3-5.86-57.9-71.49-62.79-71.49h-27.51c-.71,4.14,1.18,2.12,3.43,2.7,7.15,1.85,16.6,4.46,17.78,12.75,1.93,13.65,1.32,51.85-.24,65.99-.56,5.09-1.13,10.54-6.82,12.39-3.62,1.17-9.64-1.17-8.51,3.29h36.68c1.08-4.5-4.19-2.16-7.48-2.97-4.28-1.08-8.04-5.81-8.04-9.82v-62.75l69.14,76.89v-84.32c0-1.26,2.21-7.66,3.43-8.87,4.37-4.41,12.42-.09,12.09-5.32h-36.68c-1.08,4.5,4.19,2.16,7.48,2.97,4.28,1.08,8.04,5.81,8.04,9.82v58.74ZM483.81,342.7l-26.81-8.11c.38,6.67.52,11.58-2.82,17.52l21.12,6.76,8.51-16.17ZM383.68,480.27l-25.35-55.32-26.81,55.32c10.21,1.76,11.29-3.65,13.97-11.31l24.69-.9c3.81,7.25,2.77,14.64,13.54,12.21h-.05ZM756.03,480.27l-25.35-55.32-25.4,55.32c9.59,1.71,10.68-5.63,13.54-12.21l24.69.9,4.28,11.13,8.23.23v-.05ZM451.17,429.19c-48.35-18.42-57.43,57.93-7.71,50.95,7.95-1.13,8.65-2.97,7.9-10.63-17.97,7.48-34.57.77-32.5-19.64,1.5-15.05,20.55-19.37,32.5-11.4l-.19-9.28ZM482.07,426.67c-20.18,2.61-31.13,26.13-19.42,42.16,11.52,15.77,36.5,15.86,47.74-.23,13.92-19.95-3.81-45.09-28.31-41.89v-.05ZM537.05,426.58c-11.71,1.85-17.31,16.22-7.43,24.01,4.99,3.96,14.39,4.46,17.73,10.05,6.21,10.36-7.95,17.03-14.96,10.27-2.02-1.94-2.12-5.95-4.28-6.71-10.58-3.56-6.54,14.19,7.34,15.95,13.87,1.76,24.74-6.71,21.45-20.5-2.63-11.04-26.15-12.48-23.47-21.58,2.68-9.1,14.39.59,17.07.23,10.35-1.4,2.35-8.56-3.81-10.68-3.57-1.22-5.74-1.62-9.59-.99l-.05-.05ZM645.83,429.19c-31.84-15.36-58.98,29.05-29.91,46.8,8.89,5.45,33.72,9.05,30.1-6.53-3.25-.72-5.13,2.21-7.81,2.61-33.67,5.27-33.25-37.97-5.55-37.84,5.78,0,8.28,3.33,13.36,4.14l-.19-9.28v.09ZM310.31,427.66l-8.47,2.03v48.56l2.12,2.03h23.28v-8.11h-16.93s0-44.5,0-44.5ZM598.05,427.66h-28.92l-2.12,2.03v48.56l2.12,2.03h28.92v-8.11h-21.16v-17.52h21.16v-6.76h-21.16v-12.16h21.16v-8.11.05ZM665.77,427.66h-8.47v52.61h8.47v-24.28h23.99v24.28h8.47v-52.61h-8.47v20.23h-23.99v-20.23ZM291.97,507.25c.85-11.62-17.31-10.5-24.69-5.41-20.74,14.28,1.74,44.59,24.5,30.86l.19-5.18c-4.47.27-7.15,4.05-11.95,4.1-20.41.18-20.36-31.53,2.68-28.33,4.14.59,5.46,3.78,9.27,4.01v-.05ZM315.63,498.15c-25.87,1.35-24.03,41.71,5.22,37.34,23.52-3.47,20.41-38.69-5.22-37.34ZM620.62,507.25c1.51-9.77-13.03-10.23-20.08-7.75-18.44,6.49-15.61,34.28,5.27,36.08,6.21.54,16.98-.41,14.81-8.11-7.81,2.3-11.1,6.53-19.61,1.89-13.5-7.34-7.52-28.6,10.35-26.13,4.14.59,5.46,3.78,9.27,4.01ZM758.85,507.25c1.6-9.37-11.76-10.14-18.67-7.75-21.63,7.57-14.86,40.41,11.99,35.72,4.75-.81,8.09-2.84,6.68-7.75-7.1,2.75-11.85,6.35-19.61,1.89-17.82-10.23,1.51-37.07,19.61-22.16v.05ZM380.81,535.59c1.32-1.26-5.08-32.16-6.3-35.09s-1.46-1.44-2.45.36c-1.08,1.98-10.16,25.5-12.37,23.92-3.1-6.76-5.41-16.53-9.55-22.52-.89-1.26.19-2.43-3.15-1.76l-6.4,33.74c2.02,2.43,3.57,1.53,4.66-.95,1.88-4.28,2.73-14.32,3.1-19.28,3.2-.54,2.26.14,3.15,1.71,2.45,4.32,4.33,11.98,7.05,16.17,1.08,1.67,1.32,2.84,3.9,2.34l9.88-21.58,4.23,22.03,4.23.9h0ZM404.8,524.77l-13.36-25.63-7.76,36.4,4.33-.77,4.14-22.12,11.99,22.93,9.88-20.23c3.15-.59,1.79,1.26,2.3,3.15,1.03,4.01,1.5,21.85,8.23,15-4.14-9.73-3.29-23.02-6.87-32.48-.71-1.94.38-2.25-2.96-1.85l-9.92,25.63v-.05ZM434.43,499.14h-5.64v26.31c0,.81,4.33,7.12,5.69,8.06,7.38,5.18,23.94,1.08,23.94-8.06v-26.31h-5.64v27.66c0,4.91-18.34,6.4-18.34-1.35v-26.31ZM493.69,524.77l-26.81-25.63v36.44l4.23-2.03v-23.6l26.81,25.63v-36.44h-4.23v25.63ZM510.62,499.14h-4.23v35.09h4.23v-35.09ZM541.66,499.14h-25.4v4.05h9.88v31.04h4.23v-31.04h11.29v-4.05ZM569.83,499.14c-3.9-3.47-12.42,11.85-12.7,14.82l-8.65-13.24-5.41-.23c5.78,12.79,14.67,19.46,11.29,35.05,7.2-.81,3.2-11.49,4.89-17.57.85-3.15,12.42-17.25,10.63-18.83h-.05ZM627.68,499.14v35.09h4.23v-17.52h19.75v17.57h4.23v-35.09h-4.23v13.51h-18.95l-.8-13.51h-4.23v-.05ZM688.35,499.14v26.31c0,5.63-16.79,10.23-18.39-1.26-.99-6.98,1.08-15.59-.14-22.79l-1.13-1.62-4.33-.59v26.31c0,9.46,18.58,14.1,25.44,6.8.94-.99,4.19-7.39,4.19-8.15v-24.95h-5.64v-.05ZM701.05,499.14v34.41c8.56,6.62,4.33-9.28,6.35-14.14,5.03,4.64,9.45,16.89,17.64,15.5l-12.7-16.17c8.28-.5,13.64-8.2,9.03-15.41-4.61-7.21-13.17-3.42-20.32-4.19ZM765.9,499.14v34.41c9.22,7.84,4.23-14.19,5.64-15.54h17.54c2.45.32-1.41,16.62,2.96,17.52l3.53-2.03v-34.41h-5.64v13.51h-17.54l-.8-13.51h-5.64l-.05.05ZM4797.18,798.65v-173.33l-2.12-2.03H3.53l-2.12,2.03v173.33h4795.77Z" fill="#fdfdfd"/><path d="M741.92,147.07l1.51,30.41c-1.93,64.86-29.58,126.8-82.63,167.84-37.39,28.96-94.63,54.68-141.8,31.8-7.29-3.56-15.71-11.98-21.49-14.59-5.31-2.39-8.42,5.72-10.44,9.5-6.82,12.79-10.39,27.93-12.42,42.07l-16.18,16.22c2.4-25.72,10.91-53.33,24.64-75.59,8.37-13.56,31.51-33.87,45.43-42.88,34.29-22.21,81.88-27.25,111.89-54.86,1.6-1.49,12.09-12.88,12.46-13.74s.85-3.06-.52-3.15c-2.21,0-4.52-.32-6.73.32-8.75,2.57-24.6,14.28-35.93,18.24-40.63,14.19-76.24,9.28-111.79,41.44l-21.12,26.31c-8.89-66.53,38.89-118.33,105.49-130.45,38.47-6.98,70.83-6.58,108.45-21.76,18.01-7.25,30.52-17.84,46.23-25.9,1.69-.86,2.68-1.85,4.99-1.31l-.05.09Z" fill="#319053"/><path d="M4797.18,798.65H1.41v-173.33l2.12-2.03h4791.53l2.12,2.03v173.33ZM4791.53,628.65H7.05v168.65h4784.48v-168.65Z"/><path d="M564.19,45.86c21.07,31.26,42.8,62.66,56.44,97.79,1.46,3.78,10.16,28.11,9.78,29.59-.71,2.93-19.09,3.15-23.05,3.65-42.19,5.45-84.84,15.99-114.43,47.03-1.55-2.75,1.32-7.12,2.54-9.73,6.82-14.55,20.13-31.04,31.32-42.93,3.01-3.2,18.48-15.77,19-16.89.61-1.35.56-4.23-2.02-3.29-54.51,35.9-98.34,79.37-92.37,147.7.56,6.53,3.53,13.83,4.04,20.45.75,9.59-1.74,17.93-1.22,27.48-1.65.23-2.16-2.39-2.82-2.7l-17.17-27.48c-.66-1.22-2.45-1.94-2.59-2.21-46.7-94.64,37.34-157.25,91.66-221.94,12.13-14.46,26.24-31.08,31.09-49.19,4.61.77,6.49,1.89,9.88,2.7l-.09-.05Z" fill="#329153"/><path d="M449.95,344.01l-.66,5.36c-100.46-51.22-128.58-176.53-57.71-262.93,40.21-49.01,107-72.84,171.29-60.23,68.81,13.51,127.41,70.45,136.86,137.48l-16.98,6.26c-7.9-55.14-50.14-103.6-105.07-121.49-4.8-1.58-9.08-1.62-13.45-2.66-3.39-.81-5.27-1.94-9.88-2.7-147.11-24.1-240.8,145.95-145.98,252.3,5.83,6.53,17.21,14.23,21.87,20.23,7.05,9.05,8.28,21.04,19.75,28.33l-.05.05Z" fill="#2b4a81"/><path d="M2859.12,71.49l35.98,82.3,38.05-82.3h54.32c.24,3.33.38,2.34-2.12,2.66-7.2.99-14.39-.36-16.13,8.87,2.45,33.24-3.48,71.22-.19,103.87.66,6.35,3.1,8.24,9.59,9.73,3.48.77,9.97-1.53,8.84,3.02h-70.55c-.24-3.33-.38-2.34,2.12-2.66,4.28-.59,16.23-.77,16.23-7.43v-103.2l-52.86,113.33-52.91-113.33v97.79c0,1.13,3.57,7.66,4.89,8.83,3.15,2.79,7.52,2.97,11.43,3.96,2.3.59,4.14-1.44,3.43,2.7h-46.56c-.71-4.14,1.18-2.12,3.43-2.7,9.74-2.52,14.3-3.2,16.18-14.28-1.51-29.86,2.4-62.07.19-91.67-.56-7.61-.94-14.05-9.83-16.22-3.76-.9-11.1,1.13-9.97-3.29h56.44Z" fill="#030303"/><path d="M2666.57,71.49l38.1,83.65,35.98-83.65h55.03c1.13,4.55-5.36,2.21-8.84,3.02-7.29,1.67-8.94,4.14-9.55,11.08-3.06,32.52,2.35,69.5.14,102.52.38,4.77,5.08,7.48,9.41,8.56,3.53.86,9.97-1.58,8.84,3.02h-70.55c-1.13-4.68,6.58-2.16,10.3-2.97,4.56-.99,9.45-6.98,9.45-11.17v-100.5l-51.5,114.68-3.67-.81-50.65-112.52v101.85c0,4.68,11.19,7.79,14.86,8.74,2.26.59,4.14-1.44,3.43,2.7h-45.15l14.2-7.34,4-8.29c-1.41-31.31,2.3-64.64.19-95.72-.47-7.25-1.18-11.76-9.55-13.83-3.48-.86-10.02,1.67-8.89-2.97h54.32l.09-.05Z" fill="#040404"/><path d="M3917.04,71.49c1.13,4.55-5.31,2.21-8.84,3.02-2.73.63-9.5,4.32-9.5,7.12v47.88h46.56v-49.23c0-4.91-13.03-5.68-16.23-6.08-2.49-.36-2.35.68-2.12-2.66h70.55c1.18,4.5-5.36,2.21-8.84,3.02s-6.68,2.12-8.75,5.09l-.71,109.91c2.45,7.75,9.83,6.62,16.18,7.48,2.49.36,2.35-.68,2.12,2.66h-70.55c-.24-3.33-.38-2.34,2.12-2.66,4.28-.59,16.23-.77,16.23-7.43v-51.94h-46.56v51.94c0,2.79,6.73,6.49,9.5,7.12,3.53.81,9.97-1.53,8.84,3.02h-70.55c-1.13-4.59,6.54-2.25,10.25-3.02,7.15-1.44,8.94-5.86,9.55-12.43,3.01-31.62-2.35-67.7-.14-99.82-2.82-10.36-8.89-9.19-17.59-10.18-2.59-.32-2.3.45-2.12-2.7h70.55l.05-.09Z" fill="#020202"/><path d="M4515.09,71.49c1.13,4.55-5.31,2.21-8.84,3.02-2.73.63-9.5,4.32-9.5,7.12v47.88h46.56v-49.23c0-4.91-13.03-5.68-16.23-6.08-2.49-.36-2.35.68-2.12-2.66h70.55c1.18,4.5-5.36,2.21-8.84,3.02s-6.68,2.12-8.75,5.09l-.71,109.91c2.45,7.75,9.83,6.62,16.18,7.48,2.49.36,2.35-.68,2.12,2.66h-70.55c-.24-3.33-.38-2.34,2.12-2.66,4.28-.59,16.23-.77,16.23-7.43v-51.94h-46.56v51.94c0,2.79,6.73,6.49,9.5,7.12,3.53.81,9.97-1.53,8.84,3.02h-70.55c-1.13-4.59,6.54-2.25,10.25-3.02,7.15-1.44,8.94-5.86,9.55-12.43,3.01-31.62-2.35-67.7-.14-99.82-2.82-10.36-8.89-9.19-17.59-10.18-2.59-.32-2.3.45-2.12-2.7h70.55l.05-.09Z" fill="#020202"/><path d="M2022.67,71.49c1.18,4.5-5.36,2.25-8.84,3.02-5.46,1.22-10.91,5.36-10.91,11.17v43.83h47.97v-45.18c0-4.73-6.44-8.78-10.91-9.82-3.48-.77-9.97,1.49-8.84-3.02h70.55c1.13,4.59-5.31,2.12-8.84,3.02-7.01,1.76-8.94,4.55-9.55,11.08-3.1,32.48,2.4,69.55.14,102.52.38,4.77,5.08,7.48,9.41,8.56,3.53.86,9.97-1.58,8.84,3.02h-70.55c-1.18-4.5,5.36-2.25,8.84-3.02,5.46-1.22,10.91-5.36,10.91-11.17v-47.88h-47.97v47.88c0,5.77,5.46,9.91,10.91,11.17,3.48.77,9.97-1.49,8.84,3.02h-70.55c-1.13-4.55,5.36-2.21,8.84-3.02,7.29-1.67,8.94-4.14,9.55-11.08,3.06-32.52-2.35-69.5-.14-102.52-.38-4.77-5.08-7.48-9.41-8.56-3.53-.86-9.97,1.58-8.84-3.02,0,0,70.55,0,70.55,0Z" fill="#030303"/><path d="M4233.7,71.49c24.27,2.16,43.93,14.28,41.67,39.86-1.32,14.91-12.32,23.33-26.2,27.61-1.51.45-2.54-.99-2.07,1.98,12.28,13.87,22.67,34.28,35.27,47.21,3.9,4.01,7.95,7.25,14.06,7.48v4.01h-43.69l-43.32-57.75-7.48-.27v46.53c0,6.62,11.66,8.06,16.23,8.83,2.35.41,2.4-.81,2.12,2.66h-69.14c-1.13-4.55,5.36-2.21,8.84-3.02,7.29-1.67,8.94-4.14,9.55-11.08,3.06-32.52-2.35-69.5-.14-102.52-1.74-9.23-8.94-7.88-16.13-8.87-2.49-.36-2.35.68-2.12-2.66,26.57,1.71,56.3-2.3,82.49,0h.05ZM4201.95,134.91c24.6,1.67,42.28-3.65,40.96-30.41-1.22-24.55-18.81-27.66-40.96-26.26v56.67Z" fill="#030303"/><path d="M1459.56,69.19c17.17-1.98,36.78-.72,52.02,7.48,57,30.77,38.8,119.95-28.45,125.68-100.79,8.6-105.96-123.74-23.56-133.15ZM1494.65,82.75c-13.73-12.21-35.51-8.69-45.81,5.81-14.91,20.95-16.6,91.62,10.72,104.01,56.25,25.45,61.61-86.31,35.13-109.82h-.05Z" fill="#040404"/><path d="M2514.66,69.19c25.77-2.93,51.69,1.35,69.37,20.59,37.01,40.14,11.38,108.02-45.81,112.57-101.31,8.11-104.22-123.92-23.56-133.15ZM2524.49,75.9c-35.6,4.68-34.14,68.11-26.81,92.39,11.43,38.02,53.76,36.67,64.06-1.49,7.29-27.07,7.81-96.85-37.25-90.9Z" fill="#040404"/><path d="M1781.49,71.49v39.14h-4.23c-1.08-12.61-7.29-24.1-20.18-28.6-1.32-.45-8.14-2.43-8.75-2.43h-27.51v51.26c20.74,1.58,26.1-14.55,28.22-31.04h4.19v68.78h-4.19c-1.93-15.81-8.42-32.39-28.22-31.04v49.23c0,7.16,20.98,6.49,26.06,6.04,20.93-1.8,34.8-13.56,40.12-32.93l4.33-.81-5.64,40.45h-117.06c-1.13-4.41,6.21-2.39,9.97-3.29,8.89-2.16,9.27-8.6,9.83-16.22,2.3-30.77-1.6-64.46-.38-95.54-1.22-6.04-4.56-8.78-10.58-10.14-3.48-.77-9.97,1.49-8.84-3.02h112.83l.05.14Z" fill="#040404"/><path d="M3254.09,148.38v-61.4c0-1.13-3.57-7.66-4.89-8.83-3.15-2.79-7.52-2.97-11.43-3.96-2.3-.59-4.14,1.44-3.43-2.7h45.15c.19,5.27-10.11,3.65-13.73,7.12-.33.32-3.2,5.36-3.2,5.72v118.06l-4.99-1.31-89.5-103.92v88.38c0,7.48,10.68,10,16.27,11.44,2.3.59,4.14-1.44,3.43,2.7h-47.97c-.66-4.1,1.08-2.16,3.43-2.75,7.95-1.94,14.81-1.89,16.23-11.53,4.23-28.78-3.01-66.04.19-95.77-.61-8.24-9.08-12.84-16.51-15.27-2.21-.72-4,1.17-3.29-2.84h48.68l65.61,76.89-.05-.05Z" fill="#050505"/><path d="M3065.07,71.49c1.13,4.59-6.54,2.3-10.25,3.02-6.91,1.4-8.28,5.18-9.12,11.49-2.59,18.83-1.93,59.73-.33,79.23,1.46,17.93,8.04,29.55,28.92,29.1,18.53-.36,29.96-13.65,31.7-30.45,2.63-25.36-1.69-54.86-.28-80.63-2.02-7.16-8.42-7.43-14.58-9.05-2.3-.59-4.14,1.44-3.43-2.7h46.56c1.13,4.32-5.08,2.34-8.56,3.29-4.7,1.22-7.95,3.92-9.45,8.47-1.27,20.09.66,40.36-.33,60.41-.52,10.36-1.18,27.21-5.78,36.26-14.44,28.29-73.42,30.77-90.35,4.46-14.63-22.66-2.68-75.54-7.1-102.48-2.16-7.66-8.23-6.71-14.49-7.75-2.35-.41-2.4.81-2.12-2.66h69.14-.14Z" fill="#040404"/><path d="M4075.01,71.49c1.13,4.59-6.54,2.3-10.25,3.02-6.91,1.4-8.28,5.18-9.12,11.49-2.59,18.83-1.93,59.73-.33,79.23,1.46,17.93,8.04,29.55,28.92,29.1,18.53-.36,29.96-13.65,31.7-30.45,2.63-25.36-1.69-54.86-.28-80.63-2.02-7.16-8.42-7.43-14.58-9.05-2.3-.59-4.14,1.44-3.43-2.7h46.56c1.13,4.32-5.08,2.34-8.56,3.29-4.7,1.22-7.95,3.92-9.45,8.47-1.27,20.09.66,40.36-.33,60.41-.52,10.36-1.18,27.21-5.78,36.26-14.44,28.29-73.42,30.77-90.35,4.46-14.63-22.66-2.68-75.54-7.1-102.48-2.16-7.66-8.23-6.71-14.49-7.75-2.35-.41-2.4.81-2.12-2.66h69.14-.14Z" fill="#040404"/><path d="M1562.85,153.78h4.23c-.99,26.13,42,57.75,62.83,33.78,20.83-23.96-32.36-39.5-46.94-49.64-39.37-27.43-16.37-74.14,28.36-68.96,7.71.9,23.19,9.68,26.9,9.32,6.77-.63,3.43-9.64,9.22-9.46l1.41,43.15-4.37-.81c-2.87-18.42-19.42-36.58-40.07-35.72-13.5.54-24.55,11.31-18.15,24.23,8.65,17.61,56.39,22.79,67.91,48.38,14.44,32.16-18.53,58.29-50.98,54.19-10.06-1.26-24.64-13.51-32.59-6.67-3.62,3.11-1.88,8.11-7.71,6.76v-48.56h-.05Z" fill="#040404"/><path d="M4430.43,68.78v44.5c-6.68.63-7.76-10.14-11.05-15.72-17.45-29.73-60.39-26.49-74.78,4.46-11.19,24.05-9.41,77.97,20.55,89.23,24.97,9.37,45.76-3.02,62.41-19.91,1.55,9.37-1.46,12.7-8.56,18.11-32.36,24.68-92.23,14.28-110.15-22.57-24.69-50.77,20.27-103.87,76.75-97.7,8.75.95,27.84,9.55,32.78,9.1,6.87-.63,4.89-10.86,12.04-9.46v-.05Z" fill="#060606"/><path d="M3832.38,68.78v44.5c-6.68.63-7.76-10.14-11.05-15.72-17.45-29.73-60.39-26.49-74.78,4.46-11.19,24.05-9.41,77.97,20.55,89.23,24.97,9.37,45.76-3.02,62.41-19.91,1.55,9.37-1.46,12.7-8.56,18.11-32.36,24.68-92.23,14.28-110.15-22.57-24.69-50.77,20.27-103.87,76.75-97.7,8.75.95,27.84,9.55,32.78,9.1,6.87-.63,4.89-10.86,12.04-9.46v-.05Z" fill="#060606"/><path d="M1383.7,68.78v44.5c-6.68.63-7.76-10.14-11.05-15.72-17.45-29.73-60.39-26.49-74.78,4.46-11.19,24.05-9.41,77.97,20.55,89.23,24.97,9.37,45.76-3.02,62.41-19.91,1.55,9.37-1.46,12.7-8.56,18.11-32.36,24.68-92.23,14.28-110.15-22.57-24.69-50.77,20.27-103.87,76.75-97.7,8.75.95,27.84,9.55,32.78,9.1,6.87-.63,4.89-10.86,12.04-9.46v-.05Z" fill="#060606"/><path d="M3492.44,71.49v35.09l-4.37-.81c-4.47-21.08-18.72-29.19-40.78-26.17v108.6c0,4.05,5.74,7.52,9.5,8.47,3.53.86,9.97-1.58,8.84,3.02h-70.55c-1.13-4.77,5.69-2.07,9.08-2.79,4.04-.86,10.68-4.32,10.68-8.69v-108.6c-20.69-2.84-39.04,5.36-39.51,26.98h-4.23v-35.09h121.34Z" fill="#030303"/><path d="M1936.65,113.33l-4.37-.81c-16.37-53.42-81.27-45.05-87.15,11.08-4.61,43.65,15.94,88.11,68.48,64.14l20.22-15.05c-.19,4.59,1.36,8.47-2.07,12.16-13.07,14.23-40.4,19.1-59.26,17.48-102.2-8.69-71.82-157.21,32.03-130.45,10.06,2.57,25.96,13.87,27.94-3.06h4.19s0,44.5,0,44.5Z" fill="#040404"/><path d="M2438.8,113.33l-4.37-.81c-16.37-53.42-81.27-45.05-87.15,11.08-4.61,43.65,15.94,88.11,68.48,64.14l20.22-15.05c-.19,4.59,1.36,8.47-2.07,12.16-13.07,14.23-40.4,19.1-59.26,17.48-102.2-8.69-71.82-157.21,32.03-130.45,10.06,2.57,25.96,13.87,27.94-3.06h4.19s0,44.5,0,44.5Z" fill="#040404"/><path d="M3565.81,71.49c1.18,4.5-5.36,2.25-8.84,3.02-9.45,1.98-3.15,11.58-.38,17.3,5.64,11.58,17.21,32.21,24.46,42.7.99,1.4,1.46,3.47,3.81,3.11l31.46-52.25c2.07-9.55-3.29-8.69-10.49-10.99-2.21-.72-4,1.17-3.29-2.84h40.92c.28,4.41-6.82,3.83-10.63,6.71-2.12,1.62-5.17,5.95-6.87,8.24-5.17,6.98-36.12,55.23-37.2,60.23-1.18,5.54-1.03,40.05.94,44.37,3.2,7.03,11.71,5.27,17.82,5.95,2.59.27,2.26-.41,2.07,2.7h-74.78c-.19-3.2-.47-2.39,2.12-2.7,6.96-.81,14.39.9,17.73-7.34,2.02-4.95,2.21-31.85.99-37.57-12.7-19.95-22.62-43.47-35.74-62.93-5.46-8.11-6.21-10.68-15.8-14.59-2.07-.86-3.86.86-3.1-3.02h64.9l-.09-.09Z" fill="#040404"/><path d="M2107.33,199.68c-.66-3.15.38-2.16,1.83-3.02,5.13-3.11,10.91-4.68,13.97-10.86l55.45-116.98c2.82-.05,3.72,2.97,4.75,4.91,21.26,38.96,33.44,83.87,58.69,120.59,2.3,2.48,8.84.95,7.76,5.41h-64.9c-1.13-4.5,5.31-2.25,8.84-3.02,1.36-.32,6.44-2.25,6.73-3.29,2.3-8.78-8.32-21.22-10.11-29.95h-47.55c-2.49,7.07-9.31,16.94-8.42,24.41,1.08,8.69,8.14,7.16,14.81,8.96,2.4.63,3.9-.99,3.25,2.88h-45.15l.05-.05ZM2146.83,155.14h39.51c-6.21-12.79-10.82-26.71-17.64-39.19-.85-1.58,0-3.24-2.82-2.66l-19.05,41.85Z" fill="#040404"/><path d="M1052.23,199.68c-.66-3.15.38-2.16,1.83-3.02,9.78-5.95,10.96-5.9,16.79-16.31l52.67-111.53c2.54-.32,2.68,1.85,3.57,3.33,19.85,34.23,31.89,81.13,52.82,114.05,1.41,2.25,3.06,5.68,5.08,7.3,3.53,2.88,10.16,2.07,9.78,6.17h-64.9c-.28-3.47-.24-2.25,2.12-2.66,5.13-.86,13.5-.14,13.5-7.43,0-2.12-8.65-22.34-10.11-24.19-1.69-2.07-2.12-1.94-4.7-2.25-8.37-.95-31.32-.95-39.65,0-1.74.18-2.82,0-4.19,1.4-.66.63-6.73,14.5-7.1,16.13-2.92,13.56,2.45,13.06,13.03,16.08,2.35.68,3.95-1.08,3.29,2.88h-43.74l-.09.05ZM1091.73,155.14h38.1l-17.64-41.85c-2.35-.72-4.33,5.45-5.17,7.21-5.5,11.31-10.82,22.93-15.29,34.64Z" fill="#040404"/><path d="M990.19,71.49c1.18,4.59-5.64,2.25-9.03,2.84-5.6.99-9.64,2.75-10.63,8.74l.52,103.2c2.54,7.52,25.11,5.99,32.5,5.32,21.73-2.12,30.38-19.41,34.61-37.75h4.19l-4.23,45.86h-119.88c-.71-4.77,7.53-1.89,12.32-3.74,6.73-2.57,7.01-12.12,7.48-18.47,1.74-23.42,1.55-58.92,0-82.43-.47-7.34,0-17.39-8.75-19.95-4.09-1.22-12.09.77-11.05-3.6,0,0,71.96,0,71.96,0Z" fill="#020202"/><path d="M3358.45,71.49c1.13,4.55-5.36,2.21-8.84,3.02-7.29,1.67-8.94,4.14-9.55,11.08-3.06,32.52,2.35,69.5.14,102.52.38,4.77,5.08,7.48,9.41,8.56,3.53.86,9.97-1.58,8.84,3.02h-70.55c-1.13-4.68,6.58-2.16,10.3-2.97,8.23-1.8,9.03-9.82,9.55-16.53,1.74-23.06,2.59-70.72-.24-92.97-.8-6.44-2.59-10.68-9.59-12.39-3.76-.9-11.1,1.13-9.97-3.29h70.55l-.05-.05Z" fill="#030303"/><path d="M2820.32,308.92l36.68,74.19,35.93-74.19h29.63c1.08,4.5-4.23,2.12-7.48,2.97-5.69,1.53-6.21,4.73-6.73,9.77-2.26,23.47,1.74,50.32.14,74.19.66,3.96,2.54,6.13,6.54,7.21,3.25.86,8.56-1.53,7.48,2.97h-43.74v-2.7c3.1,1.31,14.11-1.8,14.11-4.73v-70.81l-38.8,78.24-3.81-3.11-36.4-75.14v70.81c0,2.93,11.01,6.04,14.11,4.73v2.7h-35.27l11.33-6.04c2.49-2.7,2.54-4.68,2.87-8.06,1.46-15.5,1.98-55.23-.19-70.09-1.22-8.33-3.76-7.88-10.68-10.09-2.21-.72-4,1.17-3.29-2.84h27.56Z" fill="#375999"/><path d="M2103.09,406.08c-1.08-4.5,4.23-2.12,7.48-2.97,5.69-1.53,6.21-4.73,6.73-9.77,2.26-23.47-1.74-50.32-.14-74.19-.66-3.96-2.54-6.13-6.54-7.21-3.25-.86-8.56,1.53-7.48-2.97h55.73c45.95,0,61.38,60.63,28.17,86.31-5.17,4.01-20.51,10.81-26.76,10.81h-57.19ZM2131.31,399.32c25.44,5.59,48.4-2.48,54.6-28.06,8.47-34.86-16.18-67.57-54.6-53.56v81.62Z" fill="#355898"/><path d="M3666.64,308.92c33.96,3.83,37.48,43.29,3.53,48.56l.24,3.15c8.47,9.68,14.91,22.03,23.7,31.31,7.24,7.66,8.56,7.48,18.11,11.08,2.16.81,3.81-.77,3.1,3.06h-28.22l-31.75-44.5-11.99-1.35v34.41c0,1.22,2.87,5.72,4.23,6.76,4.66,3.42,11.85-.23,11.29,4.73h-43.74c-1.08-4.5,4.23-2.12,7.48-2.97,5.69-1.53,6.21-4.73,6.73-9.77,2.26-23.47-1.74-50.32-.14-74.19-.66-3.96-2.54-6.13-6.54-7.21-3.25-.86-8.56,1.53-7.48-2.97,16.32,1.35,35.56-1.8,51.5,0l-.05-.09ZM3643.36,356.17c44.26,5.86,45.57-51.17,0-40.45v40.45Z" fill="#355898"/><path d="M2545.98,406.08c-9.27-.09-18.67.32-27.94-.27l-32.03-44.23-11.99-1.35v34.41c0,1.22,2.87,5.72,4.23,6.76,4.66,3.42,11.85-.23,11.29,4.73h-43.74c-1.08-4.5,4.23-2.12,7.48-2.97,5.69-1.53,6.21-4.73,6.73-9.77,2.26-23.47-1.74-50.32-.14-74.19-.66-3.96-2.54-6.13-6.54-7.21-3.25-.86-8.56,1.53-7.48-2.97h51.5c1.18,0,10.21,2.66,11.99,3.38,24.5,10.09,17.78,43.38-8.47,45.23l.24,3.15c12.84,13.83,23.05,41.08,44.91,42.7v2.7l-.05-.09ZM2474.07,356.17c44.26,5.86,45.57-51.17,0-40.45v40.45Z" fill="#355898"/><path d="M3317.2,307.93c68.99-9.05,76.05,92.48,13.59,99.32-67.77,7.48-75.72-91.22-13.59-99.32ZM3318.57,313.33c-36.5,5.27-33.77,82.3-2.82,88.42,37.15,7.34,44.68-31.85,39.69-58.2-3.57-19.05-14.58-33.42-36.87-30.18v-.05Z" fill="#375999"/><path d="M3549.96,307.93c68.99-9.05,76.05,92.48,13.59,99.32-67.77,7.48-75.72-91.22-13.59-99.32ZM3551.32,313.33c-36.5,5.27-33.77,82.3-2.82,88.42,37.15,7.34,44.68-31.85,39.69-58.2-3.57-19.05-14.58-33.42-36.87-30.18v-.05Z" fill="#375999"/><path d="M3892.67,307.93c68.99-9.05,76.05,92.48,13.59,99.32-67.77,7.48-75.72-91.22-13.59-99.32ZM3894.09,313.33c-36.5,5.27-33.77,82.3-2.82,88.42,37.15,7.34,44.68-31.85,39.69-58.2-3.57-19.05-14.58-33.42-36.87-30.18v-.05Z" fill="#375999"/><path d="M4042.56,380.45v-58.69c0-4.01-3.76-8.74-8.04-9.82-3.25-.81-8.56,1.49-7.48-2.97h36.68c.38,5.23-7.67.9-12.09,5.32-1.22,1.22-3.43,7.61-3.43,8.87v84.32l-69.14-76.89v62.75c0,4.01,3.76,8.74,8.04,9.82,3.25.81,8.56-1.49,7.48,2.97h-36.68c-1.08-4.46,4.94-2.16,8.51-3.29,5.64-1.8,6.26-7.3,6.82-12.39,1.55-14.14,2.16-52.34.24-65.99-1.18-8.29-10.63-10.86-17.78-12.75-2.3-.59-4.14,1.44-3.43-2.7h27.51c4.89,0,52.44,65.63,62.79,71.49v-.05Z" fill="#335797"/><path d="M3156.73,380.45v-58.69c0-4.01-3.76-8.74-8.04-9.82-3.25-.81-8.56,1.49-7.48-2.97h36.68c.38,5.23-7.67.9-12.09,5.32-1.22,1.22-3.43,7.61-3.43,8.87v84.32l-69.14-76.89v62.75c0,4.01,3.76,8.74,8.04,9.82,3.25.81,8.56-1.49,7.48,2.97h-36.68c-1.08-4.46,4.94-2.16,8.51-3.29,5.64-1.8,6.26-7.3,6.82-12.39,1.55-14.14,2.16-52.34.24-65.99-1.18-8.29-10.63-10.86-17.78-12.75-2.3-.59-4.14,1.44-3.43-2.7h27.51c4.89,0,52.44,65.63,62.79,71.49v-.05Z" fill="#335797"/><path d="M2545.98,403.38c5.27.41,11.33.41,14.81-4.05l.66-81.58c-.24-2.21-1.79-3.56-3.67-4.59-4.52-2.43-11.19.41-10.39-4.19h77.6l1.41,21.58c-2.96.41-2.3.18-3.15-1.71-2.12-4.59-3.48-14.5-11.66-14.5h-34.57v37.79h27.51c5.74,0,10.72-8.2,9.17-13.51h4.23v33.74h-4.23c1.03-5.5-2.59-14.82-9.17-14.82h-27.51v39.82c0,.99,3.43,3.06,4.99,3.33,5.22.95,24.97.54,30.38-.59,9.69-1.94,12.32-9.05,17.45-15.72,1.18-1.53,0-3.33,3.62-2.57l-7.9,24.37c-26.53-.36-53.05.18-79.53-.09v-2.7h-.05Z" fill="#335797"/><path d="M2290.7,308.92l1.41,21.58c-2.96.41-2.3.18-3.15-1.71-2.12-4.59-3.48-14.5-11.66-14.5h-34.57v37.79h27.51c5.74,0,10.72-8.2,9.17-13.51h4.23v33.74h-4.23c1.03-5.5-2.59-14.82-9.17-14.82h-27.51v39.82c0,.99,3.43,3.06,4.99,3.33,5.22.95,24.97.54,30.38-.59,9.69-1.94,12.32-9.05,17.45-15.72,1.18-1.53,0-3.33,3.62-2.57l-7.05,24.28h-79.01c-1.08-4.46,4.19-2.16,7.48-2.97,5.36-1.35,6.21-3.56,6.73-8.42,2.49-24.19-1.98-52.3-.09-76.94-.24-2.21-1.79-3.56-3.67-4.59-4.51-2.43-11.19.41-10.39-4.19h77.6-.05Z" fill="#335797"/><path d="M1558.61,308.92l1.41,21.58c-2.96.41-2.3.18-3.15-1.71-2.12-4.59-3.48-14.5-11.66-14.5h-34.57v37.79h27.51c5.74,0,10.72-8.2,9.17-13.51h4.23v33.74h-4.23c1.03-5.5-2.59-14.82-9.17-14.82h-27.51v39.82c0,.99,3.43,3.06,4.99,3.33,5.22.95,24.97.54,30.38-.59,9.69-1.94,12.32-9.05,17.45-15.72,1.18-1.53,0-3.33,3.62-2.57l-7.05,24.28h-79.01c-1.08-4.46,4.19-2.16,7.48-2.97,5.36-1.35,6.21-3.56,6.73-8.42,2.49-24.19-1.98-52.3-.09-76.94-.24-2.21-1.79-3.56-3.67-4.59-4.51-2.43-11.19.41-10.39-4.19h77.6-.05Z" fill="#335797"/><path d="M3056.6,308.92l1.41,21.58c-2.96.41-2.3.18-3.15-1.71-2.12-4.59-3.48-14.5-11.66-14.5h-34.57v37.79h27.51c5.74,0,10.72-8.2,9.17-13.51h4.23v33.74h-4.23c1.03-5.5-2.59-14.82-9.17-14.82h-27.51v39.82c0,.99,3.43,3.06,4.99,3.33,5.22.95,24.97.54,30.38-.59,9.69-1.94,12.32-9.05,17.45-15.72,1.18-1.53,0-3.33,3.62-2.57l-7.05,24.28h-79.01c-1.08-4.46,4.19-2.16,7.48-2.97,5.36-1.35,6.21-3.56,6.73-8.42,2.49-24.19-1.98-52.3-.09-76.94-.24-2.21-1.79-3.56-3.67-4.59-4.52-2.43-11.19.41-10.39-4.19h77.6-.05Z" fill="#335797"/><path d="M3469.16,308.92c11.19,1.35,26.06,10.77,27.51,22.21,3.72,29.1-23.37,35.41-47.97,30.41v33.06c0,1.22,3.39,6.62,4.84,7.52,4.52,2.79,11.48-1.17,10.68,3.96h-43.74c-1.08-4.5,4.23-2.12,7.48-2.97,5.69-1.53,6.21-4.73,6.73-9.77,1.51-15.9,2.07-57.61-.19-72.79-.33-2.16-1.08-5.36-2.73-6.85-4.09-3.78-11.99.5-11.24-4.73,15.33,1.31,33.72-1.8,48.68,0l-.05-.05ZM3448.7,357.52c14.53,2.48,29.58-.09,31.09-16.8,1.79-20.05-11.01-29.73-31.09-25.05v41.85Z" fill="#345798"/><path d="M3839.44,308.92l-64.9,91.76h41.62c1.51,0,11.1-2.88,12.75-4.01,4.47-3.02,6.02-9.32,8.42-13.6,1.08-1.89-.09-3.33,3.53-2.61l-4.23,25.63h-83.2l64.9-91.76h-37.39c-1.27,0-8.98,3.29-10.16,4.46-2.54,2.61-3.06,8.11-4.33,11.49-.8,2.16.75,3.6-3.2,2.97l1.41-24.28h74.78v-.05Z" fill="#355898"/><path d="M1987.44,375.05h4.23c-2.49,20.77,29.96,36.13,44.49,21.67,20.93-20.86-30.81-35.86-41.67-46.62-19.66-19.5.66-45.32,27.33-42.34,7.67.86,21.78,10.86,22.1-.09h4.14v32.3h-4.23c1.13-17.39-19.24-32.93-36.26-24.55-4.61,2.3-9.22,7.75-8.84,13.02,1.22,17.48,49.48,25.14,54.37,45.18,5.74,23.69-15.57,36.4-38.05,33.69-7.2-.86-23.52-10.81-23.47.05h-4.14v-32.3h0Z" fill="#355898"/><path d="M1709.54,308.92c.56,4.91-6.58,1.35-11.29,4.73-2.3,1.67-3.43,4.41-3.9,7.07-2.12,11.22-1.32,54.19,2.02,64.86,7.57,24.19,47.92,19.37,53.71-3.47,2.73-10.77,3.48-50.5,1.41-61.4-.47-2.61-1.6-5.36-3.9-7.07-4.7-3.38-11.8.18-11.29-4.73h36.68c.85,4.64-4.84,1.62-9.22,3.96-1.69.9-4.42,4.14-4.84,6.17-4,20,5.22,51.53-4.42,71.31-9.64,19.77-45.15,21.85-61.8,10.86-21.92-14.41-8.98-58.29-13.12-80.54-.47-2.61-1.6-5.36-3.9-7.07-4.7-3.38-11.8.18-11.29-4.73h45.15v.04Z" fill="#355898"/><path d="M1868.92,406.08c-.85-4.1,4.7-3.2,7.81-5.36,1.65-1.17,2.77-2.79,3.76-4.5l39.22-87.7,3.53-.95,39.93,88.65c2.21,5.5,6.68,5.23,11.01,7.03,1.69.72,2.54-.63,1.98,2.84h-40.92c-.28-4.64,5.6-1.98,9.22-5.32,1.13-1.04,1.88-1.71,1.98-3.38.09-1.89-7.05-19.68-8.56-21.53-1.69-2.07-2.12-1.94-4.7-2.25-6.68-.72-24.55-.77-31.18,0-1.55.18-3.1,0-4.19,1.4l-9.08,22.34c.19,4.23,5.13,4.46,8.09,5.68,2.07.86,3.81-.86,3.1,3.02h-31.04l.05.05ZM1933.83,368.29c-3.57-10.68-8.28-24.82-13.83-34.68-.52-.9-2.21-3.78-3.1-3.11l-15.52,37.79h32.45Z" fill="#375999"/><path d="M4066.55,406.08c-.85-4.1,4.7-3.2,7.81-5.36,1.65-1.17,2.77-2.79,3.76-4.5l39.22-87.7,3.53-.95,39.93,88.65c2.21,5.5,6.68,5.23,11.01,7.03,1.69.72,2.54-.63,1.98,2.84h-40.92c-.28-4.64,5.6-1.98,9.22-5.32,1.13-1.04,1.88-1.71,1.98-3.38.09-1.89-7.05-19.68-8.56-21.53-1.69-2.07-2.12-1.94-4.7-2.25-6.68-.72-24.55-.77-31.18,0-1.55.18-3.1,0-4.19,1.4l-9.08,22.34c.19,4.23,5.13,4.46,8.09,5.68,2.07.86,3.81-.86,3.1,3.02h-31.04l.05.05ZM4131.41,368.29c-3.57-10.68-8.28-24.82-13.83-34.68-.52-.9-2.21-3.78-3.1-3.11l-15.52,37.79h32.45,0Z" fill="#375999"/><path d="M1463.8,312.66c1.93-1.8.24-6.17,4.56-5.05l2.82,32.39c-3.1.63-3.2-1.49-4.28-3.29-5.83-9.86-7.29-19.28-21.35-22.75-54.56-13.51-60.29,73.33-22.62,85.05,20.13,6.26,36.45-.81,47.6-17.16,3.57-.45,2.21,2.21,1.32,3.96-12.28,25.27-54.74,28.56-74.73,9.55-33.53-31.85-8.7-91.94,40.96-87.7,7.2.63,21.73,8.83,25.77,5.05l-.05-.05Z" fill="#385a99"/><path d="M2428.6,312.66c1.93-1.8.24-6.17,4.56-5.05l2.82,32.39c-3.1.63-3.2-1.49-4.28-3.29-5.83-9.86-7.29-19.28-21.35-22.75-54.56-13.51-60.29,73.33-22.62,85.05,20.13,6.26,36.45-.81,47.6-17.16,3.57-.45,2.21,2.21,1.32,3.96-12.28,25.27-54.74,28.56-74.73,9.55-33.53-31.85-8.7-91.94,40.96-87.7,7.2.63,21.73,8.83,25.77,5.05l-.05-.05Z" fill="#385a99"/><path d="M2724.8,312.66c1.93-1.8.24-6.17,4.56-5.05l2.82,32.39c-3.1.63-3.2-1.49-4.28-3.29-5.83-9.86-7.29-19.28-21.35-22.75-54.56-13.51-60.29,73.33-22.62,85.05,20.13,6.26,36.45-.81,47.6-17.16,3.57-.45,2.21,2.21,1.32,3.96-12.28,25.27-54.74,28.56-74.73,9.55-33.53-31.85-8.7-91.94,40.96-87.7,7.2.63,21.73,8.83,25.77,5.05l-.05-.05Z" fill="#385a99"/><path d="M1620.69,308.92c.28,3.47.24,2.25-2.12,2.66-5.93.99-12.6.32-14.77,7.48l.94,78.6,1.51,1.62c12.13,1.67,34.19,3.47,43.46-5.36,4.47-4.28,5.64-11.17,10.53-14.91l-7.05,26.98h-79.01c-1.08-4.46,4.19-2.16,7.48-2.97,5.36-1.35,6.21-3.56,6.73-8.42,2.49-24.19-1.98-52.3-.09-76.94-.24-2.21-1.79-3.56-3.67-4.59-4.51-2.43-11.19.41-10.39-4.19h46.56l-.09.05Z" fill="#335797"/><path d="M1823.82,308.92c.28,3.47.24,2.25-2.12,2.66-5.93.99-12.6.32-14.77,7.48l.94,78.6,1.51,1.62c12.13,1.67,34.19,3.47,43.46-5.36,4.47-4.28,5.64-11.17,10.53-14.91l-7.05,26.98h-79.01c-1.08-4.46,4.19-2.16,7.48-2.97,5.36-1.35,6.21-3.56,6.73-8.42,2.49-24.19-1.98-52.3-.09-76.94-.24-2.21-1.79-3.56-3.67-4.59-4.51-2.43-11.19.41-10.39-4.19h46.56l-.09.05Z" fill="#335797"/><path d="M3268.2,308.92v22.93c-4.23.68-2.21-1.08-2.96-3.15-1.93-5.36-2.59-9.14-8.7-11.98-4.37-2.03-21.82-4.73-23.37-.18v77.93c.42,2.25.85,5.23,2.63,6.85,4.09,3.78,11.99-.5,11.24,4.73h-42.33v-2.7c5.41,1.13,14.11-1.35,14.11-7.43v-81.62c-8.79,0-23.37-1.26-28.88,6.8-2.59,3.78-1.51,11.04-6.4,10.72l1.41-22.93h83.2l.05.05Z" fill="#345798"/><path d="M2785.8,308.92c1.08,4.64-4.19,1.94-7.48,2.97-4.66,1.49-6.3,6.98-6.73,11.13-1.6,16.71-1.83,55,.24,71.44.24,1.98.8,4.05,1.6,5.86,2.63,1.94,5.83,2.21,8.84,3.06,2.16.63,4.23-1.58,3.48,2.66h-42.33c-1.08-4.64,4.19-1.94,7.48-2.97,4.66-1.49,6.3-6.98,6.73-11.13,1.6-16.71,1.83-55-.24-71.44-.24-1.98-.8-4.05-1.6-5.86-2.63-1.94-5.83-2.21-8.84-3.06-2.16-.63-4.23,1.58-3.48-2.66h42.33Z" fill="#345798"/><path d="M2971.95,308.92c1.08,4.64-4.19,1.94-7.48,2.97-4.66,1.49-6.3,6.98-6.73,11.13-1.6,16.71-1.83,55,.24,71.44.24,1.98.8,4.05,1.6,5.86,2.63,1.94,5.83,2.21,8.84,3.06,2.16.63,4.23-1.58,3.48,2.66h-42.33c-1.08-4.64,4.19-1.94,7.48-2.97,4.66-1.49,6.3-6.98,6.73-11.13,1.6-16.71,1.83-55-.24-71.44-.24-1.98-.8-4.05-1.6-5.86-2.63-1.94-5.83-2.21-8.84-3.06-2.16-.63-4.23,1.58-3.48-2.66h42.33Z" fill="#345798"/><path d="M482.07,426.67c24.5-3.15,42.23,21.98,28.31,41.89-11.24,16.13-36.21,15.99-47.74.23-11.71-15.99-.75-39.55,19.42-42.16v.05ZM501.68,440.27c-22.72-21.58-51.5,16.62-25.44,30.41,21.82,11.53,40.31-16.26,25.44-30.41Z" fill="#325084"/><polygon points="665.77 427.66 665.77 447.88 689.76 447.88 689.76 427.66 698.22 427.66 698.22 480.27 689.76 480.27 689.76 455.99 665.77 455.99 665.77 480.27 657.31 480.27 657.31 427.66 665.77 427.66" fill="#365487"/><polygon points="598.05 427.66 598.05 435.77 576.88 435.77 576.88 447.88 598.05 447.88 598.05 454.64 576.88 454.64 576.88 472.16 598.05 472.16 598.05 480.27 569.12 480.27 567.01 478.24 567.01 429.68 569.12 427.66 598.05 427.66" fill="#325084"/><path d="M383.68,480.27c-10.82,2.43-9.74-5-13.54-12.21l-24.69.9c-2.68,7.66-3.76,13.06-13.97,11.31l26.81-55.32,25.35,55.32h.05ZM366.75,460l-7.76-16.13c-1.18,0-9.17,14.82-7.76,16.17h15.52v-.05Z" fill="#325084"/><path d="M756.03,480.27l-8.23-.23-4.28-11.13-24.69-.9c-2.87,6.58-3.95,13.92-13.54,12.21l25.4-55.32,25.35,55.32v.05ZM739.09,460.05l-7.76-16.17c-1.18,0-9.17,14.82-7.76,16.17h15.52,0Z" fill="#325084"/><path d="M537.05,426.58c3.86-.59,6.02-.23,9.59.99,6.16,2.07,14.16,9.28,3.81,10.68-2.73.36-14.39-9.46-17.07-.23s20.83,10.59,23.47,21.58c3.29,13.83-7.57,22.25-21.45,20.5-13.87-1.76-17.87-19.5-7.34-15.95,2.21.77,2.3,4.77,4.28,6.71,7.01,6.76,21.16.09,14.96-10.27-3.34-5.54-12.75-6.08-17.73-10.05-9.88-7.79-4.28-22.16,7.43-24.01l.05.05Z" fill="#325084"/><path d="M645.83,429.19l.19,9.28c-5.13-.81-7.57-4.14-13.36-4.14-27.65-.14-28.12,43.11,5.55,37.84,2.68-.41,4.61-3.38,7.81-2.61,3.62,15.59-21.21,11.98-30.1,6.53-29.07-17.75-1.93-62.16,29.91-46.8v-.09Z" fill="#325084"/><path d="M451.17,429.19l.19,9.28c-11.99-8.02-30.99-3.65-32.5,11.4-2.07,20.41,14.53,27.12,32.5,19.64.8,7.66,0,9.55-7.9,10.63-49.71,6.98-40.63-69.37,7.71-50.95Z" fill="#325084"/><polygon points="310.31 427.66 310.31 472.16 327.24 472.16 327.24 480.27 303.96 480.27 301.85 478.24 301.85 429.68 310.31 427.66" fill="#325084"/><path d="M404.8,524.77l9.92-25.63c3.39-.41,2.26-.05,2.96,1.85,3.53,9.46,2.73,22.75,6.87,32.48-6.73,6.85-7.2-10.99-8.23-15-.47-1.85.89-3.74-2.3-3.15l-9.88,20.23-11.99-22.93-4.14,22.12-4.33.77,7.76-36.4,13.36,25.63v.05Z" fill="#479c65"/><path d="M380.81,535.59l-4.23-.9-4.23-22.03-9.88,21.58c-2.59.5-2.77-.63-3.9-2.34-2.73-4.19-4.56-11.85-7.05-16.17-.89-1.58.05-2.3-3.15-1.71-.38,4.95-1.22,15-3.1,19.28-1.13,2.48-2.63,3.38-4.66.95l6.4-33.74c3.34-.68,2.26.45,3.15,1.76,4.14,6.04,6.44,15.77,9.55,22.52,2.16,1.53,11.29-21.98,12.37-23.92.99-1.8,1.22-3.29,2.45-.36s7.67,33.87,6.3,35.09h0Z" fill="#479c65"/><path d="M315.63,498.15c25.63-1.31,28.69,33.87,5.22,37.34-29.25,4.32-31.04-36.04-5.22-37.34ZM312.71,503.51c-17.03,3.74-12.46,30.41,6.4,27.79,18.86-2.61,16.13-32.75-6.4-27.79Z" fill="#479c65"/><path d="M765.9,499.14h5.64l.8,13.51h17.54v-13.51h5.64v34.41l-3.53,2.03c-4.37-.9-.52-17.21-2.96-17.57h-17.54c-1.36,1.35,3.57,23.38-5.64,15.54v-34.41h.05Z" fill="#56a472"/><path d="M701.05,499.14c7.15.77,15.9-2.79,20.32,4.19s-.75,14.91-9.03,15.41l12.7,16.17c-8.18,1.4-12.6-10.86-17.64-15.5-2.02,4.86,2.21,20.77-6.35,14.14,0,0,0-34.41,0-34.41ZM716.33,513.78c4.37-8.47-.89-11.71-9.69-10.59v10.81l9.69-.18v-.05Z" fill="#479c65"/><path d="M434.43,499.14v26.31c0,7.75,18.34,6.26,18.34,1.35v-27.66h5.64v26.31c0,9.14-16.55,13.24-23.94,8.06-1.32-.95-5.69-7.25-5.69-8.06v-26.31h5.64Z" fill="#479c65"/><polygon points="493.69 524.77 493.69 499.14 497.92 499.14 497.92 535.59 471.11 509.95 471.11 533.56 466.88 535.59 466.88 499.14 493.69 524.77" fill="#479c65"/><path d="M688.35,499.14h5.64v24.95c0,.72-3.25,7.16-4.19,8.15-6.87,7.34-25.44,2.66-25.44-6.8v-26.31l4.33.59,1.13,1.62c1.22,7.21-.85,15.81.14,22.79,1.6,11.53,18.39,6.89,18.39,1.26v-26.31.05Z" fill="#479c65"/><path d="M483.81,342.7l-8.51,16.17-21.12-6.76c3.34-5.95,3.2-10.86,2.82-17.52l26.81,8.11Z" fill="#325084"/><path d="M291.97,507.25c-3.81-.23-5.13-3.42-9.27-4.01-23.05-3.2-23.09,28.51-2.68,28.33,4.8,0,7.48-3.83,11.95-4.1l-.19,5.18c-22.76,13.74-45.24-16.58-24.5-30.86,7.38-5.09,25.54-6.22,24.69,5.41v.05Z" fill="#479c65"/><path d="M620.62,507.25c-3.81-.23-5.13-3.42-9.27-4.01-17.92-2.48-23.84,18.83-10.35,26.13,8.51,4.64,11.8.41,19.61-1.89,2.16,7.66-8.61,8.6-14.81,8.11-20.93-1.8-23.7-29.59-5.27-36.08,7.05-2.48,21.59-2.07,20.08,7.75Z" fill="#479c65"/><polygon points="627.68 499.14 631.91 499.14 632.71 512.66 651.66 512.66 651.66 499.14 655.9 499.14 655.9 534.23 651.66 534.23 651.66 516.71 631.91 516.71 631.91 534.23 627.68 534.23 627.68 499.14" fill="#3b965b"/><path d="M758.85,507.25c-18.15-14.95-37.44,11.94-19.61,22.16,7.76,4.46,12.51.86,19.61-1.89,1.41,4.91-1.93,6.94-6.68,7.75-26.85,4.68-33.63-28.15-11.99-35.72,6.91-2.43,20.27-1.62,18.67,7.75v-.05Z" fill="#479c65"/><path d="M569.83,499.14c1.83,1.62-9.78,15.68-10.63,18.83-1.69,6.08,2.3,16.76-4.89,17.57,3.39-15.59-5.5-22.25-11.29-35.05l5.41.23,8.65,13.24c.28-3.02,8.79-18.29,12.7-14.82h.05Z" fill="#479c65"/><polygon points="541.66 499.14 541.66 503.2 530.37 503.2 530.37 534.23 526.14 534.23 526.14 503.2 516.26 503.2 516.26 499.14 541.66 499.14" fill="#3b965b"/><rect x="506.38" y="499.14" width="4.23" height="35.09" fill="#3b965b"/><path d="M451.36,344.01c-.38-.18-1.08.18-1.41,0-11.48-7.3-12.7-19.28-19.75-28.33l1.41-1.35c.14.27,1.93.99,2.59,2.21,0,0,17.17,27.48,17.17,27.48Z" fill="#f5f6f9"/><path d="M4791.53,628.65v168.65H7.05v-168.65h4784.48ZM2286.47,740.63h33.16l3.53-16.17c-4.51-.27-2.63,3.96-8.04,5.09-4.51.95-9.83,0-14.49.27,7.67-8.87,24.6-21.67,20.08-34.68-5.74-16.62-32.69-11.49-32.83,5.68,3.06,2.93,2.87-1.62,4.14-2.7,4.47-3.78,12.75-4.37,15,1.98,5.31,15.09-13.83,28.83-20.55,40.54ZM2365.06,685.63c-20.74,4.05-21.59,59.37,8.04,54.91,21.54-3.24,22.39-60.86-8.04-54.91ZM2413.4,740.63h33.16l3.53-16.17c-4.52-.27-2.63,3.96-8.04,5.09-4.52.95-9.83,0-14.49.27,7.67-8.87,24.6-21.67,20.08-34.68-5.74-16.62-32.69-11.49-32.83,5.68,3.06,2.93,2.87-1.62,4.14-2.7,4.47-3.78,12.75-4.37,15,1.98,5.31,15.09-13.83,28.83-20.55,40.54ZM2514.94,686.67h-28.22l-8.47,25.63c11.62-2.52,36.92,10.45,26.06,22.88-7.01,8.02-25.07-14.68-26.15-1.94-.94,10.86,31.65,11.44,36.12-4.68,4.84-17.57-9.45-26.89-26.15-27.03v-4.05h23.99l2.82-10.81h0Z" fill="#305495"/><path d="M554.36,43.15c-4.84,18.15-18.91,34.73-31.09,49.19-54.27,64.73-138.37,127.3-91.66,221.94l-1.41,1.35c-4.66-5.99-16.04-13.69-21.87-20.23-94.81-106.31-1.13-276.4,145.98-252.3l.05.04Z" fill="#fcfdfd"/><path d="M4201.95,134.91v-56.67c22.15-1.4,39.74,1.71,40.96,26.26,1.32,26.76-16.37,32.07-40.96,30.41Z" fill="#fcfcfc"/><path d="M1494.65,82.75c26.48,23.47,21.12,135.27-35.13,109.82-27.28-12.34-25.58-83.06-10.72-104.01,10.35-14.5,32.08-18.02,45.81-5.81h.05Z" fill="#fcfcfc"/><path d="M2524.49,75.9c45.01-5.95,44.54,63.83,37.25,90.9-10.3,38.2-52.63,39.5-64.06,1.49-7.29-24.28-8.79-87.7,26.81-92.39Z" fill="#fcfcfc"/><path d="M2146.83,155.14l19.05-41.85c2.82-.59,1.98,1.08,2.82,2.66,6.82,12.48,11.43,26.4,17.64,39.19h-39.51Z" fill="#f9fafc"/><path d="M1091.73,155.14c4.47-11.71,9.78-23.33,15.29-34.64.85-1.76,2.82-7.93,5.17-7.21l17.64,41.85h-38.1Z" fill="#f9fafc"/><path d="M2131.31,399.32v-81.62c38.38-14.01,63.07,18.69,54.6,53.56-6.21,25.59-29.16,33.65-54.6,28.06Z" fill="#fbfbfc"/><path d="M3643.36,356.17v-40.45c45.57-10.72,44.26,46.35,0,40.45Z" fill="#f9fafc"/><path d="M2474.07,356.17v-40.45c45.57-10.72,44.26,46.35,0,40.45Z" fill="#f9fafc"/><path d="M3318.57,313.33c22.29-3.2,33.3,11.13,36.87,30.18,4.94,26.35-2.54,65.54-39.69,58.2-30.95-6.13-33.63-83.15,2.82-88.42v.05Z" fill="#fcfcfd"/><path d="M3551.32,313.33c22.29-3.2,33.3,11.13,36.87,30.18,4.94,26.35-2.54,65.54-39.69,58.2-30.95-6.13-33.63-83.15,2.82-88.42v.05Z" fill="#fcfcfd"/><path d="M3894.09,313.33c22.29-3.2,33.3,11.13,36.87,30.18,4.94,26.35-2.54,65.54-39.69,58.2-30.95-6.13-33.63-83.15,2.82-88.42v.05Z" fill="#fcfcfd"/><path d="M3448.7,357.52v-41.8c20.08-4.73,32.87,5,31.09,25.05-1.51,16.71-16.56,19.28-31.09,16.8v-.05Z" fill="#f9fafc"/><path d="M1933.83,368.29h-32.45l15.52-37.79c.89-.68,2.59,2.21,3.1,3.11,5.55,9.86,10.25,23.96,13.83,34.68Z" fill="#f9fafc"/><path d="M4131.41,368.29h-32.45l15.52-37.79c.89-.68,2.59,2.21,3.1,3.11,5.55,9.86,10.25,23.96,13.83,34.68h0Z" fill="#f9fafc"/><path d="M501.68,440.27c14.86,14.14-3.62,41.94-25.44,30.41-26.06-13.78,2.73-51.98,25.44-30.41Z" fill="#f9fafc"/><path d="M366.75,460h-15.52c-1.41-1.31,6.54-16.13,7.76-16.13l7.76,16.13Z" fill="#f5f6f9"/><path d="M739.09,460.05h-15.52c-1.41-1.31,6.54-16.13,7.76-16.17l7.76,16.17h0Z" fill="#f5f6f9"/><path d="M312.71,503.51c22.53-4.95,25.07,25.18,6.4,27.79-18.67,2.61-23.42-24.05-6.4-27.79Z" fill="#f9fafc"/><path d="M716.33,513.78l-9.69.18v-10.81c8.79-1.13,14.06,2.12,9.69,10.59v.05Z" fill="#f9fafc"/><path d="M2365.06,685.63c30.43-5.95,29.58,51.67,8.04,54.91-29.63,4.46-28.78-50.86-8.04-54.91ZM2373.9,734.55v-43.15c0-2.34-5.6-5.81-8.42,1.4-2.45,6.26-2.63,38.02,1.27,43.2,2.4,3.2,6.4,1.04,7.15-1.44h0Z" fill="#f5f6f9"/><path d="M2514.94,686.67l-2.82,10.81h-23.99v4.05c16.7.14,30.95,9.46,26.15,27.03-4.42,16.13-37.06,15.54-36.12,4.68,1.08-12.7,19.14,9.95,26.15,1.94,10.86-12.43-14.44-25.41-26.06-22.88l8.47-25.63h28.22,0Z" fill="#f5f6f9"/><path d="M2413.4,740.63c6.73-11.71,25.87-25.45,20.55-40.54-2.26-6.35-10.53-5.77-15-1.98-1.27,1.08-1.08,5.68-4.14,2.7.14-17.16,27.04-22.3,32.83-5.68,4.47,12.97-12.42,25.81-20.08,34.68,4.66-.32,9.97.68,14.49-.27,5.41-1.13,3.57-5.36,8.04-5.09l-3.53,16.17h-33.16Z" fill="#f5f6f9"/><path d="M2286.47,740.63c6.73-11.71,25.87-25.45,20.55-40.54-2.26-6.35-10.53-5.77-15-1.98-1.27,1.08-1.08,5.68-4.14,2.7.14-17.16,27.04-22.3,32.83-5.68,4.47,12.97-12.42,25.81-20.08,34.68,4.66-.32,9.97.68,14.49-.27,5.41-1.13,3.57-5.36,8.04-5.09l-3.53,16.17h-33.16Z" fill="#f5f6f9"/><path d="M2373.9,734.55c-.71,2.48-4.75,4.59-7.15,1.44-3.9-5.18-3.72-36.94-1.27-43.2,2.82-7.21,8.42-3.74,8.42-1.4v43.15h0Z" fill="#385a99"/></svg>