<?xml version="1.0" encoding="UTF-8"?><svg id="Layer_1" xmlns="http://www.w3.org/2000/svg" viewBox="0 0 4500 450"><path d="M4500,0v450H0V0h4500ZM528.92,25.79c4.1.58,8.11.61,12.61,1.49,51.5,10.03,91.09,37.32,98.5,68.34l15.92-3.52c-8.86-37.7-63.76-69.73-128.31-77.33-60.27-7.09-122.88,6.31-160.58,33.88-66.45,48.6-40.08,119.06,54.1,147.9l.62-3.02c.31.1.97-.1,1.32,0,.57.18,1.1,1.62,2.65,1.52-.49-5.37,1.85-10.06,1.15-15.46-.49-3.7-3.22-7.83-3.79-11.5-5.56-38.44,35.54-62.89,86.6-83.08,2.43-.53,2.51,1.11,1.9,1.85-.49.63-14.99,7.7-17.81,9.5-10.49,6.69-22.97,15.96-29.37,24.15-1.15,1.44-3.79,3.93-2.38,5.47,27.73-17.46,67.77-23.39,107.28-26.45,3.66-.28,20.9-.41,21.6-2.05.35-.86-7.8-14.54-9.17-16.65-12.79-19.76-33.16-37.42-52.91-55.01l.09-.03ZM986.46,112.32h41.01c.62-2.23-.88-1.24-3.09-1.62-9.92-1.7-14.95-1.42-12.21-9.05.31-.91,6.04-8.74,6.66-9.07,1.28-.76,2.34-.66,3.92-.79,7.8-.53,29.37-.53,37.17,0,2.43.15,2.82.08,4.41,1.27,1.41,1.04,9.48,12.42,9.48,13.61,0,4.1-7.85,3.7-12.65,4.18-2.2.23-2.25-.46-1.98,1.49h60.85c.35-2.31-5.86-1.85-9.17-3.47-1.85-.91-3.4-2.84-4.76-4.1-19.62-18.52-30.91-44.9-49.51-64.16-.84-.84-.97-2.05-3.35-1.87l-49.38,62.74c-5.47,5.85-6.57,5.83-15.74,9.17-1.32.48-2.34-.08-1.72,1.7l.09-.03ZM1297.22,38.69c-6.66-.79-4.85,4.97-11.29,5.32-4.67.25-22.53-4.56-30.73-5.12-52.95-3.5-95.11,26.38-71.96,54.96,16.8,20.73,72.97,26.58,103.26,12.69,6.66-3.04,9.48-4.92,8.02-10.19-15.65,9.53-35.1,16.49-58.51,11.2-28.13-6.33-29.81-36.64-19.27-50.19,13.54-17.41,53.75-19.23,70.11-2.51,3.09,3.14,4.06,9.2,10.36,8.84v-25.03.03ZM1368.34,38.92c-77.25,5.3-72.4,79.74,22.09,74.9,63.05-3.22,80.11-53.39,26.68-70.69-14.29-4.64-32.67-5.32-48.77-4.21ZM1465.17,86.5v27.31c5.51.76,3.88-2.08,7.23-3.8,7.45-3.85,21.12,3.04,30.56,3.75,30.42,2.33,61.38-12.39,47.8-30.48-10.76-14.39-55.51-17.33-63.67-27.21-6-7.27,4.37-13.33,17.02-13.63,19.4-.46,34.92,9.73,37.57,20.09l4.1.46-1.32-24.27c-5.42-.1-2.29,4.99-8.64,5.32-3.48.18-17.99-4.74-25.22-5.24-41.98-2.91-63.54,23.36-26.59,38.79,13.67,5.7,63.89,14.19,44,27.92-19.89,13.73-59.79-4.31-58.91-19h-3.97.04ZM1815.61,63.75v-25.03h-3.92c-1.81,9.53-16.75,3.19-26.19,1.72-97.35-15.05-125.84,68.49-30.03,73.38,17.68.91,43.3-1.82,55.56-9.83,3.22-2.08,1.76-4.28,1.94-6.84l-18.96,8.46c-49.25,13.48-68.52-11.53-64.2-36.08,5.56-31.57,66.36-36.28,81.7-6.23,0,0,4.1.46,4.1.46ZM1975.62,112.32h42.33c.62-2.18-.79-1.27-3.04-1.62-6.22-.99-12.87-.13-13.89-5.04-.84-4.21,5.56-9.76,7.89-13.71h44.58c1.68,4.89,11.64,11.88,9.48,16.82-.26.58-5.03,1.7-6.31,1.85-3.31.43-9.35-.84-8.29,1.7h60.85c.97-2.48-5.11-1.62-7.28-3.04-23.68-20.65-35.1-45.91-55.03-67.83-.97-1.09-1.81-2.79-4.45-2.76l-51.98,65.8c-2.87,3.47-8.29,4.36-13.1,6.11-1.32.48-2.34-.08-1.72,1.7l-.04.03ZM2286.38,63.75v-25.03h-3.92c-1.81,9.53-16.75,3.19-26.19,1.72-97.35-15.05-125.84,68.49-30.03,73.38,17.68.91,43.3-1.82,55.56-9.83,3.22-2.08,1.76-4.28,1.94-6.84l-18.96,8.46c-49.25,13.48-68.52-11.53-64.2-36.08,5.56-31.57,66.36-36.28,81.7-6.23,0,0,4.1.46,4.1.46ZM2357.5,38.92c-75.62,5.19-72.88,79.46,22.09,74.9,53.62-2.58,77.65-40.77,42.95-63.32-16.62-10.79-40.87-13.23-65.04-11.58ZM3592.86,38.69c-6.66-.79-4.85,4.97-11.29,5.32-4.67.25-22.53-4.56-30.73-5.12-52.95-3.5-95.11,26.38-71.96,54.96,16.8,20.73,72.97,26.58,103.26,12.69,6.66-3.04,9.48-4.92,8.02-10.19-15.65,9.53-35.1,16.49-58.51,11.2-28.13-6.33-29.81-36.64-19.27-50.19,13.54-17.41,53.75-19.23,70.11-2.51,3.09,3.14,4.06,9.2,10.36,8.84v-25.03.03ZM4153.53,38.69c-6.66-.79-4.85,4.97-11.29,5.32-4.67.25-22.53-4.56-30.73-5.12-52.95-3.5-95.11,26.38-71.96,54.96,16.8,20.73,72.97,26.58,103.26,12.69,6.66-3.04,9.48-4.92,8.02-10.19-15.65,9.53-35.1,16.49-58.51,11.2-28.13-6.33-29.81-36.64-19.27-50.19,13.54-17.41,53.75-19.23,70.11-2.51,3.09,3.14,4.06,9.2,10.36,8.84v-25.03.03ZM928.31,40.21h-67.46c-.97,2.46,6.53,1.34,10.36,2.03,8.2,1.44,7.76,7.09,8.2,11.22,1.46,13.23,1.63,33.19,0,46.37-.44,3.57-.71,8.97-7.01,10.39-4.5,1.01-12.21-.58-11.55,2.1h112.39l3.97-25.79h-3.92c-3.97,10.34-12.04,20.07-32.45,21.23-6.92.41-28.09,1.24-30.47-2.99l-.49-58.05c.93-3.37,4.72-4.36,9.96-4.92,3.17-.33,9.57,1.01,8.47-1.6ZM1670.15,40.21h-105.78c-1.1,2.53,5.03,1.27,8.29,1.7,5.64.76,8.77,2.28,9.92,5.7-1.1,17.48,2.56,36.44.35,53.74-.53,4.28-.88,7.91-9.22,9.12-3.53.51-10.41-.63-9.35,1.85h109.74l5.29-22.75-4.06.46c-4.94,10.87-17.99,17.48-37.61,18.52-4.76.25-24.43.63-24.43-3.4v-27.69c18.56-.76,24.65,8.54,26.46,17.46h3.92v-38.69h-3.92c-1.98,9.27-7.05,18.34-26.46,17.46v-28.83h25.79c.57,0,6.97,1.09,8.2,1.37,12.08,2.56,17.9,8.99,18.92,16.09h3.97v-22.02l-.04-.08ZM1896.25,40.21h-66.14c-1.06,2.58,4.98,1.19,8.29,1.7,4.06.61,8.42,2.13,8.82,4.81-2.07,18.55,3.04,39.38.13,57.67-.62,3.9-2.16,5.3-8.95,6.23-3.26.46-9.35-.86-8.29,1.7h66.14c1.1-2.53-5.03-1.27-8.29-1.7-5.11-.68-10.23-3.02-10.23-6.28v-26.93h44.97v26.93c0,3.24-5.11,5.57-10.23,6.28-3.26.43-9.35-.84-8.29,1.7h66.14c1.06-2.58-4.98-1.19-8.29-1.7-4.06-.61-8.42-2.13-8.82-4.81,2.12-18.55-3.09-39.4-.13-57.67.57-3.67,2.38-5.27,8.95-6.23,3.31-.48,9.35.89,8.29-1.7h-66.14c-1.1,2.53,5.03,1.27,8.29,1.7,4.19.56,10.23,2.86,10.23,5.52v25.41h-44.97v-24.65c0-3.24,5.11-5.57,10.23-6.28,3.26-.43,9.35.84,8.29-1.7ZM2499.91,40.21h-50.93c-1.06,2.61,5.03,1.19,8.33,1.67,7.85,1.17,8.47,3.7,8.95,7.78,1.98,17.48-1.5,36.23-.18,53.84l-3.75,4.66-13.32,4.13h42.33c.66-2.33-1.1-1.19-3.22-1.52-3.44-.56-13.93-2.28-13.93-4.92v-57.29l47.49,63.29,3.44.46,48.28-64.51v56.53c0,2.38-4.63,5.73-8.86,6.28-3.48.46-10.71-.96-9.66,1.67h66.14c1.06-2.58-4.98-1.19-8.29-1.7-4.06-.61-8.42-2.13-8.82-4.81,2.07-18.55-3.04-39.38-.13-57.67.62-3.9,2.16-5.3,8.95-6.23,3.26-.46,9.35.86,8.29-1.7h-51.59l-33.73,47.05-35.71-47.05-.09.03ZM2680.42,40.21h-52.91c-1.06,2.48,5.82,1.34,9.35,1.85,8.33,1.22,8.69,4.84,9.22,9.12,2.07,16.65-1.59,34.76-.18,51.56-1.76,6.23-6.04,6.61-15.17,8.03-2.16.33-3.88-.81-3.22,1.52h43.65c.66-2.33-1.1-1.19-3.22-1.52-3.62-.56-7.72-.66-10.71-2.23-1.23-.66-4.59-4.33-4.59-4.97v-55.01l49.6,63.75,49.56-63.75v58.05c0,3.75-11.2,3.85-15.21,4.18-2.34.2-2.2-.38-1.98,1.49h66.14c1.1-2.53-5.03-1.27-8.29-1.7-6.08-.84-8.38-1.9-8.99-5.47-3.13-18.37,2.42-39.73.18-58.43,1.63-5.19,8.38-4.43,15.12-4.99,2.34-.2,2.2.38,1.98-1.49h-50.93l-35.67,46.29-33.73-46.29h0ZM2873.5,40.21h-64.81c-.26,1.95-.22,1.27,1.98,1.49,5.91.58,11.6.05,13.58,4.36,4.1,15.18-7.05,44.9,6.66,57.64,15.87,14.77,71.21,13.4,84.7-2.51,4.32-5.09,4.98-14.57,5.42-20.4.93-11.3-.88-22.68.31-33.98,1.41-2.56,4.5-4.08,8.86-4.76,3.26-.51,9.08.58,8.02-1.85h-43.65c-.66,2.33,1.1,1.19,3.22,1.52,5.78.91,11.77,1.06,13.67,5.09-1.32,14.49,2.73,31.11.26,45.35-1.63,9.45-12.35,16.93-29.72,17.13-19.58.23-25.75-6.28-27.12-16.37-1.5-10.97-2.12-33.98.31-44.57.79-3.57,2.07-5.7,8.55-6.46,3.48-.41,10.67.89,9.61-1.7h.13ZM3050.71,83.46l-61.51-43.25h-45.63c-.66,2.28,1.06,1.19,3.09,1.6,7.01,1.37,14.9,3.98,15.48,8.59-3,16.72,3.79,37.68-.18,53.87-1.32,5.42-7.76,5.4-15.21,6.49-2.2.33-3.84-.76-3.22,1.55h44.97c.66-2.33-1.1-1.19-3.22-1.52-5.25-.81-15.26-2.23-15.26-6.44v-49.71l83.91,58.45,4.67.73V47.41c0-.18,2.69-3.02,3-3.22,3.4-1.95,13.05-1.04,12.87-4h-42.33c-.66,2.33,1.1,1.19,3.22,1.52,3.62.56,7.72.66,10.71,2.23,1.23.66,4.59,4.33,4.59,4.97v34.54l.04.03ZM3148.55,40.21h-66.14c-1.06,2.48,5.82,1.32,9.35,1.85,6.57.96,8.25,3.34,8.99,6.97,2.65,12.52,1.85,39.32.22,52.3-.48,3.78-1.23,8.29-8.95,9.3-3.48.46-10.71-.96-9.66,1.67h66.14c1.06-2.58-4.98-1.19-8.29-1.7-4.06-.61-8.42-2.13-8.82-4.81,2.07-18.55-3.04-39.38-.13-57.67.62-3.9,2.16-5.3,8.95-6.23,3.26-.46,9.35.86,8.29-1.7l.04.03ZM3274.16,40.21h-113.71v19.74h3.97c.44-12.16,17.64-16.77,37.04-15.18v61.09c0,2.46-6.17,4.41-10.01,4.89-3.17.41-9.57-1.11-8.51,1.57h66.14c1.06-2.58-4.98-1.19-8.29-1.7-3.53-.53-8.91-2.46-8.91-4.76v-61.09c20.68-1.7,34.04,2.86,38.23,14.72l4.1.46v-19.74h-.04ZM3342.95,40.21h-60.85c-.66,2.18.97,1.24,2.91,1.7,8.99,2.2,9.7,3.65,14.81,8.21,12.3,10.95,21.61,24.17,33.51,35.4,1.15,3.19.97,18.34-.93,21.13-3.17,4.64-10.1,3.65-16.62,4.13-2.42.18-2.16-.28-1.98,1.52h70.11c.18-1.75.48-1.37-1.94-1.52-5.73-.38-13.67.61-16.71-3.34-1.85-2.43-2.03-21.82-.88-24.96,1.01-2.81,30.03-29.95,34.88-33.88,1.63-1.32,4.45-3.75,6.44-4.64,3.57-1.62,10.23-1.29,9.96-3.78h-38.36c-.66,2.28,1.01,1.19,3.09,1.6,6.75,1.29,11.77.84,9.83,6.18l-29.5,29.39c-2.16.18-2.65-.96-3.57-1.75-6.79-5.9-17.68-17.51-22.93-24.02-2.6-3.22-8.51-8.61.35-9.73,3.26-.41,9.39.84,8.29-1.7l.09.05ZM3672.22,40.21h-66.14c-.18,1.77-.44,1.34,1.98,1.52,8.16.56,13.8-.1,16.49,5.73-2.03,18.07,2.95,38.36.13,56.15-.57,3.7-2.29,6.18-8.95,6.99-3.48.43-10.67-.89-9.61,1.7h66.14c1.06-2.56-4.98-1.24-8.29-1.7-2.56-.35-8.91-2.43-8.91-4v-29.21h43.65v29.21c0,3.75-11.2,3.85-15.21,4.18-2.34.2-2.2-.38-1.98,1.49h66.14c.22-1.88.35-1.32-1.98-1.49-5.95-.48-12.87.15-15.17-4.21l.66-61.82c1.94-1.67,4.89-2.41,8.2-2.86s9.35.86,8.29-1.7h-66.14c-.22,1.87-.35,1.32,1.98,1.49,3,.25,15.21.68,15.21,3.42v27.69h-43.65v-26.93c0-1.57,6.31-3.65,8.91-4,3.31-.46,9.35.86,8.29-1.7l-.04.05ZM3820.33,40.21h-64.81c-.26,1.95-.22,1.27,1.98,1.49,5.91.58,11.6.05,13.58,4.36,4.1,15.18-7.05,44.9,6.66,57.64,15.87,14.77,71.21,13.4,84.7-2.51,4.32-5.09,4.98-14.57,5.42-20.4.93-11.3-.88-22.68.31-33.98,1.41-2.56,4.5-4.08,8.86-4.76,3.26-.51,9.08.58,8.02-1.85h-43.65c-.66,2.33,1.1,1.19,3.22,1.52,5.78.91,11.77,1.06,13.67,5.09-1.32,14.49,2.73,31.11.26,45.35-1.63,9.45-12.35,16.93-29.72,17.13-19.58.23-25.75-6.28-27.12-16.37-1.5-10.97-2.12-33.98.31-44.57.79-3.57,2.07-5.7,8.55-6.46,3.48-.41,10.67.89,9.61-1.7h.13ZM3969.09,40.21c-24.6-1.29-52.43.96-77.34,0-.22,1.88-.35,1.32,1.98,1.49,6.75.56,13.49-.2,15.12,4.99-2.07,18.57,3.04,39.37.13,57.67-.62,3.9-2.16,5.3-8.95,6.23-3.26.46-9.35-.86-8.29,1.7h64.81c.26-1.95.22-1.27-1.98-1.49-4.28-.43-15.21-1.24-15.21-4.97v-26.17l7.01.15,40.61,32.48h41.01v-2.26c-5.73-.13-9.52-1.98-13.18-4.21-11.86-7.27-21.56-18.75-33.07-26.55-.48-1.7.53-.86,1.94-1.11,13.01-2.41,23.32-7.15,24.56-15.53,2.12-14.39-16.31-21.21-39.07-22.42h-.09ZM4232.89,40.21h-66.14c-.18,1.77-.44,1.34,1.98,1.52,8.16.56,13.8-.1,16.49,5.73-2.03,18.07,2.95,38.36.13,56.15-.57,3.7-2.29,6.18-8.95,6.99-3.48.43-10.67-.89-9.61,1.7h66.14c1.06-2.56-4.98-1.24-8.29-1.7-2.56-.35-8.91-2.43-8.91-4v-29.21h43.65v29.21c0,3.75-11.2,3.85-15.21,4.18-2.34.2-2.2-.38-1.98,1.49h66.14c.22-1.88.35-1.32-1.98-1.49-5.95-.48-12.87.15-15.17-4.21l.66-61.82c1.94-1.67,4.89-2.41,8.2-2.86s9.35.86,8.29-1.7h-66.14c-.22,1.87-.35,1.32,1.98,1.49,3,.25,15.21.68,15.21,3.42v27.69h-43.65v-26.93c0-1.57,6.31-3.65,8.91-4,3.31-.46,9.35.86,8.29-1.7l-.04.05ZM695.55,82.73c-2.16-.3-3.04.25-4.67.73-14.73,4.54-26.46,10.49-43.34,14.57-35.27,8.51-65.61,8.29-101.68,12.24-62.43,6.82-107.23,35.95-98.9,73.38l19.8-14.8c33.38-18.09,66.75-15.33,104.81-23.31,10.63-2.23,25.49-8.82,33.69-10.26,2.03-.35,4.19-.2,6.31-.18,1.23.05.79,1.29.49,1.77s-10.19,6.89-11.68,7.73c-28.13,15.53-72.8,18.37-104.89,30.86-13.05,5.07-34.74,16.49-42.59,24.12-12.87,12.52-20.86,28.05-23.1,42.52l15.17-9.12c1.9-7.98,5.25-16.49,11.64-23.67,1.9-2.15,4.85-6.69,9.79-5.35,5.47,1.47,13.36,6.21,20.15,8.21,44.22,12.87,97.84-1.6,132.94-17.89,49.74-23.11,75.66-57.95,77.47-94.41l-1.41-17.1.04-.05ZM1372.31,175.87c-3.79,2.13-17.42-2.48-24.16-2.84-46.52-2.38-69.8,31.42-38.4,49.33,18.78,10.69,58.55,8.84,70.06-5.37.79-.99,2.07-2.51-1.23-2.23-10.45,9.2-25.71,13.15-44.62,9.65-35.32-6.59-29.98-55.44,21.21-47.84,13.18,1.95,14.55,7.25,20.02,12.8,1.01,1.04,1.1,2.2,4.01,1.85l-2.65-18.22c-4.06-.63-2.47,1.82-4.28,2.84l.04.03ZM1752.12,228.42h29.1c.66-2.18-.97-1.24-2.91-1.7-2.82-.68-7.41-.81-7.58-3.19l8.51-12.57c1.01-.76,2.47-.68,3.92-.79,6.26-.43,22.97-.43,29.23,0,2.42.15,2.82.08,4.41,1.27,1.37,1.01,8.11,11.02,8.02,12.11-.09.94-.79,1.29-1.85,1.9-3.4,1.87-8.95.41-8.64,2.99h38.36c.48-1.95-.26-1.19-1.85-1.6-4.01-1.01-8.25-.86-10.32-3.95l-37.43-49.86-3.31.53-36.77,49.33c-.93.94-1.98,1.87-3.53,2.53-2.91,1.22-8.11.71-7.32,3.02l-.04-.03ZM1863.23,210.96v18.22h3.88c0-6.13,15.26-.56,22-.05,21.12,1.52,41.09-5.65,35.67-18.95-4.59-11.28-49.82-15.58-50.97-25.41-.35-2.94,3.97-6.03,8.29-7.32,15.96-4.71,35.05,4.03,33.99,13.81h3.97v-18.22h-3.88c-.31,6.18-13.54.56-20.72.08-25.04-1.67-44.09,12.85-25.62,23.82,10.19,6.06,58.69,14.49,39.07,26.22-13.62,8.16-44.05-.48-41.71-12.19h-3.97,0ZM2276.81,175.87c-3.79,2.13-17.42-2.48-24.16-2.84-46.52-2.38-69.8,31.42-38.4,49.33,18.78,10.69,58.55,8.84,70.06-5.37.79-.99,2.07-2.51-1.23-2.23-10.45,9.2-25.71,13.15-44.62,9.65-35.32-6.59-29.98-55.44,21.21-47.84,13.18,1.95,14.55,7.25,20.02,12.8,1.01,1.04,1.1,2.2,4.01,1.85l-2.65-18.22c-4.06-.63-2.47,1.82-4.28,2.84l.04.03ZM2554.5,175.87c-3.79,2.13-17.42-2.48-24.16-2.84-46.52-2.38-69.8,31.42-38.4,49.33,18.78,10.69,58.55,8.84,70.06-5.37.79-.99,2.07-2.51-1.23-2.23-10.45,9.2-25.71,13.15-44.62,9.65-35.32-6.59-29.98-55.44,21.21-47.84,13.18,1.95,14.55,7.25,20.02,12.8,1.01,1.04,1.1,2.2,4.01,1.85l-2.65-18.22c-4.06-.63-2.47,1.82-4.28,2.84l.04.03ZM3109.88,173.21c-58.25,4.59-50.79,60.08,12.74,55.87,58.6-3.88,51.94-60.96-12.74-55.87ZM3328.09,173.21c-58.25,4.59-50.79,60.08,12.74,55.87,58.6-3.88,51.94-60.96-12.74-55.87ZM3649.38,173.21c-58.25,4.59-50.79,60.08,12.74,55.87,58.6-3.88,51.94-60.96-12.74-55.87ZM3812.39,228.42h29.1c.66-2.18-.97-1.24-2.91-1.7-2.82-.68-7.41-.81-7.58-3.19l8.51-12.57c1.01-.76,2.47-.68,3.92-.79,6.26-.43,22.97-.43,29.23,0,2.42.15,2.82.08,4.41,1.27,1.37,1.01,8.11,11.02,8.02,12.11-.09.94-.79,1.29-1.85,1.9-3.4,1.87-8.95.41-8.64,2.99h38.36c.48-1.95-.26-1.19-1.85-1.6-4.01-1.01-8.25-.86-10.32-3.95l-37.43-49.86-3.31.53-36.77,49.33c-.93.94-1.98,1.87-3.53,2.53-2.91,1.22-8.11.71-7.32,3.02l-.04-.03ZM1461.2,173.77h-72.75c-.71,2.61,5.56,1.01,9.74,2.36,1.76.58,3.17,1.34,3.44,2.58-1.76,13.86,2.42,29.67.09,43.28-.48,2.74-1.28,3.98-6.31,4.74-3.04.46-8.02-.84-7.01,1.67h74.07l6.61-13.66c-3.44-.46-2.29.58-3.4,1.44-4.81,3.75-7.28,7.75-16.36,8.84-5.07.61-23.59.86-28.48.33-1.45-.15-4.67-1.32-4.67-1.87v-22.4h25.79c6.17,0,9.57,5.24,8.6,8.36h3.97v-18.98h-3.97c1.45,2.96-3.22,7.58-8.6,7.58h-25.79v-21.26h32.41c7.63,0,8.95,5.55,10.93,8.16.79,1.06.18,1.19,2.95.96l-1.32-12.14h.04ZM1519.4,173.77h-43.65c-.71,2.61,5.56,1.01,9.74,2.36,1.76.58,3.17,1.34,3.44,2.58-1.76,13.86,2.42,29.67.09,43.28-.48,2.74-1.28,3.98-6.31,4.74-3.04.46-8.02-.84-7.01,1.67h74.07l6.61-15.18c-4.59,2.1-5.64,5.98-9.88,8.39-8.69,4.97-29.32,3.93-40.74,3.02l-1.41-.91-.88-44.21c2.03-4.05,8.29-3.67,13.84-4.21,2.2-.23,2.25.46,1.98-1.49l.09-.03ZM1602.69,173.77h-42.33c-.53,2.76,6.17.76,10.58,2.66,2.16.94,3.22,2.48,3.66,3.98,3.88,12.52-8.25,37.2,12.3,45.3,15.65,6.18,49.12,4.81,57.94-6.11,8.82-10.92.4-28.89,4.14-40.11.35-1.11,2.95-2.96,4.54-3.47,4.14-1.32,9.48.38,8.64-2.23h-34.39c-.53,2.76,6.17.76,10.58,2.66,2.16.94,3.22,2.48,3.66,3.98,1.9,6.13,1.19,28.48-1.32,34.54-5.42,12.85-43.25,15.56-50.35,1.95-3.13-6.01-3.88-30.18-1.9-36.49.44-1.47,1.5-3.02,3.66-3.98,4.41-1.9,11.07.1,10.58-2.66v-.03ZM1709.83,173.77h-43.65c-.71,2.61,5.56,1.01,9.74,2.36,1.76.58,3.17,1.34,3.44,2.58-1.76,13.86,2.42,29.67.09,43.28-.48,2.74-1.28,3.98-6.31,4.74-3.04.46-8.02-.84-7.01,1.67h74.07l6.61-15.18c-4.59,2.1-5.64,5.98-9.88,8.39-8.69,4.97-29.32,3.93-40.74,3.02l-1.41-.91-.88-44.21c2.03-4.05,8.29-3.67,13.84-4.21,2.2-.23,2.25.46,1.98-1.49l.09-.03ZM1971.65,228.42h53.57c5.86,0,20.24-3.85,25.09-6.08,31.13-14.44,16.67-48.55-26.41-48.55h-52.25c-1.01,2.53,3.97,1.19,7.01,1.67,3.75.61,5.56,1.82,6.13,4.05-1.5,13.43,2.25,28.51.13,41.73-.44,2.84-.97,4.64-6.31,5.5-3.04.48-8.02-.86-7.01,1.67h.04ZM2147.53,173.77h-72.75c-.71,2.61,5.56,1.01,9.74,2.36,1.76.58,3.17,1.34,3.44,2.58-1.76,13.86,2.42,29.67.09,43.28-.48,2.74-1.28,3.98-6.31,4.74-3.04.46-8.02-.84-7.01,1.67h74.07l6.61-13.66c-3.44-.46-2.29.58-3.4,1.44-4.81,3.75-7.28,7.75-16.36,8.84-5.07.61-23.59.86-28.48.33-1.45-.15-4.67-1.32-4.67-1.87v-22.4h25.79c6.17,0,9.57,5.24,8.6,8.36h3.97v-18.98h-3.97c1.45,2.96-3.22,7.58-8.6,7.58h-25.79v-21.26h32.41c7.63,0,8.95,5.55,10.93,8.16.79,1.06.18,1.19,2.95.96l-1.32-12.14h.04ZM2386.86,226.9c-20.5-.91-30.03-16.27-42.11-24.02l-.22-1.77c24.6-1.01,30.91-19.76,7.94-25.44-1.68-.41-10.14-1.9-11.24-1.9h-48.28c-1.01,2.53,3.97,1.19,7.01,1.67,3.75.61,5.56,1.82,6.13,4.05-1.5,13.43,2.25,28.51.13,41.73-.44,2.84-.97,4.64-6.31,5.5-3.04.48-8.02-.86-7.01,1.67h41.01c.53-2.79-6.22-.73-10.58-2.66-1.28-.58-3.97-3.09-3.97-3.8v-19.36l11.24.76,30.03,24.88c8.69.35,17.46.1,26.19.15,24.82.15,49.74-.15,74.56.05l7.41-13.71c-3.44-.46-2.29.58-3.4,1.44-4.81,3.75-7.28,7.75-16.36,8.84-5.07.61-23.59.86-28.48.33-1.46-.15-4.67-1.32-4.67-1.87v-22.4h25.79c6.17,0,9.57,5.24,8.6,8.36h3.97v-18.98h-3.97c1.46,2.96-3.22,7.58-8.6,7.58h-25.79v-21.26h32.41c7.63,0,8.95,5.55,10.93,8.16.79,1.06.18,1.19,2.95.96l-1.32-12.14h-72.75c-.71,2.61,5.56,1.01,9.74,2.36,1.76.58,3.17,1.34,3.44,2.58l-.62,45.89c-3.26,2.51-8.95,2.48-13.89,2.28l.09.05ZM2611.68,173.77h-39.68c-.71,2.38,1.23,1.17,3.26,1.49,2.82.48,5.82.63,8.29,1.72.75,1.01,1.28,2.18,1.5,3.29,1.94,9.22,1.72,30.76.22,40.19-.4,2.33-1.9,5.42-6.31,6.26-3.04.58-8.02-.94-7.01,1.67h39.68c.71-2.38-1.23-1.17-3.26-1.49-2.82-.48-5.82-.63-8.29-1.72-.75-1.01-1.28-2.18-1.5-3.29-1.94-9.22-1.72-30.76-.22-40.19.4-2.33,1.9-5.42,6.31-6.26,3.04-.58,8.02.94,7.01-1.67ZM2644.05,173.77h-25.79c-.66,2.26,1.01,1.22,3.09,1.6,6.48,1.24,8.86.99,10.01,5.68,2.03,8.36,1.59,30.71.18,39.43-.31,1.9-.35,3.02-2.69,4.54l-10.63,3.4h33.07v-1.52c-2.91.73-13.23-1.01-13.23-2.66v-39.83l34.13,42.26,3.57,1.75,36.38-44.01v39.83c0,1.65-10.32,3.4-13.23,2.66v1.52h41.01c1.01-2.53-3.97-1.19-7.01-1.67-3.75-.61-5.56-1.82-6.13-4.05,1.5-13.43-2.25-28.51-.13-41.73.44-2.84.97-4.64,6.31-5.5,3.04-.48,8.02.86,7.01-1.67h-27.78l-33.69,41.73-34.39-41.73h-.04ZM2786.2,173.77h-39.68c-.71,2.38,1.23,1.17,3.26,1.49,2.82.48,5.82.63,8.29,1.72.75,1.01,1.28,2.18,1.5,3.29,1.94,9.22,1.72,30.76.22,40.19-.4,2.33-1.9,5.42-6.31,6.26-3.04.58-8.02-.94-7.01,1.67h39.68c.71-2.38-1.23-1.17-3.26-1.49-2.82-.48-5.82-.63-8.29-1.72-.75-1.01-1.28-2.18-1.5-3.29-1.94-9.22-1.72-30.76-.22-40.19.4-2.33,1.9-5.42,6.31-6.26,3.04-.58,8.02.94,7.01-1.67ZM2865.56,173.77h-72.75c-.71,2.61,5.56,1.01,9.74,2.36,1.76.58,3.17,1.34,3.44,2.58-1.76,13.86,2.42,29.67.09,43.28-.48,2.74-1.28,3.98-6.31,4.74-3.04.46-8.02-.84-7.01,1.67h74.07l6.61-13.66c-3.44-.46-2.29.58-3.4,1.44-4.81,3.75-7.28,7.75-16.36,8.84-5.07.61-23.59.86-28.48.33-1.46-.15-4.67-1.32-4.67-1.87v-22.4h25.79c6.17,0,9.57,5.24,8.6,8.36h3.97v-18.98h-3.97c1.46,2.96-3.22,7.58-8.6,7.58h-25.79v-21.26h32.41c7.63,0,8.95,5.55,10.93,8.16.79,1.06.18,1.19,2.95.96l-1.32-12.14h.04ZM2959.44,214c-9.66-3.29-54.28-40.21-58.86-40.21h-25.79c-.66,2.33,1.1,1.19,3.22,1.52,6.7,1.04,15.56,2.51,16.67,7.17,1.81,7.68,1.23,29.16-.22,37.12-.53,2.86-1.06,5.93-6.39,6.97-3.4.66-9.04-.66-7.98,1.85h34.39c1.01-2.53-3.92-1.22-7.01-1.67-4.01-.61-7.54-3.27-7.54-5.52v-35.3l64.81,43.25v-47.43c0-.71,2.07-4.31,3.22-4.99,4.1-2.48,11.64-.05,11.33-2.99h-34.39c-1.01,2.53,3.92,1.22,7.01,1.67,4.01.61,7.54,3.27,7.54,5.52v33.04ZM3063.93,173.77h-78l-1.32,12.9c4.59.18,3.57-3.93,6-6.03,5.16-4.54,18.83-3.83,27.07-3.83v45.91c0,3.42-8.16,4.81-13.23,4.18v1.52h39.68c.66-2.94-6.7-.53-10.54-2.66-1.68-.94-2.07-2.58-2.56-3.85v-43.83c1.5-2.56,17.9-1.01,21.96.1,5.73,1.6,6.39,3.72,8.16,6.74.71,1.19-1.15,2.15,2.78,1.77v-12.92ZM3252.34,173.77c-14.02-1.01-31.26.73-45.63,0-.66,2.94,6.7.53,10.54,2.66,1.54.86,2.25,2.64,2.56,3.85,2.12,8.54,1.63,32,.18,40.95-.44,2.84-.97,4.64-6.31,5.5-3.04.48-8.02-.86-7.01,1.67h41.01c.75-2.89-5.78-.63-10.01-2.23-1.32-.51-4.54-3.55-4.54-4.23v-18.6c23.06,2.81,48.46-.73,44.97-17.1-1.37-6.44-15.3-11.76-25.79-12.49l.04.03ZM3437.48,173.77c-14.95-1.01-32.98.76-48.28,0-1.01,2.53,3.97,1.19,7.01,1.67,3.75.61,5.56,1.82,6.13,4.05-1.5,13.43,2.25,28.51.13,41.73-.44,2.84-.97,4.64-6.31,5.5-3.04.48-8.02-.86-7.01,1.67h41.01c.53-2.79-6.22-.73-10.58-2.66-1.28-.58-3.97-3.09-3.97-3.8v-19.36l11.24.76,29.76,25.03h26.46c.66-2.15-.88-1.24-2.91-1.72-8.95-2.03-10.14-1.93-16.98-6.23-8.25-5.22-14.33-12.16-22.22-17.61l-.22-1.77c31.83-2.96,28.53-25.16-3.31-27.31l.04.05ZM3599.47,173.77h-70.11l-1.32,13.66c3.66.35,2.25-.43,3-1.67,1.15-1.87,1.63-4.97,4.06-6.46,1.1-.66,8.29-2.51,9.52-2.51h35.05l-60.85,51.61h78l3.97-14.42c-3.4-.38-2.29.41-3.31,1.47-2.25,2.41-3.7,5.95-7.89,7.65-1.54.63-10.49,2.26-11.95,2.26h-39.02l60.85-51.61v.03ZM3789.9,214c-9.66-3.29-54.28-40.21-58.86-40.21h-25.79c-.66,2.33,1.1,1.19,3.22,1.52,6.7,1.04,15.56,2.51,16.67,7.17,1.81,7.68,1.23,29.16-.22,37.12-.53,2.86-1.06,5.93-6.39,6.97-3.4.66-9.04-.66-7.98,1.85h34.39c1.01-2.53-3.92-1.22-7.01-1.67-4.01-.61-7.54-3.27-7.54-5.52v-35.3l64.81,43.25v-47.43c0-.71,2.07-4.31,3.22-4.99,4.1-2.48,11.64-.05,11.33-2.99h-34.39c-1.01,2.53,3.92,1.22,7.01,1.67,4.01.61,7.54,3.27,7.54,5.52v33.04ZM453.57,192.77l-25.13-4.56c.35,3.75.49,6.51-2.65,9.86l19.8,3.8,7.98-9.1ZM359.7,270.15l-23.77-31.11-25.13,31.11c9.57.99,10.58-2.05,13.1-6.36l23.15-.51c3.57,4.08,2.6,8.23,12.7,6.87h-.04ZM708.77,270.15l-23.77-31.11-23.81,31.11c8.99.96,10.01-3.17,12.7-6.87l23.15.51,4.01,6.26,7.72.13v-.03ZM422.97,241.42c-45.33-10.36-53.84,32.58-7.23,28.66,7.45-.63,8.11-1.67,7.41-5.98-16.84,4.21-32.41.43-30.47-11.05,1.41-8.46,19.27-10.9,30.47-6.41l-.18-5.22ZM451.94,240c-18.92,1.47-29.19,14.7-18.21,23.72,10.8,8.87,34.22,8.92,44.75-.13,13.05-11.22-3.57-25.36-26.54-23.56v-.03ZM503.48,239.95c-10.98,1.04-16.23,9.12-6.97,13.51,4.67,2.23,13.49,2.51,16.62,5.65,5.82,5.83-7.45,9.58-14.02,5.78-1.9-1.09-1.98-3.34-4.01-3.78-9.92-2-6.13,7.98,6.88,8.97,13.01.99,23.19-3.78,20.11-11.53-2.47-6.21-24.51-7.02-22-12.14,2.51-5.12,13.49.33,16.01.13,9.7-.79,2.2-4.81-3.57-6.01-3.35-.68-5.38-.91-8.99-.56l-.04-.03ZM605.47,241.42c-29.85-8.64-55.29,16.34-28.04,26.33,8.33,3.07,31.61,5.09,28.22-3.67-3.04-.41-4.81,1.24-7.32,1.47-31.57,2.96-31.17-21.36-5.2-21.28,5.42,0,7.76,1.87,12.52,2.33l-.18-5.22v.05ZM290.92,240.56l-7.94,1.14v27.31l1.98,1.14h21.83v-4.56h-15.87s0-25.03,0-25.03ZM560.67,240.56h-27.12l-1.98,1.14v27.31l1.98,1.14h27.12v-4.56h-19.84v-9.86h19.84v-3.8h-19.84v-6.84h19.84v-4.56.03ZM624.16,240.56h-7.94v29.59h7.94v-13.66h22.49v13.66h7.94v-29.59h-7.94v11.38h-22.49v-11.38ZM273.72,285.33c.79-6.54-16.23-5.9-23.15-3.04-19.44,8.03,1.63,25.08,22.97,17.36l.18-2.91c-4.19.15-6.7,2.28-11.2,2.31-19.14.1-19.09-17.74,2.51-15.94,3.88.33,5.11,2.13,8.69,2.26v-.03ZM295.9,280.21c-24.25.76-22.53,23.46,4.89,21.01,22.05-1.95,19.14-21.77-4.89-21.01ZM581.83,285.33c1.41-5.5-12.21-5.75-18.83-4.36-17.28,3.65-14.64,19.28,4.94,20.3,5.82.3,15.92-.23,13.89-4.56-7.32,1.29-10.41,3.67-18.39,1.06-12.65-4.13-7.05-16.09,9.7-14.7,3.88.33,5.11,2.13,8.69,2.26ZM711.42,285.33c1.5-5.27-11.02-5.7-17.5-4.36-20.28,4.26-13.93,22.73,11.24,20.09,4.45-.46,7.58-1.6,6.26-4.36-6.66,1.55-11.11,3.57-18.39,1.06-16.71-5.75,1.41-20.85,18.39-12.47v.03ZM357.01,301.27c1.23-.71-4.76-18.09-5.91-19.74-1.15-1.65-1.37-.81-2.29.2-1.01,1.11-9.52,14.34-11.6,13.45-2.91-3.8-5.07-9.3-8.95-12.67-.84-.71.18-1.37-2.95-.99l-6,18.98c1.9,1.37,3.35.86,4.37-.53,1.76-2.41,2.56-8.06,2.91-10.84,3-.3,2.12.08,2.95.96,2.29,2.43,4.06,6.74,6.61,9.1,1.01.94,1.23,1.6,3.66,1.32l9.26-12.14,3.97,12.39,3.97.51h0ZM379.5,295.19l-12.52-14.42-7.28,20.47,4.06-.43,3.88-12.44,11.24,12.9,9.26-11.38c2.95-.33,1.68.71,2.16,1.77.97,2.26,1.41,12.29,7.72,8.44-3.88-5.47-3.09-12.95-6.44-18.27-.66-1.09.35-1.27-2.78-1.04l-9.3,14.42v-.03ZM407.28,280.77h-5.29v14.8c0,.46,4.06,4,5.34,4.54,6.92,2.91,22.44.61,22.44-4.54v-14.8h-5.29v15.56c0,2.76-17.2,3.6-17.2-.76v-14.8ZM462.83,295.19l-25.13-14.42v20.5l3.97-1.14v-13.28l25.13,14.42v-20.5h-3.97v14.42ZM478.7,280.77h-3.97v19.74h3.97v-19.74ZM507.8,280.77h-23.81v2.28h9.26v17.46h3.97v-17.46h10.58v-2.28ZM534.22,280.77c-3.66-1.95-11.64,6.66-11.9,8.34l-8.11-7.45-5.07-.13c5.42,7.2,13.76,10.95,10.58,19.71,6.75-.46,3-6.46,4.59-9.88.79-1.77,11.64-9.7,9.96-10.59h-.04ZM588.45,280.77v19.74h3.97v-9.86h18.52v9.88h3.97v-19.74h-3.97v7.6h-17.77l-.75-7.6h-3.97v-.03ZM645.33,280.77v14.8c0,3.17-15.74,5.75-17.24-.71-.93-3.93,1.01-8.77-.13-12.82l-1.06-.91-4.06-.33v14.8c0,5.32,17.42,7.93,23.85,3.83.88-.56,3.92-4.16,3.92-4.59v-14.04h-5.29v-.03ZM657.23,280.77v19.36c8.02,3.72,4.06-5.22,5.95-7.96,4.72,2.61,8.86,9.5,16.53,8.72l-11.9-9.1c7.76-.28,12.79-4.61,8.47-8.67-4.32-4.05-12.35-1.93-19.05-2.36ZM718.03,280.77v19.36c8.64,4.41,3.97-7.98,5.29-8.74h16.45c2.29.18-1.32,9.35,2.78,9.86l3.31-1.14v-19.36h-5.29v7.6h-16.45l-.75-7.6h-5.29l-.04.03ZM4497.35,449.24v-97.5l-1.98-1.14H3.31l-1.98,1.14v97.5h4496.03Z" fill="#fdfdfd"/><path d="M695.55,82.73l1.41,17.1c-1.81,36.49-27.73,71.33-77.47,94.41-35.05,16.29-88.71,30.76-132.94,17.89-6.83-2-14.73-6.74-20.15-8.21-4.98-1.34-7.89,3.22-9.79,5.35-6.39,7.2-9.74,15.71-11.64,23.67l-15.17,9.12c2.25-14.47,10.23-30,23.1-42.52,7.85-7.63,29.54-19.05,42.59-24.12,32.14-12.49,76.76-15.33,104.89-30.86,1.5-.84,11.33-7.25,11.68-7.73s.79-1.72-.49-1.77c-2.07,0-4.23-.18-6.31.18-8.2,1.44-23.06,8.03-33.69,10.26-38.1,7.98-71.47,5.22-104.81,23.31l-19.8,14.8c-8.33-37.42,36.46-66.56,98.9-73.38,36.07-3.93,66.4-3.7,101.68-12.24,16.89-4.08,28.62-10.03,43.34-14.57,1.59-.48,2.51-1.04,4.67-.73l-.04.05Z" fill="#319053"/><path d="M4497.35,449.24H1.32v-97.5l1.98-1.14h4492.06l1.98,1.14v97.5ZM4492.06,353.61H6.61v94.86h4485.45v-94.86Z"/><path d="M528.92,25.79c19.75,17.58,40.12,35.24,52.91,55.01,1.37,2.13,9.52,15.81,9.17,16.65-.66,1.65-17.9,1.77-21.6,2.05-39.55,3.07-79.54,8.99-107.28,26.45-1.46-1.55,1.23-4,2.38-5.47,6.39-8.18,18.87-17.46,29.37-24.15,2.82-1.8,17.33-8.87,17.81-9.5.57-.76.53-2.38-1.9-1.85-51.1,20.19-92.2,44.65-86.6,83.08.53,3.67,3.31,7.78,3.79,11.5.71,5.4-1.63,10.08-1.15,15.46-1.54.13-2.03-1.34-2.65-1.52l-16.09-15.46c-.62-.68-2.29-1.09-2.43-1.24-43.78-53.23,35.01-88.45,85.93-124.84,11.38-8.13,24.6-17.48,29.14-27.67,4.32.43,6.08,1.06,9.26,1.52l-.09-.03Z" fill="#329153"/><path d="M421.83,193.51l-.62,3.02c-94.18-28.81-120.55-99.3-54.1-147.9,37.7-27.57,100.31-40.97,160.58-33.88,64.51,7.6,119.44,39.63,128.31,77.33l-15.92,3.52c-7.41-31.01-47-58.28-98.5-68.34-4.5-.89-8.51-.91-12.61-1.49-3.17-.46-4.94-1.09-9.26-1.52-137.92-13.56-225.75,82.09-136.86,141.92,5.47,3.67,16.14,8.01,20.5,11.38,6.61,5.09,7.76,11.83,18.52,15.94l-.04.03Z" fill="#2b4a81"/><path d="M2680.42,40.21l33.73,46.29,35.67-46.29h50.93c.22,1.87.35,1.32-1.98,1.49-6.75.56-13.49-.2-15.12,4.99,2.29,18.7-3.26,40.06-.18,58.43.62,3.57,2.91,4.64,8.99,5.47,3.26.43,9.35-.86,8.29,1.7h-66.14c-.22-1.88-.35-1.32,1.98-1.49,4.01-.33,15.21-.43,15.21-4.18v-58.05l-49.56,63.75-49.6-63.75v55.01c0,.63,3.35,4.31,4.59,4.97,2.95,1.57,7.05,1.67,10.71,2.23,2.16.33,3.88-.81,3.22,1.52h-43.65c-.66-2.33,1.1-1.19,3.22-1.52,9.13-1.42,13.4-1.8,15.17-8.03-1.41-16.8,2.25-34.92.18-51.56-.53-4.28-.88-7.91-9.22-9.12-3.53-.51-10.41.63-9.35-1.85h52.91Z" fill="#030303"/><path d="M2499.91,40.21l35.71,47.05,33.73-47.05h51.59c1.06,2.56-5.03,1.24-8.29,1.7-6.83.94-8.38,2.33-8.95,6.23-2.87,18.29,2.2,39.1.13,57.67.35,2.69,4.76,4.21,8.82,4.81,3.31.48,9.35-.89,8.29,1.7h-66.14c-1.06-2.64,6.17-1.22,9.66-1.67,4.28-.56,8.86-3.93,8.86-6.28v-56.53l-48.28,64.51-3.44-.46-47.49-63.29v57.29c0,2.64,10.49,4.38,13.93,4.92,2.12.33,3.88-.81,3.22,1.52h-42.33l13.32-4.13,3.75-4.66c-1.32-17.61,2.16-36.36.18-53.84-.44-4.08-1.1-6.61-8.95-7.78-3.26-.48-9.39.94-8.33-1.67h50.93l.09-.03Z" fill="#040404"/><path d="M3672.22,40.21c1.06,2.56-4.98,1.24-8.29,1.7-2.56.35-8.91,2.43-8.91,4v26.93h43.65v-27.69c0-2.76-12.21-3.19-15.21-3.42-2.34-.2-2.2.38-1.98-1.49h66.14c1.1,2.53-5.03,1.24-8.29,1.7s-6.26,1.19-8.2,2.86l-.66,61.82c2.29,4.36,9.22,3.72,15.17,4.21,2.34.2,2.2-.38,1.98,1.49h-66.14c-.22-1.88-.35-1.32,1.98-1.49,4.01-.33,15.21-.43,15.21-4.18v-29.21h-43.65v29.21c0,1.57,6.31,3.65,8.91,4,3.31.46,9.35-.86,8.29,1.7h-66.14c-1.06-2.58,6.13-1.27,9.61-1.7,6.7-.81,8.38-3.29,8.95-6.99,2.82-17.79-2.2-38.08-.13-56.15-2.65-5.83-8.33-5.17-16.49-5.73-2.42-.18-2.16.25-1.98-1.52h66.14l.04-.05Z" fill="#020202"/><path d="M4232.89,40.21c1.06,2.56-4.98,1.24-8.29,1.7-2.56.35-8.91,2.43-8.91,4v26.93h43.65v-27.69c0-2.76-12.21-3.19-15.21-3.42-2.34-.2-2.2.38-1.98-1.49h66.14c1.1,2.53-5.03,1.24-8.29,1.7s-6.26,1.19-8.2,2.86l-.66,61.82c2.29,4.36,9.22,3.72,15.17,4.21,2.34.2,2.2-.38,1.98,1.49h-66.14c-.22-1.88-.35-1.32,1.98-1.49,4.01-.33,15.21-.43,15.21-4.18v-29.21h-43.65v29.21c0,1.57,6.31,3.65,8.91,4,3.31.46,9.35-.86,8.29,1.7h-66.14c-1.06-2.58,6.13-1.27,9.61-1.7,6.7-.81,8.38-3.29,8.95-6.99,2.82-17.79-2.2-38.08-.13-56.15-2.65-5.83-8.33-5.17-16.49-5.73-2.42-.18-2.16.25-1.98-1.52h66.14l.04-.05Z" fill="#020202"/><path d="M1896.25,40.21c1.1,2.53-5.03,1.27-8.29,1.7-5.11.68-10.23,3.02-10.23,6.28v24.65h44.97v-25.41c0-2.66-6.04-4.94-10.23-5.52-3.26-.43-9.35.84-8.29-1.7h66.14c1.06,2.58-4.98,1.19-8.29,1.7-6.57.99-8.38,2.56-8.95,6.23-2.91,18.27,2.25,39.12.13,57.67.35,2.69,4.76,4.21,8.82,4.81,3.31.48,9.35-.89,8.29,1.7h-66.14c-1.1-2.53,5.03-1.27,8.29-1.7,5.11-.68,10.23-3.02,10.23-6.28v-26.93h-44.97v26.93c0,3.24,5.11,5.57,10.23,6.28,3.26.43,9.35-.84,8.29,1.7h-66.14c-1.06-2.56,5.03-1.24,8.29-1.7,6.83-.94,8.38-2.33,8.95-6.23,2.87-18.29-2.2-39.1-.13-57.67-.35-2.69-4.76-4.21-8.82-4.81-3.31-.48-9.35.89-8.29-1.7,0,0,66.14,0,66.14,0Z" fill="#030303"/><path d="M3969.09,40.21c22.75,1.22,41.18,8.03,39.07,22.42-1.23,8.39-11.55,13.13-24.56,15.53-1.41.25-2.38-.56-1.94,1.11,11.51,7.8,21.25,19.28,33.07,26.55,3.66,2.26,7.45,4.08,13.18,4.21v2.26h-40.96l-40.61-32.48-7.01-.15v26.17c0,3.72,10.93,4.54,15.21,4.97,2.2.23,2.25-.46,1.98,1.49h-64.81c-1.06-2.56,5.03-1.24,8.29-1.7,6.83-.94,8.38-2.33,8.95-6.23,2.87-18.29-2.2-39.1-.13-57.67-1.63-5.19-8.38-4.43-15.12-4.99-2.34-.2-2.2.38-1.98-1.49,24.91.96,52.78-1.29,77.34,0h.04ZM3939.33,75.89c23.06.94,39.64-2.05,38.4-17.1-1.15-13.81-17.64-15.56-38.4-14.77v31.87Z" fill="#030303"/><path d="M1368.34,38.92c16.09-1.11,34.48-.41,48.77,4.21,53.44,17.31,36.38,67.47-26.68,70.69-94.49,4.84-99.34-69.6-22.09-74.9ZM1401.23,46.55c-12.87-6.87-33.29-4.89-42.95,3.27-13.98,11.78-15.56,51.54,10.05,58.51,52.73,14.32,57.76-48.55,32.94-61.77h-.04Z" fill="#040404"/><path d="M2357.5,38.92c24.16-1.65,48.46.76,65.04,11.58,34.7,22.58,10.67,60.76-42.95,63.32-94.97,4.56-97.71-69.7-22.09-74.9ZM2366.71,42.69c-33.38,2.64-32.01,38.31-25.13,51.97,10.71,21.39,50.4,20.62,60.05-.84,6.83-15.23,7.32-54.48-34.92-51.13Z" fill="#040404"/><path d="M1670.15,40.21v22.02h-3.97c-1.01-7.09-6.83-13.56-18.92-16.09-1.23-.25-7.63-1.37-8.2-1.37h-25.79v28.83c19.44.89,24.47-8.18,26.46-17.46h3.92v38.69h-3.92c-1.81-8.89-7.89-18.22-26.46-17.46v27.69c0,4.03,19.66,3.65,24.43,3.4,19.62-1.01,32.63-7.63,37.61-18.52l4.06-.46-5.29,22.75h-109.74c-1.06-2.48,5.82-1.34,9.35-1.85,8.33-1.22,8.69-4.84,9.22-9.12,2.16-17.31-1.5-36.26-.35-53.74-1.15-3.4-4.28-4.94-9.92-5.7-3.26-.43-9.35.84-8.29-1.7h105.78l.04.08Z" fill="#040404"/><path d="M3050.71,83.46v-34.54c0-.63-3.35-4.31-4.59-4.97-2.95-1.57-7.05-1.67-10.71-2.23-2.16-.33-3.88.81-3.22-1.52h42.33c.18,2.96-9.48,2.05-12.87,4-.31.18-3,3.02-3,3.22v66.41l-4.67-.73-83.91-58.45v49.71c0,4.21,10.01,5.63,15.26,6.44,2.16.33,3.88-.81,3.22,1.52h-44.97c-.62-2.31,1.01-1.22,3.22-1.55,7.45-1.09,13.89-1.06,15.21-6.49,3.97-16.19-2.82-37.15.18-53.87-.57-4.64-8.51-7.22-15.48-8.59-2.07-.41-3.75.66-3.09-1.6h45.63l61.51,43.25-.04-.03Z" fill="#050505"/><path d="M2873.5,40.21c1.06,2.58-6.13,1.29-9.61,1.7-6.48.79-7.76,2.91-8.55,6.46-2.42,10.59-1.81,33.6-.31,44.57,1.37,10.08,7.54,16.62,27.12,16.37,17.37-.2,28.09-7.68,29.72-17.13,2.47-14.27-1.59-30.86-.26-45.35-1.9-4.03-7.89-4.18-13.67-5.09-2.16-.33-3.88.81-3.22-1.52h43.65c1.06,2.43-4.76,1.32-8.02,1.85-4.41.68-7.45,2.2-8.86,4.76-1.19,11.3.62,22.7-.31,33.98-.48,5.83-1.1,15.3-5.42,20.4-13.54,15.91-68.83,17.31-84.7,2.51-13.71-12.74-2.51-42.49-6.66-57.64-2.03-4.31-7.72-3.78-13.58-4.36-2.2-.23-2.25.46-1.98-1.49h64.81-.13Z" fill="#040404"/><path d="M3820.33,40.21c1.06,2.58-6.13,1.29-9.61,1.7-6.48.79-7.76,2.91-8.55,6.46-2.42,10.59-1.81,33.6-.31,44.57,1.37,10.08,7.54,16.62,27.12,16.37,17.37-.2,28.09-7.68,29.72-17.13,2.47-14.27-1.59-30.86-.26-45.35-1.9-4.03-7.89-4.18-13.67-5.09-2.16-.33-3.88.81-3.22-1.52h43.65c1.06,2.43-4.76,1.32-8.02,1.85-4.41.68-7.45,2.2-8.86,4.76-1.19,11.3.62,22.7-.31,33.98-.48,5.83-1.1,15.3-5.42,20.4-13.54,15.91-68.83,17.31-84.7,2.51-13.71-12.74-2.51-42.49-6.66-57.64-2.03-4.31-7.72-3.78-13.58-4.36-2.2-.23-2.25.46-1.98-1.49h64.81-.13Z" fill="#040404"/><path d="M1465.17,86.5h3.97c-.93,14.7,39.37,32.48,58.91,19,19.53-13.48-30.34-22.22-44-27.92-36.9-15.43-15.34-41.71,26.59-38.79,7.23.51,21.74,5.45,25.22,5.24,6.35-.35,3.22-5.42,8.64-5.32l1.32,24.27-4.1-.46c-2.69-10.36-18.21-20.57-37.57-20.09-12.65.3-23.02,6.36-17.02,13.63,8.11,9.91,52.87,12.82,63.67,27.21,13.54,18.09-17.37,32.79-47.8,30.48-9.44-.71-23.1-7.6-30.56-3.75-3.4,1.75-1.76,4.56-7.23,3.8v-27.31h-.04Z" fill="#040404"/><path d="M4153.53,38.69v25.03c-6.26.35-7.28-5.7-10.36-8.84-16.36-16.72-56.61-14.9-70.11,2.51-10.49,13.53-8.82,43.86,19.27,50.19,23.41,5.27,42.9-1.7,58.51-11.2,1.46,5.27-1.37,7.15-8.02,10.19-30.34,13.89-86.46,8.03-103.26-12.69-23.15-28.56,19-58.43,71.96-54.96,8.2.53,26.1,5.37,30.73,5.12,6.44-.35,4.59-6.11,11.29-5.32v-.03Z" fill="#060606"/><path d="M3592.86,38.69v25.03c-6.26.35-7.28-5.7-10.36-8.84-16.36-16.72-56.61-14.9-70.11,2.51-10.49,13.53-8.82,43.86,19.27,50.19,23.41,5.27,42.9-1.7,58.51-11.2,1.46,5.27-1.37,7.15-8.02,10.19-30.34,13.89-86.46,8.03-103.26-12.69-23.15-28.56,19-58.43,71.96-54.96,8.2.53,26.1,5.37,30.73,5.12,6.44-.35,4.59-6.11,11.29-5.32v-.03Z" fill="#060606"/><path d="M1297.22,38.69v25.03c-6.26.35-7.28-5.7-10.36-8.84-16.36-16.72-56.61-14.9-70.11,2.51-10.49,13.53-8.82,43.86,19.27,50.19,23.41,5.27,42.9-1.7,58.51-11.2,1.45,5.27-1.37,7.15-8.02,10.19-30.34,13.89-86.46,8.03-103.26-12.69-23.15-28.56,19-58.43,71.96-54.96,8.2.53,26.1,5.37,30.73,5.12,6.44-.35,4.59-6.11,11.29-5.32v-.03Z" fill="#060606"/><path d="M3274.16,40.21v19.74l-4.1-.46c-4.19-11.86-17.55-16.42-38.23-14.72v61.09c0,2.28,5.38,4.23,8.91,4.76,3.31.48,9.35-.89,8.29,1.7h-66.14c-1.06-2.69,5.34-1.17,8.51-1.57,3.79-.48,10.01-2.43,10.01-4.89v-61.09c-19.4-1.6-36.6,3.02-37.04,15.18h-3.97v-19.74h113.76Z" fill="#030303"/><path d="M1815.61,63.75l-4.1-.46c-15.34-30.05-76.19-25.34-81.7,6.23-4.32,24.55,14.95,49.56,64.2,36.08l18.96-8.46c-.18,2.58,1.28,4.76-1.94,6.84-12.26,8.01-37.87,10.74-55.56,9.83-95.81-4.89-67.33-88.43,30.03-73.38,9.44,1.44,24.34,7.8,26.19-1.72h3.92s0,25.03,0,25.03Z" fill="#040404"/><path d="M2286.38,63.75l-4.1-.46c-15.34-30.05-76.19-25.34-81.7,6.23-4.32,24.55,14.95,49.56,64.2,36.08l18.96-8.46c-.18,2.58,1.28,4.76-1.94,6.84-12.26,8.01-37.87,10.74-55.56,9.83-95.81-4.89-67.33-88.43,30.03-73.38,9.44,1.44,24.34,7.8,26.19-1.72h3.92s0,25.03,0,25.03Z" fill="#040404"/><path d="M3342.95,40.21c1.1,2.53-5.03,1.27-8.29,1.7-8.86,1.11-2.95,6.51-.35,9.73,5.29,6.51,16.14,18.12,22.93,24.02.93.79,1.37,1.95,3.57,1.75l29.5-29.39c1.94-5.37-3.09-4.89-9.83-6.18-2.07-.41-3.75.66-3.09-1.6h38.36c.26,2.48-6.39,2.15-9.96,3.78-1.98.91-4.85,3.34-6.44,4.64-4.85,3.93-33.86,31.06-34.88,33.88-1.1,3.12-.97,22.53.88,24.96,3,3.95,10.98,2.96,16.71,3.34,2.42.15,2.12-.23,1.94,1.52h-70.11c-.18-1.8-.44-1.34,1.98-1.52,6.53-.46,13.49.51,16.62-4.13,1.9-2.79,2.07-17.91.93-21.13-11.9-11.22-21.21-24.45-33.51-35.4-5.11-4.56-5.82-6.01-14.81-8.21-1.94-.48-3.62.48-2.91-1.7h60.85l-.09-.05Z" fill="#040404"/><path d="M1975.62,112.32c-.62-1.77.35-1.22,1.72-1.7,4.81-1.75,10.23-2.64,13.1-6.11l51.98-65.8c2.65-.03,3.48,1.67,4.45,2.76,19.93,21.92,31.35,47.18,55.03,67.83,2.16,1.39,8.29.53,7.28,3.04h-60.85c-1.06-2.53,4.98-1.27,8.29-1.7,1.28-.18,6.04-1.27,6.31-1.85,2.16-4.94-7.8-11.93-9.48-16.85h-44.58c-2.34,3.98-8.73,9.53-7.89,13.73,1.01,4.89,7.63,4.03,13.89,5.04,2.25.35,3.66-.56,3.04,1.62h-42.33l.04-.03ZM2012.65,87.26h37.04c-5.82-7.2-10.14-15.03-16.53-22.04-.79-.89,0-1.82-2.65-1.49l-17.86,23.54Z" fill="#040404"/><path d="M986.46,112.32c-.62-1.77.35-1.22,1.72-1.7,9.17-3.34,10.27-3.32,15.74-9.17l49.38-62.74c2.38-.18,2.51,1.04,3.35,1.87,18.61,19.26,29.89,45.63,49.51,64.16,1.32,1.27,2.87,3.19,4.76,4.1,3.31,1.62,9.52,1.17,9.17,3.47h-60.85c-.26-1.95-.22-1.27,1.98-1.49,4.81-.48,12.65-.08,12.65-4.18,0-1.19-8.11-12.57-9.48-13.61-1.59-1.17-1.98-1.09-4.41-1.27-7.85-.53-29.37-.53-37.17,0-1.63.1-2.65,0-3.92.79-.62.35-6.31,8.16-6.66,9.07-2.73,7.63,2.29,7.35,12.21,9.05,2.2.38,3.7-.61,3.09,1.62h-41.01l-.09.03ZM1023.5,87.26h35.71l-16.53-23.54c-2.2-.41-4.06,3.07-4.85,4.05-5.16,6.36-10.14,12.9-14.33,19.48Z" fill="#040404"/><path d="M928.31,40.21c1.1,2.58-5.29,1.27-8.47,1.6-5.25.56-9.04,1.55-9.96,4.92l.49,58.05c2.38,4.23,23.54,3.37,30.47,2.99,20.37-1.19,28.48-10.92,32.45-21.23h3.92l-3.97,25.79h-112.39c-.66-2.69,7.05-1.06,11.55-2.1,6.31-1.44,6.57-6.82,7.01-10.39,1.63-13.18,1.46-33.14,0-46.37-.44-4.13,0-9.78-8.2-11.22-3.84-.68-11.33.43-10.36-2.03,0,0,67.46,0,67.46,0Z" fill="#020202"/><path d="M3148.55,40.21c1.06,2.56-5.03,1.24-8.29,1.7-6.83.94-8.38,2.33-8.95,6.23-2.87,18.29,2.2,39.1.13,57.67.35,2.69,4.76,4.21,8.82,4.81,3.31.48,9.35-.89,8.29,1.7h-66.14c-1.06-2.64,6.17-1.22,9.66-1.67,7.72-1.01,8.47-5.52,8.95-9.3,1.63-12.97,2.42-39.78-.22-52.3-.75-3.62-2.42-6.01-8.99-6.97-3.53-.51-10.41.63-9.35-1.85h66.14l-.04-.03Z" fill="#030303"/><path d="M2644.05,173.77l34.39,41.73,33.69-41.73h27.78c1.01,2.53-3.97,1.19-7.01,1.67-5.34.86-5.82,2.66-6.31,5.5-2.12,13.2,1.63,28.3.13,41.73.62,2.23,2.38,3.45,6.13,4.05,3.04.48,8.02-.86,7.01,1.67h-41.01v-1.52c2.91.73,13.23-1.01,13.23-2.66v-39.83l-36.38,44.01-3.57-1.75-34.13-42.26v39.83c0,1.65,10.32,3.4,13.23,2.66v1.52h-33.07l10.63-3.4c2.34-1.52,2.38-2.64,2.69-4.54,1.37-8.72,1.85-31.06-.18-39.43-1.15-4.69-3.53-4.43-10.01-5.68-2.07-.41-3.75.66-3.09-1.6h25.84Z" fill="#375999"/><path d="M1971.65,228.42c-1.01-2.53,3.97-1.19,7.01-1.67,5.34-.86,5.82-2.66,6.31-5.5,2.12-13.2-1.63-28.3-.13-41.73-.62-2.23-2.38-3.45-6.13-4.05-3.04-.48-8.02.86-7.01-1.67h52.25c43.08,0,57.54,34.1,26.41,48.55-4.85,2.26-19.22,6.08-25.09,6.08h-53.62ZM1998.1,224.62c23.85,3.14,45.37-1.39,51.19-15.79,7.94-19.61-15.17-38.01-51.19-30.13v45.91Z" fill="#355898"/><path d="M3437.48,173.77c31.83,2.15,35.14,24.35,3.31,27.31l.22,1.77c7.94,5.45,13.98,12.39,22.22,17.61,6.79,4.31,8.02,4.21,16.98,6.23,2.03.46,3.57-.43,2.91,1.72h-26.46l-29.76-25.03-11.24-.76v19.36c0,.68,2.69,3.22,3.97,3.8,4.37,1.93,11.11-.13,10.58,2.66h-41.01c-1.01-2.53,3.97-1.19,7.01-1.67,5.34-.86,5.82-2.66,6.31-5.5,2.12-13.2-1.63-28.3-.13-41.73-.62-2.23-2.38-3.45-6.13-4.05-3.04-.48-8.02.86-7.01-1.67,15.3.76,33.33-1.01,48.28,0l-.04-.05ZM3415.65,200.35c41.49,3.29,42.72-28.78,0-22.75v22.75Z" fill="#355898"/><path d="M2386.86,228.42c-8.69-.05-17.5.18-26.19-.15l-30.03-24.88-11.24-.76v19.36c0,.68,2.69,3.22,3.97,3.8,4.37,1.93,11.11-.13,10.58,2.66h-41.01c-1.01-2.53,3.97-1.19,7.01-1.67,5.34-.86,5.82-2.66,6.31-5.5,2.12-13.2-1.63-28.3-.13-41.73-.62-2.23-2.38-3.45-6.13-4.05-3.04-.48-8.02.86-7.01-1.67h48.28c1.1,0,9.57,1.49,11.24,1.9,22.97,5.68,16.67,24.4-7.94,25.44l.22,1.77c12.04,7.78,21.61,23.11,42.11,24.02v1.52l-.04-.05ZM2319.44,200.35c41.49,3.29,42.72-28.78,0-22.75v22.75Z" fill="#355898"/><path d="M3109.88,173.21c64.68-5.09,71.3,52.02,12.74,55.87-63.54,4.21-70.99-51.31-12.74-55.87ZM3111.16,176.25c-34.22,2.96-31.66,46.29-2.65,49.74,34.83,4.13,41.89-17.91,37.21-32.74-3.35-10.72-13.67-18.8-34.57-16.98v-.03Z" fill="#375999"/><path d="M3328.09,173.21c64.68-5.09,71.3,52.02,12.74,55.87-63.54,4.21-70.99-51.31-12.74-55.87ZM3329.37,176.25c-34.22,2.96-31.66,46.29-2.65,49.74,34.83,4.13,41.89-17.91,37.21-32.74-3.35-10.72-13.67-18.8-34.57-16.98v-.03Z" fill="#375999"/><path d="M3649.38,173.21c64.68-5.09,71.3,52.02,12.74,55.87-63.54,4.21-70.99-51.31-12.74-55.87ZM3650.71,176.25c-34.22,2.96-31.66,46.29-2.65,49.74,34.83,4.13,41.89-17.91,37.21-32.74-3.35-10.72-13.67-18.8-34.57-16.98v-.03Z" fill="#375999"/><path d="M3789.9,214v-33.02c0-2.26-3.53-4.92-7.54-5.52-3.04-.46-8.02.84-7.01-1.67h34.39c.35,2.94-7.19.51-11.33,2.99-1.15.68-3.22,4.28-3.22,4.99v47.43l-64.81-43.25v35.3c0,2.26,3.53,4.92,7.54,5.52,3.04.46,8.02-.84,7.01,1.67h-34.39c-1.01-2.51,4.63-1.22,7.98-1.85,5.29-1.01,5.86-4.1,6.39-6.97,1.46-7.96,2.03-29.44.22-37.12-1.1-4.66-9.96-6.11-16.67-7.17-2.16-.33-3.88.81-3.22-1.52h25.79c4.59,0,49.16,36.92,58.86,40.21v-.03Z" fill="#335797"/><path d="M2959.44,214v-33.02c0-2.26-3.53-4.92-7.54-5.52-3.04-.46-8.02.84-7.01-1.67h34.39c.35,2.94-7.19.51-11.33,2.99-1.15.68-3.22,4.28-3.22,4.99v47.43l-64.81-43.25v35.3c0,2.26,3.53,4.92,7.54,5.52,3.04.46,8.02-.84,7.01,1.67h-34.39c-1.01-2.51,4.63-1.22,7.98-1.85,5.29-1.01,5.86-4.1,6.39-6.97,1.46-7.96,2.03-29.44.22-37.12-1.1-4.66-9.96-6.11-16.67-7.17-2.16-.33-3.88.81-3.22-1.52h25.79c4.59,0,49.16,36.92,58.86,40.21v-.03Z" fill="#335797"/><path d="M2386.86,226.9c4.94.23,10.63.23,13.89-2.28l.62-45.89c-.22-1.24-1.68-2-3.44-2.58-4.23-1.37-10.49.23-9.74-2.36h72.75l1.32,12.14c-2.78.23-2.16.1-2.95-.96-1.98-2.58-3.26-8.16-10.93-8.16h-32.41v21.26h25.79c5.38,0,10.05-4.61,8.6-7.6h3.97v18.98h-3.97c.97-3.09-2.42-8.34-8.6-8.34h-25.79v22.4c0,.56,3.22,1.72,4.67,1.87,4.89.53,23.41.3,28.48-.33,9.08-1.09,11.55-5.09,16.36-8.84,1.1-.86,0-1.87,3.4-1.44l-7.41,13.71c-24.87-.2-49.74.1-74.56-.05v-1.52h-.04Z" fill="#335797"/><path d="M2147.53,173.77l1.32,12.14c-2.78.23-2.16.1-2.95-.96-1.98-2.58-3.26-8.16-10.93-8.16h-32.41v21.26h25.79c5.38,0,10.05-4.61,8.6-7.6h3.97v18.98h-3.97c.97-3.09-2.42-8.34-8.6-8.34h-25.79v22.4c0,.56,3.22,1.72,4.67,1.87,4.89.53,23.41.3,28.48-.33,9.08-1.09,11.55-5.09,16.36-8.84,1.1-.86,0-1.87,3.4-1.44l-6.61,13.66h-74.07c-1.01-2.51,3.92-1.22,7.01-1.67,5.03-.76,5.82-2,6.31-4.74,2.34-13.61-1.85-29.42-.09-43.28-.22-1.24-1.68-2-3.44-2.58-4.23-1.37-10.49.23-9.74-2.36h72.75-.04Z" fill="#335797"/><path d="M1461.2,173.77l1.32,12.14c-2.78.23-2.16.1-2.95-.96-1.98-2.58-3.26-8.16-10.93-8.16h-32.41v21.26h25.79c5.38,0,10.05-4.61,8.6-7.6h3.97v18.98h-3.97c.97-3.09-2.42-8.34-8.6-8.34h-25.79v22.4c0,.56,3.22,1.72,4.67,1.87,4.89.53,23.41.3,28.48-.33,9.08-1.09,11.55-5.09,16.36-8.84,1.1-.86,0-1.87,3.4-1.44l-6.61,13.66h-74.07c-1.01-2.51,3.92-1.22,7.01-1.67,5.03-.76,5.82-2,6.31-4.74,2.34-13.61-1.85-29.42-.09-43.28-.22-1.24-1.68-2-3.44-2.58-4.23-1.37-10.49.23-9.74-2.36h72.75-.04Z" fill="#335797"/><path d="M2865.56,173.77l1.32,12.14c-2.78.23-2.16.1-2.95-.96-1.98-2.58-3.26-8.16-10.93-8.16h-32.41v21.26h25.79c5.38,0,10.05-4.61,8.6-7.6h3.97v18.98h-3.97c.97-3.09-2.42-8.34-8.6-8.34h-25.79v22.4c0,.56,3.22,1.72,4.67,1.87,4.89.53,23.41.3,28.48-.33,9.08-1.09,11.55-5.09,16.36-8.84,1.1-.86,0-1.87,3.4-1.44l-6.61,13.66h-74.07c-1.01-2.51,3.92-1.22,7.01-1.67,5.03-.76,5.82-2,6.31-4.74,2.34-13.61-1.85-29.42-.09-43.28-.22-1.24-1.68-2-3.44-2.58-4.23-1.37-10.49.23-9.74-2.36h72.75-.04Z" fill="#335797"/><path d="M3252.34,173.77c10.49.76,24.43,6.06,25.79,12.49,3.48,16.37-21.91,19.92-44.97,17.1v18.6c0,.68,3.17,3.72,4.54,4.23,4.23,1.57,10.76-.66,10.01,2.23h-41.01c-1.01-2.53,3.97-1.19,7.01-1.67,5.34-.86,5.82-2.66,6.31-5.5,1.41-8.94,1.94-32.41-.18-40.95-.31-1.22-1.01-3.02-2.56-3.85-3.84-2.13-11.24.28-10.54-2.66,14.37.73,31.61-1.01,45.63,0l-.04-.03ZM3233.16,201.11c13.62,1.39,27.73-.05,29.14-9.45,1.68-11.28-10.32-16.72-29.14-14.09v23.54Z" fill="#345798"/><path d="M3599.47,173.77l-60.85,51.61h39.02c1.41,0,10.41-1.62,11.95-2.26,4.19-1.7,5.64-5.24,7.89-7.65,1.01-1.06-.09-1.87,3.31-1.47l-3.97,14.42h-78l60.85-51.61h-35.05c-1.19,0-8.42,1.85-9.52,2.51-2.38,1.47-2.87,4.56-4.06,6.46-.75,1.22.71,2.03-3,1.67l1.32-13.66h70.11v-.03Z" fill="#355898"/><path d="M1863.23,210.96h3.97c-2.34,11.68,28.09,20.32,41.71,12.19,19.62-11.73-28.88-20.17-39.07-26.22-18.43-10.97.62-25.49,25.62-23.82,7.19.48,20.41,6.11,20.72-.05h3.88v18.17h-3.97c1.06-9.78-18.03-18.52-33.99-13.81-4.32,1.29-8.64,4.36-8.29,7.32,1.15,9.83,46.38,14.14,50.97,25.41,5.38,13.33-14.59,20.47-35.67,18.95-6.75-.48-22.05-6.08-22,.03h-3.88v-18.17h0Z" fill="#355898"/><path d="M1602.69,173.77c.53,2.76-6.17.76-10.58,2.66-2.16.94-3.22,2.48-3.66,3.98-1.98,6.31-1.23,30.48,1.9,36.49,7.1,13.61,44.93,10.9,50.35-1.95,2.56-6.06,3.26-28.4,1.32-34.54-.44-1.47-1.5-3.02-3.66-3.98-4.41-1.9-11.07.1-10.58-2.66h34.39c.79,2.61-4.54.91-8.64,2.23-1.59.51-4.14,2.33-4.54,3.47-3.75,11.25,4.89,28.99-4.14,40.11-9.04,11.12-42.33,12.29-57.94,6.11-20.55-8.11-8.42-32.79-12.3-45.3-.44-1.47-1.5-3.02-3.66-3.98-4.41-1.9-11.07.1-10.58-2.66h42.33v.03Z" fill="#355898"/><path d="M1752.12,228.42c-.79-2.31,4.41-1.8,7.32-3.02,1.54-.66,2.6-1.57,3.53-2.53l36.77-49.33,3.31-.53,37.43,49.86c2.07,3.09,6.26,2.94,10.32,3.95,1.59.41,2.38-.35,1.85,1.6h-38.36c-.26-2.61,5.25-1.11,8.64-2.99,1.06-.58,1.76-.96,1.85-1.9.09-1.06-6.61-11.07-8.02-12.11-1.59-1.17-1.98-1.09-4.41-1.27-6.26-.41-23.02-.43-29.23,0-1.45.1-2.91,0-3.92.79l-8.51,12.57c.18,2.38,4.81,2.51,7.58,3.19,1.94.48,3.57-.48,2.91,1.7h-29.1l.04.03ZM1812.96,207.16c-3.35-6.01-7.76-13.96-12.96-19.51-.48-.51-2.07-2.13-2.91-1.75l-14.55,21.26h30.42Z" fill="#375999"/><path d="M3812.39,228.42c-.79-2.31,4.41-1.8,7.32-3.02,1.54-.66,2.6-1.57,3.53-2.53l36.77-49.33,3.31-.53,37.43,49.86c2.07,3.09,6.26,2.94,10.32,3.95,1.59.41,2.38-.35,1.85,1.6h-38.36c-.26-2.61,5.25-1.11,8.64-2.99,1.06-.58,1.76-.96,1.85-1.9.09-1.06-6.61-11.07-8.02-12.11-1.59-1.17-1.98-1.09-4.41-1.27-6.26-.41-23.02-.43-29.23,0-1.46.1-2.91,0-3.92.79l-8.51,12.57c.18,2.38,4.81,2.51,7.58,3.19,1.94.48,3.57-.48,2.91,1.7h-29.1l.04.03ZM3873.19,207.16c-3.35-6.01-7.76-13.96-12.96-19.51-.48-.51-2.07-2.13-2.91-1.75l-14.55,21.26h30.42,0Z" fill="#375999"/><path d="M1372.31,175.87c1.81-1.01.22-3.47,4.28-2.84l2.65,18.22c-2.91.35-3-.84-4.01-1.85-5.47-5.55-6.83-10.84-20.02-12.8-51.15-7.6-56.53,41.25-21.21,47.84,18.87,3.52,34.17-.46,44.62-9.65,3.35-.25,2.07,1.24,1.23,2.23-11.51,14.21-51.32,16.06-70.06,5.37-31.44-17.91-8.16-51.71,38.4-49.33,6.75.35,20.37,4.97,24.16,2.84l-.04-.03Z" fill="#385a99"/><path d="M2276.81,175.87c1.81-1.01.22-3.47,4.28-2.84l2.65,18.22c-2.91.35-3-.84-4.01-1.85-5.47-5.55-6.83-10.84-20.02-12.8-51.15-7.6-56.53,41.25-21.21,47.84,18.87,3.52,34.17-.46,44.62-9.65,3.35-.25,2.07,1.24,1.23,2.23-11.51,14.21-51.32,16.06-70.06,5.37-31.44-17.91-8.16-51.71,38.4-49.33,6.75.35,20.37,4.97,24.16,2.84l-.04-.03Z" fill="#385a99"/><path d="M2554.5,175.87c1.81-1.01.22-3.47,4.28-2.84l2.65,18.22c-2.91.35-3-.84-4.01-1.85-5.47-5.55-6.83-10.84-20.02-12.8-51.15-7.6-56.53,41.25-21.21,47.84,18.87,3.52,34.17-.46,44.62-9.65,3.35-.25,2.07,1.24,1.23,2.23-11.51,14.21-51.32,16.06-70.06,5.37-31.44-17.91-8.16-51.71,38.4-49.33,6.75.35,20.37,4.97,24.16,2.84l-.04-.03Z" fill="#385a99"/><path d="M1519.4,173.77c.26,1.95.22,1.27-1.98,1.49-5.56.56-11.82.18-13.84,4.21l.88,44.21,1.41.91c11.38.94,32.05,1.95,40.74-3.02,4.19-2.41,5.29-6.28,9.88-8.39l-6.61,15.18h-74.07c-1.01-2.51,3.92-1.22,7.01-1.67,5.03-.76,5.82-2,6.31-4.74,2.34-13.61-1.85-29.42-.09-43.28-.22-1.24-1.68-2-3.44-2.58-4.23-1.37-10.49.23-9.74-2.36h43.65l-.09.03Z" fill="#335797"/><path d="M1709.83,173.77c.26,1.95.22,1.27-1.98,1.49-5.56.56-11.82.18-13.84,4.21l.88,44.21,1.41.91c11.38.94,32.05,1.95,40.74-3.02,4.19-2.41,5.29-6.28,9.88-8.39l-6.61,15.18h-74.07c-1.01-2.51,3.92-1.22,7.01-1.67,5.03-.76,5.82-2,6.31-4.74,2.34-13.61-1.85-29.42-.09-43.28-.22-1.24-1.68-2-3.44-2.58-4.23-1.37-10.49.23-9.74-2.36h43.65l-.09.03Z" fill="#335797"/><path d="M3063.93,173.77v12.9c-3.97.38-2.07-.61-2.78-1.77-1.81-3.02-2.42-5.14-8.16-6.74-4.1-1.14-20.46-2.66-21.91-.1v43.83c.4,1.27.79,2.94,2.47,3.85,3.84,2.13,11.24-.28,10.54,2.66h-39.68v-1.52c5.07.63,13.23-.76,13.23-4.18v-45.91c-8.25,0-21.91-.71-27.07,3.83-2.42,2.13-1.41,6.21-6,6.03l1.32-12.9h78l.04.03Z" fill="#345798"/><path d="M2611.68,173.77c1.01,2.61-3.92,1.09-7.01,1.67-4.37.84-5.91,3.93-6.31,6.26-1.5,9.4-1.72,30.94.22,40.19.22,1.11.75,2.28,1.5,3.29,2.47,1.09,5.47,1.24,8.29,1.72,2.03.35,3.97-.89,3.26,1.49h-39.68c-1.01-2.61,3.92-1.09,7.01-1.67,4.37-.84,5.91-3.93,6.31-6.26,1.5-9.4,1.72-30.94-.22-40.19-.22-1.11-.75-2.28-1.5-3.29-2.47-1.09-5.47-1.24-8.29-1.72-2.03-.35-3.97.89-3.26-1.49h39.68Z" fill="#345798"/><path d="M2786.2,173.77c1.01,2.61-3.92,1.09-7.01,1.67-4.37.84-5.91,3.93-6.31,6.26-1.5,9.4-1.72,30.94.22,40.19.22,1.11.75,2.28,1.5,3.29,2.47,1.09,5.47,1.24,8.29,1.72,2.03.35,3.97-.89,3.26,1.49h-39.68c-1.01-2.61,3.92-1.09,7.01-1.67,4.37-.84,5.91-3.93,6.31-6.26,1.5-9.4,1.72-30.94-.22-40.19-.22-1.11-.75-2.28-1.5-3.29-2.47-1.09-5.47-1.24-8.29-1.72-2.03-.35-3.97.89-3.26-1.49h39.68Z" fill="#345798"/><path d="M451.94,240c22.97-1.77,39.59,12.36,26.54,23.56-10.54,9.07-33.95,8.99-44.75.13-10.98-8.99-.71-22.25,18.21-23.72v.03ZM470.33,247.65c-21.3-12.14-48.28,9.35-23.85,17.1,20.46,6.49,37.79-9.15,23.85-17.1Z" fill="#325084"/><polygon points="624.16 240.56 624.16 251.93 646.65 251.93 646.65 240.56 654.59 240.56 654.59 270.15 646.65 270.15 646.65 256.49 624.16 256.49 624.16 270.15 616.23 270.15 616.23 240.56 624.16 240.56" fill="#365487"/><polygon points="560.67 240.56 560.67 245.12 540.83 245.12 540.83 251.93 560.67 251.93 560.67 255.73 540.83 255.73 540.83 265.59 560.67 265.59 560.67 270.15 533.55 270.15 531.57 269.01 531.57 241.7 533.55 240.56 560.67 240.56" fill="#325084"/><path d="M359.7,270.15c-10.14,1.37-9.13-2.81-12.7-6.87l-23.15.51c-2.51,4.31-3.53,7.35-13.1,6.36l25.13-31.11,23.77,31.11h.04ZM343.83,258.75l-7.28-9.07c-1.1,0-8.6,8.34-7.28,9.1h14.55v-.03Z" fill="#325084"/><path d="M708.77,270.15l-7.72-.13-4.01-6.26-23.15-.51c-2.69,3.7-3.7,7.83-12.7,6.87l23.81-31.11,23.77,31.11v.03ZM692.9,258.78l-7.28-9.1c-1.1,0-8.6,8.34-7.28,9.1h14.55,0Z" fill="#325084"/><path d="M503.48,239.95c3.62-.33,5.64-.13,8.99.56,5.78,1.17,13.27,5.22,3.57,6.01-2.56.2-13.49-5.32-16.01-.13-2.51,5.19,19.53,5.95,22,12.14,3.09,7.78-7.1,12.52-20.11,11.53-13.01-.99-16.75-10.97-6.88-8.97,2.07.43,2.16,2.69,4.01,3.78,6.57,3.8,19.84.05,14.02-5.78-3.13-3.12-11.95-3.42-16.62-5.65-9.26-4.38-4.01-12.47,6.97-13.51l.04.03Z" fill="#325084"/><path d="M605.47,241.42l.18,5.22c-4.81-.46-7.1-2.33-12.52-2.33-25.93-.08-26.37,24.25,5.2,21.28,2.51-.23,4.32-1.9,7.32-1.47,3.4,8.77-19.89,6.74-28.22,3.67-27.25-9.98-1.81-34.97,28.04-26.33v-.05Z" fill="#325084"/><path d="M422.97,241.42l.18,5.22c-11.24-4.51-29.06-2.05-30.47,6.41-1.94,11.48,13.62,15.25,30.47,11.05.75,4.31,0,5.37-7.41,5.98-46.6,3.93-38.1-39.02,7.23-28.66Z" fill="#325084"/><polygon points="290.92 240.56 290.92 265.59 306.79 265.59 306.79 270.15 284.96 270.15 282.98 269.01 282.98 241.7 290.92 240.56" fill="#325084"/><path d="M379.5,295.19l9.3-14.42c3.17-.23,2.12-.03,2.78,1.04,3.31,5.32,2.56,12.8,6.44,18.27-6.31,3.85-6.75-6.18-7.72-8.44-.44-1.04.84-2.1-2.16-1.77l-9.26,11.38-11.24-12.9-3.88,12.44-4.06.43,7.28-20.47,12.52,14.42v.03Z" fill="#479c65"/><path d="M357.01,301.27l-3.97-.51-3.97-12.39-9.26,12.14c-2.43.28-2.6-.35-3.66-1.32-2.56-2.36-4.28-6.66-6.61-9.1-.84-.89.04-1.29-2.95-.96-.35,2.79-1.15,8.44-2.91,10.84-1.06,1.39-2.47,1.9-4.37.53l6-18.98c3.13-.38,2.12.25,2.95.99,3.88,3.4,6.04,8.87,8.95,12.67,2.03.86,10.58-12.36,11.6-13.45.93-1.01,1.15-1.85,2.29-.2s7.19,19.05,5.91,19.74h0Z" fill="#479c65"/><path d="M295.9,280.21c24.03-.73,26.9,19.05,4.89,21.01-27.43,2.43-29.1-20.27-4.89-21.01ZM293.17,283.23c-15.96,2.1-11.68,17.1,6,15.63,17.68-1.47,15.12-18.42-6-15.63Z" fill="#479c65"/><path d="M718.03,280.77h5.29l.75,7.6h16.45v-7.6h5.29v19.36l-3.31,1.14c-4.1-.51-.49-9.68-2.78-9.88h-16.45c-1.28.76,3.35,13.15-5.29,8.74v-19.36h.04Z" fill="#56a472"/><path d="M657.23,280.77c6.7.43,14.9-1.57,19.05,2.36s-.71,8.39-8.47,8.67l11.9,9.1c-7.67.79-11.82-6.11-16.53-8.72-1.9,2.74,2.07,11.68-5.95,7.96,0,0,0-19.36,0-19.36ZM671.56,289c4.1-4.76-.84-6.59-9.08-5.95v6.08l9.08-.1v-.03Z" fill="#479c65"/><path d="M407.28,280.77v14.8c0,4.36,17.2,3.52,17.2.76v-15.56h5.29v14.8c0,5.14-15.52,7.45-22.44,4.54-1.23-.53-5.34-4.08-5.34-4.54v-14.8h5.29Z" fill="#479c65"/><polygon points="462.83 295.19 462.83 280.77 466.8 280.77 466.8 301.27 441.67 286.85 441.67 300.13 437.7 301.27 437.7 280.77 462.83 295.19" fill="#479c65"/><path d="M645.33,280.77h5.29v14.04c0,.41-3.04,4.03-3.92,4.59-6.44,4.13-23.85,1.49-23.85-3.83v-14.8l4.06.33,1.06.91c1.15,4.05-.79,8.89.13,12.82,1.5,6.49,17.24,3.88,17.24.71v-14.8.03Z" fill="#479c65"/><path d="M453.57,192.77l-7.98,9.1-19.8-3.8c3.13-3.34,3-6.11,2.65-9.86l25.13,4.56Z" fill="#325084"/><path d="M273.72,285.33c-3.57-.13-4.81-1.93-8.69-2.26-21.6-1.8-21.65,16.04-2.51,15.94,4.5,0,7.01-2.15,11.2-2.31l-.18,2.91c-21.34,7.73-42.42-9.32-22.97-17.36,6.92-2.86,23.94-3.5,23.15,3.04v.03Z" fill="#479c65"/><path d="M581.83,285.33c-3.57-.13-4.81-1.93-8.69-2.26-16.8-1.39-22.35,10.59-9.7,14.7,7.98,2.61,11.07.23,18.39-1.06,2.03,4.31-8.07,4.84-13.89,4.56-19.62-1.01-22.22-16.65-4.94-20.3,6.61-1.39,20.24-1.17,18.83,4.36Z" fill="#479c65"/><polygon points="588.45 280.77 592.42 280.77 593.17 288.37 610.93 288.37 610.93 280.77 614.9 280.77 614.9 300.51 610.93 300.51 610.93 290.65 592.42 290.65 592.42 300.51 588.45 300.51 588.45 280.77" fill="#3b965b"/><path d="M711.42,285.33c-17.02-8.41-35.1,6.71-18.39,12.47,7.28,2.51,11.73.48,18.39-1.06,1.32,2.76-1.81,3.9-6.26,4.36-25.18,2.64-31.53-15.84-11.24-20.09,6.48-1.37,19-.91,17.5,4.36v-.03Z" fill="#479c65"/><path d="M534.22,280.77c1.72.91-9.17,8.82-9.96,10.59-1.59,3.42,2.16,9.43-4.59,9.88,3.17-8.77-5.16-12.52-10.58-19.71l5.07.13,8.11,7.45c.26-1.7,8.25-10.29,11.9-8.34h.04Z" fill="#479c65"/><polygon points="507.8 280.77 507.8 283.05 497.22 283.05 497.22 300.51 493.25 300.51 493.25 283.05 483.99 283.05 483.99 280.77 507.8 280.77" fill="#3b965b"/><rect x="474.74" y="280.77" width="3.97" height="19.74" fill="#3b965b"/><path d="M423.15,193.51c-.35-.1-1.01.1-1.32,0-10.76-4.1-11.9-10.84-18.52-15.94l1.32-.76c.13.15,1.81.56,2.43,1.24,0,0,16.09,15.46,16.09,15.46Z" fill="#f5f6f9"/><path d="M4492.06,353.61v94.86H6.61v-94.86h4485.45ZM2143.56,416.6h31.08l3.31-9.1c-4.23-.15-2.47,2.23-7.54,2.86-4.23.53-9.22,0-13.58.15,7.19-4.99,23.06-12.19,18.83-19.51-5.38-9.35-30.64-6.46-30.78,3.19,2.87,1.65,2.69-.91,3.88-1.52,4.19-2.13,11.95-2.46,14.07,1.11,4.98,8.49-12.96,16.22-19.27,22.8ZM2217.24,385.67c-19.44,2.28-20.24,33.4,7.54,30.89,20.19-1.82,20.99-34.23-7.54-30.89ZM2262.57,416.6h31.08l3.31-9.1c-4.23-.15-2.47,2.23-7.54,2.86-4.23.53-9.22,0-13.58.15,7.19-4.99,23.06-12.19,18.83-19.51-5.38-9.35-30.64-6.46-30.78,3.19,2.87,1.65,2.69-.91,3.88-1.52,4.19-2.13,11.95-2.46,14.07,1.11,4.98,8.49-12.96,16.22-19.27,22.8ZM2357.76,386.25h-26.46l-7.94,14.42c10.89-1.42,34.61,5.88,24.43,12.87-6.57,4.51-23.5-8.26-24.51-1.09-.88,6.11,29.67,6.44,33.86-2.64,4.54-9.88-8.86-15.13-24.51-15.2v-2.28h22.49l2.65-6.08h0Z" fill="#305495"/><path d="M519.71,24.27c-4.54,10.21-17.72,19.54-29.14,27.67-50.88,36.41-129.72,71.6-85.93,124.84l-1.32.76c-4.37-3.37-15.04-7.7-20.5-11.38-88.89-59.8-1.06-155.47,136.86-141.92l.04.03Z" fill="#fcfdfd"/><path d="M3939.33,75.89v-31.87c20.77-.79,37.26.96,38.4,14.77,1.23,15.05-15.34,18.04-38.4,17.1Z" fill="#fcfcfc"/><path d="M1401.23,46.55c24.82,13.2,19.8,76.09-32.94,61.77-25.57-6.94-23.99-46.72-10.05-58.51,9.7-8.16,30.07-10.14,42.95-3.27h.04Z" fill="#fcfcfc"/><path d="M2366.71,42.69c42.2-3.34,41.75,35.9,34.92,51.13-9.66,21.49-49.34,22.22-60.05.84-6.83-13.66-8.25-49.33,25.13-51.97Z" fill="#fcfcfc"/><path d="M2012.65,87.26l17.86-23.54c2.65-.33,1.85.61,2.65,1.49,6.39,7.02,10.71,14.85,16.53,22.04h-37.04Z" fill="#f9fafc"/><path d="M1023.5,87.26c4.19-6.59,9.17-13.13,14.33-19.48.79-.99,2.65-4.46,4.85-4.05l16.53,23.54h-35.71Z" fill="#f9fafc"/><path d="M1998.1,224.62v-45.91c35.98-7.88,59.13,10.52,51.19,30.13-5.82,14.39-27.34,18.93-51.19,15.79Z" fill="#fbfbfc"/><path d="M3415.65,200.35v-22.75c42.72-6.03,41.49,26.07,0,22.75Z" fill="#f9fafc"/><path d="M2319.44,200.35v-22.75c42.72-6.03,41.49,26.07,0,22.75Z" fill="#f9fafc"/><path d="M3111.16,176.25c20.9-1.8,31.22,6.26,34.57,16.98,4.63,14.82-2.38,36.87-37.21,32.74-29.01-3.45-31.53-46.77,2.65-49.74v.03Z" fill="#fcfcfd"/><path d="M3329.37,176.25c20.9-1.8,31.22,6.26,34.57,16.98,4.63,14.82-2.38,36.87-37.21,32.74-29.01-3.45-31.53-46.77,2.65-49.74v.03Z" fill="#fcfcfd"/><path d="M3650.71,176.25c20.9-1.8,31.22,6.26,34.57,16.98,4.63,14.82-2.38,36.87-37.21,32.74-29.01-3.45-31.53-46.77,2.65-49.74v.03Z" fill="#fcfcfd"/><path d="M3233.16,201.11v-23.51c18.83-2.66,30.82,2.81,29.14,14.09-1.41,9.4-15.52,10.84-29.14,9.45v-.03Z" fill="#f9fafc"/><path d="M1812.96,207.16h-30.42l14.55-21.26c.84-.38,2.42,1.24,2.91,1.75,5.2,5.55,9.61,13.48,12.96,19.51Z" fill="#f9fafc"/><path d="M3873.19,207.16h-30.42l14.55-21.26c.84-.38,2.42,1.24,2.91,1.75,5.2,5.55,9.61,13.48,12.96,19.51h0Z" fill="#f9fafc"/><path d="M470.33,247.65c13.93,7.96-3.4,23.59-23.85,17.1-24.43-7.75,2.56-29.24,23.85-17.1Z" fill="#f9fafc"/><path d="M343.83,258.75h-14.55c-1.32-.73,6.13-9.07,7.28-9.07l7.28,9.07Z" fill="#f5f6f9"/><path d="M692.9,258.78h-14.55c-1.32-.73,6.13-9.07,7.28-9.1l7.28,9.1h0Z" fill="#f5f6f9"/><path d="M293.17,283.23c21.12-2.79,23.5,14.16,6,15.63-17.5,1.47-21.96-13.53-6-15.63Z" fill="#f9fafc"/><path d="M671.56,289l-9.08.1v-6.08c8.25-.63,13.18,1.19,9.08,5.95v.03Z" fill="#f9fafc"/><path d="M2217.24,385.67c28.53-3.34,27.73,29.06,7.54,30.89-27.78,2.51-26.98-28.61-7.54-30.89ZM2225.53,413.18v-24.27c0-1.32-5.25-3.27-7.89.79-2.29,3.52-2.47,21.39,1.19,24.3,2.25,1.8,6,.58,6.7-.81h0Z" fill="#f5f6f9"/><path d="M2357.76,386.25l-2.65,6.08h-22.49v2.28c15.65.08,29.01,5.32,24.51,15.2-4.14,9.07-34.74,8.74-33.86,2.64,1.01-7.15,17.95,5.6,24.51,1.09,10.19-6.99-13.54-14.29-24.43-12.87l7.94-14.42h26.46,0Z" fill="#f5f6f9"/><path d="M2262.57,416.6c6.31-6.59,24.25-14.32,19.27-22.8-2.12-3.57-9.88-3.24-14.07-1.11-1.19.61-1.01,3.19-3.88,1.52.13-9.65,25.35-12.54,30.78-3.19,4.19,7.3-11.64,14.52-18.83,19.51,4.37-.18,9.35.38,13.58-.15,5.07-.63,3.35-3.02,7.54-2.86l-3.31,9.1h-31.08Z" fill="#f5f6f9"/><path d="M2143.56,416.6c6.31-6.59,24.25-14.32,19.27-22.8-2.12-3.57-9.88-3.24-14.07-1.11-1.19.61-1.01,3.19-3.88,1.52.13-9.65,25.35-12.54,30.78-3.19,4.19,7.3-11.64,14.52-18.83,19.51,4.37-.18,9.35.38,13.58-.15,5.07-.63,3.35-3.02,7.54-2.86l-3.31,9.1h-31.08Z" fill="#f5f6f9"/><path d="M2225.53,413.18c-.66,1.39-4.45,2.58-6.7.81-3.66-2.91-3.48-20.78-1.19-24.3,2.65-4.05,7.89-2.1,7.89-.79v24.27h0Z" fill="#385a99"/></svg>