<?xml version="1.0" encoding="UTF-8"?><svg id="Layer_1" xmlns="http://www.w3.org/2000/svg" viewBox="0 0 1020.6 177.6"><path d="M1020.6,0v177.6H0V0h1020.6ZM119.96,10.18c.93.23,1.84.24,2.86.59,11.68,3.96,20.66,14.73,22.34,26.97l3.61-1.39c-2.01-14.88-14.46-27.52-29.1-30.52-13.67-2.8-27.87,2.49-36.42,13.37-15.07,19.18-9.09,46.99,12.27,58.37l.14-1.19c.07.04.22-.04.3,0,.13.07.25.64.6.6-.11-2.12.42-3.97.26-6.1-.11-1.46-.73-3.09-.86-4.54-1.26-15.17,8.06-24.82,19.64-32.79.55-.21.57.44.43.73-.11.25-3.4,3.04-4.04,3.75-2.38,2.64-5.21,6.3-6.66,9.53-.26.57-.86,1.55-.54,2.16,6.29-6.89,15.37-9.23,24.33-10.44.83-.11,4.74-.16,4.9-.81.08-.34-1.77-5.74-2.08-6.57-2.9-7.8-7.52-14.77-12-21.71ZM223.73,44.33h9.3c.14-.88-.2-.49-.7-.64-2.25-.67-3.39-.56-2.77-3.57.07-.36,1.37-3.45,1.51-3.58.29-.3.53-.26.89-.31,1.77-.21,6.66-.21,8.43,0,.55.06.64.03,1,.5.32.41,2.15,4.9,2.15,5.37,0,1.62-1.78,1.46-2.87,1.65-.5.09-.51-.18-.45.59h13.8c.08-.91-1.33-.73-2.08-1.37-.42-.36-.77-1.12-1.08-1.62-4.45-7.31-7.01-17.72-11.23-25.32-.19-.33-.22-.81-.76-.74l-11.2,24.76c-1.24,2.31-1.49,2.3-3.57,3.62-.3.19-.53-.03-.39.67ZM294.21,15.27c-1.51-.31-1.1,1.96-2.56,2.1-1.06.1-5.11-1.8-6.97-2.02-12.01-1.38-21.57,10.41-16.32,21.69,3.81,8.18,16.55,10.49,23.42,5.01,1.51-1.2,2.15-1.94,1.82-4.02-3.55,3.76-7.96,6.51-13.27,4.42-6.38-2.5-6.76-14.46-4.37-19.81,3.07-6.87,12.19-7.59,15.9-.99.7,1.24.92,3.63,2.35,3.49v-9.88ZM310.34,15.36c-17.52,2.09-16.42,31.47,5.01,29.56,14.3-1.27,18.17-21.07,6.05-27.9-3.24-1.83-7.41-2.1-11.06-1.66ZM332.3,34.14v10.78c1.25.3.88-.82,1.64-1.5,1.69-1.52,4.79,1.2,6.93,1.48,6.9.92,13.92-4.89,10.84-12.03-2.44-5.68-12.59-6.84-14.44-10.74-1.36-2.87.99-5.26,3.86-5.38,4.4-.18,7.92,3.84,8.52,7.93l.93.18-.3-9.58c-1.23-.04-.52,1.97-1.96,2.1-.79.07-4.08-1.87-5.72-2.07-9.52-1.15-14.41,9.22-6.03,15.31,3.1,2.25,14.49,5.6,9.98,11.02s-13.56-1.7-13.36-7.5h-.9ZM411.78,25.16v-9.88h-.89c-.41,3.76-3.8,1.26-5.94.68-22.08-5.94-28.54,27.03-6.81,28.96,4.01.36,9.82-.72,12.6-3.88.73-.82.4-1.69.44-2.7l-4.3,3.34c-11.17,5.32-15.54-4.55-14.56-14.24,1.26-12.46,15.05-14.32,18.53-2.46l.93.18ZM448.07,44.33h9.6c.14-.86-.18-.5-.69-.64-1.41-.39-2.92-.05-3.15-1.99-.19-1.66,1.26-3.85,1.79-5.41h10.11c.38,1.93,2.64,4.69,2.15,6.64-.06.23-1.14.67-1.43.73-.75.17-2.12-.33-1.88.67h13.8c.22-.98-1.16-.64-1.65-1.2-5.37-8.15-7.96-18.12-12.48-26.77-.22-.43-.41-1.1-1.01-1.09l-11.79,25.97c-.65,1.37-1.88,1.72-2.97,2.41-.3.19-.53-.03-.39.67ZM518.55,25.16v-9.88h-.89c-.41,3.76-3.8,1.26-5.94.68-22.08-5.94-28.54,27.03-6.81,28.96,4.01.36,9.82-.72,12.6-3.88.73-.82.4-1.69.44-2.7l-4.3,3.34c-11.17,5.32-15.54-4.55-14.56-14.24,1.26-12.46,15.05-14.32,18.53-2.46l.93.18ZM534.68,15.36c-17.15,2.05-16.53,31.36,5.01,29.56,12.16-1.02,17.61-16.09,9.74-24.99-3.77-4.26-9.27-5.22-14.75-4.57ZM814.86,15.27c-1.51-.31-1.1,1.96-2.56,2.1-1.06.1-5.11-1.8-6.97-2.02-12.01-1.38-21.57,10.41-16.32,21.69,3.81,8.18,16.55,10.49,23.42,5.01,1.51-1.2,2.15-1.94,1.82-4.02-3.55,3.76-7.96,6.51-13.27,4.42-6.38-2.5-6.76-14.46-4.37-19.81,3.07-6.87,12.19-7.59,15.9-.99.7,1.24.92,3.63,2.35,3.49v-9.88ZM942.02,15.27c-1.51-.31-1.1,1.96-2.56,2.1-1.06.1-5.11-1.8-6.97-2.02-12.01-1.38-21.57,10.41-16.32,21.69,3.81,8.18,16.55,10.49,23.42,5.01,1.51-1.2,2.15-1.94,1.82-4.02-3.55,3.76-7.96,6.51-13.27,4.42-6.38-2.5-6.76-14.46-4.37-19.81,3.07-6.87,12.19-7.59,15.9-.99.7,1.24.92,3.63,2.35,3.49v-9.88ZM210.54,15.87h-15.3c-.22.97,1.48.53,2.35.8,1.86.57,1.76,2.8,1.86,4.43.33,5.22.37,13.1,0,18.3-.1,1.41-.16,3.54-1.59,4.1-1.02.4-2.77-.23-2.62.83h25.49l.9-10.18h-.89c-.9,4.08-2.73,7.92-7.36,8.38-1.57.16-6.37.49-6.91-1.18l-.11-22.91c.21-1.33,1.07-1.72,2.26-1.94.72-.13,2.17.4,1.92-.63ZM378.79,15.87h-23.99c-.25,1,1.14.5,1.88.67,1.28.3,1.99.9,2.25,2.25-.25,6.9.58,14.38.08,21.21-.12,1.69-.2,3.12-2.09,3.6-.8.2-2.36-.25-2.12.73h24.89l1.2-8.98-.92.18c-1.12,4.29-4.08,6.9-8.53,7.31-1.08.1-5.54.25-5.54-1.34v-10.93c4.21-.3,5.59,3.37,6,6.89h.89s0-15.27,0-15.27h-.89c-.45,3.66-1.6,7.24-6,6.89v-11.38h5.85c.13,0,1.58.43,1.86.54,2.74,1.01,4.06,3.55,4.29,6.35h.9v-8.69ZM430.07,15.87h-15c-.24,1.02,1.13.47,1.88.67.92.24,1.91.84,2,1.9-.47,7.32.69,15.54.03,22.76-.14,1.54-.49,2.09-2.03,2.46-.74.18-2.12-.34-1.88.67h15c.25-1-1.14-.5-1.88-.67-1.16-.27-2.32-1.19-2.32-2.48v-10.63h10.2v10.63c0,1.28-1.16,2.2-2.32,2.48-.74.17-2.12-.33-1.88.67h15c.24-1.02-1.13-.47-1.88-.67-.92-.24-1.91-.84-2-1.9.48-7.32-.7-15.55-.03-22.76.13-1.45.54-2.08,2.03-2.46.75-.19,2.12.35,1.88-.67h-15c-.25,1,1.14.5,1.88.67.95.22,2.32,1.13,2.32,2.18v10.03h-10.2v-9.73c0-1.28,1.16-2.2,2.32-2.48.74-.17,2.12.33,1.88-.67ZM566.98,15.87h-11.55c-.24,1.03,1.14.47,1.89.66,1.78.46,1.92,1.46,2.03,3.07.45,6.9-.34,14.3-.04,21.25l-.85,1.84-3.02,1.63h9.6c.15-.92-.25-.47-.73-.6-.78-.22-3.16-.9-3.16-1.94v-22.61l10.77,24.98.78.18,10.95-25.46v22.31c0,.94-1.05,2.26-2.01,2.48-.79.18-2.43-.38-2.19.66h15c.24-1.02-1.13-.47-1.88-.67-.92-.24-1.91-.84-2-1.9.47-7.32-.69-15.54-.03-22.76.14-1.54.49-2.09,2.03-2.46.74-.18,2.12.34,1.88-.67h-11.7l-7.65,18.57-8.1-18.57ZM607.92,15.87h-12c-.24.98,1.32.53,2.12.73,1.89.48,1.97,1.91,2.09,3.6.47,6.57-.36,13.72-.04,20.35-.4,2.46-1.37,2.61-3.44,3.17-.49.13-.88-.32-.73.6h9.9c.15-.92-.25-.47-.73-.6-.82-.22-1.75-.26-2.43-.88-.28-.26-1.04-1.71-1.04-1.96v-21.71l11.25,25.16,11.24-25.16v22.91c0,1.48-2.54,1.52-3.45,1.65-.53.08-.5-.15-.45.59h15c.25-1-1.14-.5-1.88-.67-1.38-.33-1.9-.75-2.04-2.16-.71-7.25.55-15.68.04-23.06.37-2.05,1.9-1.75,3.43-1.97.53-.08.5.15.45-.59h-11.55l-8.09,18.27-7.65-18.27ZM651.71,15.87h-14.7c-.06.77-.05.5.45.59,1.34.23,2.63.02,3.08,1.72.93,5.99-1.6,17.72,1.51,22.75,3.6,5.83,16.15,5.29,19.21-.99.98-2.01,1.13-5.75,1.23-8.05.21-4.46-.2-8.95.07-13.41.32-1.01,1.02-1.61,2.01-1.88.74-.2,2.06.23,1.82-.73h-9.9c-.15.92.25.47.73.6,1.31.36,2.67.42,3.1,2.01-.3,5.72.62,12.28.06,17.9-.37,3.73-2.8,6.68-6.74,6.76-4.44.09-5.84-2.48-6.15-6.46-.34-4.33-.48-13.41.07-17.59.18-1.41.47-2.25,1.94-2.55.79-.16,2.42.35,2.18-.67ZM691.9,32.94l-13.95-17.07h-10.35c-.15.9.24.47.7.63,1.59.54,3.38,1.57,3.51,3.39-.68,6.6.86,14.87-.04,21.26-.3,2.14-1.76,2.13-3.45,2.56-.5.13-.87-.3-.73.61h10.2c.15-.92-.25-.47-.73-.6-1.19-.32-3.46-.88-3.46-2.54v-19.62l19.03,23.07,1.06.29v-26.21c0-.07.61-1.19.68-1.27.77-.77,2.96-.41,2.92-1.58h-9.6c-.15.92.25.47.73.6.82.22,1.75.26,2.43.88.28.26,1.04,1.71,1.04,1.96v13.63ZM714.09,15.87h-15c-.24.98,1.32.52,2.12.73,1.49.38,1.87,1.32,2.04,2.75.6,4.94.42,15.52.05,20.64-.11,1.49-.28,3.27-2.03,3.67-.79.18-2.43-.38-2.19.66h15c.24-1.02-1.13-.47-1.88-.67-.92-.24-1.91-.84-2-1.9.47-7.32-.69-15.54-.03-22.76.14-1.54.49-2.09,2.03-2.46.74-.18,2.12.34,1.88-.67ZM742.58,15.87h-25.79v7.79h.9c.1-4.8,4-6.62,8.4-5.99v24.11c0,.97-1.4,1.74-2.27,1.93-.72.16-2.17-.44-1.93.62h15c.24-1.02-1.13-.47-1.88-.67-.8-.21-2.02-.97-2.02-1.88v-24.11c4.69-.67,7.72,1.13,8.67,5.81l.93.18v-7.79ZM758.18,15.87h-13.8c-.15.86.22.49.66.67,2.04.87,2.2,1.44,3.36,3.24,2.79,4.32,4.9,9.54,7.6,13.97.26,1.26.22,7.24-.21,8.34-.72,1.83-2.29,1.44-3.77,1.63-.55.07-.49-.11-.45.6h15.9c.04-.69.11-.54-.44-.6-1.3-.15-3.1.24-3.79-1.32-.42-.96-.46-8.61-.2-9.85.23-1.11,6.81-11.82,7.91-13.37.37-.52,1.01-1.48,1.46-1.83.81-.64,2.32-.51,2.26-1.49h-8.7c-.15.9.23.47.7.63,1.53.51,2.67.33,2.23,2.44l-6.69,11.6c-.49.07-.6-.38-.81-.69-1.54-2.33-4.01-6.91-5.2-9.48-.59-1.27-1.93-3.4.08-3.84.74-.16,2.13.33,1.88-.67ZM832.86,15.87h-15c-.04.7-.1.53.45.6,1.85.22,3.13-.04,3.74,2.26-.46,7.13.67,15.14.03,22.16-.13,1.46-.52,2.44-2.03,2.76-.79.17-2.42-.35-2.18.67h15c.24-1.01-1.13-.49-1.88-.67-.58-.14-2.02-.96-2.02-1.58v-11.53h9.9v11.53c0,1.48-2.54,1.52-3.45,1.65-.53.08-.5-.15-.45.59h15c.05-.74.08-.52-.45-.59-1.35-.19-2.92.06-3.44-1.66l.15-24.4c.44-.66,1.11-.95,1.86-1.13s2.12.34,1.88-.67h-15c-.05.74-.08.52.45.59.68.1,3.45.27,3.45,1.35v10.93h-9.9v-10.63c0-.62,1.43-1.44,2.02-1.58.75-.18,2.12.34,1.88-.67ZM866.45,15.87h-14.7c-.06.77-.05.5.45.59,1.34.23,2.63.02,3.08,1.72.93,5.99-1.6,17.72,1.51,22.75,3.6,5.83,16.15,5.29,19.21-.99.98-2.01,1.13-5.75,1.23-8.05.21-4.46-.2-8.95.07-13.41.32-1.01,1.02-1.61,2.01-1.88.74-.2,2.06.23,1.82-.73h-9.9c-.15.92.25.47.73.6,1.31.36,2.67.42,3.1,2.01-.3,5.72.62,12.28.06,17.9-.37,3.73-2.8,6.68-6.74,6.76-4.44.09-5.84-2.48-6.15-6.46-.34-4.33-.48-13.41.07-17.59.18-1.41.47-2.25,1.94-2.55.79-.16,2.42.35,2.18-.67ZM900.19,15.87c-5.58-.51-11.89.38-17.54,0-.05.74-.08.52.45.59,1.53.22,3.06-.08,3.43,1.97-.47,7.33.69,15.54.03,22.76-.14,1.54-.49,2.09-2.03,2.46-.74.18-2.12-.34-1.88.67h14.7c.06-.77.05-.5-.45-.59-.97-.17-3.45-.49-3.45-1.96v-10.33l1.59.06,9.21,12.82h9.3v-.89c-1.3-.05-2.16-.78-2.99-1.66-2.69-2.87-4.89-7.4-7.5-10.48-.11-.67.12-.34.44-.44,2.95-.95,5.29-2.82,5.57-6.13.48-5.68-3.7-8.37-8.86-8.85ZM960.02,15.87h-15c-.04.7-.1.53.45.6,1.85.22,3.13-.04,3.74,2.26-.46,7.13.67,15.14.03,22.16-.13,1.46-.52,2.44-2.03,2.76-.79.17-2.42-.35-2.18.67h15c.24-1.01-1.13-.49-1.88-.67-.58-.14-2.02-.96-2.02-1.58v-11.53h9.9v11.53c0,1.48-2.54,1.52-3.45,1.65-.53.08-.5-.15-.45.59h15c.05-.74.08-.52-.45-.59-1.35-.19-2.92.06-3.44-1.66l.15-24.4c.44-.66,1.11-.95,1.86-1.13s2.12.34,1.88-.67h-15c-.05.74-.08.52.45.59.68.1,3.45.27,3.45,1.35v10.93h-9.9v-10.63c0-.62,1.43-1.44,2.02-1.58.75-.18,2.12.34,1.88-.67ZM157.75,32.65c-.49-.12-.69.1-1.06.29-3.34,1.79-6,4.14-9.83,5.75-8,3.36-14.88,3.27-23.06,4.83-14.16,2.69-24.32,14.19-22.43,28.96l4.49-5.84c7.57-7.14,15.14-6.05,23.77-9.2,2.41-.88,5.78-3.48,7.64-4.05.46-.14.95-.08,1.43-.07.28.02.18.51.11.7s-2.31,2.72-2.65,3.05c-6.38,6.13-16.51,7.25-23.79,12.18-2.96,2-7.88,6.51-9.66,9.52-2.92,4.94-4.73,11.07-5.24,16.78l3.44-3.6c.43-3.15,1.19-6.51,2.64-9.34.43-.85,1.1-2.64,2.22-2.11,1.24.58,3.03,2.45,4.57,3.24,10.03,5.08,22.19-.63,30.15-7.06,11.28-9.12,17.16-22.87,17.57-37.26l-.32-6.75ZM311.24,69.41c-.86.84-3.95-.98-5.48-1.12-10.55-.94-15.83,12.4-8.71,19.47,4.26,4.22,13.28,3.49,15.89-2.12.18-.39.47-.99-.28-.88-2.37,3.63-5.83,5.19-10.12,3.81-8.01-2.6-6.8-21.88,4.81-18.88,2.99.77,3.3,2.86,4.54,5.05.23.41.25.87.91.73l-.6-7.19c-.92-.25-.56.72-.97,1.12ZM397.38,90.15h6.6c.15-.86-.22-.49-.66-.67-.64-.27-1.68-.32-1.72-1.26l1.93-4.96c.23-.3.56-.27.89-.31,1.42-.17,5.21-.17,6.63,0,.55.06.64.03,1,.5.31.4,1.84,4.35,1.82,4.78-.02.37-.18.51-.42.75-.77.74-2.03.16-1.96,1.18h8.7c.11-.77-.06-.47-.42-.63-.91-.4-1.87-.34-2.34-1.56l-8.49-19.68-.75.21-8.34,19.47c-.21.37-.45.74-.8,1-.66.48-1.84.28-1.66,1.19ZM422.58,83.26v7.19h.88c0-2.42,3.46-.22,4.99-.02,4.79.6,9.32-2.23,8.09-7.48-1.04-4.45-11.3-6.15-11.56-10.03-.08-1.16.9-2.38,1.88-2.89,3.62-1.86,7.95,1.59,7.71,5.45h.9v-7.19h-.88c-.07,2.44-3.07.22-4.7.03-5.68-.66-10,5.07-5.81,9.4,2.31,2.39,13.31,5.72,8.86,10.35-3.09,3.22-9.99-.19-9.46-4.81h-.9ZM516.38,69.41c-.86.84-3.95-.98-5.48-1.12-10.55-.94-15.83,12.4-8.71,19.47,4.26,4.22,13.28,3.49,15.89-2.12.18-.39.47-.99-.28-.88-2.37,3.63-5.83,5.19-10.12,3.81-8.01-2.6-6.8-21.88,4.81-18.88,2.99.77,3.3,2.86,4.54,5.05.23.41.25.87.91.73l-.6-7.19c-.92-.25-.56.72-.97,1.12ZM579.36,69.41c-.86.84-3.95-.98-5.48-1.12-10.55-.94-15.83,12.4-8.71,19.47,4.26,4.22,13.28,3.49,15.89-2.12.18-.39.47-.99-.28-.88-2.37,3.63-5.83,5.19-10.12,3.81-8.01-2.6-6.8-21.88,4.81-18.88,2.99.77,3.3,2.86,4.54,5.05.23.41.25.87.91.73l-.6-7.19c-.92-.25-.56.72-.97,1.12ZM705.32,68.36c-13.21,1.81-11.52,23.71,2.89,22.05,13.29-1.53,11.78-24.06-2.89-22.05ZM754.81,68.36c-13.21,1.81-11.52,23.71,2.89,22.05,13.29-1.53,11.78-24.06-2.89-22.05ZM827.68,68.36c-13.21,1.81-11.52,23.71,2.89,22.05,13.29-1.53,11.78-24.06-2.89-22.05ZM864.65,90.15h6.6c.15-.86-.22-.49-.66-.67-.64-.27-1.68-.32-1.72-1.26l1.93-4.96c.23-.3.56-.27.89-.31,1.42-.17,5.21-.17,6.63,0,.55.06.64.03,1,.5.31.4,1.84,4.35,1.82,4.78-.02.37-.18.51-.42.75-.77.74-2.03.16-1.96,1.18h8.7c.11-.77-.06-.47-.42-.63-.91-.4-1.87-.34-2.34-1.56l-8.49-19.68-.75.21-8.34,19.47c-.21.37-.45.74-.8,1-.66.48-1.84.28-1.66,1.19ZM331.4,68.58h-16.5c-.16,1.03,1.26.4,2.21.93.4.23.72.53.78,1.02-.4,5.47.55,11.71.02,17.08-.11,1.08-.29,1.57-1.43,1.87-.69.18-1.82-.33-1.59.66h16.8l1.5-5.39c-.78-.18-.52.23-.77.57-1.09,1.48-1.65,3.06-3.71,3.49-1.15.24-5.35.34-6.46.13-.33-.06-1.06-.52-1.06-.74v-8.84h5.85c1.4,0,2.17,2.07,1.95,3.3h.9v-7.49h-.9c.33,1.17-.73,2.99-1.95,2.99h-5.85v-8.39h7.35c1.73,0,2.03,2.19,2.48,3.22.18.42.04.47.67.38l-.3-4.79ZM344.6,68.58h-9.9c-.16,1.03,1.26.4,2.21.93.4.23.72.53.78,1.02-.4,5.47.55,11.71.02,17.08-.11,1.08-.29,1.57-1.43,1.87-.69.18-1.82-.33-1.59.66h16.8l1.5-5.99c-1.04.83-1.28,2.36-2.24,3.31-1.97,1.96-6.65,1.55-9.24,1.19l-.32-.36-.2-17.45c.46-1.6,1.88-1.45,3.14-1.66.5-.09.51.18.45-.59ZM363.49,68.58h-9.6c-.12,1.09,1.4.3,2.4,1.05.49.37.73.98.83,1.57.88,4.94-1.87,14.68,2.79,17.88,3.55,2.44,11.14,1.9,13.14-2.41s.09-11.4.94-15.83c.08-.44.67-1.17,1.03-1.37.94-.52,2.15.15,1.96-.88h-7.8c-.12,1.09,1.4.3,2.4,1.05.49.37.73.98.83,1.57.43,2.42.27,11.24-.3,13.63-1.23,5.07-9.81,6.14-11.42.77-.71-2.37-.88-11.91-.43-14.4.1-.58.34-1.19.83-1.57,1-.75,2.51.04,2.4-1.05ZM387.79,68.58h-9.9c-.16,1.03,1.26.4,2.21.93.4.23.72.53.78,1.02-.4,5.47.55,11.71.02,17.08-.11,1.08-.29,1.57-1.43,1.87-.69.18-1.82-.33-1.59.66h16.8l1.5-5.99c-1.04.83-1.28,2.36-2.24,3.31-1.97,1.96-6.65,1.55-9.24,1.19l-.32-.36-.2-17.45c.46-1.6,1.88-1.45,3.14-1.66.5-.09.51.18.45-.59ZM447.17,90.15h12.15c1.33,0,4.59-1.52,5.69-2.4,7.06-5.7,3.78-19.16-5.99-19.16h-11.85c-.23,1,.9.47,1.59.66.85.24,1.26.72,1.39,1.6-.34,5.3.51,11.25.03,16.47-.1,1.12-.22,1.83-1.43,2.17-.69.19-1.82-.34-1.59.66ZM487.06,68.58h-16.5c-.16,1.03,1.26.4,2.21.93.4.23.72.53.78,1.02-.4,5.47.55,11.71.02,17.08-.11,1.08-.29,1.57-1.43,1.87-.69.18-1.82-.33-1.59.66h16.8l1.5-5.39c-.78-.18-.52.23-.77.57-1.09,1.48-1.65,3.06-3.71,3.49-1.15.24-5.35.34-6.46.13-.33-.06-1.06-.52-1.06-.74v-8.84h5.85c1.4,0,2.17,2.07,1.95,3.3h.9v-7.49h-.9c.33,1.17-.73,2.99-1.95,2.99h-5.85v-8.39h7.35c1.73,0,2.03,2.19,2.48,3.22.18.42.04.47.67.38l-.3-4.79ZM541.34,89.55c-4.65-.36-6.81-6.42-9.55-9.48l-.05-.7c5.58-.4,7.01-7.8,1.8-10.04-.38-.16-2.3-.75-2.55-.75h-10.95c-.23,1,.9.47,1.59.66.85.24,1.26.72,1.39,1.6-.34,5.3.51,11.25.03,16.47-.1,1.12-.22,1.83-1.43,2.17-.69.19-1.82-.34-1.59.66h9.3c.12-1.1-1.41-.29-2.4-1.05-.29-.23-.9-1.22-.9-1.5v-7.64l2.55.3,6.81,9.82c1.97.14,3.96.04,5.94.06,5.63.06,11.28-.06,16.91.02l1.68-5.41c-.78-.18-.52.23-.77.57-1.09,1.48-1.65,3.06-3.71,3.49-1.15.24-5.35.34-6.46.13-.33-.06-1.06-.52-1.06-.74v-8.84h5.85c1.4,0,2.17,2.07,1.95,3.3h.9v-7.49h-.9c.33,1.17-.73,2.99-1.95,2.99h-5.85v-8.39h7.35c1.73,0,2.03,2.19,2.48,3.22.18.42.04.47.67.38l-.3-4.79h-16.5c-.16,1.03,1.26.4,2.21.93.4.23.72.53.78,1.02l-.14,18.11c-.74.99-2.03.98-3.15.9ZM592.33,68.58h-9c-.16.94.28.46.74.59.64.19,1.32.25,1.88.68.17.4.29.86.34,1.3.44,3.64.39,12.14.05,15.86-.09.92-.43,2.14-1.43,2.47-.69.23-1.82-.37-1.59.66h9c.16-.94-.28-.46-.74-.59-.64-.19-1.32-.25-1.88-.68-.17-.4-.29-.86-.34-1.3-.44-3.64-.39-12.14-.05-15.86.09-.92.43-2.14,1.43-2.47.69-.23,1.82.37,1.59-.66ZM599.67,68.58h-5.85c-.15.89.23.48.7.63,1.47.49,2.01.39,2.27,2.24.46,3.3.36,12.12.04,15.56-.07.75-.08,1.19-.61,1.79l-2.41,1.34h7.5v-.6c-.66.29-3-.4-3-1.05v-15.72l7.74,16.68.81.69,8.25-17.37v15.72c0,.65-2.34,1.34-3,1.05v.6s9.3,0,9.3,0c.23-1-.9-.47-1.59-.66-.85-.24-1.26-.72-1.39-1.6.34-5.3-.51-11.25-.03-16.47.1-1.12.22-1.83,1.43-2.17.69-.19,1.82.34,1.59-.66h-6.3l-7.64,16.47-7.8-16.47ZM631.91,68.58h-9c-.16.94.28.46.74.59.64.19,1.32.25,1.88.68.17.4.29.86.34,1.3.44,3.64.39,12.14.05,15.86-.09.92-.43,2.14-1.43,2.47-.69.23-1.82-.37-1.59.66h9c.16-.94-.28-.46-.74-.59-.64-.19-1.32-.25-1.88-.68-.17-.4-.29-.86-.34-1.3-.44-3.64-.39-12.14-.05-15.86.09-.92.43-2.14,1.43-2.47.69-.23,1.82.37,1.59-.66ZM649.91,68.58h-16.5c-.16,1.03,1.26.4,2.21.93.4.23.72.53.78,1.02-.4,5.47.55,11.71.02,17.08-.11,1.08-.29,1.57-1.43,1.87-.69.18-1.82-.33-1.59.66h16.8l1.5-5.39c-.78-.18-.52.23-.77.57-1.09,1.48-1.65,3.06-3.71,3.49-1.15.24-5.35.34-6.46.13-.33-.06-1.06-.52-1.06-.74v-8.84h5.85c1.4,0,2.17,2.07,1.95,3.3h.9v-7.49h-.9c.33,1.17-.73,2.99-1.95,2.99h-5.85v-8.39h7.35c1.73,0,2.03,2.19,2.48,3.22.18.42.04.47.67.38l-.3-4.79ZM671.2,84.46c-2.19-1.3-12.31-15.87-13.35-15.87h-5.85c-.15.92.25.47.73.6,1.52.41,3.53.99,3.78,2.83.41,3.03.28,11.51-.05,14.65-.12,1.13-.24,2.34-1.45,2.75-.77.26-2.05-.26-1.81.73h7.8c.23-1-.89-.48-1.59-.66-.91-.24-1.71-1.29-1.71-2.18v-13.93l14.7,17.07v-18.72c0-.28.47-1.7.73-1.97.93-.98,2.64-.02,2.57-1.18h-7.8c-.23,1,.89.48,1.59.66.91.24,1.71,1.29,1.71,2.18v13.03ZM694.9,68.58h-17.69l-.3,5.09c1.04.07.81-1.55,1.36-2.38,1.17-1.79,4.27-1.51,6.14-1.51v18.12c0,1.35-1.85,1.9-3,1.65v.6s9,0,9,0c.15-1.16-1.52-.21-2.39-1.05-.38-.37-.47-1.02-.58-1.52v-17.3c.34-1.01,4.06-.4,4.98.04,1.3.63,1.45,1.47,1.85,2.66.16.47-.26.85.63.7v-5.09ZM737.63,68.58c-3.18-.4-7.09.29-10.35,0-.15,1.16,1.52.21,2.39,1.05.35.34.51,1.04.58,1.52.48,3.37.37,12.63.04,16.16-.1,1.12-.22,1.83-1.43,2.17-.69.19-1.82-.34-1.59.66h9.3c.17-1.14-1.31-.25-2.27-.88-.3-.2-1.03-1.4-1.03-1.67v-7.34c5.23,1.11,10.99-.29,10.2-6.75-.31-2.54-3.47-4.64-5.85-4.93ZM779.62,68.58c-3.39-.4-7.48.3-10.95,0-.23,1,.9.47,1.59.66.85.24,1.26.72,1.39,1.6-.34,5.3.51,11.25.03,16.47-.1,1.12-.22,1.83-1.43,2.17-.69.19-1.82-.34-1.59.66h9.3c.12-1.1-1.41-.29-2.4-1.05-.29-.23-.9-1.22-.9-1.5v-7.64l2.55.3,6.75,9.88h6c.15-.85-.2-.49-.66-.68-2.03-.8-2.3-.76-3.85-2.46-1.87-2.06-3.25-4.8-5.04-6.95l-.05-.7c7.22-1.17,6.47-9.93-.75-10.78ZM816.36,68.58h-15.9l-.3,5.39c.83.14.51-.17.68-.66.26-.74.37-1.96.92-2.55.25-.26,1.88-.99,2.16-.99h7.95l-13.8,20.37h17.69l.9-5.69c-.77-.15-.52.16-.75.58-.51.95-.84,2.35-1.79,3.02-.35.25-2.38.89-2.71.89h-8.85l13.8-20.37ZM859.55,84.46c-2.19-1.3-12.31-15.87-13.35-15.87h-5.85c-.15.92.25.47.73.6,1.52.41,3.53.99,3.78,2.83.41,3.03.28,11.51-.05,14.65-.12,1.13-.24,2.34-1.45,2.75-.77.26-2.05-.26-1.81.73h7.8c.23-1-.89-.48-1.59-.66-.91-.24-1.71-1.29-1.71-2.18v-13.93l14.7,17.07v-18.72c0-.28.47-1.7.73-1.97.93-.98,2.64-.02,2.57-1.18h-7.8c-.23,1,.89.48,1.59.66.91.24,1.71,1.29,1.71,2.18v13.03ZM102.87,76.08l-5.7-1.8c.08,1.48.11,2.57-.6,3.89l4.49,1.5,1.81-3.59ZM81.58,106.62l-5.39-12.28-5.7,12.28c2.17.39,2.4-.81,2.97-2.51l5.25-.2c.81,1.61.59,3.25,2.88,2.71ZM160.75,106.62l-5.39-12.28-5.4,12.28c2.04.38,2.27-1.25,2.88-2.71l5.25.2.91,2.47,1.75.05ZM95.93,95.28c-10.28-4.09-12.21,12.86-1.64,11.31,1.69-.25,1.84-.66,1.68-2.36-3.82,1.66-7.35.17-6.91-4.36.32-3.34,4.37-4.3,6.91-2.53l-.04-2.06ZM102.5,94.72c-4.29.58-6.62,5.8-4.13,9.36,2.45,3.5,7.76,3.52,10.15-.05,2.96-4.43-.81-10.01-6.02-9.3ZM114.19,94.7c-2.49.41-3.68,3.6-1.58,5.33,1.06.88,3.06.99,3.77,2.23,1.32,2.3-1.69,3.78-3.18,2.28-.43-.43-.45-1.32-.91-1.49-2.25-.79-1.39,3.15,1.56,3.54s5.26-1.49,4.56-4.55c-.56-2.45-5.56-2.77-4.99-4.79s3.06.13,3.63.05c2.2-.31.5-1.9-.81-2.37-.76-.27-1.22-.36-2.04-.22ZM137.32,95.28c-6.77-3.41-12.54,6.45-6.36,10.39,1.89,1.21,7.17,2.01,6.4-1.45-.69-.16-1.09.49-1.66.58-7.16,1.17-7.07-8.43-1.18-8.4,1.23,0,1.76.74,2.84.92l-.04-2.06ZM65.98,94.94l-1.8.45v10.78l.45.45h4.95v-1.8s-3.6,0-3.6,0v-9.88ZM127.16,94.94h-6.15l-.45.45v10.78l.45.45h6.15v-1.8h-4.5v-3.89h4.5v-1.5h-4.5v-2.7h4.5v-1.8ZM141.56,94.94h-1.8v11.68h1.8v-5.39h5.1v5.39h1.8v-11.68h-1.8v4.49h-5.1v-4.49ZM62.08,112.61c.18-2.58-3.68-2.33-5.25-1.2-4.41,3.17.37,9.9,5.21,6.85l.04-1.15c-.95.06-1.52.9-2.54.91-4.34.04-4.33-7,.57-6.29.88.13,1.16.84,1.97.89ZM67.11,110.59c-5.5.3-5.11,9.26,1.11,8.29,5-.77,4.34-8.59-1.11-8.29ZM131.96,112.61c.32-2.17-2.77-2.27-4.27-1.72-3.92,1.44-3.32,7.61,1.12,8.01,1.32.12,3.61-.09,3.15-1.8-1.66.51-2.36,1.45-4.17.42-2.87-1.63-1.6-6.35,2.2-5.8.88.13,1.16.84,1.97.89ZM161.35,112.61c.34-2.08-2.5-2.25-3.97-1.72-4.6,1.68-3.16,8.97,2.55,7.93,1.01-.18,1.72-.63,1.42-1.72-1.51.61-2.52,1.41-4.17.42-3.79-2.27.32-8.23,4.17-4.92ZM80.97,118.9c.28-.28-1.08-7.14-1.34-7.79s-.31-.32-.52.08c-.23.44-2.16,5.66-2.63,5.31-.66-1.5-1.15-3.67-2.03-5-.19-.28.04-.54-.67-.39l-1.36,7.49c.43.54.76.34.99-.21.4-.95.58-3.18.66-4.28.68-.12.48.03.67.38.52.96.92,2.66,1.5,3.59.23.37.28.63.83.52l2.1-4.79.9,4.89.9.2ZM86.07,116.5l-2.84-5.69-1.65,8.08.92-.17.88-4.91,2.55,5.09,2.1-4.49c.67-.13.38.28.49.7.22.89.32,4.85,1.75,3.33-.88-2.16-.7-5.11-1.46-7.21-.15-.43.08-.5-.63-.41l-2.11,5.69ZM92.37,110.81h-1.2v5.84c0,.18.92,1.58,1.21,1.79,1.57,1.15,5.09.24,5.09-1.79v-5.84h-1.2v6.14c0,1.09-3.9,1.42-3.9-.3v-5.84ZM104.97,116.5l-5.7-5.69v8.09l.9-.45v-5.24l5.7,5.69v-8.09h-.9v5.69ZM108.57,110.81h-.9v7.79h.9v-7.79ZM115.17,110.81h-5.4v.9s2.1,0,2.1,0v6.89h.9v-6.89h2.4s0-.9,0-.9ZM121.16,110.81c-.83-.77-2.64,2.63-2.7,3.29l-1.84-2.94-1.15-.05c1.23,2.84,3.12,4.32,2.4,7.78,1.53-.18.68-2.55,1.04-3.9.18-.7,2.64-3.83,2.26-4.18ZM133.46,110.81v7.79h.9s0-3.89,0-3.89h4.2v3.9s.9,0,.9,0v-7.79h-.9s0,3,0,3h-4.03s-.17-3-.17-3h-.9ZM146.36,110.81v5.84c0,1.25-3.57,2.27-3.91-.28-.21-1.55.23-3.46-.03-5.06l-.24-.36-.92-.13v5.84c0,2.1,3.95,3.13,5.41,1.51.2-.22.89-1.64.89-1.81v-5.54h-1.2ZM149.06,110.81v7.64c1.82,1.47.92-2.06,1.35-3.14,1.07,1.03,2.01,3.75,3.75,3.44l-2.7-3.59c1.76-.11,2.9-1.82,1.92-3.42s-2.8-.76-4.32-.93ZM162.85,110.81v7.64c1.96,1.74.9-3.15,1.2-3.45h3.73c.52.07-.3,3.69.63,3.89l.75-.45v-7.64h-1.2s0,3,0,3h-3.73s-.17-3-.17-3h-1.2ZM1020,177.3v-38.48l-.45-.45H.75l-.45.45v38.48h1019.7Z" fill="#fdfdfd"/><path d="M157.75,32.65l.32,6.75c-.41,14.4-6.29,28.15-17.57,37.26-7.95,6.43-20.12,12.14-30.15,7.06-1.55-.79-3.34-2.66-4.57-3.24-1.13-.53-1.79,1.27-2.22,2.11-1.45,2.84-2.21,6.2-2.64,9.34l-3.44,3.6c.51-5.71,2.32-11.84,5.24-16.78,1.78-3.01,6.7-7.52,9.66-9.52,7.29-4.93,17.41-6.05,23.79-12.18.34-.33,2.57-2.86,2.65-3.05s.18-.68-.11-.7c-.47,0-.96-.07-1.43.07-1.86.57-5.23,3.17-7.64,4.05-8.64,3.15-16.21,2.06-23.77,9.2l-4.49,5.84c-1.89-14.77,8.27-26.27,22.43-28.96,8.18-1.55,15.06-1.46,23.06-4.83,3.83-1.61,6.49-3.96,9.83-5.75.36-.19.57-.41,1.06-.29Z" fill="#319053"/><path d="M1020,177.3H.3v-38.48l.45-.45h1018.8l.45.45v38.48ZM1018.8,139.56H1.5v37.44h1017.3v-37.44Z"/><path d="M119.96,10.18c4.48,6.94,9.1,13.91,12,21.71.31.84,2.16,6.24,2.08,6.57-.15.65-4.06.7-4.9.81-8.97,1.21-18.04,3.55-24.33,10.44-.33-.61.28-1.58.54-2.16,1.45-3.23,4.28-6.89,6.66-9.53.64-.71,3.93-3.5,4.04-3.75.13-.3.12-.94-.43-.73-11.59,7.97-20.91,17.62-19.64,32.79.12,1.45.75,3.07.86,4.54.16,2.13-.37,3.98-.26,6.1-.35.05-.46-.53-.6-.6l-3.65-6.1c-.14-.27-.52-.43-.55-.49-9.93-21.01,7.94-34.91,19.49-49.27,2.58-3.21,5.58-6.9,6.61-10.92.98.17,1.38.42,2.1.6Z" fill="#329153"/><path d="M95.67,76.37l-.14,1.19c-21.36-11.37-27.34-39.19-12.27-58.37,8.55-10.88,22.75-16.17,36.42-13.37,14.63,3,27.09,15.64,29.1,30.52l-3.61,1.39c-1.68-12.24-10.66-23-22.34-26.97-1.02-.35-1.93-.36-2.86-.59-.72-.18-1.12-.43-2.1-.6-31.28-5.35-51.2,32.4-31.04,56.01,1.24,1.45,3.66,3.16,4.65,4.49,1.5,2.01,1.76,4.67,4.2,6.29Z" fill="#2b4a81"/><path d="M607.92,15.87l7.65,18.27,8.09-18.27h11.55c.05.74.08.52-.45.59-1.53.22-3.06-.08-3.43,1.97.52,7.38-.74,15.81-.04,23.06.14,1.41.66,1.83,2.04,2.16.74.17,2.12-.34,1.88.67h-15c-.05-.74-.08-.52.45-.59.91-.13,3.45-.17,3.45-1.65v-22.91l-11.24,25.16-11.25-25.16v21.71c0,.25.76,1.7,1.04,1.96.67.62,1.6.66,2.43.88.49.13.88-.32.73.6h-9.9c-.15-.92.25-.47.73-.6,2.07-.56,3.04-.71,3.44-3.17-.32-6.63.51-13.78.04-20.35-.12-1.69-.2-3.12-2.09-3.6-.8-.2-2.36.25-2.12-.73h12Z" fill="#030303"/><path d="M566.98,15.87l8.1,18.57,7.65-18.57h11.7c.24,1.01-1.14.49-1.88.67-1.55.37-1.9.92-2.03,2.46-.65,7.22.5,15.43.03,22.76.08,1.06,1.08,1.66,2,1.9.75.19,2.12-.35,1.88.67h-15c-.24-1.04,1.4-.48,2.19-.66.97-.22,2.01-1.55,2.01-2.48v-22.31l-10.95,25.46-.78-.18-10.77-24.98v22.61c0,1.04,2.38,1.73,3.16,1.94.48.13.88-.32.73.6h-9.6l3.02-1.63.85-1.84c-.3-6.95.49-14.35.04-21.25-.1-1.61-.25-2.61-2.03-3.07-.74-.19-2.13.37-1.89-.66h11.55Z" fill="#040404"/><path d="M832.86,15.87c.24,1.01-1.13.49-1.88.67-.58.14-2.02.96-2.02,1.58v10.63h9.9v-10.93c0-1.09-2.77-1.26-3.45-1.35-.53-.08-.5.15-.45-.59h15c.25,1-1.14.49-1.88.67s-1.42.47-1.86,1.13l-.15,24.4c.52,1.72,2.09,1.47,3.44,1.66.53.08.5-.15.45.59h-15c-.05-.74-.08-.52.45-.59.91-.13,3.45-.17,3.45-1.65v-11.53h-9.9v11.53c0,.62,1.43,1.44,2.02,1.58.75.18,2.12-.34,1.88.67h-15c-.24-1.02,1.39-.5,2.18-.67,1.52-.32,1.9-1.3,2.03-2.76.64-7.02-.5-15.03-.03-22.16-.6-2.3-1.89-2.04-3.74-2.26-.55-.07-.49.1-.45-.6h15Z" fill="#020202"/><path d="M960.02,15.87c.24,1.01-1.13.49-1.88.67-.58.14-2.02.96-2.02,1.58v10.63h9.9v-10.93c0-1.09-2.77-1.26-3.45-1.35-.53-.08-.5.15-.45-.59h15c.25,1-1.14.49-1.88.67s-1.42.47-1.86,1.13l-.15,24.4c.52,1.72,2.09,1.47,3.44,1.66.53.08.5-.15.45.59h-15c-.05-.74-.08-.52.45-.59.91-.13,3.45-.17,3.45-1.65v-11.53h-9.9v11.53c0,.62,1.43,1.44,2.02,1.58.75.18,2.12-.34,1.88.67h-15c-.24-1.02,1.39-.5,2.18-.67,1.52-.32,1.9-1.3,2.03-2.76.64-7.02-.5-15.03-.03-22.16-.6-2.3-1.89-2.04-3.74-2.26-.55-.07-.49.1-.45-.6h15Z" fill="#020202"/><path d="M430.07,15.87c.25,1-1.14.5-1.88.67-1.16.27-2.32,1.19-2.32,2.48v9.73h10.2v-10.03c0-1.05-1.37-1.95-2.32-2.18-.74-.17-2.12.33-1.88-.67h15c.24,1.02-1.13.47-1.88.67-1.49.39-1.9,1.01-2.03,2.46-.66,7.21.51,15.44.03,22.76.08,1.06,1.08,1.66,2,1.9.75.19,2.12-.35,1.88.67h-15c-.25-1,1.14-.5,1.88-.67,1.16-.27,2.32-1.19,2.32-2.48v-10.63h-10.2v10.63c0,1.28,1.16,2.2,2.32,2.48.74.17,2.12-.33,1.88.67h-15c-.24-1.01,1.14-.49,1.88-.67,1.55-.37,1.9-.92,2.03-2.46.65-7.22-.5-15.43-.03-22.76-.08-1.06-1.08-1.66-2-1.9-.75-.19-2.12.35-1.88-.67h15Z" fill="#030303"/><path d="M900.19,15.87c5.16.48,9.34,3.17,8.86,8.85-.28,3.31-2.62,5.18-5.57,6.13-.32.1-.54-.22-.44.44,2.61,3.08,4.82,7.61,7.5,10.48.83.89,1.69,1.61,2.99,1.66v.89s-9.29,0-9.29,0l-9.21-12.82-1.59-.06v10.33c0,1.47,2.48,1.79,3.45,1.96.5.09.51-.18.45.59h-14.7c-.24-1.01,1.14-.49,1.88-.67,1.55-.37,1.9-.92,2.03-2.46.65-7.22-.5-15.43-.03-22.76-.37-2.05-1.9-1.75-3.43-1.97-.53-.08-.5.15-.45-.59,5.65.38,11.97-.51,17.54,0ZM893.44,29.95c5.23.37,8.99-.81,8.71-6.75-.26-5.45-4-6.14-8.71-5.83v12.58Z" fill="#030303"/><path d="M310.34,15.36c3.65-.44,7.82-.16,11.06,1.66,12.12,6.83,8.25,26.63-6.05,27.9-21.43,1.91-22.53-27.47-5.01-29.56ZM317.8,18.37c-2.92-2.71-7.55-1.93-9.74,1.29-3.17,4.65-3.53,20.34,2.28,23.09,11.96,5.65,13.1-19.16,7.47-24.38Z" fill="#040404"/><path d="M534.68,15.36c5.48-.65,10.99.3,14.75,4.57,7.87,8.91,2.42,23.98-9.74,24.99-21.54,1.8-22.16-27.51-5.01-29.56ZM536.77,16.85c-7.57,1.04-7.26,15.12-5.7,20.51,2.43,8.44,11.43,8.14,13.62-.33,1.55-6.01,1.66-21.5-7.92-20.18Z" fill="#040404"/><path d="M378.79,15.87v8.69h-.9c-.23-2.8-1.55-5.35-4.29-6.35-.28-.1-1.73-.54-1.86-.54h-5.85v11.38c4.41.35,5.55-3.23,6-6.89h.89s0,15.27,0,15.27h-.89c-.41-3.51-1.79-7.19-6-6.89v10.93c0,1.59,4.46,1.44,5.54,1.34,4.45-.4,7.4-3.01,8.53-7.31l.92-.18-1.2,8.98h-24.89c-.24-.98,1.32-.53,2.12-.73,1.89-.48,1.97-1.91,2.09-3.6.49-6.83-.34-14.31-.08-21.21-.26-1.34-.97-1.95-2.25-2.25-.74-.17-2.12.33-1.88-.67h23.99Z" fill="#040404"/><path d="M691.9,32.94v-13.63c0-.25-.76-1.7-1.04-1.96-.67-.62-1.6-.66-2.43-.88-.49-.13-.88.32-.73-.6h9.6c.04,1.17-2.15.81-2.92,1.58-.07.07-.68,1.19-.68,1.27v26.21l-1.06-.29-19.03-23.07v19.62c0,1.66,2.27,2.22,3.46,2.54.49.13.88-.32.73.6h-10.2c-.14-.91.23-.48.73-.61,1.69-.43,3.15-.42,3.45-2.56.9-6.39-.64-14.66.04-21.26-.13-1.83-1.93-2.85-3.51-3.39-.47-.16-.85.26-.7-.63h10.35l13.95,17.07Z" fill="#050505"/><path d="M651.71,15.87c.24,1.02-1.39.51-2.18.67-1.47.31-1.76,1.15-1.94,2.55-.55,4.18-.41,13.26-.07,17.59.31,3.98,1.71,6.56,6.15,6.46,3.94-.08,6.37-3.03,6.74-6.76.56-5.63-.36-12.18-.06-17.9-.43-1.59-1.79-1.65-3.1-2.01-.49-.13-.88.32-.73-.6h9.9c.24.96-1.08.52-1.82.73-1,.27-1.69.87-2.01,1.88-.27,4.46.14,8.96-.07,13.41-.11,2.3-.25,6.04-1.23,8.05-3.07,6.28-15.61,6.83-19.21.99-3.11-5.03-.57-16.77-1.51-22.75-.46-1.7-1.75-1.49-3.08-1.72-.5-.09-.51.18-.45-.59h14.7Z" fill="#040404"/><path d="M866.45,15.87c.24,1.02-1.39.51-2.18.67-1.47.31-1.76,1.15-1.94,2.55-.55,4.18-.41,13.26-.07,17.59.31,3.98,1.71,6.56,6.15,6.46,3.94-.08,6.37-3.03,6.74-6.76.56-5.63-.36-12.18-.06-17.9-.43-1.59-1.79-1.65-3.1-2.01-.49-.13-.88.32-.73-.6h9.9c.24.96-1.08.52-1.82.73-1,.27-1.69.87-2.01,1.88-.27,4.46.14,8.96-.07,13.41-.11,2.3-.25,6.04-1.23,8.05-3.07,6.28-15.61,6.83-19.21.99-3.11-5.03-.57-16.77-1.51-22.75-.46-1.7-1.75-1.49-3.08-1.72-.5-.09-.51.18-.45-.59h14.7Z" fill="#040404"/><path d="M332.3,34.14h.9c-.21,5.8,8.93,12.82,13.36,7.5s-6.88-8.77-9.98-11.02c-8.37-6.09-3.48-16.46,6.03-15.31,1.64.2,4.93,2.15,5.72,2.07,1.44-.14.73-2.14,1.96-2.1l.3,9.58-.93-.18c-.61-4.09-4.13-8.12-8.52-7.93-2.87.12-5.22,2.51-3.86,5.38,1.84,3.91,11.99,5.06,14.44,10.74,3.07,7.14-3.94,12.94-10.84,12.03-2.14-.28-5.24-3-6.93-1.48-.77.69-.4,1.8-1.64,1.5v-10.78Z" fill="#040404"/><path d="M942.02,15.27v9.88c-1.42.14-1.65-2.25-2.35-3.49-3.71-6.6-12.84-5.88-15.9.99-2.38,5.34-2,17.31,4.37,19.81,5.31,2.08,9.73-.67,13.27-4.42.33,2.08-.31,2.82-1.82,4.02-6.88,5.48-19.61,3.17-23.42-5.01-5.25-11.27,4.31-23.06,16.32-21.69,1.86.21,5.92,2.12,6.97,2.02,1.46-.14,1.04-2.41,2.56-2.1Z" fill="#060606"/><path d="M814.86,15.27v9.88c-1.42.14-1.65-2.25-2.35-3.49-3.71-6.6-12.84-5.88-15.9.99-2.38,5.34-2,17.31,4.37,19.81,5.31,2.08,9.73-.67,13.27-4.42.33,2.08-.31,2.82-1.82,4.02-6.88,5.48-19.61,3.17-23.42-5.01-5.25-11.27,4.31-23.06,16.32-21.69,1.86.21,5.92,2.12,6.97,2.02,1.46-.14,1.04-2.41,2.56-2.1Z" fill="#060606"/><path d="M294.21,15.27v9.88c-1.42.14-1.65-2.25-2.35-3.49-3.71-6.6-12.84-5.88-15.9.99-2.38,5.34-2,17.31,4.37,19.81,5.31,2.08,9.73-.67,13.27-4.42.33,2.08-.31,2.82-1.82,4.02-6.88,5.48-19.61,3.17-23.42-5.01-5.25-11.27,4.31-23.06,16.32-21.69,1.86.21,5.92,2.12,6.97,2.02,1.46-.14,1.04-2.41,2.56-2.1Z" fill="#060606"/><path d="M742.58,15.87v7.79l-.93-.18c-.95-4.68-3.98-6.48-8.67-5.81v24.11c0,.9,1.22,1.67,2.02,1.88.75.19,2.12-.35,1.88.67h-15c-.24-1.06,1.21-.46,1.93-.62.86-.19,2.27-.96,2.27-1.93v-24.11c-4.4-.63-8.3,1.19-8.4,5.99h-.9v-7.79h25.79Z" fill="#030303"/><path d="M411.78,25.16l-.93-.18c-3.48-11.86-17.28-10-18.53,2.46-.98,9.69,3.39,19.56,14.56,14.24l4.3-3.34c-.04,1.02.29,1.88-.44,2.7-2.78,3.16-8.59,4.24-12.6,3.88-21.73-1.93-15.27-34.9,6.81-28.96,2.14.57,5.52,3.08,5.94-.68h.89s0,9.88,0,9.88Z" fill="#040404"/><path d="M518.55,25.16l-.93-.18c-3.48-11.86-17.28-10-18.53,2.46-.98,9.69,3.39,19.56,14.56,14.24l4.3-3.34c-.04,1.02.29,1.88-.44,2.7-2.78,3.16-8.59,4.24-12.6,3.88-21.73-1.93-15.27-34.9,6.81-28.96,2.14.57,5.52,3.08,5.94-.68h.89s0,9.88,0,9.88Z" fill="#040404"/><path d="M758.18,15.87c.25,1-1.14.5-1.88.67-2.01.44-.67,2.57-.08,3.84,1.2,2.57,3.66,7.15,5.2,9.48.21.31.31.77.81.69l6.69-11.6c.44-2.12-.7-1.93-2.23-2.44-.47-.16-.85.26-.7-.63h8.7c.06.98-1.45.85-2.26,1.49-.45.36-1.1,1.32-1.46,1.83-1.1,1.55-7.68,12.26-7.91,13.37-.25,1.23-.22,8.89.2,9.85.68,1.56,2.49,1.17,3.79,1.32.55.06.48-.09.44.6h-15.9c-.04-.71-.1-.53.45-.6,1.48-.18,3.06.2,3.77-1.63.43-1.1.47-7.07.21-8.34-2.7-4.43-4.81-9.65-7.6-13.97-1.16-1.8-1.32-2.37-3.36-3.24-.44-.19-.82.19-.66-.67h13.8Z" fill="#040404"/><path d="M448.07,44.33c-.14-.7.08-.48.39-.67,1.09-.69,2.32-1.04,2.97-2.41l11.79-25.97c.6-.01.79.66,1.01,1.09,4.52,8.65,7.11,18.62,12.48,26.77.49.55,1.88.21,1.65,1.2h-13.8c-.24-1,1.13-.5,1.88-.67.29-.07,1.37-.5,1.43-.73.49-1.95-1.77-4.71-2.15-6.65h-10.11c-.53,1.57-1.98,3.76-1.79,5.42.23,1.93,1.73,1.59,3.15,1.99.51.14.83-.22.69.64h-9.6ZM456.47,34.44h8.4c-1.32-2.84-2.3-5.93-3.75-8.7-.18-.35,0-.72-.6-.59l-4.05,9.29Z" fill="#040404"/><path d="M223.73,44.33c-.14-.7.08-.48.39-.67,2.08-1.32,2.33-1.31,3.57-3.62l11.2-24.76c.54-.07.57.41.76.74,4.22,7.6,6.78,18.01,11.23,25.32.3.5.65,1.26,1.08,1.62.75.64,2.16.46,2.08,1.37h-13.8c-.06-.77-.05-.5.45-.59,1.09-.19,2.87-.03,2.87-1.65,0-.47-1.84-4.96-2.15-5.37-.36-.46-.45-.43-1-.5-1.78-.21-6.66-.21-8.43,0-.37.04-.6,0-.89.31-.14.14-1.43,3.22-1.51,3.58-.62,3.01.52,2.9,2.77,3.57.5.15.84-.24.7.64h-9.3ZM232.13,34.44h8.1l-3.75-9.29c-.5-.16-.92,1.21-1.1,1.6-1.17,2.51-2.3,5.09-3.25,7.69Z" fill="#040404"/><path d="M210.54,15.87c.25,1.02-1.2.5-1.92.63-1.19.22-2.05.61-2.26,1.94l.11,22.91c.54,1.67,5.34,1.33,6.91,1.18,4.62-.47,6.46-4.31,7.36-8.38h.89s-.9,10.18-.9,10.18h-25.49c-.15-1.06,1.6-.42,2.62-.83,1.43-.57,1.49-2.69,1.59-4.1.37-5.2.33-13.08,0-18.3-.1-1.63,0-3.86-1.86-4.43-.87-.27-2.57.17-2.35-.8h15.3Z" fill="#020202"/><path d="M714.09,15.87c.24,1.01-1.14.49-1.88.67-1.55.37-1.9.92-2.03,2.46-.65,7.22.5,15.43.03,22.76.08,1.06,1.08,1.66,2,1.9.75.19,2.12-.35,1.88.67h-15c-.24-1.04,1.4-.48,2.19-.66,1.75-.4,1.92-2.18,2.03-3.67.37-5.12.55-15.7-.05-20.64-.17-1.43-.55-2.37-2.04-2.75-.8-.2-2.36.25-2.12-.73h15Z" fill="#030303"/><path d="M599.67,68.58l7.8,16.47,7.64-16.47h6.3c.23,1-.9.47-1.59.66-1.21.34-1.32,1.05-1.43,2.17-.48,5.21.37,11.17.03,16.47.14.88.54,1.36,1.39,1.6.69.19,1.82-.34,1.59.66h-9.3v-.6c.66.29,3-.4,3-1.05v-15.72l-8.25,17.37-.81-.69-7.74-16.68v15.72c0,.65,2.34,1.34,3,1.05v.6s-7.5,0-7.5,0l2.41-1.34c.53-.6.54-1.04.61-1.79.31-3.44.42-12.26-.04-15.56-.26-1.85-.8-1.75-2.27-2.24-.47-.16-.85.26-.7-.63h5.85Z" fill="#375999"/><path d="M447.17,90.15c-.23-1,.9-.47,1.59-.66,1.21-.34,1.32-1.05,1.43-2.17.48-5.21-.37-11.17-.03-16.47-.14-.88-.54-1.36-1.39-1.6-.69-.19-1.82.34-1.59-.66h11.85c9.77,0,13.05,13.46,5.99,19.16-1.1.89-4.36,2.4-5.69,2.4h-12.15ZM453.17,88.65c5.41,1.24,10.29-.55,11.61-6.23,1.8-7.74-3.44-15-11.61-11.89v18.12Z" fill="#355898"/><path d="M779.62,68.58c7.22.85,7.97,9.61.75,10.78l.05.7c1.8,2.15,3.17,4.89,5.04,6.95,1.54,1.7,1.82,1.66,3.85,2.46.46.18.81-.17.66.68h-6l-6.75-9.88-2.55-.3v7.64c0,.27.61,1.27.9,1.5.99.76,2.52-.05,2.4,1.05h-9.3c-.23-1,.9-.47,1.59-.66,1.21-.34,1.32-1.05,1.43-2.17.48-5.21-.37-11.17-.03-16.47-.14-.88-.54-1.36-1.39-1.6-.69-.19-1.82.34-1.59-.66,3.47.3,7.56-.4,10.95,0ZM774.67,79.07c9.41,1.3,9.69-11.36,0-8.98v8.98Z" fill="#355898"/><path d="M541.34,90.15c-1.97-.02-3.97.07-5.94-.06l-6.81-9.82-2.55-.3v7.64c0,.27.61,1.27.9,1.5.99.76,2.52-.05,2.4,1.05h-9.3c-.23-1,.9-.47,1.59-.66,1.21-.34,1.32-1.05,1.43-2.17.48-5.21-.37-11.17-.03-16.47-.14-.88-.54-1.36-1.39-1.6-.69-.19-1.82.34-1.59-.66h10.95c.25,0,2.17.59,2.55.75,5.21,2.24,3.78,9.63-1.8,10.04l.05.7c2.73,3.07,4.9,9.12,9.55,9.48v.6ZM526.05,79.07c9.41,1.3,9.69-11.36,0-8.98v8.98Z" fill="#355898"/><path d="M705.32,68.36c14.67-2.01,16.17,20.53,2.89,22.05-14.41,1.66-16.1-20.25-2.89-22.05ZM705.61,69.56c-7.76,1.17-7.18,18.27-.6,19.63,7.9,1.63,9.5-7.07,8.44-12.92-.76-4.23-3.1-7.42-7.84-6.7Z" fill="#375999"/><path d="M754.81,68.36c14.67-2.01,16.17,20.53,2.89,22.05-14.41,1.66-16.1-20.25-2.89-22.05ZM755.1,69.56c-7.76,1.17-7.18,18.27-.6,19.63,7.9,1.63,9.5-7.07,8.44-12.92-.76-4.23-3.1-7.42-7.84-6.7Z" fill="#375999"/><path d="M827.68,68.36c14.67-2.01,16.17,20.53,2.89,22.05-14.41,1.66-16.1-20.25-2.89-22.05ZM827.98,69.56c-7.76,1.17-7.18,18.27-.6,19.63,7.9,1.63,9.5-7.07,8.44-12.92-.76-4.23-3.1-7.42-7.84-6.7Z" fill="#375999"/><path d="M859.55,84.46v-13.03c0-.89-.8-1.94-1.71-2.18-.69-.18-1.82.33-1.59-.66h7.8c.08,1.16-1.63.2-2.57,1.18-.26.27-.73,1.69-.73,1.97v18.72l-14.7-17.07v13.93c0,.89.8,1.94,1.71,2.18.69.18,1.82-.33,1.59.66h-7.8c-.23-.99,1.05-.48,1.81-.73,1.2-.4,1.33-1.62,1.45-2.75.33-3.14.46-11.62.05-14.65-.25-1.84-2.26-2.41-3.78-2.83-.49-.13-.88.32-.73-.6h5.85c1.04,0,11.15,14.57,13.35,15.87Z" fill="#335797"/><path d="M671.2,84.46v-13.03c0-.89-.8-1.94-1.71-2.18-.69-.18-1.82.33-1.59-.66h7.8c.08,1.16-1.63.2-2.57,1.18-.26.27-.73,1.69-.73,1.97v18.72l-14.7-17.07v13.93c0,.89.8,1.94,1.71,2.18.69.18,1.82-.33,1.59.66h-7.8c-.23-.99,1.05-.48,1.81-.73,1.2-.4,1.33-1.62,1.45-2.75.33-3.14.46-11.62.05-14.65-.25-1.84-2.26-2.41-3.78-2.83-.49-.13-.88.32-.73-.6h5.85c1.04,0,11.15,14.57,13.35,15.87Z" fill="#335797"/><path d="M541.34,89.55c1.12.09,2.41.09,3.15-.9l.14-18.11c-.05-.49-.38-.79-.78-1.02-.96-.54-2.38.09-2.21-.93h16.5l.3,4.79c-.63.09-.49.04-.67-.38-.45-1.02-.74-3.22-2.48-3.22h-7.35v8.39h5.85c1.22,0,2.28-1.82,1.95-3h.9v7.49h-.9c.22-1.22-.55-3.29-1.95-3.29h-5.85v8.84c0,.22.73.68,1.06.74,1.11.21,5.31.12,6.46-.13,2.06-.43,2.62-2.01,3.71-3.49.25-.34,0-.74.77-.57l-1.68,5.41c-5.64-.08-11.28.04-16.91-.02v-.6Z" fill="#335797"/><path d="M487.06,68.58l.3,4.79c-.63.09-.49.04-.67-.38-.45-1.02-.74-3.22-2.48-3.22h-7.35v8.39h5.85c1.22,0,2.28-1.82,1.95-3h.9v7.49h-.9c.22-1.22-.55-3.29-1.95-3.29h-5.85v8.84c0,.22.73.68,1.06.74,1.11.21,5.31.12,6.46-.13,2.06-.43,2.62-2.01,3.71-3.49.25-.34,0-.74.77-.57l-1.5,5.39h-16.8c-.23-.99.89-.48,1.59-.66,1.14-.3,1.32-.79,1.43-1.87.53-5.37-.42-11.61-.02-17.08-.05-.49-.38-.79-.78-1.02-.96-.54-2.38.09-2.21-.93h16.5Z" fill="#335797"/><path d="M331.4,68.58l.3,4.79c-.63.09-.49.04-.67-.38-.45-1.02-.74-3.22-2.48-3.22h-7.35v8.39h5.85c1.22,0,2.28-1.82,1.95-3h.9v7.49h-.9c.22-1.22-.55-3.29-1.95-3.29h-5.85v8.84c0,.22.73.68,1.06.74,1.11.21,5.31.12,6.46-.13,2.06-.43,2.62-2.01,3.71-3.49.25-.34,0-.74.77-.57l-1.5,5.39h-16.8c-.23-.99.89-.48,1.59-.66,1.14-.3,1.32-.79,1.43-1.87.53-5.37-.42-11.61-.02-17.08-.05-.49-.38-.79-.78-1.02-.96-.54-2.38.09-2.21-.93h16.5Z" fill="#335797"/><path d="M649.91,68.58l.3,4.79c-.63.09-.49.04-.67-.38-.45-1.02-.74-3.22-2.48-3.22h-7.35v8.39h5.85c1.22,0,2.28-1.82,1.95-3h.9v7.49h-.9c.22-1.22-.55-3.29-1.95-3.29h-5.85v8.84c0,.22.73.68,1.06.74,1.11.21,5.31.12,6.46-.13,2.06-.43,2.62-2.01,3.71-3.49.25-.34,0-.74.77-.57l-1.5,5.39h-16.8c-.23-.99.89-.48,1.59-.66,1.14-.3,1.32-.79,1.43-1.87.53-5.37-.42-11.61-.02-17.08-.05-.49-.38-.79-.78-1.02-.96-.54-2.38.09-2.21-.93h16.5Z" fill="#335797"/><path d="M737.63,68.58c2.38.3,5.54,2.39,5.85,4.93.79,6.46-4.97,7.86-10.2,6.75v7.34c0,.27.72,1.47,1.03,1.67.96.62,2.44-.26,2.27.88h-9.3c-.23-1,.9-.47,1.59-.66,1.21-.34,1.32-1.05,1.43-2.17.32-3.53.44-12.79-.04-16.16-.07-.48-.23-1.19-.58-1.52-.87-.84-2.55.11-2.39-1.05,3.26.29,7.17-.4,10.35,0ZM733.28,79.37c3.09.55,6.29-.02,6.61-3.73.38-4.45-2.34-6.6-6.61-5.56v9.28Z" fill="#345798"/><path d="M816.36,68.58l-13.8,20.37h8.85c.32,0,2.36-.64,2.71-.89.95-.67,1.28-2.07,1.79-3.02.23-.42-.02-.74.75-.58l-.9,5.69h-17.69l13.8-20.37h-7.95c-.27,0-1.91.73-2.16.99-.54.58-.65,1.8-.92,2.55-.17.48.16.8-.68.66l.3-5.39h15.9Z" fill="#355898"/><path d="M422.58,83.26h.9c-.53,4.61,6.37,8.02,9.46,4.81,4.45-4.63-6.55-7.96-8.86-10.35-4.18-4.33.14-10.06,5.81-9.4,1.63.19,4.63,2.41,4.7-.02h.88s0,7.17,0,7.17h-.9c.24-3.86-4.09-7.31-7.71-5.45-.98.51-1.96,1.72-1.88,2.89.26,3.88,10.52,5.58,11.56,10.03,1.22,5.26-3.31,8.08-8.09,7.48-1.53-.19-5-2.4-4.99.01h-.88s0-7.17,0-7.17Z" fill="#355898"/><path d="M363.49,68.58c.12,1.09-1.4.3-2.4,1.05-.49.37-.73.98-.83,1.57-.45,2.49-.28,12.03.43,14.4,1.61,5.37,10.19,4.3,11.42-.77.58-2.39.74-11.21.3-13.63-.1-.58-.34-1.19-.83-1.57-1-.75-2.51.04-2.4-1.05h7.8c.18,1.03-1.03.36-1.96.88-.36.2-.94.92-1.03,1.37-.85,4.44,1.11,11.44-.94,15.83s-9.6,4.85-13.14,2.41c-4.66-3.2-1.91-12.94-2.79-17.88-.1-.58-.34-1.19-.83-1.57-1-.75-2.51.04-2.4-1.05h9.6Z" fill="#355898"/><path d="M397.38,90.15c-.18-.91,1-.71,1.66-1.19.35-.26.59-.62.8-1l8.34-19.47.75-.21,8.49,19.68c.47,1.22,1.42,1.16,2.34,1.56.36.16.54-.14.42.63h-8.7c-.06-1.03,1.19-.44,1.96-1.18.24-.23.4-.38.42-.75.02-.42-1.5-4.37-1.82-4.78-.36-.46-.45-.43-1-.5-1.42-.16-5.22-.17-6.63,0-.33.04-.66,0-.89.31l-1.93,4.96c.04.94,1.09.99,1.72,1.26.44.19.81-.19.66.67h-6.6ZM411.18,81.76c-.76-2.37-1.76-5.51-2.94-7.7-.11-.2-.47-.84-.66-.69l-3.3,8.39h6.9Z" fill="#375999"/><path d="M864.65,90.15c-.18-.91,1-.71,1.66-1.19.35-.26.59-.62.8-1l8.34-19.47.75-.21,8.49,19.68c.47,1.22,1.42,1.16,2.34,1.56.36.16.54-.14.42.63h-8.7c-.06-1.03,1.19-.44,1.96-1.18.24-.23.4-.38.42-.75.02-.42-1.5-4.37-1.82-4.78-.36-.46-.45-.43-1-.5-1.42-.16-5.22-.17-6.63,0-.33.04-.66,0-.89.31l-1.93,4.96c.04.94,1.09.99,1.72,1.26.44.19.81-.19.66.67h-6.6ZM878.44,81.76c-.76-2.37-1.76-5.51-2.94-7.7-.11-.2-.47-.84-.66-.69l-3.3,8.39h6.9Z" fill="#375999"/><path d="M311.24,69.41c.41-.4.05-1.37.97-1.12l.6,7.19c-.66.14-.68-.33-.91-.73-1.24-2.19-1.55-4.28-4.54-5.05-11.6-3-12.82,16.28-4.81,18.88,4.28,1.39,7.75-.18,10.12-3.81.76-.1.47.49.28.88-2.61,5.61-11.64,6.34-15.89,2.12-7.13-7.07-1.85-20.41,8.71-19.47,1.53.14,4.62,1.96,5.48,1.12Z" fill="#385a99"/><path d="M516.38,69.41c.41-.4.05-1.37.97-1.12l.6,7.19c-.66.14-.68-.33-.91-.73-1.24-2.19-1.55-4.28-4.54-5.05-11.6-3-12.82,16.28-4.81,18.88,4.28,1.39,7.75-.18,10.12-3.81.76-.1.47.49.28.88-2.61,5.61-11.64,6.34-15.89,2.12-7.13-7.07-1.85-20.41,8.71-19.47,1.53.14,4.62,1.96,5.48,1.12Z" fill="#385a99"/><path d="M579.36,69.41c.41-.4.05-1.37.97-1.12l.6,7.19c-.66.14-.68-.33-.91-.73-1.24-2.19-1.55-4.28-4.54-5.05-11.6-3-12.82,16.28-4.81,18.88,4.28,1.39,7.75-.18,10.12-3.81.76-.1.47.49.28.88-2.61,5.61-11.64,6.34-15.89,2.12-7.13-7.07-1.85-20.41,8.71-19.47,1.53.14,4.62,1.96,5.48,1.12Z" fill="#385a99"/><path d="M344.6,68.58c.06.77.05.5-.45.59-1.26.22-2.68.07-3.14,1.66l.2,17.45.32.36c2.58.37,7.27.77,9.24-1.19.95-.95,1.2-2.48,2.24-3.31l-1.5,5.99h-16.8c-.23-.99.89-.48,1.59-.66,1.14-.3,1.32-.79,1.43-1.87.53-5.37-.42-11.61-.02-17.08-.05-.49-.38-.79-.78-1.02-.96-.54-2.38.09-2.21-.93h9.9Z" fill="#335797"/><path d="M387.79,68.58c.06.77.05.5-.45.59-1.26.22-2.68.07-3.14,1.66l.2,17.45.32.36c2.58.37,7.27.77,9.24-1.19.95-.95,1.2-2.48,2.24-3.31l-1.5,5.99h-16.8c-.23-.99.89-.48,1.59-.66,1.14-.3,1.32-.79,1.43-1.87.53-5.37-.42-11.61-.02-17.08-.05-.49-.38-.79-.78-1.02-.96-.54-2.38.09-2.21-.93h9.9Z" fill="#335797"/><path d="M694.9,68.58v5.09c-.9.15-.47-.24-.63-.7-.41-1.19-.55-2.03-1.85-2.66-.93-.45-4.64-1.05-4.97-.04v17.3c.09.5.18,1.16.56,1.52.87.84,2.55-.11,2.39,1.05h-9v-.6c1.15.25,3-.3,3-1.65v-18.12c-1.87,0-4.97-.28-6.14,1.51-.55.84-.32,2.45-1.36,2.38l.3-5.09h17.69Z" fill="#345798"/><path d="M592.33,68.58c.23,1.03-.89.43-1.59.66-.99.33-1.34,1.55-1.43,2.47-.34,3.71-.39,12.21.05,15.86.05.44.17.9.34,1.3.56.43,1.24.49,1.88.68.46.14.9-.35.74.59h-9c-.23-1.03.89-.43,1.59-.66.99-.33,1.34-1.55,1.43-2.47.34-3.71.39-12.21-.05-15.86-.05-.44-.17-.9-.34-1.3-.56-.43-1.24-.49-1.88-.68-.46-.14-.9.35-.74-.59h9Z" fill="#345798"/><path d="M631.91,68.58c.23,1.03-.89.43-1.59.66-.99.33-1.34,1.55-1.43,2.47-.34,3.71-.39,12.21.05,15.86.05.44.17.9.34,1.3.56.43,1.24.49,1.88.68.46.14.9-.35.74.59h-9c-.23-1.03.89-.43,1.59-.66.99-.33,1.34-1.55,1.43-2.47.34-3.71.39-12.21-.05-15.86-.05-.44-.17-.9-.34-1.3-.56-.43-1.24-.49-1.88-.68-.46-.14-.9.35-.74-.59h9Z" fill="#345798"/><path d="M102.5,94.72c5.21-.7,8.98,4.88,6.02,9.3-2.39,3.58-7.7,3.55-10.15.05-2.49-3.55-.16-8.78,4.13-9.36ZM106.67,97.74c-4.83-4.79-10.95,3.69-5.41,6.75,4.64,2.56,8.57-3.61,5.41-6.75Z" fill="#325084"/><polygon points="141.56 94.94 141.56 99.43 146.66 99.43 146.66 94.94 148.46 94.94 148.46 106.62 146.66 106.62 146.66 101.23 141.56 101.23 141.56 106.62 139.76 106.62 139.76 94.94 141.56 94.94" fill="#365487"/><polygon points="127.16 94.94 127.16 96.74 122.66 96.74 122.66 99.43 127.16 99.43 127.16 100.93 122.66 100.93 122.66 104.82 127.16 104.82 127.16 106.62 121.01 106.62 120.56 106.17 120.56 95.39 121.01 94.94 127.16 94.94" fill="#325084"/><path d="M81.58,106.62c-2.3.54-2.07-1.11-2.88-2.71l-5.25.2c-.57,1.7-.8,2.9-2.97,2.51l5.7-12.28,5.39,12.28ZM77.98,102.12l-1.65-3.58c-.25,0-1.95,3.29-1.65,3.59h3.3Z" fill="#325084"/><path d="M160.75,106.62l-1.75-.05-.91-2.47-5.25-.2c-.61,1.46-.84,3.09-2.88,2.71l5.4-12.28,5.39,12.28ZM157.15,102.13l-1.65-3.59c-.25,0-1.95,3.29-1.65,3.59h3.3Z" fill="#325084"/><path d="M114.19,94.7c.82-.13,1.28-.05,2.04.22,1.31.46,3.01,2.06.81,2.37-.58.08-3.06-2.1-3.63-.05s4.43,2.35,4.99,4.79c.7,3.07-1.61,4.94-4.56,4.55s-3.8-4.33-1.56-3.54c.47.17.49,1.06.91,1.49,1.49,1.5,4.5.02,3.18-2.28-.71-1.23-2.71-1.35-3.77-2.23-2.1-1.73-.91-4.92,1.58-5.33Z" fill="#325084"/><path d="M137.32,95.28l.04,2.06c-1.09-.18-1.61-.92-2.84-.92-5.88-.03-5.98,9.57,1.18,8.4.57-.09.98-.75,1.66-.58.77,3.46-4.51,2.66-6.4,1.45-6.18-3.94-.41-13.8,6.36-10.39Z" fill="#325084"/><path d="M95.93,95.28l.04,2.06c-2.55-1.78-6.59-.81-6.91,2.53-.44,4.53,3.09,6.02,6.91,4.36.17,1.7,0,2.12-1.68,2.36-10.57,1.55-8.64-15.4,1.64-11.31Z" fill="#325084"/><polygon points="65.98 94.94 65.98 104.82 69.58 104.82 69.58 106.62 64.63 106.62 64.18 106.17 64.18 95.39 65.98 94.94" fill="#325084"/><path d="M86.07,116.5l2.11-5.69c.72-.09.48-.01.63.41.75,2.1.58,5.05,1.46,7.21-1.43,1.52-1.53-2.44-1.75-3.33-.1-.41.19-.83-.49-.7l-2.1,4.49-2.55-5.09-.88,4.91-.92.17,1.65-8.08,2.84,5.69Z" fill="#479c65"/><path d="M80.97,118.9l-.9-.2-.9-4.89-2.1,4.79c-.55.11-.59-.14-.83-.52-.58-.93-.97-2.63-1.5-3.59-.19-.35.01-.51-.67-.38-.08,1.1-.26,3.33-.66,4.28-.24.55-.56.75-.99.21l1.36-7.49c.71-.15.48.1.67.39.88,1.34,1.37,3.5,2.03,5,.46.34,2.4-4.88,2.63-5.31.21-.4.26-.73.52-.08s1.63,7.52,1.34,7.79Z" fill="#479c65"/><path d="M67.11,110.59c5.45-.29,6.1,7.52,1.11,8.29-6.22.96-6.6-8-1.11-8.29ZM66.49,111.78c-3.62.83-2.65,6.75,1.36,6.17s3.43-7.27-1.36-6.17Z" fill="#479c65"/><path d="M162.85,110.81h1.2s.17,3,.17,3h3.73s0-3,0-3h1.2v7.64l-.75.45c-.93-.2-.11-3.82-.63-3.9h-3.73c-.29.3.76,5.19-1.2,3.45v-7.64Z" fill="#56a472"/><path d="M149.06,110.81c1.52.17,3.38-.62,4.32.93s-.16,3.31-1.92,3.42l2.7,3.59c-1.74.31-2.68-2.41-3.75-3.44-.43,1.08.47,4.61-1.35,3.14v-7.64ZM152.31,114.06c.93-1.88-.19-2.6-2.06-2.35v2.4s2.06-.04,2.06-.04Z" fill="#479c65"/><path d="M92.37,110.81v5.84c0,1.72,3.9,1.39,3.9.3v-6.14h1.2v5.84c0,2.03-3.52,2.94-5.09,1.79-.28-.21-1.21-1.61-1.21-1.79v-5.84h1.2Z" fill="#479c65"/><polygon points="104.97 116.5 104.97 110.81 105.87 110.81 105.87 118.9 100.17 113.21 100.17 118.45 99.27 118.9 99.27 110.81 104.97 116.5" fill="#479c65"/><path d="M146.36,110.81h1.2v5.54c0,.16-.69,1.59-.89,1.81-1.46,1.63-5.41.59-5.41-1.51v-5.84l.92.13.24.36c.26,1.6-.18,3.51.03,5.06.34,2.56,3.91,1.53,3.91.28v-5.84Z" fill="#479c65"/><path d="M102.87,76.08l-1.81,3.59-4.49-1.5c.71-1.32.68-2.41.6-3.89l5.7,1.8Z" fill="#325084"/><path d="M62.08,112.61c-.81-.05-1.09-.76-1.97-.89-4.9-.71-4.91,6.33-.57,6.29,1.02,0,1.59-.85,2.54-.91l-.04,1.15c-4.84,3.05-9.62-3.68-5.21-6.85,1.57-1.13,5.43-1.38,5.25,1.2Z" fill="#479c65"/><path d="M131.96,112.61c-.81-.05-1.09-.76-1.97-.89-3.81-.55-5.07,4.18-2.2,5.8,1.81,1.03,2.51.09,4.17-.42.46,1.7-1.83,1.91-3.15,1.8-4.45-.4-5.04-6.57-1.12-8.01,1.5-.55,4.59-.46,4.27,1.72Z" fill="#479c65"/><polygon points="133.46 110.81 134.36 110.81 134.53 113.81 138.56 113.81 138.56 110.81 139.46 110.81 139.46 118.6 138.56 118.6 138.56 114.71 134.36 114.71 134.36 118.6 133.46 118.6 133.46 110.81" fill="#3b965b"/><path d="M161.35,112.61c-3.86-3.32-7.96,2.65-4.17,4.92,1.65.99,2.66.19,4.17-.42.3,1.09-.41,1.54-1.42,1.72-5.71,1.04-7.15-6.25-2.55-7.93,1.47-.54,4.31-.36,3.97,1.72Z" fill="#479c65"/><path d="M121.16,110.81c.39.36-2.08,3.48-2.26,4.18-.36,1.35.49,3.72-1.04,3.9.72-3.46-1.17-4.94-2.4-7.78l1.15.05,1.84,2.94c.06-.67,1.87-4.06,2.7-3.29Z" fill="#479c65"/><polygon points="115.17 110.81 115.17 111.71 112.77 111.71 112.77 118.6 111.87 118.6 111.87 111.71 109.77 111.71 109.77 110.81 115.17 110.81" fill="#3b965b"/><rect x="107.67" y="110.81" width=".9" height="7.79" fill="#3b965b"/><path d="M95.97,76.37c-.08-.04-.23.04-.3,0-2.44-1.62-2.7-4.28-4.2-6.29l.3-.3c.03.06.41.22.55.49l3.65,6.1Z" fill="#f5f6f9"/><path d="M1018.8,139.56v37.44H1.5v-37.44h1017.3ZM486.16,164.42h7.05l.75-3.59c-.96-.06-.56.88-1.71,1.13-.96.21-2.09,0-3.08.06,1.63-1.97,5.23-4.81,4.27-7.7-1.22-3.69-6.95-2.55-6.98,1.26.65.65.61-.36.88-.6.95-.84,2.71-.97,3.19.44,1.13,3.35-2.94,6.4-4.37,9ZM502.87,152.21c-4.41.9-4.59,13.18,1.71,12.19,4.58-.72,4.76-13.51-1.71-12.19ZM513.15,164.42h7.05l.75-3.59c-.96-.06-.56.88-1.71,1.13-.96.21-2.09,0-3.08.06,1.63-1.97,5.23-4.81,4.27-7.7-1.22-3.69-6.95-2.55-6.98,1.26.65.65.61-.36.88-.6.95-.84,2.71-.97,3.19.44,1.13,3.35-2.94,6.4-4.37,9ZM534.74,152.44h-6l-1.8,5.69c2.47-.56,7.85,2.32,5.54,5.08-1.49,1.78-5.33-3.26-5.56-.43-.2,2.41,6.73,2.54,7.68-1.04,1.03-3.9-2.01-5.97-5.56-6v-.9h5.1l.6-2.4Z" fill="#305495"/><path d="M117.87,9.58c-1.03,4.03-4.02,7.71-6.61,10.92-11.54,14.37-29.42,28.26-19.49,49.27l-.3.3c-.99-1.33-3.41-3.04-4.65-4.49-20.16-23.6-.24-61.36,31.04-56.01Z" fill="#fcfdfd"/><path d="M893.44,29.95v-12.58c4.71-.31,8.45.38,8.71,5.83.28,5.94-3.48,7.12-8.71,6.75Z" fill="#fcfcfc"/><path d="M317.8,18.37c5.63,5.21,4.49,30.03-7.47,24.38-5.8-2.74-5.44-18.44-2.28-23.09,2.2-3.22,6.82-4,9.74-1.29Z" fill="#fcfcfc"/><path d="M536.77,16.85c9.57-1.32,9.47,14.17,7.92,20.18-2.19,8.48-11.19,8.77-13.62.33-1.55-5.39-1.87-19.47,5.7-20.51Z" fill="#fcfcfc"/><path d="M456.47,34.44l4.05-9.29c.6-.13.42.24.6.59,1.45,2.77,2.43,5.86,3.75,8.7h-8.4Z" fill="#f9fafc"/><path d="M232.13,34.44c.95-2.6,2.08-5.18,3.25-7.69.18-.39.6-1.76,1.1-1.6l3.75,9.29h-8.1Z" fill="#f9fafc"/><path d="M453.17,88.65v-18.12c8.16-3.11,13.41,4.15,11.61,11.89-1.32,5.68-6.2,7.47-11.61,6.23Z" fill="#fbfbfc"/><path d="M774.67,79.07v-8.98c9.69-2.38,9.41,10.29,0,8.98Z" fill="#f9fafc"/><path d="M526.05,79.07v-8.98c9.69-2.38,9.41,10.29,0,8.98Z" fill="#f9fafc"/><path d="M705.61,69.56c4.74-.71,7.08,2.47,7.84,6.7,1.05,5.85-.54,14.55-8.44,12.92-6.58-1.36-7.15-18.46.6-19.63Z" fill="#fcfcfd"/><path d="M755.1,69.56c4.74-.71,7.08,2.47,7.84,6.7,1.05,5.85-.54,14.55-8.44,12.92-6.58-1.36-7.15-18.46.6-19.63Z" fill="#fcfcfd"/><path d="M827.98,69.56c4.74-.71,7.08,2.47,7.84,6.7,1.05,5.85-.54,14.55-8.44,12.92-6.58-1.36-7.15-18.46.6-19.63Z" fill="#fcfcfd"/><path d="M733.28,79.37v-9.28c4.27-1.05,6.99,1.11,6.61,5.56-.32,3.71-3.52,4.28-6.61,3.73Z" fill="#f9fafc"/><path d="M411.18,81.76h-6.9l3.3-8.39c.19-.15.55.49.66.69,1.18,2.19,2.18,5.32,2.94,7.7Z" fill="#f9fafc"/><path d="M878.44,81.76h-6.9l3.3-8.39c.19-.15.55.49.66.69,1.18,2.19,2.18,5.32,2.94,7.7Z" fill="#f9fafc"/><path d="M106.67,97.74c3.16,3.14-.77,9.31-5.41,6.75-5.54-3.06.58-11.54,5.41-6.75Z" fill="#f9fafc"/><path d="M77.98,102.12h-3.3c-.3-.29,1.39-3.58,1.65-3.58l1.65,3.58Z" fill="#f5f6f9"/><path d="M157.15,102.13h-3.3c-.3-.29,1.39-3.58,1.65-3.59l1.65,3.59Z" fill="#f5f6f9"/><path d="M66.49,111.78c4.79-1.1,5.33,5.59,1.36,6.17s-4.98-5.34-1.36-6.17Z" fill="#f9fafc"/><path d="M152.31,114.06l-2.06.04v-2.4c1.87-.25,2.99.47,2.06,2.35Z" fill="#f9fafc"/><path d="M502.87,152.21c6.47-1.32,6.29,11.47,1.71,12.19-6.3.99-6.12-11.29-1.71-12.19ZM504.75,163.07v-9.58c0-.52-1.19-1.29-1.79.31-.52,1.39-.56,8.44.27,9.59.51.71,1.36.23,1.52-.32Z" fill="#f5f6f9"/><path d="M534.74,152.44l-.6,2.4h-5.1v.9c3.55.03,6.58,2.1,5.56,6-.94,3.58-7.88,3.45-7.68,1.04.23-2.82,4.07,2.21,5.56.43,2.31-2.76-3.07-5.64-5.54-5.08l1.8-5.69h6Z" fill="#f5f6f9"/><path d="M513.15,164.42c1.43-2.6,5.5-5.65,4.37-9-.48-1.41-2.24-1.28-3.19-.44-.27.24-.23,1.26-.88.6.03-3.81,5.75-4.95,6.98-1.26.95,2.88-2.64,5.73-4.27,7.7.99-.07,2.12.15,3.08-.06,1.15-.25.76-1.19,1.71-1.13l-.75,3.59h-7.05Z" fill="#f5f6f9"/><path d="M486.16,164.42c1.43-2.6,5.5-5.65,4.37-9-.48-1.41-2.24-1.28-3.19-.44-.27.24-.23,1.26-.88.6.03-3.81,5.75-4.95,6.98-1.26.95,2.88-2.64,5.73-4.27,7.7.99-.07,2.12.15,3.08-.06,1.15-.25.76-1.19,1.71-1.13l-.75,3.59h-7.05Z" fill="#f5f6f9"/><path d="M504.75,163.07c-.15.55-1.01,1.02-1.52.32-.83-1.15-.79-8.2-.27-9.59.6-1.6,1.79-.83,1.79-.31v9.58Z" fill="#385a99"/></svg>