<?xml version="1.0" encoding="UTF-8"?><svg id="Layer_1" xmlns="http://www.w3.org/2000/svg" viewBox="0 0 3200 400"><path d="M3200,0v400H0V0h3200ZM376.12,22.93c2.92.52,5.77.54,8.97,1.33,36.62,8.92,64.78,33.18,70.05,60.74l11.32-3.13c-6.3-33.51-45.34-61.98-91.24-68.74-42.86-6.31-87.38,5.61-114.19,30.11-47.25,43.2-28.5,105.83,38.47,131.46l.44-2.68c.22.09.69-.09.94,0,.41.16.78,1.44,1.88,1.35-.34-4.77,1.32-8.94.82-13.74-.34-3.29-2.29-6.96-2.7-10.23-3.95-34.17,25.27-55.9,61.58-73.85,1.72-.47,1.79.99,1.35,1.64-.34.56-10.66,6.85-12.67,8.45-7.46,5.95-16.34,14.19-20.88,21.46-.82,1.28-2.7,3.49-1.69,4.86,19.72-15.52,48.19-20.79,76.28-23.51,2.6-.25,14.86-.36,15.36-1.82.25-.77-5.55-12.93-6.52-14.8-9.09-17.57-23.58-33.27-37.62-48.9l.06-.02ZM701.49,99.84h29.16c.44-1.98-.63-1.1-2.19-1.44-7.05-1.51-10.63-1.26-8.69-8.04.22-.81,4.3-7.77,4.73-8.06.91-.68,1.66-.59,2.79-.7,5.55-.47,20.88-.47,26.43,0,1.72.14,2.01.07,3.14,1.13,1,.92,6.74,11.04,6.74,12.09,0,3.65-5.58,3.29-9,3.72-1.57.2-1.6-.41-1.41,1.33h43.27c.25-2.05-4.17-1.64-6.52-3.09-1.32-.81-2.41-2.52-3.39-3.65-13.95-16.46-21.98-39.91-35.21-57.03-.6-.74-.69-1.82-2.38-1.67l-35.12,55.77c-3.89,5.2-4.67,5.18-11.19,8.15-.94.43-1.66-.07-1.22,1.51l.06-.02ZM922.47,34.39c-4.73-.7-3.45,4.41-8.03,4.73-3.32.23-16.02-4.05-21.85-4.55-37.66-3.11-67.63,23.45-51.17,48.85,11.95,18.42,51.89,23.63,73.43,11.28,4.73-2.7,6.74-4.37,5.71-9.05-11.13,8.47-24.96,14.66-41.61,9.95-20-5.63-21.2-32.57-13.7-44.62,9.63-15.47,38.22-17.09,49.85-2.23,2.19,2.79,2.88,8.18,7.37,7.86v-22.25.02ZM973.04,34.59c-54.93,4.71-51.48,70.88,15.71,66.58,44.84-2.86,56.97-47.45,18.97-62.84-10.16-4.12-23.23-4.73-34.68-3.74ZM1041.9,76.89v24.28c3.92.68,2.76-1.85,5.14-3.38,5.3-3.42,15.02,2.7,21.73,3.33,21.63,2.07,43.64-11.01,33.99-27.09-7.65-12.79-39.47-15.41-45.28-24.19-4.26-6.46,3.1-11.85,12.1-12.12,13.8-.41,24.83,8.65,26.71,17.86l2.92.41-.94-21.58c-3.86-.09-1.63,4.44-6.15,4.73-2.48.16-12.79-4.21-17.93-4.66-29.85-2.59-45.18,20.77-18.91,34.48,9.72,5.07,45.43,12.61,31.29,24.82-14.14,12.21-42.52-3.83-41.89-16.89h-2.82.03ZM1291.1,56.67v-22.25h-2.79c-1.29,8.47-11.91,2.84-18.62,1.53-69.23-13.38-89.48,60.88-21.35,65.23,12.57.81,30.79-1.62,39.51-8.74,2.29-1.85,1.25-3.81,1.38-6.08l-13.48,7.52c-35.02,11.98-48.72-10.25-45.65-32.07,3.95-28.06,47.19-32.25,58.1-5.54,0,0,2.92.41,2.92.41ZM1404.88,99.84h30.1c.44-1.94-.56-1.13-2.16-1.44-4.42-.88-9.16-.11-9.88-4.48-.6-3.74,3.95-8.67,5.61-12.18h31.7c1.19,4.35,8.28,10.56,6.74,14.95-.19.52-3.57,1.51-4.48,1.64-2.35.38-6.65-.74-5.89,1.51h43.27c.69-2.21-3.64-1.44-5.17-2.7-16.84-18.36-24.96-40.81-39.13-60.29-.69-.97-1.29-2.48-3.17-2.45l-36.97,58.49c-2.04,3.09-5.89,3.87-9.31,5.43-.94.43-1.66-.07-1.22,1.51l-.03.02ZM1625.87,56.67v-22.25h-2.79c-1.29,8.47-11.91,2.84-18.62,1.53-69.23-13.38-89.48,60.88-21.35,65.23,12.57.81,30.79-1.62,39.51-8.74,2.29-1.85,1.25-3.81,1.38-6.08l-13.48,7.52c-35.02,11.98-48.72-10.25-45.65-32.07,3.95-28.06,47.19-32.25,58.1-5.54,0,0,2.92.41,2.92.41ZM1676.44,34.59c-53.77,4.62-51.83,70.63,15.71,66.58,38.13-2.3,55.21-36.24,30.54-56.28-11.82-9.59-29.07-11.76-46.25-10.29ZM2554.92,34.39c-4.73-.7-3.45,4.41-8.03,4.73-3.32.23-16.02-4.05-21.85-4.55-37.66-3.11-67.63,23.45-51.17,48.85,11.95,18.42,51.89,23.63,73.43,11.28,4.73-2.7,6.74-4.37,5.71-9.05-11.13,8.47-24.96,14.66-41.61,9.95-20-5.63-21.2-32.57-13.7-44.62,9.63-15.47,38.22-17.09,49.85-2.23,2.19,2.79,2.88,8.18,7.37,7.86v-22.25.02ZM2953.62,34.39c-4.73-.7-3.45,4.41-8.03,4.73-3.32.23-16.02-4.05-21.85-4.55-37.66-3.11-67.63,23.45-51.17,48.85,11.95,18.42,51.89,23.63,73.43,11.28,4.73-2.7,6.74-4.37,5.71-9.05-11.13,8.47-24.96,14.66-41.61,9.95-20-5.63-21.2-32.57-13.7-44.62,9.63-15.47,38.22-17.09,49.85-2.23,2.19,2.79,2.88,8.18,7.37,7.86v-22.25.02ZM660.13,35.74h-47.97c-.69,2.18,4.64,1.19,7.37,1.8,5.83,1.28,5.52,6.31,5.83,9.98,1.03,11.76,1.16,29.5,0,41.22-.31,3.18-.5,7.97-4.99,9.23-3.2.9-8.69-.52-8.21,1.87h79.92l2.82-22.93h-2.79c-2.82,9.19-8.56,17.84-23.08,18.87-4.92.36-19.97,1.1-21.67-2.66l-.34-51.6c.66-3,3.35-3.87,7.09-4.37,2.26-.29,6.8.9,6.02-1.42ZM1187.66,35.74h-75.22c-.78,2.25,3.57,1.13,5.89,1.51,4.01.68,6.24,2.03,7.05,5.07-.78,15.54,1.82,32.39.25,47.77-.38,3.81-.63,7.03-6.55,8.11-2.51.45-7.4-.56-6.65,1.64h78.04l3.76-20.23-2.88.41c-3.51,9.66-12.79,15.54-26.75,16.46-3.39.23-17.37.56-17.37-3.02v-24.62c13.2-.68,17.53,7.59,18.81,15.52h2.79v-34.39h-2.79c-1.41,8.24-5.02,16.31-18.81,15.52v-25.63h18.34c.41,0,4.95.97,5.83,1.22,8.59,2.27,12.73,8,13.45,14.3h2.82v-19.57l-.03-.07ZM1348.45,35.74h-47.03c-.75,2.3,3.54,1.06,5.89,1.51,2.88.54,5.99,1.89,6.27,4.28-1.47,16.49,2.16,35,.09,51.26-.44,3.47-1.54,4.71-6.36,5.54-2.32.41-6.65-.77-5.89,1.51h47.03c.78-2.25-3.57-1.13-5.89-1.51-3.64-.61-7.27-2.68-7.27-5.59v-23.94h31.98v23.94c0,2.88-3.64,4.95-7.27,5.59-2.32.38-6.65-.74-5.89,1.51h47.03c.75-2.3-3.54-1.06-5.89-1.51-2.88-.54-5.99-1.89-6.27-4.28,1.51-16.49-2.19-35.02-.09-51.26.41-3.27,1.69-4.68,6.36-5.54,2.35-.43,6.65.79,5.89-1.51h-47.03c-.78,2.25,3.57,1.13,5.89,1.51,2.98.5,7.27,2.55,7.27,4.91v22.59h-31.98v-21.91c0-2.88,3.64-4.95,7.27-5.59,2.32-.38,6.65.74,5.89-1.51ZM1777.72,35.74h-36.21c-.75,2.32,3.57,1.06,5.93,1.49,5.58,1.04,6.02,3.29,6.36,6.91,1.41,15.54-1.07,32.21-.13,47.86l-2.67,4.14-9.47,3.67h30.1c.47-2.07-.78-1.06-2.29-1.35-2.45-.5-9.91-2.03-9.91-4.37v-50.92l33.77,56.26,2.45.41,34.33-57.34v50.25c0,2.12-3.29,5.09-6.3,5.59-2.48.41-7.62-.86-6.87,1.49h47.03c.75-2.3-3.54-1.06-5.89-1.51-2.88-.54-5.99-1.89-6.27-4.28,1.47-16.49-2.16-35-.09-51.26.44-3.47,1.54-4.71,6.36-5.54,2.32-.41,6.65.77,5.89-1.51h-36.68l-23.99,41.82-25.4-41.82-.06.02ZM1906.08,35.74h-37.62c-.75,2.21,4.14,1.19,6.65,1.64,5.93,1.08,6.18,4.3,6.55,8.11,1.47,14.8-1.13,30.9-.13,45.83-1.25,5.54-4.3,5.88-10.79,7.14-1.54.29-2.76-.72-2.29,1.35h31.04c.47-2.07-.78-1.06-2.29-1.35-2.57-.5-5.49-.59-7.62-1.98-.88-.59-3.26-3.85-3.26-4.41v-48.9l35.27,56.67,35.24-56.67v51.6c0,3.33-7.96,3.42-10.82,3.72-1.66.18-1.57-.34-1.41,1.33h47.03c.78-2.25-3.57-1.13-5.89-1.51-4.33-.74-5.96-1.69-6.4-4.86-2.23-16.33,1.72-35.32.13-51.94,1.16-4.62,5.96-3.94,10.75-4.44,1.66-.18,1.57.34,1.41-1.33h-36.21l-25.37,41.15-23.99-41.15h0ZM2043.38,35.74h-46.09c-.19,1.73-.16,1.13,1.41,1.33,4.2.52,8.25.05,9.66,3.87,2.92,13.49-5.02,39.91,4.73,51.24,11.29,13.13,50.64,11.91,60.23-2.23,3.07-4.53,3.54-12.95,3.86-18.13.66-10.05-.63-20.16.22-30.2,1-2.27,3.2-3.63,6.3-4.23,2.32-.45,6.46.52,5.71-1.64h-31.04c-.47,2.07.78,1.06,2.29,1.35,4.11.81,8.37.95,9.72,4.53-.94,12.88,1.94,27.66.19,40.32-1.16,8.4-8.78,15.05-21.13,15.23-13.92.2-18.31-5.59-19.28-14.55-1.07-9.75-1.5-30.2.22-39.62.56-3.18,1.47-5.07,6.08-5.74,2.48-.36,7.59.79,6.84-1.51h.09ZM2169.39,74.19l-43.74-38.45h-32.45c-.47,2.03.75,1.06,2.19,1.42,4.99,1.22,10.6,3.54,11.01,7.64-2.13,14.86,2.7,33.49-.13,47.88-.94,4.82-5.52,4.8-10.82,5.77-1.57.29-2.73-.68-2.29,1.37h31.98c.47-2.07-.78-1.06-2.29-1.35-3.73-.72-10.85-1.98-10.85-5.72v-44.19l59.67,51.96,3.32.65v-59.03c0-.16,1.91-2.68,2.13-2.86,2.41-1.73,9.28-.92,9.16-3.56h-30.1c-.47,2.07.78,1.06,2.29,1.35,2.57.5,5.49.59,7.62,1.98.88.59,3.26,3.85,3.26,4.41v30.7l.03.02ZM2238.97,35.74h-47.03c-.75,2.21,4.14,1.17,6.65,1.64,4.67.86,5.86,2.97,6.4,6.19,1.88,11.13,1.32,34.95.16,46.49-.34,3.36-.88,7.36-6.36,8.27-2.48.41-7.62-.86-6.87,1.49h47.03c.75-2.3-3.54-1.06-5.89-1.51-2.88-.54-5.99-1.89-6.27-4.28,1.47-16.49-2.16-35-.09-51.26.44-3.47,1.54-4.71,6.36-5.54,2.32-.41,6.65.77,5.89-1.51l.03.02ZM2328.29,35.74h-80.86v17.55h2.82c.31-10.81,12.54-14.91,26.34-13.49v54.3c0,2.18-4.39,3.92-7.12,4.35-2.26.36-6.8-.99-6.05,1.4h47.03c.75-2.3-3.54-1.06-5.89-1.51-2.51-.47-6.33-2.18-6.33-4.23v-54.3c14.71-1.51,24.21,2.55,27.18,13.09l2.92.41v-17.55h-.03ZM2377.21,35.74h-43.27c-.47,1.94.69,1.1,2.07,1.51,6.4,1.96,6.9,3.24,10.53,7.3,8.75,9.73,15.36,21.49,23.83,31.46.82,2.84.69,16.31-.66,18.78-2.26,4.12-7.18,3.24-11.82,3.67-1.72.16-1.54-.25-1.41,1.35h49.85c.13-1.55.34-1.22-1.38-1.35-4.08-.34-9.72.54-11.88-2.97-1.32-2.16-1.44-19.39-.63-22.18.72-2.5,21.35-26.62,24.8-30.11,1.16-1.17,3.17-3.33,4.58-4.12,2.54-1.44,7.27-1.15,7.09-3.36h-27.28c-.47,2.03.72,1.06,2.19,1.42,4.8,1.15,8.37.74,6.99,5.5l-20.98,26.13c-1.54.16-1.88-.86-2.54-1.55-4.83-5.25-12.57-15.56-16.3-21.35-1.85-2.86-6.05-7.66.25-8.65,2.32-.36,6.68.74,5.89-1.51l.06.05ZM2611.36,35.74h-47.03c-.13,1.58-.31,1.19,1.41,1.35,5.8.5,9.81-.09,11.73,5.09-1.44,16.06,2.1,34.1.09,49.91-.41,3.29-1.63,5.5-6.36,6.22-2.48.38-7.59-.79-6.84,1.51h47.03c.75-2.27-3.54-1.1-5.89-1.51-1.82-.32-6.33-2.16-6.33-3.56v-25.97h31.04v25.97c0,3.33-7.96,3.42-10.82,3.72-1.66.18-1.57-.34-1.41,1.33h47.03c.16-1.67.25-1.17-1.41-1.33-4.23-.43-9.16.14-10.79-3.74l.47-54.95c1.38-1.49,3.48-2.14,5.83-2.55s6.65.77,5.89-1.51h-47.03c-.16,1.67-.25,1.17,1.41,1.33,2.13.23,10.82.61,10.82,3.04v24.62h-31.04v-23.94c0-1.4,4.48-3.24,6.33-3.56,2.35-.41,6.65.77,5.89-1.51l-.03.05ZM2716.68,35.74h-46.09c-.19,1.73-.16,1.13,1.41,1.33,4.2.52,8.25.05,9.66,3.87,2.92,13.49-5.02,39.91,4.73,51.24,11.29,13.13,50.64,11.91,60.23-2.23,3.07-4.53,3.54-12.95,3.86-18.13.66-10.05-.63-20.16.22-30.2,1-2.27,3.2-3.63,6.3-4.23,2.32-.45,6.46.52,5.71-1.64h-31.04c-.47,2.07.78,1.06,2.29,1.35,4.11.81,8.37.95,9.72,4.53-.94,12.88,1.94,27.66.19,40.32-1.16,8.4-8.78,15.05-21.13,15.23-13.92.2-18.31-5.59-19.28-14.55-1.07-9.75-1.5-30.2.22-39.62.56-3.18,1.47-5.07,6.08-5.74,2.48-.36,7.59.79,6.84-1.51h.09ZM2822.47,35.74c-17.5-1.15-37.28.86-55,0-.16,1.67-.25,1.17,1.41,1.33,4.8.5,9.59-.18,10.75,4.44-1.47,16.51,2.16,35,.09,51.26-.44,3.47-1.54,4.71-6.36,5.54-2.32.41-6.65-.77-5.89,1.51h46.09c.19-1.73.16-1.13-1.41-1.33-3.04-.38-10.82-1.1-10.82-4.41v-23.27l4.99.14,28.88,28.87h29.16v-2c-4.08-.11-6.77-1.76-9.37-3.74-8.43-6.46-15.33-16.67-23.52-23.6-.34-1.51.38-.77,1.38-.99,9.25-2.14,16.59-6.35,17.46-13.81,1.5-12.79-11.6-18.85-27.78-19.93h-.06ZM3010.06,35.74h-47.03c-.13,1.58-.31,1.19,1.41,1.35,5.8.5,9.81-.09,11.73,5.09-1.44,16.06,2.1,34.1.09,49.91-.41,3.29-1.63,5.5-6.36,6.22-2.48.38-7.59-.79-6.84,1.51h47.03c.75-2.27-3.54-1.1-5.89-1.51-1.82-.32-6.33-2.16-6.33-3.56v-25.97h31.04v25.97c0,3.33-7.96,3.42-10.82,3.72-1.66.18-1.57-.34-1.41,1.33h47.03c.16-1.67.25-1.17-1.41-1.33-4.23-.43-9.16.14-10.79-3.74l.47-54.95c1.38-1.49,3.48-2.14,5.83-2.55s6.65.77,5.89-1.51h-47.03c-.16,1.67-.25,1.17,1.41,1.33,2.13.23,10.82.61,10.82,3.04v24.62h-31.04v-23.94c0-1.4,4.48-3.24,6.33-3.56,2.35-.41,6.65.77,5.89-1.51l-.03.05ZM494.61,73.54c-1.54-.27-2.16.23-3.32.65-10.47,4.03-18.81,9.32-30.82,12.95-25.08,7.57-46.65,7.36-72.3,10.88-44.4,6.06-76.25,31.96-70.33,65.23l14.08-13.15c23.74-16.08,47.47-13.63,74.53-20.72,7.56-1.98,18.12-7.84,23.95-9.12,1.44-.32,2.98-.18,4.48-.16.88.05.56,1.15.34,1.58s-7.24,6.13-8.31,6.87c-20,13.81-51.77,16.33-74.59,27.43-9.28,4.5-24.71,14.66-30.29,21.44-9.16,11.13-14.83,24.93-16.43,37.79l10.79-8.11c1.35-7.09,3.73-14.66,8.28-21.04,1.35-1.91,3.45-5.95,6.96-4.75,3.89,1.31,9.5,5.52,14.33,7.3,31.45,11.44,69.57-1.42,94.53-15.9,35.37-20.54,53.8-51.51,55.09-83.92l-1-15.2.03-.05ZM975.87,156.33c-2.7,1.89-12.38-2.21-17.18-2.52-33.08-2.12-49.63,27.93-27.31,43.85,13.36,9.5,41.64,7.86,49.82-4.77.56-.88,1.47-2.23-.88-1.98-7.43,8.18-18.28,11.69-31.73,8.58-25.11-5.86-21.32-49.28,15.08-42.52,9.37,1.73,10.35,6.44,14.23,11.37.72.92.78,1.96,2.85,1.64l-1.88-16.19c-2.88-.56-1.76,1.62-3.04,2.52l.03.02ZM1245.95,203.04h20.69c.47-1.94-.69-1.1-2.07-1.51-2.01-.61-5.27-.72-5.39-2.84l6.05-11.17c.72-.68,1.76-.61,2.79-.7,4.45-.38,16.34-.38,20.79,0,1.72.14,2.01.07,3.14,1.13.97.9,5.77,9.8,5.71,10.77-.06.83-.56,1.15-1.32,1.69-2.41,1.67-6.36.36-6.15,2.66h27.28c.34-1.73-.19-1.06-1.32-1.42-2.85-.9-5.86-.77-7.34-3.51l-26.62-44.32-2.35.47-26.15,43.85c-.66.83-1.41,1.67-2.51,2.25-2.07,1.08-5.77.63-5.2,2.68l-.03-.02ZM1324.96,187.52v16.19h2.76c0-5.45,10.85-.5,15.65-.05,15.02,1.35,29.22-5.02,25.37-16.85-3.26-10.02-35.43-13.85-36.25-22.59-.25-2.61,2.82-5.36,5.89-6.51,11.35-4.19,24.93,3.58,24.17,12.27h2.82v-16.19h-2.76c-.22,5.5-9.63.5-14.74.07-17.81-1.49-31.35,11.42-18.22,21.17,7.24,5.38,41.73,12.88,27.78,23.31-9.69,7.25-31.32-.43-29.66-10.83h-2.82,0ZM1619.06,156.33c-2.7,1.89-12.38-2.21-17.18-2.52-33.08-2.12-49.63,27.93-27.31,43.85,13.36,9.5,41.64,7.86,49.82-4.77.56-.88,1.47-2.23-.88-1.98-7.43,8.18-18.28,11.69-31.73,8.58-25.11-5.86-21.32-49.28,15.08-42.52,9.37,1.73,10.35,6.44,14.23,11.37.72.92.78,1.96,2.85,1.64l-1.88-16.19c-2.88-.56-1.76,1.62-3.04,2.52l.03.02ZM1816.53,156.33c-2.7,1.89-12.38-2.21-17.18-2.52-33.08-2.12-49.63,27.93-27.31,43.85,13.36,9.5,41.64,7.86,49.82-4.77.56-.88,1.47-2.23-.88-1.98-7.43,8.18-18.28,11.69-31.73,8.58-25.11-5.86-21.32-49.28,15.08-42.52,9.37,1.73,10.35,6.44,14.23,11.37.72.92.78,1.96,2.85,1.64l-1.88-16.19c-2.88-.56-1.76,1.62-3.04,2.52l.03.02ZM2211.47,153.96c-41.42,4.08-36.12,53.4,9.06,49.66,41.67-3.45,36.94-54.19-9.06-49.66ZM2366.64,153.96c-41.42,4.08-36.12,53.4,9.06,49.66,41.67-3.45,36.94-54.19-9.06-49.66ZM2595.12,153.96c-41.42,4.08-36.12,53.4,9.06,49.66,41.67-3.45,36.94-54.19-9.06-49.66ZM2711.03,203.04h20.69c.47-1.94-.69-1.1-2.07-1.51-2.01-.61-5.27-.72-5.39-2.84l6.05-11.17c.72-.68,1.76-.61,2.79-.7,4.45-.38,16.34-.38,20.79,0,1.72.14,2.01.07,3.14,1.13.97.9,5.77,9.8,5.71,10.77-.06.83-.56,1.15-1.32,1.69-2.41,1.67-6.36.36-6.15,2.66h27.28c.34-1.73-.19-1.06-1.32-1.42-2.85-.9-5.86-.77-7.34-3.51l-26.62-44.32-2.35.47-26.15,43.85c-.66.83-1.41,1.67-2.51,2.25-2.07,1.08-5.77.63-5.2,2.68l-.03-.02ZM1039.08,154.46h-51.73c-.5,2.32,3.95.9,6.93,2.09,1.25.52,2.26,1.19,2.45,2.3-1.25,12.32,1.72,26.37.06,38.47-.34,2.43-.91,3.54-4.48,4.21-2.16.41-5.71-.74-4.99,1.49h52.67l4.7-12.14c-2.45-.41-1.63.52-2.41,1.28-3.42,3.33-5.17,6.89-11.63,7.86-3.61.54-16.77.77-20.25.29-1.03-.14-3.32-1.17-3.32-1.67v-19.91h18.34c4.39,0,6.8,4.66,6.11,7.43h2.82v-16.87h-2.82c1.03,2.64-2.29,6.73-6.11,6.73h-18.34v-18.9h23.05c5.42,0,6.36,4.93,7.78,7.25.56.95.13,1.06,2.1.86l-.94-10.79h.03ZM1080.46,154.46h-31.04c-.5,2.32,3.95.9,6.93,2.09,1.25.52,2.26,1.19,2.45,2.3-1.25,12.32,1.72,26.37.06,38.47-.34,2.43-.91,3.54-4.48,4.21-2.16.41-5.71-.74-4.99,1.49h52.67l4.7-13.49c-3.26,1.87-4.01,5.32-7.02,7.45-6.18,4.41-20.85,3.49-28.97,2.68l-1-.81-.63-39.3c1.44-3.6,5.89-3.27,9.85-3.74,1.57-.2,1.6.41,1.41-1.33l.06-.02ZM1139.69,154.46h-30.1c-.38,2.45,4.39.68,7.52,2.36,1.54.83,2.29,2.21,2.6,3.54,2.76,11.13-5.86,33.06,8.75,40.27,11.13,5.5,34.93,4.28,41.2-5.43,6.27-9.71.28-25.68,2.95-35.65.25-.99,2.1-2.64,3.23-3.09,2.95-1.17,6.74.34,6.15-1.98h-24.46c-.38,2.45,4.39.68,7.52,2.36,1.54.83,2.29,2.21,2.6,3.54,1.35,5.45.85,25.32-.94,30.7-3.86,11.42-30.76,13.83-35.81,1.73-2.23-5.34-2.76-26.82-1.35-32.43.31-1.31,1.07-2.68,2.6-3.54,3.14-1.69,7.87.09,7.52-2.36v-.02ZM1215.88,154.46h-31.04c-.5,2.32,3.95.9,6.93,2.09,1.25.52,2.26,1.19,2.45,2.3-1.25,12.32,1.72,26.37.06,38.47-.34,2.43-.91,3.54-4.48,4.21-2.16.41-5.71-.74-4.99,1.49h52.67l4.7-13.49c-3.26,1.87-4.01,5.32-7.02,7.45-6.18,4.41-20.85,3.49-28.97,2.68l-1-.81-.63-39.3c1.44-3.6,5.89-3.27,9.85-3.74,1.57-.2,1.6.41,1.41-1.33l.06-.02ZM1402.06,203.04h38.1c4.17,0,14.39-3.42,17.84-5.41,22.14-12.84,11.85-43.15-18.78-43.15h-37.15c-.72,2.25,2.82,1.06,4.99,1.49,2.67.54,3.95,1.62,4.36,3.6-1.07,11.94,1.6,25.34.09,37.09-.31,2.52-.69,4.12-4.48,4.89-2.16.43-5.71-.77-4.99,1.49h.03ZM1527.13,154.46h-51.73c-.5,2.32,3.95.9,6.93,2.09,1.25.52,2.26,1.19,2.45,2.3-1.25,12.32,1.72,26.37.06,38.47-.34,2.43-.91,3.54-4.48,4.21-2.16.41-5.71-.74-4.99,1.49h52.67l4.7-12.14c-2.45-.41-1.63.52-2.41,1.28-3.42,3.33-5.17,6.89-11.63,7.86-3.61.54-16.77.77-20.25.29-1.03-.14-3.32-1.17-3.32-1.67v-19.91h18.34c4.39,0,6.8,4.66,6.11,7.43h2.82v-16.87h-2.82c1.03,2.64-2.29,6.73-6.11,6.73h-18.34v-18.9h23.05c5.42,0,6.36,4.93,7.78,7.25.56.95.13,1.06,2.1.86l-.94-10.79h.03ZM1697.32,201.69c-14.58-.81-21.35-14.46-29.94-21.35l-.16-1.58c17.5-.9,21.98-17.57,5.64-22.61-1.19-.36-7.21-1.69-8-1.69h-34.33c-.72,2.25,2.82,1.06,4.99,1.49,2.67.54,3.95,1.62,4.36,3.6-1.07,11.94,1.6,25.34.09,37.09-.31,2.52-.69,4.12-4.48,4.89-2.16.43-5.71-.77-4.99,1.49h29.16c.38-2.48-4.42-.65-7.53-2.36-.91-.52-2.82-2.75-2.82-3.38v-17.21l8,.68,21.35,22.12c6.18.32,12.42.09,18.62.14,17.65.14,35.37-.14,53.02.05l5.27-12.18c-2.45-.41-1.63.52-2.41,1.28-3.42,3.33-5.17,6.89-11.63,7.86-3.61.54-16.77.77-20.25.29-1.03-.14-3.32-1.17-3.32-1.67v-19.91h18.34c4.39,0,6.8,4.66,6.11,7.43h2.82v-16.87h-2.82c1.03,2.64-2.29,6.73-6.11,6.73h-18.34v-18.9h23.05c5.42,0,6.36,4.93,7.78,7.25.56.95.13,1.06,2.1.86l-.94-10.79h-51.73c-.5,2.32,3.95.9,6.93,2.09,1.25.52,2.26,1.19,2.45,2.3l-.44,40.79c-2.32,2.23-6.36,2.21-9.88,2.03l.06.05ZM1857.2,154.46h-28.22c-.5,2.12.88,1.04,2.32,1.33,2.01.43,4.14.56,5.89,1.53.53.9.91,1.94,1.07,2.93,1.38,8.2,1.22,27.34.16,35.72-.28,2.07-1.35,4.82-4.48,5.56-2.16.52-5.71-.83-4.99,1.49h28.22c.5-2.12-.88-1.04-2.32-1.33-2.01-.43-4.14-.56-5.89-1.53-.53-.9-.91-1.94-1.07-2.93-1.38-8.2-1.22-27.34-.16-35.72.28-2.07,1.35-4.82,4.48-5.56,2.16-.52,5.71.83,4.99-1.49ZM1880.21,154.46h-18.34c-.47,2,.72,1.08,2.19,1.42,4.61,1.1,6.3.88,7.12,5.05,1.44,7.43,1.13,27.3.13,35.05-.22,1.69-.25,2.68-1.91,4.03l-7.56,3.02h23.52v-1.35c-2.07.65-9.41-.9-9.41-2.36v-35.41l24.27,37.57,2.54,1.55,25.87-39.12v35.41c0,1.46-7.34,3.02-9.41,2.36v1.35h29.16c.72-2.25-2.82-1.06-4.99-1.49-2.67-.54-3.95-1.62-4.36-3.6,1.07-11.94-1.6-25.34-.09-37.09.31-2.52.69-4.12,4.48-4.89,2.16-.43,5.71.77,4.99-1.49h-19.75l-23.95,37.09-24.46-37.09h-.03ZM1981.3,154.46h-28.22c-.5,2.12.88,1.04,2.32,1.33,2.01.43,4.14.56,5.89,1.53.53.9.91,1.94,1.07,2.93,1.38,8.2,1.22,27.34.16,35.72-.28,2.07-1.35,4.82-4.48,5.56-2.16.52-5.71-.83-4.99,1.49h28.22c.5-2.12-.88-1.04-2.32-1.33-2.01-.43-4.14-.56-5.89-1.53-.53-.9-.91-1.94-1.07-2.93-1.38-8.2-1.22-27.34-.16-35.72.28-2.07,1.35-4.82,4.48-5.56,2.16-.52,5.71.83,4.99-1.49ZM2037.73,154.46h-51.73c-.5,2.32,3.95.9,6.93,2.09,1.25.52,2.26,1.19,2.45,2.3-1.25,12.32,1.72,26.37.06,38.47-.34,2.43-.91,3.54-4.48,4.21-2.16.41-5.71-.74-4.99,1.49h52.67l4.7-12.14c-2.45-.41-1.63.52-2.41,1.28-3.42,3.33-5.17,6.89-11.63,7.86-3.61.54-16.77.77-20.25.29-1.03-.14-3.32-1.17-3.32-1.67v-19.91h18.34c4.39,0,6.8,4.66,6.11,7.43h2.82v-16.87h-2.82c1.03,2.64-2.29,6.73-6.11,6.73h-18.34v-18.9h23.05c5.42,0,6.36,4.93,7.78,7.25.56.95.13,1.06,2.1.86l-.94-10.79h.03ZM2104.49,190.23c-6.87-2.93-38.6-35.74-41.86-35.74h-18.34c-.47,2.07.78,1.06,2.29,1.35,4.77.92,11.07,2.23,11.85,6.37,1.29,6.82.88,25.92-.16,33-.38,2.55-.75,5.27-4.55,6.19-2.41.59-6.43-.59-5.68,1.64h24.46c.72-2.25-2.79-1.08-4.99-1.49-2.85-.54-5.36-2.91-5.36-4.91v-31.37l46.09,38.45v-42.16c0-.63,1.47-3.83,2.29-4.44,2.92-2.21,8.28-.05,8.06-2.66h-24.46c-.72,2.25,2.79,1.08,4.99,1.49,2.85.54,5.36,2.91,5.36,4.91v29.37ZM2178.8,154.46h-55.47l-.94,11.46c3.26.16,2.54-3.49,4.26-5.36,3.67-4.03,13.39-3.4,19.25-3.4v40.81c0,3.04-5.8,4.28-9.41,3.72v1.35h28.22c.47-2.61-4.77-.47-7.49-2.36-1.19-.83-1.47-2.3-1.82-3.42v-38.96c1.07-2.27,12.73-.9,15.61.09,4.08,1.42,4.55,3.31,5.8,5.99.5,1.06-.82,1.91,1.98,1.58v-11.49ZM2312.77,154.46c-9.97-.9-22.23.65-32.45,0-.47,2.61,4.77.47,7.49,2.36,1.1.77,1.6,2.34,1.82,3.42,1.5,7.59,1.16,28.45.13,36.4-.31,2.52-.69,4.12-4.48,4.89-2.16.43-5.71-.77-4.99,1.49h29.16c.53-2.57-4.11-.56-7.12-1.98-.94-.45-3.23-3.15-3.23-3.76v-16.53c16.4,2.5,34.46-.65,31.98-15.2-.97-5.72-10.88-10.45-18.34-11.1l.03.02ZM2444.43,154.46c-10.63-.9-23.45.68-34.33,0-.72,2.25,2.82,1.06,4.99,1.49,2.67.54,3.95,1.62,4.36,3.6-1.07,11.94,1.6,25.34.09,37.09-.31,2.52-.69,4.12-4.48,4.89-2.16.43-5.71-.77-4.99,1.49h29.16c.38-2.48-4.42-.65-7.53-2.36-.91-.52-2.82-2.75-2.82-3.38v-17.21l8,.68,21.16,22.25h18.81c.47-1.91-.63-1.1-2.07-1.53-6.36-1.8-7.21-1.71-12.07-5.54-5.86-4.64-10.19-10.81-15.8-15.65l-.16-1.58c22.64-2.64,20.29-22.36-2.35-24.28l.03.05ZM2559.62,154.46h-49.85l-.94,12.14c2.6.32,1.6-.38,2.13-1.49.82-1.67,1.16-4.41,2.88-5.74.78-.59,5.89-2.23,6.77-2.23h24.93l-43.27,45.88h55.47l2.82-12.82c-2.41-.34-1.63.36-2.35,1.31-1.6,2.14-2.63,5.29-5.61,6.8-1.1.56-7.46,2-8.5,2h-27.75l43.27-45.88v.02ZM2695.04,190.23c-6.87-2.93-38.6-35.74-41.86-35.74h-18.34c-.47,2.07.78,1.06,2.29,1.35,4.77.92,11.07,2.23,11.85,6.37,1.29,6.82.88,25.92-.16,33-.38,2.55-.75,5.27-4.55,6.19-2.41.59-6.43-.59-5.68,1.64h24.46c.72-2.25-2.79-1.08-4.99-1.49-2.85-.54-5.36-2.91-5.36-4.91v-31.37l46.09,38.45v-42.16c0-.63,1.47-3.83,2.29-4.44,2.92-2.21,8.28-.05,8.06-2.66h-24.46c-.72,2.25,2.79,1.08,4.99,1.49,2.85.54,5.36,2.91,5.36,4.91v29.37ZM322.54,171.35l-17.87-4.05c.25,3.33.34,5.79-1.88,8.76l14.08,3.38,5.68-8.09ZM255.79,240.14l-16.9-27.66-17.87,27.66c6.8.88,7.52-1.82,9.31-5.65l16.46-.45c2.54,3.63,1.85,7.32,9.03,6.1h-.03ZM504.02,240.14l-16.9-27.66-16.93,27.66c6.4.86,7.12-2.82,9.03-6.1l16.46.45,2.85,5.56,5.49.11v-.02ZM300.78,214.59c-32.23-9.21-38.28,28.96-5.14,25.47,5.3-.56,5.77-1.49,5.27-5.32-11.98,3.74-23.05.38-21.67-9.82,1-7.52,13.7-9.68,21.67-5.7l-.13-4.64ZM321.38,213.33c-13.45,1.31-20.76,13.06-12.95,21.08,7.68,7.88,24.33,7.93,31.82-.11,9.28-9.98-2.54-22.55-18.88-20.95v-.02ZM358.03,213.29c-7.81.92-11.54,8.11-4.95,12,3.32,1.98,9.59,2.23,11.82,5.02,4.14,5.18-5.3,8.51-9.97,5.14-1.35-.97-1.41-2.97-2.85-3.36-7.05-1.78-4.36,7.09,4.89,7.97,9.25.88,16.49-3.36,14.3-10.25-1.76-5.52-17.43-6.24-15.65-10.79s9.59.29,11.38.11c6.9-.7,1.57-4.28-2.54-5.34-2.38-.61-3.83-.81-6.4-.5l-.03-.02ZM430.55,214.59c-21.23-7.68-39.32,14.53-19.94,23.4,5.93,2.73,22.48,4.53,20.07-3.27-2.16-.36-3.42,1.1-5.2,1.31-22.45,2.64-22.17-18.99-3.7-18.92,3.86,0,5.52,1.67,8.9,2.07l-.13-4.64v.05ZM206.87,213.83l-5.64,1.01v24.28l1.41,1.01h15.52v-4.05h-11.29s0-22.25,0-22.25ZM398.7,213.83h-19.28l-1.41,1.01v24.28l1.41,1.01h19.28v-4.05h-14.11v-8.76h14.11v-3.38h-14.11v-6.08h14.11v-4.05.02ZM443.85,213.83h-5.64v26.31h5.64v-12.14h15.99v12.14h5.64v-26.31h-5.64v10.11h-15.99v-10.11ZM194.65,253.63c.56-5.81-11.54-5.25-16.46-2.7-13.83,7.14,1.16,22.3,16.34,15.43l.13-2.59c-2.98.14-4.77,2.03-7.96,2.05-13.61.09-13.58-15.77,1.79-14.17,2.76.29,3.64,1.89,6.18,2v-.02ZM210.42,249.08c-17.24.68-16.02,20.86,3.48,18.67,15.68-1.73,13.61-19.35-3.48-18.67ZM413.75,253.63c1-4.89-8.69-5.11-13.39-3.87-12.29,3.24-10.41,17.14,3.51,18.04,4.14.27,11.32-.2,9.88-4.05-5.2,1.15-7.4,3.27-13.07.95-9-3.67-5.02-14.3,6.9-13.06,2.76.29,3.64,1.89,6.18,2ZM505.9,253.63c1.07-4.68-7.84-5.07-12.45-3.87-14.42,3.78-9.91,20.2,8,17.86,3.17-.41,5.39-1.42,4.45-3.87-4.73,1.37-7.9,3.18-13.07.95-11.88-5.11,1-18.54,13.07-11.08v.02ZM253.87,267.79c.88-.63-3.39-16.08-4.2-17.55s-.97-.72-1.63.18c-.72.99-6.77,12.75-8.25,11.96-2.07-3.38-3.61-8.27-6.36-11.26-.6-.63.13-1.22-2.1-.88l-4.26,16.87c1.35,1.22,2.38.77,3.1-.47,1.25-2.14,1.82-7.16,2.07-9.64,2.13-.27,1.51.07,2.1.86,1.63,2.16,2.88,5.99,4.7,8.09.72.83.88,1.42,2.6,1.17l6.58-10.79,2.82,11.01,2.82.45h0ZM269.86,262.39l-8.9-12.82-5.17,18.2,2.88-.38,2.76-11.06,8,11.46,6.58-10.11c2.1-.29,1.19.63,1.54,1.58.69,2,1,10.92,5.49,7.5-2.76-4.86-2.19-11.51-4.58-16.24-.47-.97.25-1.13-1.98-.92l-6.62,12.82v-.02ZM289.62,249.57h-3.76v13.15c0,.41,2.88,3.56,3.79,4.03,4.92,2.59,15.96.54,15.96-4.03v-13.15h-3.76v13.83c0,2.45-12.23,3.2-12.23-.68v-13.15ZM329.12,262.39l-17.87-12.82v18.22l2.82-1.01v-11.8l17.87,12.82v-18.22h-2.82v12.82ZM340.41,249.57h-2.82v17.55h2.82v-17.55ZM361.11,249.57h-16.93v2.03h6.58v15.52h2.82v-15.52h7.52v-2.03ZM379.89,249.57c-2.6-1.73-8.28,5.92-8.47,7.41l-5.77-6.62-3.61-.11c3.86,6.4,9.78,9.73,7.52,17.52,4.8-.41,2.13-5.74,3.26-8.78.56-1.58,8.28-8.63,7.09-9.41h-.03ZM418.45,249.57v17.55h2.82v-8.76h13.17v8.78h2.82v-17.55h-2.82v6.76h-12.64l-.53-6.76h-2.82v-.02ZM458.9,249.57v13.15c0,2.82-11.19,5.11-12.26-.63-.66-3.49.72-7.79-.09-11.4l-.75-.81-2.88-.29v13.15c0,4.73,12.38,7.05,16.96,3.4.63-.5,2.79-3.69,2.79-4.08v-12.48h-3.76v-.02ZM467.36,249.57v17.21c5.71,3.31,2.88-4.64,4.23-7.07,3.35,2.32,6.3,8.45,11.76,7.75l-8.47-8.09c5.52-.25,9.09-4.1,6.02-7.7s-8.78-1.71-13.54-2.09ZM510.6,249.57v17.21c6.15,3.92,2.82-7.09,3.76-7.77h11.7c1.63.16-.94,8.31,1.98,8.76l2.35-1.01v-17.21h-3.76v6.76h-11.7l-.53-6.76h-3.76l-.03.02ZM3198.12,399.32v-86.67l-1.41-1.01H2.35l-1.41,1.01v86.67h3197.18Z" fill="#fdfdfd"/><path d="M494.61,73.54l1,15.2c-1.29,32.43-19.72,63.4-55.09,83.92-24.93,14.48-63.08,27.34-94.53,15.9-4.86-1.78-10.47-5.99-14.33-7.3-3.54-1.19-5.61,2.86-6.96,4.75-4.55,6.4-6.93,13.96-8.28,21.04l-10.79,8.11c1.6-12.86,7.27-26.67,16.43-37.79,5.58-6.78,21.01-16.94,30.29-21.44,22.86-11.1,54.59-13.63,74.59-27.43,1.07-.74,8.06-6.44,8.31-6.87s.56-1.53-.34-1.58c-1.47,0-3.01-.16-4.48.16-5.83,1.28-16.4,7.14-23.95,9.12-27.09,7.09-50.83,4.64-74.53,20.72l-14.08,13.15c-5.93-33.27,25.93-59.17,70.33-65.23,25.65-3.49,47.22-3.29,72.3-10.88,12.01-3.63,20.35-8.92,30.82-12.95,1.13-.43,1.79-.92,3.32-.65l-.03.05Z" fill="#319053"/><path d="M3198.12,399.32H.94v-86.67l1.41-1.01h3194.36l1.41,1.01v86.67ZM3194.36,314.32H4.7v84.32h3189.65v-84.32Z"/><path d="M376.12,22.93c14.05,15.63,28.53,31.33,37.62,48.9.97,1.89,6.77,14.05,6.52,14.8-.47,1.46-12.73,1.58-15.36,1.82-28.12,2.73-56.56,8-76.28,23.51-1.03-1.37.88-3.56,1.69-4.86,4.55-7.27,13.42-15.52,20.88-21.46,2.01-1.6,12.32-7.88,12.67-8.45.41-.68.38-2.12-1.35-1.64-36.34,17.95-65.56,39.68-61.58,73.85.38,3.27,2.35,6.91,2.7,10.23.5,4.8-1.16,8.96-.82,13.74-1.1.11-1.44-1.19-1.88-1.35l-11.44-13.74c-.44-.61-1.63-.97-1.72-1.1-31.13-47.32,24.9-78.63,61.11-110.97,8.09-7.23,17.5-15.54,20.73-24.59,3.07.38,4.33.95,6.58,1.35l-.06-.02Z" fill="#329153"/><path d="M299.96,172l-.44,2.68c-66.97-25.61-85.72-88.27-38.47-131.46,26.81-24.5,71.33-36.42,114.19-30.11,45.87,6.76,84.94,35.23,91.24,68.74l-11.32,3.13c-5.27-27.57-33.42-51.8-70.05-60.74-3.2-.79-6.05-.81-8.97-1.33-2.26-.41-3.51-.97-6.58-1.35-98.08-12.05-160.53,72.97-97.32,126.15,3.89,3.27,11.48,7.12,14.58,10.11,4.7,4.53,5.52,10.52,13.17,14.17l-.03.02Z" fill="#2b4a81"/><path d="M1906.08,35.74l23.99,41.15,25.37-41.15h36.21c.16,1.67.25,1.17-1.41,1.33-4.8.5-9.59-.18-10.75,4.44,1.63,16.62-2.32,35.61-.13,51.94.44,3.18,2.07,4.12,6.4,4.86,2.32.38,6.65-.77,5.89,1.51h-47.03c-.16-1.67-.25-1.17,1.41-1.33,2.85-.29,10.82-.38,10.82-3.72v-51.6l-35.24,56.67-35.27-56.67v48.9c0,.56,2.38,3.83,3.26,4.41,2.1,1.4,5.02,1.49,7.62,1.98,1.54.29,2.76-.72,2.29,1.35h-31.04c-.47-2.07.78-1.06,2.29-1.35,6.49-1.26,9.53-1.6,10.79-7.14-1-14.93,1.6-31.04.13-45.83-.38-3.81-.63-7.03-6.55-8.11-2.51-.45-7.4.56-6.65-1.64h37.63Z" fill="#030303"/><path d="M1777.72,35.74l25.4,41.82,23.99-41.82h36.68c.75,2.27-3.57,1.1-5.89,1.51-4.86.83-5.96,2.07-6.36,5.54-2.04,16.26,1.57,34.75.09,51.26.25,2.39,3.39,3.74,6.27,4.28,2.35.43,6.65-.79,5.89,1.51h-47.03c-.75-2.34,4.39-1.08,6.87-1.49,3.04-.5,6.3-3.49,6.3-5.59v-50.25l-34.33,57.34-2.45-.41-33.77-56.26v50.92c0,2.34,7.46,3.9,9.91,4.37,1.5.29,2.76-.72,2.29,1.35h-30.1l9.47-3.67,2.67-4.14c-.94-15.65,1.54-32.32.13-47.86-.31-3.63-.78-5.88-6.36-6.91-2.32-.43-6.68.83-5.93-1.49h36.21l.06-.02Z" fill="#040404"/><path d="M2611.36,35.74c.75,2.27-3.54,1.1-5.89,1.51-1.82.32-6.33,2.16-6.33,3.56v23.94h31.04v-24.62c0-2.45-8.69-2.84-10.82-3.04-1.66-.18-1.57.34-1.41-1.33h47.03c.78,2.25-3.57,1.1-5.89,1.51s-4.45,1.06-5.83,2.55l-.47,54.95c1.63,3.87,6.55,3.31,10.79,3.74,1.66.18,1.57-.34,1.41,1.33h-47.03c-.16-1.67-.25-1.17,1.41-1.33,2.85-.29,10.82-.38,10.82-3.72v-25.97h-31.04v25.97c0,1.4,4.48,3.24,6.33,3.56,2.35.41,6.65-.77,5.89,1.51h-47.03c-.75-2.3,4.36-1.13,6.84-1.51,4.77-.72,5.96-2.93,6.36-6.22,2.01-15.81-1.57-33.85-.09-49.91-1.88-5.18-5.93-4.59-11.73-5.09-1.72-.16-1.54.23-1.41-1.35h47.03l.03-.05Z" fill="#020202"/><path d="M3010.06,35.74c.75,2.27-3.54,1.1-5.89,1.51-1.82.32-6.33,2.16-6.33,3.56v23.94h31.04v-24.62c0-2.45-8.69-2.84-10.82-3.04-1.66-.18-1.57.34-1.41-1.33h47.03c.78,2.25-3.57,1.1-5.89,1.51s-4.45,1.06-5.83,2.55l-.47,54.95c1.63,3.87,6.55,3.31,10.79,3.74,1.66.18,1.57-.34,1.41,1.33h-47.03c-.16-1.67-.25-1.17,1.41-1.33,2.85-.29,10.82-.38,10.82-3.72v-25.97h-31.04v25.97c0,1.4,4.48,3.24,6.33,3.56,2.35.41,6.65-.77,5.89,1.51h-47.03c-.75-2.3,4.36-1.13,6.84-1.51,4.77-.72,5.96-2.93,6.36-6.22,2.01-15.81-1.57-33.85-.09-49.91-1.88-5.18-5.93-4.59-11.73-5.09-1.72-.16-1.54.23-1.41-1.35h47.03l.03-.05Z" fill="#020202"/><path d="M1348.45,35.74c.78,2.25-3.57,1.13-5.89,1.51-3.64.61-7.27,2.68-7.27,5.59v21.91h31.98v-22.59c0-2.36-4.3-4.39-7.27-4.91-2.32-.38-6.65.74-5.89-1.51h47.03c.75,2.3-3.54,1.06-5.89,1.51-4.67.88-5.96,2.27-6.36,5.54-2.07,16.24,1.6,34.77.09,51.26.25,2.39,3.39,3.74,6.27,4.28,2.35.43,6.65-.79,5.89,1.51h-47.03c-.78-2.25,3.57-1.13,5.89-1.51,3.64-.61,7.27-2.68,7.27-5.59v-23.94h-31.98v23.94c0,2.88,3.64,4.95,7.27,5.59,2.32.38,6.65-.74,5.89,1.51h-47.03c-.75-2.27,3.57-1.1,5.89-1.51,4.86-.83,5.96-2.07,6.36-5.54,2.04-16.26-1.57-34.75-.09-51.26-.25-2.39-3.39-3.74-6.27-4.28-2.35-.43-6.65.79-5.89-1.51,0,0,47.03,0,47.03,0Z" fill="#030303"/><path d="M2822.47,35.74c16.18,1.08,29.28,7.14,27.78,19.93-.88,7.45-8.21,11.67-17.46,13.81-1,.23-1.69-.5-1.38.99,8.18,6.94,15.11,17.14,23.52,23.6,2.6,2,5.3,3.63,9.37,3.74v2h-29.13l-28.88-28.87-4.99-.14v23.27c0,3.31,7.78,4.03,10.82,4.41,1.57.2,1.6-.41,1.41,1.33h-46.09c-.75-2.27,3.57-1.1,5.89-1.51,4.86-.83,5.96-2.07,6.36-5.54,2.04-16.26-1.57-34.75-.09-51.26-1.16-4.62-5.96-3.94-10.75-4.44-1.66-.18-1.57.34-1.41-1.33,17.72.86,37.53-1.15,55,0h.03ZM2801.3,67.45c16.4.83,28.19-1.82,27.31-15.2-.82-12.27-12.54-13.83-27.31-13.13v28.33Z" fill="#030303"/><path d="M973.04,34.59c11.44-.99,24.52-.36,34.68,3.74,38,15.38,25.87,59.98-18.97,62.84-67.19,4.3-70.64-61.87-15.71-66.58ZM996.43,41.37c-9.16-6.1-23.67-4.35-30.54,2.91-9.94,10.47-11.07,45.81,7.15,52,37.5,12.73,41.07-43.15,23.42-54.91h-.03Z" fill="#040404"/><path d="M1676.44,34.59c17.18-1.46,34.46.68,46.25,10.29,24.68,20.07,7.59,54.01-30.54,56.28-67.54,4.05-69.48-61.96-15.71-66.58ZM1682.99,37.95c-23.74,2.34-22.76,34.05-17.87,46.19,7.62,19.01,35.84,18.33,42.7-.74,4.86-13.54,5.2-48.42-24.83-45.45Z" fill="#040404"/><path d="M1187.66,35.74v19.57h-2.82c-.72-6.31-4.86-12.05-13.45-14.3-.88-.23-5.42-1.22-5.83-1.22h-18.34v25.63c13.83.79,17.4-7.27,18.81-15.52h2.79v34.39h-2.79c-1.29-7.91-5.61-16.19-18.81-15.52v24.62c0,3.58,13.98,3.24,17.37,3.02,13.95-.9,23.2-6.78,26.75-16.46l2.88-.41-3.76,20.23h-78.04c-.75-2.21,4.14-1.19,6.65-1.64,5.93-1.08,6.18-4.3,6.55-8.11,1.54-15.38-1.07-32.23-.25-47.77-.82-3.02-3.04-4.39-7.05-5.07-2.32-.38-6.65.74-5.89-1.51h75.22l.03.07Z" fill="#040404"/><path d="M2169.39,74.19v-30.7c0-.56-2.38-3.83-3.26-4.41-2.1-1.4-5.02-1.49-7.62-1.98-1.54-.29-2.76.72-2.29-1.35h30.1c.13,2.64-6.74,1.82-9.16,3.56-.22.16-2.13,2.68-2.13,2.86v59.03l-3.32-.65-59.67-51.96v44.19c0,3.74,7.12,5,10.85,5.72,1.54.29,2.76-.72,2.29,1.35h-31.98c-.44-2.05.72-1.08,2.29-1.37,5.3-.97,9.88-.95,10.82-5.77,2.82-14.39-2.01-33.02.13-47.88-.41-4.12-6.05-6.42-11.01-7.64-1.47-.36-2.67.59-2.19-1.42h32.45l43.74,38.45-.03-.02Z" fill="#050505"/><path d="M2043.38,35.74c.75,2.3-4.36,1.15-6.84,1.51-4.61.7-5.52,2.59-6.08,5.74-1.72,9.41-1.29,29.86-.22,39.62.97,8.96,5.36,14.77,19.28,14.55,12.35-.18,19.97-6.82,21.13-15.23,1.76-12.68-1.13-27.43-.19-40.32-1.35-3.58-5.61-3.72-9.72-4.53-1.54-.29-2.76.72-2.29-1.35h31.04c.75,2.16-3.39,1.17-5.71,1.64-3.14.61-5.3,1.96-6.3,4.23-.85,10.05.44,20.18-.22,30.2-.34,5.18-.78,13.6-3.86,18.13-9.63,14.14-48.94,15.38-60.23,2.23-9.75-11.33-1.79-37.77-4.73-51.24-1.44-3.83-5.49-3.36-9.66-3.87-1.57-.2-1.6.41-1.41-1.33h46.09-.09Z" fill="#040404"/><path d="M2716.68,35.74c.75,2.3-4.36,1.15-6.84,1.51-4.61.7-5.52,2.59-6.08,5.74-1.72,9.41-1.29,29.86-.22,39.62.97,8.96,5.36,14.77,19.28,14.55,12.35-.18,19.97-6.82,21.13-15.23,1.76-12.68-1.13-27.43-.19-40.32-1.35-3.58-5.61-3.72-9.72-4.53-1.54-.29-2.76.72-2.29-1.35h31.04c.75,2.16-3.39,1.17-5.71,1.64-3.14.61-5.3,1.96-6.3,4.23-.85,10.05.44,20.18-.22,30.2-.34,5.18-.78,13.6-3.86,18.13-9.63,14.14-48.94,15.38-60.23,2.23-9.75-11.33-1.79-37.77-4.73-51.24-1.44-3.83-5.49-3.36-9.66-3.87-1.57-.2-1.6.41-1.41-1.33h46.09-.09Z" fill="#040404"/><path d="M1041.9,76.89h2.82c-.66,13.06,28,28.87,41.89,16.89,13.89-11.98-21.57-19.75-31.29-24.82-26.24-13.72-10.91-37.07,18.91-34.48,5.14.45,15.46,4.84,17.93,4.66,4.51-.32,2.29-4.82,6.15-4.73l.94,21.58-2.92-.41c-1.91-9.21-12.95-18.29-26.71-17.86-9,.27-16.37,5.65-12.1,12.12,5.77,8.81,37.59,11.4,45.28,24.19,9.63,16.08-12.35,29.14-33.99,27.09-6.71-.63-16.43-6.76-21.73-3.33-2.41,1.55-1.25,4.05-5.14,3.38v-24.28h-.03Z" fill="#040404"/><path d="M2953.62,34.39v22.25c-4.45.32-5.17-5.07-7.37-7.86-11.63-14.86-40.26-13.24-49.85,2.23-7.46,12.03-6.27,38.99,13.7,44.62,16.65,4.68,30.51-1.51,41.61-9.95,1.03,4.68-.97,6.35-5.71,9.05-21.57,12.34-61.49,7.14-73.43-11.28-16.46-25.38,13.51-51.94,51.17-48.85,5.83.47,18.56,4.77,21.85,4.55,4.58-.32,3.26-5.43,8.03-4.73v-.02Z" fill="#060606"/><path d="M2554.92,34.39v22.25c-4.45.32-5.17-5.07-7.37-7.86-11.63-14.86-40.26-13.24-49.85,2.23-7.46,12.03-6.27,38.99,13.7,44.62,16.65,4.68,30.51-1.51,41.61-9.95,1.03,4.68-.97,6.35-5.71,9.05-21.57,12.34-61.49,7.14-73.43-11.28-16.46-25.38,13.51-51.94,51.17-48.85,5.83.47,18.56,4.77,21.85,4.55,4.58-.32,3.26-5.43,8.03-4.73v-.02Z" fill="#060606"/><path d="M922.47,34.39v22.25c-4.45.32-5.17-5.07-7.37-7.86-11.63-14.86-40.26-13.24-49.85,2.23-7.46,12.03-6.27,38.99,13.7,44.62,16.65,4.68,30.51-1.51,41.61-9.95,1.03,4.68-.97,6.35-5.71,9.05-21.57,12.34-61.49,7.14-73.43-11.28-16.46-25.38,13.51-51.94,51.17-48.85,5.83.47,18.56,4.77,21.85,4.55,4.58-.32,3.26-5.43,8.03-4.73v-.02Z" fill="#060606"/><path d="M2328.29,35.74v17.55l-2.92-.41c-2.98-10.54-12.48-14.59-27.18-13.09v54.3c0,2.03,3.83,3.76,6.33,4.23,2.35.43,6.65-.79,5.89,1.51h-47.03c-.75-2.39,3.79-1.04,6.05-1.4,2.7-.43,7.12-2.16,7.12-4.35v-54.3c-13.8-1.42-26.02,2.68-26.34,13.49h-2.82v-17.55h80.89Z" fill="#030303"/><path d="M1291.1,56.67l-2.92-.41c-10.91-26.71-54.18-22.52-58.1,5.54-3.07,21.82,10.63,44.05,45.65,32.07l13.48-7.52c-.13,2.3.91,4.23-1.38,6.08-8.72,7.12-26.93,9.55-39.51,8.74-68.13-4.35-47.88-78.6,21.35-65.23,6.71,1.28,17.31,6.94,18.62-1.53h2.79s0,22.25,0,22.25Z" fill="#040404"/><path d="M1625.87,56.67l-2.92-.41c-10.91-26.71-54.18-22.52-58.1,5.54-3.07,21.82,10.63,44.05,45.65,32.07l13.48-7.52c-.13,2.3.91,4.23-1.38,6.08-8.72,7.12-26.93,9.55-39.51,8.74-68.13-4.35-47.88-78.6,21.35-65.23,6.71,1.28,17.31,6.94,18.62-1.53h2.79s0,22.25,0,22.25Z" fill="#040404"/><path d="M2377.21,35.74c.78,2.25-3.57,1.13-5.89,1.51-6.3.99-2.1,5.79-.25,8.65,3.76,5.79,11.48,16.1,16.3,21.35.66.7.97,1.73,2.54,1.55l20.98-26.13c1.38-4.77-2.19-4.35-6.99-5.5-1.47-.36-2.67.59-2.19-1.42h27.28c.19,2.21-4.55,1.91-7.09,3.36-1.41.81-3.45,2.97-4.58,4.12-3.45,3.49-24.08,27.61-24.8,30.11-.78,2.77-.69,20.02.63,22.18,2.13,3.51,7.81,2.64,11.88,2.97,1.72.14,1.5-.2,1.38,1.35h-49.85c-.13-1.6-.31-1.19,1.41-1.35,4.64-.41,9.59.45,11.82-3.67,1.35-2.48,1.47-15.92.66-18.78-8.47-9.98-15.08-21.73-23.83-31.46-3.64-4.05-4.14-5.34-10.53-7.3-1.38-.43-2.57.43-2.07-1.51h43.27l-.06-.05Z" fill="#040404"/><path d="M1404.88,99.84c-.44-1.58.25-1.08,1.22-1.51,3.42-1.55,7.27-2.34,9.31-5.43l36.97-58.49c1.88-.02,2.48,1.49,3.17,2.45,14.17,19.48,22.29,41.94,39.13,60.29,1.54,1.24,5.89.47,5.17,2.7h-43.27c-.75-2.25,3.54-1.13,5.89-1.51.91-.16,4.3-1.13,4.48-1.64,1.54-4.39-5.55-10.61-6.74-14.98h-31.7c-1.66,3.54-6.21,8.47-5.61,12.21.72,4.35,5.42,3.58,9.88,4.48,1.6.32,2.6-.5,2.16,1.44h-30.1l.03-.02ZM1431.22,77.57h26.34c-4.14-6.4-7.21-13.36-11.76-19.59-.56-.79,0-1.62-1.88-1.33l-12.7,20.92Z" fill="#040404"/><path d="M701.49,99.84c-.44-1.58.25-1.08,1.22-1.51,6.52-2.97,7.31-2.95,11.19-8.15l35.12-55.77c1.69-.16,1.79.92,2.38,1.67,13.23,17.12,21.26,40.56,35.21,57.03.94,1.13,2.04,2.84,3.39,3.65,2.35,1.44,6.77,1.04,6.52,3.09h-43.27c-.19-1.73-.16-1.13,1.41-1.33,3.42-.43,9-.07,9-3.72,0-1.06-5.77-11.17-6.74-12.09-1.13-1.04-1.41-.97-3.14-1.13-5.58-.47-20.88-.47-26.43,0-1.16.09-1.88,0-2.79.7-.44.32-4.48,7.25-4.73,8.06-1.94,6.78,1.63,6.53,8.69,8.04,1.57.34,2.63-.54,2.19,1.44h-29.16l-.06.02ZM727.82,77.57h25.4l-11.76-20.92c-1.57-.36-2.88,2.73-3.45,3.6-3.67,5.65-7.21,11.46-10.19,17.32Z" fill="#040404"/><path d="M660.13,35.74c.78,2.3-3.76,1.13-6.02,1.42-3.73.5-6.43,1.37-7.09,4.37l.34,51.6c1.69,3.76,16.74,3,21.67,2.66,14.49-1.06,20.25-9.71,23.08-18.87h2.79l-2.82,22.93h-79.92c-.47-2.39,5.02-.95,8.21-1.87,4.48-1.28,4.67-6.06,4.99-9.23,1.16-11.71,1.03-29.46,0-41.22-.31-3.67,0-8.69-5.83-9.98-2.73-.61-8.06.38-7.37-1.8,0,0,47.97,0,47.97,0Z" fill="#020202"/><path d="M2238.97,35.74c.75,2.27-3.57,1.1-5.89,1.51-4.86.83-5.96,2.07-6.36,5.54-2.04,16.26,1.57,34.75.09,51.26.25,2.39,3.39,3.74,6.27,4.28,2.35.43,6.65-.79,5.89,1.51h-47.03c-.75-2.34,4.39-1.08,6.87-1.49,5.49-.9,6.02-4.91,6.36-8.27,1.16-11.53,1.72-35.36-.16-46.49-.53-3.22-1.72-5.34-6.4-6.19-2.51-.45-7.4.56-6.65-1.64h47.03l-.03-.02Z" fill="#030303"/><path d="M1880.21,154.46l24.46,37.09,23.95-37.09h19.75c.72,2.25-2.82,1.06-4.99,1.49-3.79.77-4.14,2.36-4.48,4.89-1.5,11.73,1.16,25.16.09,37.09.44,1.98,1.69,3.06,4.36,3.6,2.16.43,5.71-.77,4.99,1.49h-29.16v-1.35c2.07.65,9.41-.9,9.41-2.36v-35.41l-25.87,39.12-2.54-1.55-24.27-37.57v35.41c0,1.46,7.34,3.02,9.41,2.36v1.35h-23.52l7.56-3.02c1.66-1.35,1.69-2.34,1.91-4.03.97-7.75,1.32-27.61-.13-35.05-.82-4.17-2.51-3.94-7.12-5.05-1.47-.36-2.67.59-2.19-1.42h18.37Z" fill="#375999"/><path d="M1402.06,203.04c-.72-2.25,2.82-1.06,4.99-1.49,3.79-.77,4.14-2.36,4.48-4.89,1.51-11.73-1.16-25.16-.09-37.09-.44-1.98-1.69-3.06-4.36-3.6-2.16-.43-5.71.77-4.99-1.49h37.15c30.63,0,40.92,30.32,18.78,43.15-3.45,2-13.67,5.41-17.84,5.41h-38.13ZM1420.87,199.66c16.96,2.79,32.26-1.24,36.4-14.03,5.64-17.43-10.79-33.78-36.4-26.78v40.81Z" fill="#355898"/><path d="M2444.43,154.46c22.64,1.91,24.99,21.64,2.35,24.28l.16,1.58c5.64,4.84,9.94,11.01,15.8,15.65,4.83,3.83,5.71,3.74,12.07,5.54,1.44.41,2.54-.38,2.07,1.53h-18.81l-21.16-22.25-8-.68v17.21c0,.61,1.91,2.86,2.82,3.38,3.1,1.71,7.9-.11,7.53,2.36h-29.16c-.72-2.25,2.82-1.06,4.99-1.49,3.79-.77,4.14-2.36,4.48-4.89,1.5-11.73-1.16-25.16-.09-37.09-.44-1.98-1.69-3.06-4.36-3.6-2.16-.43-5.71.77-4.99-1.49,10.88.68,23.7-.9,34.33,0l-.03-.05ZM2428.91,178.09c29.5,2.93,30.38-25.59,0-20.23v20.23Z" fill="#355898"/><path d="M1697.32,203.04c-6.18-.05-12.45.16-18.62-.14l-21.35-22.12-8-.68v17.21c0,.61,1.91,2.86,2.82,3.38,3.1,1.71,7.9-.11,7.53,2.36h-29.16c-.72-2.25,2.82-1.06,4.99-1.49,3.79-.77,4.14-2.36,4.48-4.89,1.5-11.73-1.16-25.16-.09-37.09-.44-1.98-1.69-3.06-4.36-3.6-2.16-.43-5.71.77-4.99-1.49h34.33c.78,0,6.8,1.33,8,1.69,16.34,5.05,11.85,21.69-5.64,22.61l.16,1.58c8.56,6.91,15.36,20.54,29.94,21.35v1.35l-.03-.05ZM1649.38,178.09c29.5,2.93,30.38-25.59,0-20.23v20.23Z" fill="#355898"/><path d="M2211.47,153.96c46-4.53,50.7,46.24,9.06,49.66-45.18,3.74-50.48-45.61-9.06-49.66ZM2212.38,156.67c-24.33,2.64-22.51,41.15-1.88,44.21,24.77,3.67,29.79-15.92,26.46-29.1-2.38-9.53-9.72-16.71-24.58-15.09v-.02Z" fill="#375999"/><path d="M2366.64,153.96c46-4.53,50.7,46.24,9.06,49.66-45.18,3.74-50.48-45.61-9.06-49.66ZM2367.55,156.67c-24.33,2.64-22.51,41.15-1.88,44.21,24.77,3.67,29.79-15.92,26.46-29.1-2.38-9.53-9.72-16.71-24.58-15.09v-.02Z" fill="#375999"/><path d="M2595.12,153.96c46-4.53,50.7,46.24,9.06,49.66-45.18,3.74-50.48-45.61-9.06-49.66ZM2596.06,156.67c-24.33,2.64-22.51,41.15-1.88,44.21,24.77,3.67,29.79-15.92,26.46-29.1-2.38-9.53-9.72-16.71-24.58-15.09v-.02Z" fill="#375999"/><path d="M2695.04,190.23v-29.35c0-2-2.51-4.37-5.36-4.91-2.16-.41-5.71.74-4.99-1.49h24.46c.25,2.61-5.11.45-8.06,2.66-.82.61-2.29,3.81-2.29,4.44v42.16l-46.09-38.45v31.37c0,2,2.51,4.37,5.36,4.91,2.16.41,5.71-.74,4.99,1.49h-24.46c-.72-2.23,3.29-1.08,5.68-1.64,3.76-.9,4.17-3.65,4.55-6.19,1.03-7.07,1.44-26.17.16-33-.78-4.14-7.09-5.43-11.85-6.37-1.54-.29-2.76.72-2.29-1.35h18.34c3.26,0,34.96,32.82,41.86,35.74v-.02Z" fill="#335797"/><path d="M2104.49,190.23v-29.35c0-2-2.51-4.37-5.36-4.91-2.16-.41-5.71.74-4.99-1.49h24.46c.25,2.61-5.11.45-8.06,2.66-.82.61-2.29,3.81-2.29,4.44v42.16l-46.09-38.45v31.37c0,2,2.51,4.37,5.36,4.91,2.16.41,5.71-.74,4.99,1.49h-24.46c-.72-2.23,3.29-1.08,5.68-1.64,3.76-.9,4.17-3.65,4.55-6.19,1.03-7.07,1.44-26.17.16-33-.78-4.14-7.09-5.43-11.85-6.37-1.54-.29-2.76.72-2.29-1.35h18.34c3.26,0,34.96,32.82,41.86,35.74v-.02Z" fill="#335797"/><path d="M1697.32,201.69c3.51.2,7.56.2,9.88-2.03l.44-40.79c-.16-1.1-1.19-1.78-2.45-2.3-3.01-1.22-7.46.2-6.93-2.09h51.73l.94,10.79c-1.98.2-1.54.09-2.1-.86-1.41-2.3-2.32-7.25-7.78-7.25h-23.05v18.9h18.34c3.83,0,7.15-4.1,6.11-6.76h2.82v16.87h-2.82c.69-2.75-1.72-7.41-6.11-7.41h-18.34v19.91c0,.5,2.29,1.53,3.32,1.67,3.48.47,16.65.27,20.25-.29,6.46-.97,8.21-4.53,11.63-7.86.78-.77,0-1.67,2.41-1.28l-5.27,12.18c-17.68-.18-35.37.09-53.02-.05v-1.35h-.03Z" fill="#335797"/><path d="M1527.13,154.46l.94,10.79c-1.98.2-1.54.09-2.1-.86-1.41-2.3-2.32-7.25-7.78-7.25h-23.05v18.9h18.34c3.83,0,7.15-4.1,6.11-6.76h2.82v16.87h-2.82c.69-2.75-1.72-7.41-6.11-7.41h-18.34v19.91c0,.5,2.29,1.53,3.32,1.67,3.48.47,16.65.27,20.25-.29,6.46-.97,8.21-4.53,11.63-7.86.78-.77,0-1.67,2.41-1.28l-4.7,12.14h-52.67c-.72-2.23,2.79-1.08,4.99-1.49,3.57-.68,4.14-1.78,4.48-4.21,1.66-12.09-1.32-26.15-.06-38.47-.16-1.1-1.19-1.78-2.45-2.3-3.01-1.22-7.46.2-6.93-2.09h51.73-.03Z" fill="#335797"/><path d="M1039.08,154.46l.94,10.79c-1.98.2-1.54.09-2.1-.86-1.41-2.3-2.32-7.25-7.78-7.25h-23.05v18.9h18.34c3.83,0,7.15-4.1,6.11-6.76h2.82v16.87h-2.82c.69-2.75-1.72-7.41-6.11-7.41h-18.34v19.91c0,.5,2.29,1.53,3.32,1.67,3.48.47,16.65.27,20.25-.29,6.46-.97,8.21-4.53,11.63-7.86.78-.77,0-1.67,2.41-1.28l-4.7,12.14h-52.67c-.72-2.23,2.79-1.08,4.99-1.49,3.57-.68,4.14-1.78,4.48-4.21,1.66-12.09-1.32-26.15-.06-38.47-.16-1.1-1.19-1.78-2.45-2.3-3.01-1.22-7.46.2-6.93-2.09h51.73-.03Z" fill="#335797"/><path d="M2037.73,154.46l.94,10.79c-1.98.2-1.54.09-2.1-.86-1.41-2.3-2.32-7.25-7.78-7.25h-23.05v18.9h18.34c3.83,0,7.15-4.1,6.11-6.76h2.82v16.87h-2.82c.69-2.75-1.72-7.41-6.11-7.41h-18.34v19.91c0,.5,2.29,1.53,3.32,1.67,3.48.47,16.65.27,20.25-.29,6.46-.97,8.21-4.53,11.63-7.86.78-.77,0-1.67,2.41-1.28l-4.7,12.14h-52.67c-.72-2.23,2.79-1.08,4.99-1.49,3.57-.68,4.14-1.78,4.48-4.21,1.66-12.09-1.32-26.15-.06-38.47-.16-1.1-1.19-1.78-2.45-2.3-3.01-1.22-7.46.2-6.93-2.09h51.73-.03Z" fill="#335797"/><path d="M2312.77,154.46c7.46.68,17.37,5.38,18.34,11.1,2.48,14.55-15.58,17.7-31.98,15.2v16.53c0,.61,2.26,3.31,3.23,3.76,3.01,1.4,7.65-.59,7.12,1.98h-29.16c-.72-2.25,2.82-1.06,4.99-1.49,3.79-.77,4.14-2.36,4.48-4.89,1-7.95,1.38-28.81-.13-36.4-.22-1.08-.72-2.68-1.82-3.42-2.73-1.89-8,.25-7.49-2.36,10.22.65,22.48-.9,32.45,0l-.03-.02ZM2299.13,178.76c9.69,1.24,19.72-.05,20.73-8.4,1.19-10.02-7.34-14.86-20.73-12.52v20.92Z" fill="#345798"/><path d="M2559.62,154.46l-43.27,45.88h27.75c1,0,7.4-1.44,8.5-2,2.98-1.51,4.01-4.66,5.61-6.8.72-.95-.06-1.67,2.35-1.31l-2.82,12.82h-55.47l43.27-45.88h-24.93c-.85,0-5.99,1.64-6.77,2.23-1.69,1.31-2.04,4.05-2.88,5.74-.53,1.08.5,1.8-2.13,1.49l.94-12.14h49.85v-.02Z" fill="#355898"/><path d="M1324.96,187.52h2.82c-1.66,10.38,19.97,18.06,29.66,10.83,13.95-10.43-20.54-17.93-27.78-23.31-13.11-9.75.44-22.66,18.22-21.17,5.11.43,14.52,5.43,14.74-.05h2.76v16.15h-2.82c.75-8.69-12.82-16.46-24.17-12.27-3.07,1.15-6.15,3.87-5.89,6.51.82,8.74,32.98,12.57,36.25,22.59,3.83,11.85-10.38,18.2-25.37,16.85-4.8-.43-15.68-5.41-15.65.02h-2.76v-16.15h0Z" fill="#355898"/><path d="M1139.69,154.46c.38,2.45-4.39.68-7.52,2.36-1.54.83-2.29,2.21-2.6,3.54-1.41,5.61-.88,27.09,1.35,32.43,5.05,12.09,31.95,9.68,35.81-1.73,1.82-5.38,2.32-25.25.94-30.7-.31-1.31-1.07-2.68-2.6-3.54-3.14-1.69-7.87.09-7.52-2.36h24.46c.56,2.32-3.23.81-6.15,1.98-1.13.45-2.95,2.07-3.23,3.09-2.67,10,3.48,25.77-2.95,35.65-6.43,9.89-30.1,10.92-41.2,5.43-14.61-7.21-5.99-29.14-8.75-40.27-.31-1.31-1.07-2.68-2.6-3.54-3.14-1.69-7.87.09-7.52-2.36h30.1v.02Z" fill="#355898"/><path d="M1245.95,203.04c-.56-2.05,3.14-1.6,5.2-2.68,1.1-.59,1.85-1.4,2.51-2.25l26.15-43.85,2.35-.47,26.62,44.32c1.47,2.75,4.45,2.61,7.34,3.51,1.13.36,1.69-.32,1.32,1.42h-27.28c-.19-2.32,3.73-.99,6.15-2.66.75-.52,1.25-.86,1.32-1.69.06-.95-4.7-9.84-5.71-10.77-1.13-1.04-1.41-.97-3.14-1.13-4.45-.36-16.37-.38-20.79,0-1.03.09-2.07,0-2.79.7l-6.05,11.17c.13,2.12,3.42,2.23,5.39,2.84,1.38.43,2.54-.43,2.07,1.51h-20.69l.03.02ZM1289.22,184.14c-2.38-5.34-5.52-12.41-9.22-17.34-.34-.45-1.47-1.89-2.07-1.55l-10.35,18.9h21.63Z" fill="#375999"/><path d="M2711.03,203.04c-.56-2.05,3.14-1.6,5.2-2.68,1.1-.59,1.85-1.4,2.51-2.25l26.15-43.85,2.35-.47,26.62,44.32c1.47,2.75,4.45,2.61,7.34,3.51,1.13.36,1.69-.32,1.32,1.42h-27.28c-.19-2.32,3.73-.99,6.15-2.66.75-.52,1.25-.86,1.32-1.69.06-.95-4.7-9.84-5.71-10.77-1.13-1.04-1.41-.97-3.14-1.13-4.45-.36-16.37-.38-20.79,0-1.03.09-2.07,0-2.79.7l-6.05,11.17c.13,2.12,3.42,2.23,5.39,2.84,1.38.43,2.54-.43,2.07,1.51h-20.69l.03.02ZM2754.27,184.14c-2.38-5.34-5.52-12.41-9.22-17.34-.34-.45-1.47-1.89-2.07-1.55l-10.35,18.9h21.63,0Z" fill="#375999"/><path d="M975.87,156.33c1.29-.9.16-3.09,3.04-2.52l1.88,16.19c-2.07.32-2.13-.74-2.85-1.64-3.89-4.93-4.86-9.64-14.23-11.37-36.37-6.76-40.2,36.67-15.08,42.52,13.42,3.13,24.3-.41,31.73-8.58,2.38-.23,1.47,1.1.88,1.98-8.18,12.64-36.5,14.28-49.82,4.77-22.36-15.92-5.8-45.97,27.31-43.85,4.8.32,14.49,4.41,17.18,2.52l-.03-.02Z" fill="#385a99"/><path d="M1619.06,156.33c1.29-.9.16-3.09,3.04-2.52l1.88,16.19c-2.07.32-2.13-.74-2.85-1.64-3.89-4.93-4.86-9.64-14.23-11.37-36.37-6.76-40.2,36.67-15.08,42.52,13.42,3.13,24.3-.41,31.73-8.58,2.38-.23,1.47,1.1.88,1.98-8.18,12.64-36.5,14.28-49.82,4.77-22.36-15.92-5.8-45.97,27.31-43.85,4.8.32,14.49,4.41,17.18,2.52l-.03-.02Z" fill="#385a99"/><path d="M1816.53,156.33c1.29-.9.16-3.09,3.04-2.52l1.88,16.19c-2.07.32-2.13-.74-2.85-1.64-3.89-4.93-4.86-9.64-14.23-11.37-36.37-6.76-40.2,36.67-15.08,42.52,13.42,3.13,24.3-.41,31.73-8.58,2.38-.23,1.47,1.1.88,1.98-8.18,12.64-36.5,14.28-49.82,4.77-22.36-15.92-5.8-45.97,27.31-43.85,4.8.32,14.49,4.41,17.18,2.52l-.03-.02Z" fill="#385a99"/><path d="M1080.46,154.46c.19,1.73.16,1.13-1.41,1.33-3.95.5-8.4.16-9.85,3.74l.63,39.3,1,.81c8.09.83,22.79,1.73,28.97-2.68,2.98-2.14,3.76-5.59,7.02-7.45l-4.7,13.49h-52.67c-.72-2.23,2.79-1.08,4.99-1.49,3.57-.68,4.14-1.78,4.48-4.21,1.66-12.09-1.32-26.15-.06-38.47-.16-1.1-1.19-1.78-2.45-2.3-3.01-1.22-7.46.2-6.93-2.09h31.04l-.06.02Z" fill="#335797"/><path d="M1215.88,154.46c.19,1.73.16,1.13-1.41,1.33-3.95.5-8.4.16-9.85,3.74l.63,39.3,1,.81c8.09.83,22.79,1.73,28.97-2.68,2.98-2.14,3.76-5.59,7.02-7.45l-4.7,13.49h-52.67c-.72-2.23,2.79-1.08,4.99-1.49,3.57-.68,4.14-1.78,4.48-4.21,1.66-12.09-1.32-26.15-.06-38.47-.16-1.1-1.19-1.78-2.45-2.3-3.01-1.22-7.46.2-6.93-2.09h31.04l-.06.02Z" fill="#335797"/><path d="M2178.8,154.46v11.46c-2.82.34-1.47-.54-1.98-1.58-1.29-2.68-1.72-4.57-5.8-5.99-2.92-1.01-14.55-2.36-15.58-.09v38.96c.28,1.13.56,2.61,1.76,3.42,2.73,1.89,8-.25,7.49,2.36h-28.22v-1.35c3.61.56,9.41-.68,9.41-3.72v-40.81c-5.86,0-15.58-.63-19.25,3.4-1.72,1.89-1,5.52-4.26,5.36l.94-11.46h55.47l.03.02Z" fill="#345798"/><path d="M1857.2,154.46c.72,2.32-2.79.97-4.99,1.49-3.1.74-4.2,3.49-4.48,5.56-1.07,8.36-1.22,27.5.16,35.72.16.99.53,2.03,1.07,2.93,1.76.97,3.89,1.1,5.89,1.53,1.44.32,2.82-.79,2.32,1.33h-28.22c-.72-2.32,2.79-.97,4.99-1.49,3.1-.74,4.2-3.49,4.48-5.56,1.07-8.36,1.22-27.5-.16-35.72-.16-.99-.53-2.03-1.07-2.93-1.76-.97-3.89-1.1-5.89-1.53-1.44-.32-2.82.79-2.32-1.33h28.22Z" fill="#345798"/><path d="M1981.3,154.46c.72,2.32-2.79.97-4.99,1.49-3.1.74-4.2,3.49-4.48,5.56-1.07,8.36-1.22,27.5.16,35.72.16.99.53,2.03,1.07,2.93,1.76.97,3.89,1.1,5.89,1.53,1.44.32,2.82-.79,2.32,1.33h-28.22c-.72-2.32,2.79-.97,4.99-1.49,3.1-.74,4.2-3.49,4.48-5.56,1.07-8.36,1.22-27.5-.16-35.72-.16-.99-.53-2.03-1.07-2.93-1.76-.97-3.89-1.1-5.89-1.53-1.44-.32-2.82.79-2.32-1.33h28.22Z" fill="#345798"/><path d="M321.38,213.33c16.34-1.58,28.16,10.99,18.88,20.95-7.49,8.06-24.14,8-31.82.11-7.81-8-.5-19.77,12.95-21.08v.02ZM334.45,220.14c-15.14-10.79-34.33,8.31-16.96,15.2,14.55,5.77,26.87-8.13,16.96-15.2Z" fill="#325084"/><polygon points="443.85 213.83 443.85 223.94 459.84 223.94 459.84 213.83 465.48 213.83 465.48 240.14 459.84 240.14 459.84 228 443.85 228 443.85 240.14 438.2 240.14 438.2 213.83 443.85 213.83" fill="#365487"/><polygon points="398.7 213.83 398.7 217.88 384.59 217.88 384.59 223.94 398.7 223.94 398.7 227.32 384.59 227.32 384.59 236.08 398.7 236.08 398.7 240.14 379.42 240.14 378.01 239.12 378.01 214.84 379.42 213.83 398.7 213.83" fill="#325084"/><path d="M255.79,240.14c-7.21,1.22-6.49-2.5-9.03-6.1l-16.46.45c-1.79,3.83-2.51,6.53-9.31,5.65l17.87-27.66,16.9,27.66h.03ZM244.5,230l-5.17-8.06c-.78,0-6.11,7.41-5.17,8.09h10.35v-.02Z" fill="#325084"/><path d="M504.02,240.14l-5.49-.11-2.85-5.56-16.46-.45c-1.91,3.29-2.63,6.96-9.03,6.1l16.93-27.66,16.9,27.66v.02ZM492.73,230.02l-5.17-8.09c-.78,0-6.11,7.41-5.17,8.09h10.35,0Z" fill="#325084"/><path d="M358.03,213.29c2.57-.29,4.01-.11,6.4.5,4.11,1.04,9.44,4.64,2.54,5.34-1.82.18-9.59-4.73-11.38-.11s13.89,5.29,15.65,10.79c2.19,6.91-5.05,11.13-14.3,10.25s-11.91-9.75-4.89-7.97c1.47.38,1.54,2.39,2.85,3.36,4.67,3.38,14.11.05,9.97-5.14-2.23-2.77-8.5-3.04-11.82-5.02-6.58-3.9-2.85-11.08,4.95-12l.03.02Z" fill="#325084"/><path d="M430.55,214.59l.13,4.64c-3.42-.41-5.05-2.07-8.9-2.07-18.44-.07-18.75,21.55,3.7,18.92,1.79-.2,3.07-1.69,5.2-1.31,2.41,7.79-14.14,5.99-20.07,3.27-19.38-8.87-1.29-31.08,19.94-23.4v-.05Z" fill="#325084"/><path d="M300.78,214.59l.13,4.64c-8-4.01-20.66-1.82-21.67,5.7-1.38,10.2,9.69,13.56,21.67,9.82.53,3.83,0,4.77-5.27,5.32-33.14,3.49-27.09-34.68,5.14-25.47Z" fill="#325084"/><polygon points="206.87 213.83 206.87 236.08 218.16 236.08 218.16 240.14 202.64 240.14 201.23 239.12 201.23 214.84 206.87 213.83" fill="#325084"/><path d="M269.86,262.39l6.62-12.82c2.26-.2,1.51-.02,1.98.92,2.35,4.73,1.82,11.37,4.58,16.24-4.48,3.42-4.8-5.5-5.49-7.5-.31-.92.6-1.87-1.54-1.58l-6.58,10.11-8-11.46-2.76,11.06-2.88.38,5.17-18.2,8.9,12.82v.02Z" fill="#479c65"/><path d="M253.87,267.79l-2.82-.45-2.82-11.01-6.58,10.79c-1.72.25-1.85-.32-2.6-1.17-1.82-2.09-3.04-5.92-4.7-8.09-.6-.79.03-1.15-2.1-.86-.25,2.48-.82,7.5-2.07,9.64-.75,1.24-1.76,1.69-3.1.47l4.26-16.87c2.23-.34,1.51.23,2.1.88,2.76,3.02,4.3,7.88,6.36,11.26,1.44.77,7.52-10.99,8.25-11.96.66-.9.82-1.64,1.63-.18s5.11,16.94,4.2,17.55h0Z" fill="#479c65"/><path d="M210.42,249.08c17.09-.65,19.13,16.94,3.48,18.67-19.5,2.16-20.69-18.02-3.48-18.67ZM208.47,251.76c-11.35,1.87-8.31,15.2,4.26,13.9,12.57-1.31,10.75-16.37-4.26-13.9Z" fill="#479c65"/><path d="M510.6,249.57h3.76l.53,6.76h11.7v-6.76h3.76v17.21l-2.35,1.01c-2.92-.45-.34-8.6-1.98-8.78h-11.7c-.91.68,2.38,11.69-3.76,7.77v-17.21h.03Z" fill="#56a472"/><path d="M467.36,249.57c4.77.38,10.6-1.4,13.54,2.09s-.5,7.45-6.02,7.7l8.47,8.09c-5.46.7-8.4-5.43-11.76-7.75-1.35,2.43,1.47,10.38-4.23,7.07,0,0,0-17.21,0-17.21ZM477.55,256.89c2.92-4.23-.6-5.86-6.46-5.29v5.41l6.46-.09v-.02Z" fill="#479c65"/><path d="M289.62,249.57v13.15c0,3.87,12.23,3.13,12.23.68v-13.83h3.76v13.15c0,4.57-11.04,6.62-15.96,4.03-.88-.47-3.79-3.63-3.79-4.03v-13.15h3.76Z" fill="#479c65"/><polygon points="329.12 262.39 329.12 249.57 331.95 249.57 331.95 267.79 314.07 254.98 314.07 266.78 311.25 267.79 311.25 249.57 329.12 262.39" fill="#479c65"/><path d="M458.9,249.57h3.76v12.48c0,.36-2.16,3.58-2.79,4.08-4.58,3.67-16.96,1.33-16.96-3.4v-13.15l2.88.29.75.81c.82,3.6-.56,7.91.09,11.4,1.07,5.77,12.26,3.45,12.26.63v-13.15.02Z" fill="#479c65"/><path d="M322.54,171.35l-5.68,8.09-14.08-3.38c2.23-2.97,2.13-5.43,1.88-8.76l17.87,4.05Z" fill="#325084"/><path d="M194.65,253.63c-2.54-.11-3.42-1.71-6.18-2-15.36-1.6-15.39,14.26-1.79,14.17,3.2,0,4.99-1.91,7.96-2.05l-.13,2.59c-15.18,6.87-30.16-8.29-16.34-15.43,4.92-2.55,17.03-3.11,16.46,2.7v.02Z" fill="#479c65"/><path d="M413.75,253.63c-2.54-.11-3.42-1.71-6.18-2-11.95-1.24-15.9,9.41-6.9,13.06,5.68,2.32,7.87.2,13.07-.95,1.44,3.83-5.74,4.3-9.88,4.05-13.95-.9-15.8-14.8-3.51-18.04,4.7-1.24,14.39-1.04,13.39,3.87Z" fill="#479c65"/><polygon points="418.45 249.57 421.27 249.57 421.81 256.33 434.44 256.33 434.44 249.57 437.26 249.57 437.26 267.12 434.44 267.12 434.44 258.36 421.27 258.36 421.27 267.12 418.45 267.12 418.45 249.57" fill="#3b965b"/><path d="M505.9,253.63c-12.1-7.48-24.96,5.97-13.07,11.08,5.17,2.23,8.34.43,13.07-.95.94,2.45-1.29,3.47-4.45,3.87-17.9,2.34-22.42-14.08-8-17.86,4.61-1.22,13.51-.81,12.45,3.87v-.02Z" fill="#479c65"/><path d="M379.89,249.57c1.22.81-6.52,7.84-7.09,9.41-1.13,3.04,1.54,8.38-3.26,8.78,2.26-7.79-3.67-11.13-7.52-17.52l3.61.11,5.77,6.62c.19-1.51,5.86-9.14,8.47-7.41h.03Z" fill="#479c65"/><polygon points="361.11 249.57 361.11 251.6 353.58 251.6 353.58 267.12 350.76 267.12 350.76 251.6 344.17 251.6 344.17 249.57 361.11 249.57" fill="#3b965b"/><rect x="337.59" y="249.57" width="2.82" height="17.55" fill="#3b965b"/><path d="M300.91,172c-.25-.09-.72.09-.94,0-7.65-3.65-8.47-9.64-13.17-14.17l.94-.68c.09.14,1.29.5,1.72,1.1,0,0,11.44,13.74,11.44,13.74Z" fill="#f5f6f9"/><path d="M3194.36,314.32v84.32H4.7v-84.32h3189.65ZM1524.31,370.32h22.1l2.35-8.09c-3.01-.14-1.76,1.98-5.36,2.55-3.01.47-6.55,0-9.66.14,5.11-4.44,16.4-10.83,13.39-17.34-3.83-8.31-21.79-5.74-21.89,2.84,2.04,1.46,1.91-.81,2.76-1.35,2.98-1.89,8.5-2.18,10,.99,3.54,7.55-9.22,14.41-13.7,20.27ZM1576.7,342.82c-13.83,2.03-14.39,29.68,5.36,27.45,14.36-1.62,14.92-30.43-5.36-27.45ZM1608.94,370.32h22.1l2.35-8.09c-3.01-.14-1.76,1.98-5.36,2.55-3.01.47-6.55,0-9.66.14,5.11-4.44,16.4-10.83,13.39-17.34-3.83-8.31-21.79-5.74-21.89,2.84,2.04,1.46,1.91-.81,2.76-1.35,2.98-1.89,8.5-2.18,10,.99,3.54,7.55-9.22,14.41-13.7,20.27ZM1676.63,343.33h-18.81l-5.64,12.82c7.74-1.26,24.61,5.23,17.37,11.44-4.67,4.01-16.71-7.34-17.43-.97-.63,5.43,21.1,5.72,24.08-2.34,3.23-8.78-6.3-13.45-17.43-13.51v-2.03h15.99l1.88-5.41h0Z" fill="#305495"/><path d="M369.57,21.58c-3.23,9.08-12.6,17.36-20.73,24.59-36.18,32.36-92.24,63.65-61.11,110.97l-.94.68c-3.1-3-10.69-6.85-14.58-10.11-63.21-53.15-.75-138.2,97.32-126.15l.03.02Z" fill="#fcfdfd"/><path d="M2801.3,67.45v-28.33c14.77-.7,26.49.86,27.31,13.13.88,13.38-10.91,16.04-27.31,15.2Z" fill="#fcfcfc"/><path d="M996.43,41.37c17.65,11.73,14.08,67.64-23.42,54.91-18.19-6.17-17.06-41.53-7.15-52,6.9-7.25,21.38-9.01,30.54-2.91h.03Z" fill="#fcfcfc"/><path d="M1682.99,37.95c30.01-2.97,29.69,31.91,24.83,45.45-6.87,19.1-35.09,19.75-42.7.74-4.86-12.14-5.86-43.85,17.87-46.19Z" fill="#fcfcfc"/><path d="M1431.22,77.57l12.7-20.92c1.88-.29,1.32.54,1.88,1.33,4.55,6.24,7.62,13.2,11.76,19.59h-26.34Z" fill="#f9fafc"/><path d="M727.82,77.57c2.98-5.86,6.52-11.67,10.19-17.32.56-.88,1.88-3.96,3.45-3.6l11.76,20.92h-25.4Z" fill="#f9fafc"/><path d="M1420.87,199.66v-40.81c25.58-7,42.05,9.35,36.4,26.78-4.14,12.79-19.44,16.82-36.4,14.03Z" fill="#fbfbfc"/><path d="M2428.91,178.09v-20.23c30.38-5.36,29.5,23.18,0,20.23Z" fill="#f9fafc"/><path d="M1649.38,178.09v-20.23c30.38-5.36,29.5,23.18,0,20.23Z" fill="#f9fafc"/><path d="M2212.38,156.67c14.86-1.6,22.2,5.56,24.58,15.09,3.29,13.18-1.69,32.77-26.46,29.1-20.63-3.06-22.42-41.58,1.88-44.21v.02Z" fill="#fcfcfd"/><path d="M2367.55,156.67c14.86-1.6,22.2,5.56,24.58,15.09,3.29,13.18-1.69,32.77-26.46,29.1-20.63-3.06-22.42-41.58,1.88-44.21v.02Z" fill="#fcfcfd"/><path d="M2596.06,156.67c14.86-1.6,22.2,5.56,24.58,15.09,3.29,13.18-1.69,32.77-26.46,29.1-20.63-3.06-22.42-41.58,1.88-44.21v.02Z" fill="#fcfcfd"/><path d="M2299.13,178.76v-20.9c13.39-2.36,21.92,2.5,20.73,12.52-1,8.36-11.04,9.64-20.73,8.4v-.02Z" fill="#f9fafc"/><path d="M1289.22,184.14h-21.63l10.35-18.9c.6-.34,1.72,1.1,2.07,1.55,3.7,4.93,6.84,11.98,9.22,17.34Z" fill="#f9fafc"/><path d="M2754.27,184.14h-21.63l10.35-18.9c.6-.34,1.72,1.1,2.07,1.55,3.7,4.93,6.84,11.98,9.22,17.34h0Z" fill="#f9fafc"/><path d="M334.45,220.14c9.91,7.07-2.41,20.97-16.96,15.2-17.37-6.89,1.82-25.99,16.96-15.2Z" fill="#f9fafc"/><path d="M244.5,230h-10.35c-.94-.65,4.36-8.06,5.17-8.06l5.17,8.06Z" fill="#f5f6f9"/><path d="M492.73,230.02h-10.35c-.94-.65,4.36-8.06,5.17-8.09l5.17,8.09h0Z" fill="#f5f6f9"/><path d="M208.47,251.76c15.02-2.48,16.71,12.59,4.26,13.9-12.45,1.31-15.61-12.03-4.26-13.9Z" fill="#f9fafc"/><path d="M477.55,256.89l-6.46.09v-5.41c5.86-.56,9.37,1.06,6.46,5.29v.02Z" fill="#f9fafc"/><path d="M1576.7,342.82c20.29-2.97,19.72,25.83,5.36,27.45-19.75,2.23-19.19-25.43-5.36-27.45ZM1582.6,367.27v-21.58c0-1.17-3.73-2.91-5.61.7-1.63,3.13-1.76,19.01.85,21.6,1.6,1.6,4.26.52,4.77-.72h0Z" fill="#f5f6f9"/><path d="M1676.63,343.33l-1.88,5.41h-15.99v2.03c11.13.07,20.63,4.73,17.43,13.51-2.95,8.06-24.71,7.77-24.08,2.34.72-6.35,12.76,4.98,17.43.97,7.24-6.22-9.63-12.7-17.37-11.44l5.64-12.82h18.81,0Z" fill="#f5f6f9"/><path d="M1608.94,370.32c4.48-5.86,17.24-12.73,13.7-20.27-1.5-3.18-7.02-2.88-10-.99-.85.54-.72,2.84-2.76,1.35.09-8.58,18.03-11.15,21.89-2.84,2.98,6.49-8.28,12.91-13.39,17.34,3.1-.16,6.65.34,9.66-.14,3.61-.56,2.38-2.68,5.36-2.55l-2.35,8.09h-22.1Z" fill="#f5f6f9"/><path d="M1524.31,370.32c4.48-5.86,17.24-12.73,13.7-20.27-1.51-3.18-7.02-2.88-10-.99-.85.54-.72,2.84-2.76,1.35.09-8.58,18.03-11.15,21.89-2.84,2.98,6.49-8.28,12.91-13.39,17.34,3.1-.16,6.65.34,9.66-.14,3.61-.56,2.38-2.68,5.36-2.55l-2.35,8.09h-22.1Z" fill="#f5f6f9"/><path d="M1582.6,367.27c-.47,1.24-3.17,2.3-4.77.72-2.6-2.59-2.48-18.47-.85-21.6,1.88-3.6,5.61-1.87,5.61-.7v21.58h0Z" fill="#385a99"/></svg>